<svg width="218" height="183" viewBox="0 0 218 183" fill="none" xmlns="http://www.w3.org/2000/svg">
<path d="M60.1155 20.8298H0.865814V108.379H60.1155V20.8298Z" fill="#E0E0E0"/>
<path d="M62.297 20.8298H3.04734V108.379H62.297V20.8298Z" fill="#F0F0F0"/>
<path d="M59.2986 67.1127H5.9276V103.251H59.2986V67.1127Z" fill="#EBEBEB"/>
<path d="M59.2986 24.3861H5.9276V67.1132H59.2986V24.3861Z" fill="white"/>
<path d="M59.2992 24.391H57.4202V103.256H59.2992V24.391Z" fill="#E0E0E0"/>
<path d="M5.76129 67.1185V69.0226H57.6211V67.1185H5.76129Z" fill="#E0E0E0"/>
<path d="M59.2996 63.9144H4.92107V67.1131H59.2996V63.9144Z" fill="#F0F0F0"/>
<path d="M202.788 124.786H130.573C125.1 124.786 120.664 129.222 120.664 134.695V156.189C120.664 161.662 125.1 166.098 130.573 166.098H202.788C208.261 166.098 212.697 161.662 212.697 156.189V134.695C212.697 129.222 208.261 124.786 202.788 124.786Z" fill="#E0E0E0"/>
<path d="M197.938 125.093H125.722C120.25 125.093 115.814 129.53 115.814 135.002V156.496C115.814 161.969 120.25 166.405 125.722 166.405H197.938C203.411 166.405 207.847 161.969 207.847 156.496V135.002C207.847 129.53 203.411 125.093 197.938 125.093Z" fill="#F5F5F5"/>
<path d="M127.496 128.987H196.709C200.528 128.987 203.631 132.09 203.631 135.909V144.402H120.574V135.909C120.574 132.09 123.677 128.987 127.496 128.987Z" fill="#E0E0E0"/>
<path d="M120.574 146.482H203.631V154.975C203.631 158.793 200.528 161.896 196.709 161.896H127.496C123.677 161.896 120.574 158.793 120.574 154.975V146.482Z" fill="#E0E0E0"/>
<path d="M181.289 131.97H166.082V144.498H181.289V131.97Z" fill="#E6E6E6"/>
<path d="M166.081 131.97H162.187V144.498H166.081V131.97Z" fill="#F5F5F5"/>
<path d="M165.417 141.128C165.417 141.833 164.843 142.407 164.137 142.407C163.432 142.407 162.858 141.833 162.858 141.128C162.858 140.423 163.432 139.848 164.137 139.848C164.843 139.848 165.417 140.423 165.417 141.128Z" fill="#E0E0E0"/>
<path d="M185.279 130.035H173.854V144.498H185.279V130.035Z" fill="#E6E6E6"/>
<path d="M173.86 130.035H170.556V144.498H173.86V130.035Z" fill="#F5F5F5"/>
<path d="M172.209 133.274C172.835 133.274 173.342 132.767 173.342 132.141C173.342 131.515 172.835 131.007 172.209 131.007C171.583 131.007 171.075 131.515 171.075 132.141C171.075 132.767 171.583 133.274 172.209 133.274Z" fill="#E0E0E0"/>
<path d="M172.207 133.275C172.833 133.275 173.34 132.767 173.34 132.141C173.34 131.515 172.833 131.008 172.207 131.008C171.581 131.008 171.073 131.515 171.073 132.141C171.073 132.767 171.581 133.275 172.207 133.275Z" fill="#E0E0E0"/>
<path d="M186.851 131.97H177.219V144.498H186.851V131.97Z" fill="#EBEBEB"/>
<path d="M177.22 131.97H175.018V144.498H177.22V131.97Z" fill="#F5F5F5"/>
<path d="M197.737 134.09H185.103V144.502H197.737V134.09Z" fill="#E6E6E6"/>
<path d="M185.103 134.09H181.869V144.502H185.103V134.09Z" fill="#F5F5F5"/>
<path d="M201.045 132.484H191.555V144.498H201.045V132.484Z" fill="#E6E6E6"/>
<path d="M191.566 132.484H188.82V144.498H191.566V132.484Z" fill="#F5F5F5"/>
<path d="M203.576 134.09H194.357V144.502H203.576V134.09Z" fill="#E6E6E6"/>
<path d="M194.351 134.09H192.522V144.502H194.351V134.09Z" fill="#F0F0F0"/>
<path d="M144.939 148.889H133.167V161.417H144.939V148.889Z" fill="#E6E6E6"/>
<path d="M133.172 148.889H130.155V161.417H133.172V148.889Z" fill="#F5F5F5"/>
<path d="M148.023 146.96H139.182V161.423H148.023V146.96Z" fill="#E6E6E6"/>
<path d="M139.188 146.96H136.634V161.423H139.188V146.96Z" fill="#F5F5F5"/>
<path d="M185.098 148.889H173.325V161.417H185.098V148.889Z" fill="#E6E6E6"/>
<path d="M173.33 148.889H170.312V161.417H173.33V148.889Z" fill="#F5F5F5"/>
<path d="M188.18 146.96H179.34V161.423H188.18V146.96Z" fill="#E6E6E6"/>
<path d="M179.349 146.96H176.79V161.423H179.349V146.96Z" fill="#F5F5F5"/>
<path d="M149.247 148.889H141.791V161.417H149.247V148.889Z" fill="#EBEBEB"/>
<path d="M141.792 148.889H140.089V161.417H141.792V148.889Z" fill="#F5F5F5"/>
<path d="M157.67 151.01H147.892V161.423H157.67V151.01Z" fill="#E6E6E6"/>
<path d="M147.891 151.01H145.388V161.423H147.891V151.01Z" fill="#F5F5F5"/>
<path d="M160.233 149.403H152.888V161.417H160.233V149.403Z" fill="#E6E6E6"/>
<path d="M152.893 149.403H150.767V161.417H152.893V149.403Z" fill="#F5F5F5"/>
<path d="M162.192 151.01H155.055V161.423H162.192V151.01Z" fill="#E6E6E6"/>
<path d="M155.05 151.01H153.634V161.423H155.05V151.01Z" fill="#F0F0F0"/>
<path d="M153.565 112.778C153.313 112.284 152.743 111.997 152.22 112.108C151.696 112.218 151.273 112.712 151.217 113.266C150.849 112.989 150.325 112.979 149.943 113.231C149.56 113.488 149.348 113.997 149.429 114.465C149.016 114.133 148.336 114.269 148.069 114.742C147.802 115.216 148.008 115.916 148.487 116.143C148.164 116.168 147.887 116.49 147.892 116.833C147.902 117.175 148.195 117.482 148.517 117.488C148.19 117.493 147.887 117.785 147.847 118.127C147.807 118.47 148.033 118.827 148.351 118.918C148.018 119.064 147.933 119.613 148.205 119.865C148.477 120.117 148.981 119.956 149.076 119.588C149.127 119.694 149.283 119.719 149.363 119.633C149.439 119.548 149.414 119.382 149.308 119.331C149.459 119.543 149.842 119.447 149.882 119.185C149.771 119.79 150.492 120.359 151.006 120.072C150.854 120.324 151.066 120.676 151.338 120.757C151.61 120.837 151.897 120.727 152.149 120.601C152.406 120.475 152.663 120.329 152.945 120.334C153.192 120.334 153.423 120.455 153.655 120.53C154.406 120.772 155.272 120.54 155.826 119.956C156.214 120.48 157.141 120.339 157.373 119.719C157.433 120.016 157.695 120.253 157.982 120.268C158.269 120.283 158.557 120.082 158.647 119.795C158.652 119.926 158.657 120.057 158.667 120.193C159.206 120.319 159.74 119.623 159.509 119.089C159.896 119.094 160.259 118.762 160.31 118.359C160.36 117.956 160.088 117.533 159.715 117.437C160.35 117.261 160.833 116.601 160.844 115.906C160.849 115.211 160.38 114.541 159.745 114.349C159.499 114.274 159.206 114.274 159.005 114.45C158.808 114.626 158.778 115.009 159.005 115.15C159.196 114.526 158.914 113.78 158.365 113.468C157.821 113.155 157.076 113.317 156.688 113.825C156.874 113.558 156.879 113.165 156.698 112.898C156.511 112.631 156.159 112.511 155.862 112.616C155.786 112.188 155.363 111.866 154.955 111.926C154.547 111.987 154.229 112.43 154.275 112.858C154.229 112.495 153.665 112.39 153.504 112.712C153.277 112.647 153.57 112.768 153.57 112.768L153.565 112.778Z" fill="#EBEBEB"/>
<path d="M153.716 116.797C153.549 116.682 153.338 116.621 153.141 116.661C152.945 116.702 152.764 116.853 152.723 117.054C152.683 117.251 152.804 117.482 153.005 117.528C153.247 117.588 153.484 117.387 153.731 117.422C153.816 117.432 153.897 117.477 153.983 117.498C154.335 117.593 154.683 117.362 154.975 117.145C155.076 117.069 155.181 116.989 155.252 116.883C155.323 116.777 155.348 116.631 155.282 116.52C155.192 116.364 154.98 116.344 154.804 116.364C154.451 116.404 154.103 116.546 153.826 116.772C153.836 116.717 153.847 116.661 153.852 116.606L153.721 116.802L153.716 116.797Z" fill="#FAFAFA"/>
<path d="M158.818 116.496C158.723 116.43 158.627 116.36 158.511 116.334C158.4 116.309 158.264 116.334 158.194 116.425C158.098 116.551 158.158 116.748 158.284 116.848C158.41 116.949 158.577 116.974 158.733 116.999C158.894 117.025 159.1 117.03 159.181 116.889C159.241 116.783 159.191 116.647 159.105 116.566C159.02 116.486 158.899 116.445 158.788 116.41L158.823 116.501L158.818 116.496Z" fill="#FAFAFA"/>
<path d="M150.754 113.841C150.427 113.977 150.18 114.279 150.104 114.621C150.079 114.727 150.084 114.858 150.175 114.909C150.24 114.949 150.321 114.934 150.396 114.914C150.709 114.838 151.021 114.768 151.333 114.692C151.182 114.747 151.031 114.808 150.91 114.914C150.789 115.019 150.709 115.186 150.749 115.342C150.794 115.523 150.996 115.634 151.182 115.634C151.369 115.634 151.545 115.538 151.696 115.427C151.857 115.312 152.018 115.15 152.018 114.949C152.018 114.747 151.772 114.561 151.615 114.692C151.973 114.596 152.311 114.44 152.618 114.234C152.729 114.158 152.84 114.077 152.91 113.962C152.981 113.846 153.006 113.7 152.94 113.579C152.623 112.999 152.215 113.851 152.018 113.926C151.646 114.072 151.228 113.639 150.754 113.836V113.841Z" fill="#FAFAFA"/>
<path d="M149.303 116.319C149.268 116.435 149.293 116.571 149.384 116.642C149.474 116.717 149.641 116.692 149.681 116.581C149.474 116.647 149.248 116.722 149.122 116.898C148.991 117.075 149.026 117.382 149.233 117.448C149.364 117.488 149.5 117.427 149.621 117.362C149.958 117.176 150.28 116.964 150.588 116.727C150.497 116.939 150.719 117.186 150.95 117.206C151.182 117.226 151.399 117.1 151.6 116.979C151.847 116.833 152.124 116.601 152.059 116.324C152.003 116.082 151.691 115.977 151.454 116.047C151.217 116.118 151.036 116.309 150.87 116.495C151.001 116.304 150.814 116.022 150.588 115.992C150.366 115.962 150.144 116.098 150.003 116.264C150.265 116.123 150.321 115.75 149.973 115.705C149.746 115.674 149.364 116.138 149.308 116.324L149.303 116.319Z" fill="#FAFAFA"/>
<path d="M156.437 115.483C156.24 115.407 155.994 115.538 155.943 115.74C155.893 115.941 156.044 116.173 156.25 116.208C156.099 116.223 155.953 116.299 155.853 116.415C155.797 116.48 155.757 116.566 155.767 116.647C155.787 116.773 155.918 116.853 156.044 116.858C156.17 116.858 156.291 116.808 156.407 116.757C156.281 116.767 156.15 116.783 156.049 116.863C155.948 116.939 155.908 117.105 155.994 117.191C156.069 117.266 156.19 117.251 156.291 117.226C156.517 117.16 156.729 117.045 156.905 116.883C157.036 117.024 157.228 117.13 157.419 117.1C157.611 117.07 157.772 116.863 157.711 116.682C157.671 116.551 157.53 116.47 157.394 116.45C157.258 116.435 157.122 116.47 156.986 116.516C157.122 116.42 157.263 116.314 157.313 116.158C157.364 116.002 157.258 115.79 157.092 115.8C156.905 115.815 156.815 116.067 156.669 116.158C156.487 115.992 156.825 115.639 156.432 115.488L156.437 115.483Z" fill="#FAFAFA"/>
<path d="M153.108 114.712C152.896 114.853 152.825 115.135 152.841 115.387C152.856 115.669 152.982 115.967 153.239 116.077C153.576 116.224 153.999 115.946 154.06 115.579C154.12 115.211 153.883 114.843 153.556 114.677C153.556 114.677 153.314 114.566 153.108 114.707V114.712Z" fill="#FAFAFA"/>
<path d="M155.464 114.415C155.494 114.44 155.524 114.465 155.549 114.49C155.408 114.309 155.106 114.284 154.935 114.44C154.764 114.596 154.764 114.898 154.935 115.059C155.106 115.221 155.408 115.195 155.549 115.014C155.791 115.125 156.114 115.085 156.285 114.878C156.456 114.671 156.416 114.309 156.184 114.178C155.952 114.047 155.595 114.243 155.62 114.51C155.585 114.475 155.554 114.435 155.519 114.399L155.464 114.415Z" fill="#FAFAFA"/>
<path d="M158.068 114.833C157.902 114.999 157.725 115.17 157.665 115.397C157.605 115.624 157.705 115.911 157.932 115.971C158.159 116.027 158.37 115.84 158.501 115.649C158.617 115.473 158.708 115.256 158.637 115.054C158.567 114.853 158.285 114.737 158.138 114.888L158.063 114.828L158.068 114.833Z" fill="#FAFAFA"/>
<path d="M154.315 113.468C154.23 113.277 153.963 113.211 153.786 113.322C153.61 113.433 153.545 113.68 153.62 113.871C153.696 114.063 153.897 114.193 154.104 114.219C154.361 114.249 154.663 114.042 154.602 113.79C154.713 113.937 154.91 113.992 155.091 113.977C155.272 113.957 155.444 113.876 155.6 113.785C155.816 113.66 156.043 113.473 156.023 113.226C156.003 113.03 155.816 112.879 155.62 112.859C155.424 112.838 155.232 112.934 155.081 113.06C154.965 113.161 154.864 113.287 154.738 113.372C154.613 113.463 154.436 113.508 154.3 113.433L154.32 113.468H154.315Z" fill="#FAFAFA"/>
<path d="M157.518 124.922H151.065L150.435 118.418H158.148L157.518 124.922Z" fill="#F0F0F0"/>
<path d="M158.647 118.756H149.871L149.715 117.89H158.808L158.647 118.756Z" fill="#FAFAFA"/>
<path d="M150.82 144.487H143.415L145.737 137.011L146.075 135.918H147.752L150.82 144.487Z" fill="#EBEBEB"/>
<path d="M146.075 135.918L145.737 137.011L143.415 144.487L136.569 144.386L134.368 137.011L134.03 135.918H146.075Z" fill="#E0E0E0"/>
<path d="M146.074 135.918L145.737 137.011L143.414 144.487L129.355 144.275L132.352 135.918H146.074Z" fill="#FAFAFA"/>
<path d="M146.074 135.918L145.736 137.011H131.964L132.352 135.918H146.074Z" fill="#EBEBEB"/>
<path d="M134.08 140.563H130.993L132.071 137.52L135.022 137.556L134.08 140.563ZM131.35 140.311H133.894L134.68 137.802L132.247 137.777L131.35 140.311Z" fill="#EBEBEB"/>
<path d="M137.537 140.563H134.449L135.527 137.52L138.479 137.556L137.537 140.563ZM134.801 140.311H137.345L138.131 137.802L135.698 137.777L134.801 140.311Z" fill="#EBEBEB"/>
<path d="M140.987 140.563H137.899L138.977 137.52L141.929 137.556L140.987 140.563ZM138.257 140.311H140.801L141.587 137.802L139.153 137.777L138.257 140.311Z" fill="#EBEBEB"/>
<path d="M144.443 140.563H141.355L142.433 137.52L145.385 137.556L144.443 140.563ZM141.713 140.311H144.257L145.042 137.802L142.609 137.777L141.713 140.311Z" fill="#EBEBEB"/>
<path d="M133.002 143.787H129.914L130.992 140.744L133.944 140.779L133.002 143.787ZM130.272 143.535H132.816L133.602 141.026L131.169 141.001L130.272 143.535Z" fill="#EBEBEB"/>
<path d="M136.458 143.787H133.37L134.448 140.744L137.4 140.779L136.458 143.787ZM133.728 143.535H136.272L137.058 141.026L134.625 141.001L133.728 143.535Z" fill="#EBEBEB"/>
<path d="M139.908 143.787H136.82L137.898 140.744L140.85 140.779L139.908 143.787ZM137.177 143.535H139.721L140.507 141.026L138.074 141.001L137.177 143.535Z" fill="#EBEBEB"/>
<path d="M143.365 143.787H140.277L141.355 140.744L144.307 140.779L143.365 143.787ZM140.634 143.535H143.178L143.964 141.026L141.531 141.001L140.634 143.535Z" fill="#EBEBEB"/>
<path d="M190.217 120.887C190.217 122.474 190.463 123.501 190.887 124.161C191.204 124.655 191.768 124.937 192.358 124.937H194.655C195.244 124.937 195.808 124.66 196.125 124.161C196.544 123.501 196.795 122.474 196.795 120.887C196.795 118.585 195.793 116.741 195.466 115.27C195.35 114.741 195.743 113.114 195.743 113.114H191.28C191.28 113.114 191.672 114.736 191.557 115.27C191.229 116.741 190.227 118.585 190.227 120.887H190.217Z" fill="#F0F0F0"/>
<path d="M194.991 102.001C194.991 102.001 194.241 102.187 193.803 102.772C193.364 103.356 194.12 104.731 194.12 104.731C194.12 104.731 194.835 105.462 195.722 105.245L196.608 105.028C196.608 105.028 195.666 102.333 194.991 102.182V102.006V102.001Z" fill="#EBEBEB"/>
<path d="M198.498 102.645C198.383 103.814 197.39 105.134 196.347 105.028C195.305 104.922 194.594 103.436 194.715 102.262C194.831 101.094 195.683 101.139 196.73 101.24C197.773 101.346 198.619 101.472 198.498 102.64V102.645Z" fill="#EBEBEB"/>
<path d="M195.552 101.733C195.552 101.733 196.222 102.509 197.909 102.449C197.909 102.449 195.033 103.668 195.552 101.733Z" fill="#EBEBEB"/>
<path d="M196.287 101.638C196.287 101.638 197.224 101.653 197.164 102.031C197.164 102.031 197.94 102.131 197.894 101.794C197.849 101.451 196.287 101.638 196.287 101.638Z" fill="#EBEBEB"/>
<path d="M195.552 101.733C195.552 101.733 196.222 102.509 197.909 102.449C197.909 102.449 195.033 103.668 195.552 101.733Z" fill="#E0E0E0"/>
<path d="M196.287 101.638C196.287 101.638 197.224 101.653 197.164 102.031C197.164 102.031 197.94 102.131 197.894 101.794C197.849 101.451 196.287 101.638 196.287 101.638Z" fill="#E0E0E0"/>
<path d="M194.554 105.064C194.78 105.658 195.395 106.056 196.03 106.096C196.664 106.142 197.294 105.86 197.747 105.416C198.201 104.973 198.488 104.379 198.644 103.764C198.684 103.603 198.775 103.205 198.573 103.104C198.387 103.009 198.216 103.26 198.105 103.371C197.778 103.689 197.435 103.976 197.047 104.218C196.669 104.454 196.266 104.646 195.848 104.787C195.732 104.827 194.594 105.17 194.554 105.064Z" fill="#EBEBEB"/>
<path d="M199.399 103.598C199.505 104.102 199.328 104.656 198.946 105.004C198.694 105.23 198.376 105.366 198.059 105.487C197.837 105.568 197.56 105.633 197.394 105.472C197.213 105.296 197.288 104.993 197.384 104.757C197.53 104.394 197.686 104.036 197.847 103.679C197.983 103.387 198.124 102.888 198.356 102.661C198.573 102.45 198.784 102.641 199.001 102.863C199.197 103.064 199.344 103.321 199.399 103.598Z" fill="#EBEBEB"/>
<path d="M194.936 104.474C194.543 104.383 194.216 104.041 194.145 103.643C194.09 103.351 194.226 102.655 194.594 102.635C194.634 103.28 194.664 103.869 194.936 104.474Z" fill="#E0E0E0"/>
<path d="M197.772 104.681C198.165 104.646 198.538 104.399 198.724 104.046C198.825 103.85 198.946 102.782 198.548 103.17C198.417 103.296 198.351 103.759 198.26 103.935C198.13 104.202 197.963 104.454 197.772 104.681Z" fill="#E0E0E0"/>
<path d="M196.216 105.059C196.458 105.361 196.921 105.462 197.269 105.286C197.193 105.482 196.518 105.532 196.307 105.553C195.758 105.608 195.531 105.326 195.068 105.024C195.068 105.024 195.838 105.296 196.216 105.059Z" fill="#E0E0E0"/>
<path d="M192.886 123.672L194.176 110.661L195.884 106.046L196.176 106.152L194.478 110.751L193.133 124.025L192.886 123.672Z" fill="#E6E6E6"/>
<path d="M194.47 110.635L194.188 110.776C194.002 110.409 193.86 109.95 193.694 109.416C193.437 108.59 193.15 107.658 192.611 106.777L192.878 106.61C193.442 107.527 193.735 108.479 193.996 109.321C194.158 109.839 194.299 110.288 194.47 110.63V110.635Z" fill="#E6E6E6"/>
<path d="M195.164 108.928C195.602 108.898 196.025 108.701 196.333 108.389C196.685 108.036 196.872 107.553 197.053 107.089C196.479 107.15 195.95 106.777 195.376 106.737C194.917 106.701 194.449 106.898 194.151 107.245C193.764 107.694 193.537 108.243 193.748 108.525C193.925 108.757 194.575 108.973 195.159 108.933L195.164 108.928Z" fill="#F0F0F0"/>
<path d="M190.555 107.522C190.978 107.17 191.885 107.029 192.394 107.225C192.908 107.422 193.291 107.875 193.396 108.343C193.19 108.656 192.782 108.772 192.409 108.731C192.041 108.691 191.704 108.515 191.371 108.338C191.044 108.167 190.701 107.991 190.334 107.945L190.55 107.517L190.555 107.522Z" fill="#F0F0F0"/>
<path d="M193.397 107.769C192.652 107.855 191.982 108.001 191.302 107.149C190.848 106.58 190.994 105.719 191.025 105.039C191.675 105.18 193.14 105.895 193.468 106.071C193.795 106.248 194.072 106.53 194.123 106.867C194.178 107.205 193.946 107.577 193.579 107.643C193.569 107.623 193.392 107.769 193.392 107.769H193.397Z" fill="#F0F0F0"/>
<path d="M191.259 117.889C190.961 118.735 190.674 119.657 190.77 120.559C190.79 120.73 190.84 120.927 190.966 120.957C191.082 120.987 191.193 120.846 191.238 120.69C191.279 120.534 191.269 120.368 191.269 120.206C191.269 118.811 192.024 117.637 192.17 116.272C192.211 115.884 192.11 114.665 191.883 115.562C191.682 116.363 191.536 117.108 191.259 117.894V117.889Z" fill="#FAFAFA"/>
<path d="M85.7194 145.605C85.7194 145.605 87.1853 129.38 80.7374 121.466C74.2896 113.552 85.7698 120.756 87.8049 128.649C87.8049 128.649 88.1877 114.056 81.7499 104.596C75.3172 95.1358 86.2836 102.218 88.1927 112.53C88.1927 112.53 88.5554 99.5082 85.3416 92.602C82.1277 85.6957 86.9233 89.8062 89.039 94.1233C91.1598 98.4403 90.1019 109.89 90.1019 109.89C90.1019 109.89 92.3536 88.6829 96.6304 89.8314C100.907 90.9799 92.0212 105.77 91.3109 112.993C91.3109 112.993 95.1997 102.919 99.0735 104.45C102.947 105.981 93.6785 108.097 90.8172 122.761L89.981 129.576C89.981 129.576 93.4971 119.673 96.711 122.277C99.9248 124.876 88.8778 131.375 87.6235 145.887L85.7144 145.605H85.7194Z" fill="#EBEBEB"/>
<path d="M86.4141 146.447C86.4141 146.447 85.0389 126.383 93.2095 116.822C101.375 107.266 87.0185 115.784 84.2984 125.456C84.2984 125.456 84.2178 107.437 92.4136 95.972C100.604 84.5069 86.8825 92.8891 84.248 105.558C84.248 105.558 84.1472 89.4788 88.298 81.0614C92.4488 72.6439 86.4241 77.5604 83.6939 82.8194C80.9636 88.0784 81.956 102.238 81.956 102.238C81.956 102.238 79.7446 75.9988 74.4352 77.2783C69.1308 78.5578 79.6942 97.0953 80.3793 106.027C80.3793 106.027 75.8507 93.4735 71.0299 95.2365C66.2091 96.9996 77.5886 99.9062 80.7269 118.096L81.5782 126.534C81.5782 126.534 77.508 114.202 73.473 117.31C69.4381 120.418 82.8929 128.785 84.0515 146.734L86.4141 146.447Z" fill="#F0F0F0"/>
<path d="M99.1036 156.451C99.1036 161.957 93.1343 166.425 85.7696 166.425C78.405 166.425 72.4306 161.957 72.4306 156.451C72.4306 153.968 73.6396 151.706 75.6445 149.963L74.0678 143.289H97.4664L95.8897 149.963C97.8946 151.706 99.1036 153.968 99.1036 156.451Z" fill="#EBEBEB"/>
<path d="M106.182 16.3564C98.8574 24.4918 95.2305 35.574 95.8501 46.5051C96.4697 57.4363 100.5 67.9039 105.406 77.6916C109.703 86.2652 114.836 95.9873 111.32 104.909C109.355 109.896 104.877 113.588 99.9253 115.643C94.9736 117.698 89.5433 118.293 84.1886 118.56C75.0608 119.018 65.7971 118.6 56.9162 120.741C48.0353 122.882 39.2904 128.171 35.8549 136.639C31.8099 146.618 36.404 158.557 44.5041 165.644C52.6092 172.732 63.4799 175.774 74.144 177.281C89.0849 179.386 104.393 178.857 119.153 175.729C131.006 173.215 142.667 168.939 152.339 161.639C162.006 154.34 169.552 143.782 171.622 131.843C173.693 119.905 169.678 106.702 160.218 99.1357C156.284 95.9873 151.538 93.8364 148.088 90.1641C144.637 86.4919 142.884 80.3765 146.088 76.4876C148.204 73.9186 151.77 73.1327 155.075 72.7348C171.33 70.7954 189.339 74.1452 202.935 65.0225C210.717 59.7988 215.755 50.8927 216.863 41.5836C217.971 32.2746 215.961 22.1998 210.098 14.8855C194.119 -5.03228 125.762 -5.38993 106.187 16.3514L106.182 16.3564Z" fill="#407BFF"/>
<g opacity="0.9">
<path d="M106.182 16.3563C98.8576 24.4917 95.2307 35.5739 95.8503 46.505C96.4699 57.4361 100.5 67.9038 105.406 77.6914C109.703 86.265 114.836 95.9872 111.32 104.908C109.355 109.895 104.877 113.588 99.9255 115.643C94.9738 117.698 89.5435 118.293 84.1887 118.56C75.061 119.018 65.7973 118.6 56.9164 120.741C48.0355 122.882 39.2906 128.171 35.8551 136.639C31.8101 146.618 36.4042 158.556 44.5043 165.644C52.6094 172.732 63.4801 175.774 74.1442 177.28C89.0851 179.386 104.394 178.857 119.153 175.729C131.006 173.215 142.668 168.939 152.339 161.639C162.006 154.34 169.552 143.782 171.623 131.843C173.693 119.905 169.678 106.702 160.218 99.1355C156.284 95.9872 151.538 93.8362 148.088 90.164C144.637 86.4917 142.884 80.3763 146.088 76.4875C148.204 73.9184 151.77 73.1326 155.075 72.7346C171.33 70.7953 189.339 74.1451 202.935 65.0224C210.718 59.7987 215.755 50.8926 216.863 41.5835C217.971 32.2744 215.962 22.1997 210.098 14.8854C194.119 -5.03241 125.762 -5.39006 106.187 16.3513L106.182 16.3563Z" fill="white"/>
</g>
<path d="M99.9762 102.359L101.235 95.0906L103.709 95.8109L99.9762 102.359Z" fill="#407BFF"/>
<path d="M100.808 104.682L107.89 102.637L106.908 100.254L100.808 104.682Z" fill="#407BFF"/>
<path d="M102.067 101.952L106.102 94.32L108.817 96.209L102.067 101.952Z" fill="#407BFF"/>
<path d="M35.4068 113.396H32.2181C32.0771 113.396 31.9662 113.285 31.9662 113.144C31.9662 113.003 32.0771 112.893 32.2181 112.893H35.4068C35.5478 112.893 35.6586 113.003 35.6586 113.144C35.6586 113.285 35.5478 113.396 35.4068 113.396Z" fill="#407BFF"/>
<path d="M30.0976 113.397H14.119C13.978 113.397 13.8672 113.286 13.8672 113.145C13.8672 113.004 13.978 112.893 14.119 112.893H30.0976C30.2386 112.893 30.3495 113.004 30.3495 113.145C30.3495 113.286 30.2386 113.397 30.0976 113.397Z" fill="#407BFF"/>
<path d="M86.7665 142.543C86.7061 142.543 86.6456 142.523 86.5953 142.478C86.4945 142.382 86.4844 142.226 86.5801 142.12L88.0712 140.498C88.1669 140.397 88.3231 140.392 88.4289 140.483C88.5296 140.578 88.5397 140.735 88.444 140.84L86.9529 142.462C86.9025 142.518 86.8371 142.543 86.7665 142.543Z" fill="#407BFF"/>
<path d="M73.1108 155.454C73.0201 155.454 72.9295 155.404 72.8841 155.318C72.8237 155.192 72.869 155.041 72.9949 154.981C77.6646 152.618 85.0595 143.782 85.135 143.692C85.2257 143.586 85.3819 143.571 85.4876 143.662C85.5934 143.752 85.6085 143.908 85.5179 144.014C85.2106 144.382 77.9769 153.016 73.2166 155.429C73.1813 155.449 73.141 155.454 73.1007 155.454H73.1108Z" fill="#407BFF"/>
<path d="M109.36 152.692L112.957 149.715L103.9 141.122L100.036 144.421L109.36 152.692Z" fill="#CB7A63"/>
<path d="M115.868 148.572C115.627 148.421 115.133 148.491 114.624 148.632C114.382 148.703 114.13 148.783 113.909 148.864C113.733 148.929 113.571 148.995 113.435 149.05C113.234 149.136 113.088 149.201 113.037 149.226C112.992 149.237 112.962 149.282 112.957 149.332C112.957 149.347 112.957 149.368 112.972 149.383C112.987 149.408 113.012 149.428 113.042 149.433C113.551 149.569 114.075 149.655 114.604 149.695C114.861 149.73 115.128 149.71 115.375 149.64C115.39 149.64 115.4 149.635 115.41 149.629C115.551 149.584 115.692 149.524 115.818 149.448C115.984 149.312 116.075 149.106 116.055 148.889C116.055 148.758 115.984 148.637 115.868 148.567V148.572ZM115.818 148.899C115.843 149.045 115.778 149.191 115.657 149.277C115.561 149.357 115.425 149.408 115.249 149.443C115.078 149.478 114.871 149.488 114.634 149.473C114.357 149.463 114.035 149.418 113.677 149.352C113.602 149.337 113.521 149.322 113.44 149.307C113.869 149.101 114.317 148.944 114.78 148.839C115.027 148.783 115.274 148.743 115.526 148.718C115.601 148.718 115.672 148.733 115.737 148.768C115.783 148.798 115.813 148.844 115.808 148.899H115.818Z" fill="#407BFF"/>
<path d="M114.221 146.678C113.99 146.713 113.778 146.854 113.647 147.045C113.607 147.106 113.572 147.166 113.546 147.237C113.244 147.887 113.4 148.869 113.436 149.05C113.436 149.065 113.436 149.07 113.441 149.075C113.446 149.116 113.476 149.151 113.516 149.161C113.536 149.171 113.562 149.176 113.587 149.166C113.602 149.166 113.617 149.156 113.632 149.141C113.718 149.07 113.808 148.975 113.909 148.859C114.055 148.687 114.206 148.481 114.337 148.254C114.65 147.746 114.871 147.171 114.735 146.874C114.68 146.748 114.549 146.617 114.221 146.668V146.678ZM114.524 146.975C114.609 147.171 114.443 147.62 114.186 148.063C114.02 148.345 113.829 148.617 113.637 148.818C113.597 148.501 113.557 147.897 113.713 147.448C113.743 147.348 113.788 147.252 113.844 147.176C113.929 147.055 114.05 146.96 114.191 146.919L114.262 146.909C114.473 146.869 114.514 146.95 114.524 146.975Z" fill="#407BFF"/>
<path d="M112.488 149.503L107.975 151.78C107.798 151.866 107.708 152.067 107.763 152.254L109.093 156.475C109.239 156.888 109.693 157.105 110.111 156.958C110.136 156.948 110.166 156.938 110.191 156.923C117.924 154.208 120.291 152.284 121.102 151.846C123.404 150.591 122.11 148.959 121.253 149.161C117.4 150.082 116.105 149.846 114.438 149.412C113.556 149.271 112.77 149.357 112.498 149.493L112.488 149.503Z" fill="#263238"/>
<path opacity="0.2" d="M103.9 141.126L108.489 145.192L104.62 148.491L100.036 144.426L103.9 141.126Z" fill="black"/>
<path d="M102.474 148.461L108.241 143.142L106.972 140.91L100.302 146.637L102.474 148.461Z" fill="#407BFF"/>
<path opacity="0.5" d="M102.474 148.461L108.241 143.142L106.972 140.91L100.302 146.637L102.474 148.461Z" fill="white"/>
<path d="M106.064 141.69L105.293 142.355L104.14 143.348L103.449 143.932L101.44 145.66L101.052 145.987C101.052 145.987 92.8357 141.358 88.2617 137.404C85.1285 134.694 84.8464 133.686 84.519 133.938C80.1012 137.298 67.0241 148.914 59.6141 154.959C59.3724 154.984 59.1356 155.009 58.8888 155.024C54.9294 155.317 51.8163 154.878 49.3983 153.957C49.3732 150.743 52.1236 143.237 52.3503 142.512C52.3503 142.512 63.2864 131.641 81.0029 122.453C81.1792 122.362 81.3605 122.292 81.5368 122.216C81.7685 122.115 81.9952 122.02 82.232 121.934C83.1589 121.581 84.0656 121.365 84.9471 121.319C85.738 121.279 86.5087 121.42 87.2492 121.682C87.6673 121.828 88.0804 122.009 88.4783 122.221C88.8309 122.397 89.1735 122.604 89.506 122.815C90.055 123.163 90.584 123.551 91.0827 123.934C92.211 124.805 100.77 135.832 105.374 140.92C105.615 141.187 105.842 141.439 106.059 141.665L106.064 141.69Z" fill="#407BFF"/>
<g opacity="0.1">
<path d="M106.064 141.69L105.293 142.355L104.139 143.348L103.449 143.932L101.439 145.66L101.051 145.987C101.051 145.987 92.8354 141.358 88.2615 137.404C85.1282 134.693 84.8461 133.686 84.5187 133.938C80.1009 137.298 67.0239 148.914 59.6139 154.959C59.3721 154.984 59.1353 155.009 58.8885 155.024C54.9291 155.316 51.816 154.878 49.3981 153.956C49.3729 150.743 52.1233 143.237 52.35 142.511C52.35 142.511 63.2861 131.641 81.0026 122.453C81.1789 122.362 81.3602 122.291 81.5366 122.216C81.7683 122.115 81.995 122.019 82.2317 121.934C83.1586 121.581 84.0653 121.365 84.9469 121.319C85.7377 121.279 86.5084 121.42 87.2489 121.682C87.667 121.828 88.0801 122.009 88.4781 122.221C88.8307 122.397 89.1732 122.604 89.5057 122.815C90.0548 123.163 90.5837 123.551 91.0824 123.934C92.2108 124.805 100.769 135.832 105.373 140.92C105.615 141.187 105.842 141.438 106.059 141.665L106.064 141.69Z" fill="black"/>
</g>
<path d="M47.7086 95.2864C48.3987 98.4247 49.1241 103.004 46.9731 105.155C49.6429 109.86 52.8517 114.237 56.5341 118.201C61.2541 109.996 56.7809 104.923 56.7809 104.923C53.2447 104.167 53.3001 102.742 53.8542 100.283L47.7086 95.2813V95.2864Z" fill="#CB7A63"/>
<path d="M44.7869 105.553C45.0489 104.701 45.5879 103.966 46.3183 103.457C47.0235 102.913 54.3579 102.832 56.2621 103.457C57.3753 103.81 58.3224 104.555 58.9268 105.558L44.7819 105.547L44.7869 105.553Z" fill="#407BFF"/>
<path d="M78.6222 118.045L80.5213 117.179L80.617 120.272C80.617 120.272 79.7304 121.062 78.7582 121.365C77.8263 121.652 76.9397 120.796 77.1714 119.848C77.3628 119.063 77.8968 118.398 78.6272 118.045H78.6222Z" fill="#CB7A63"/>
<path d="M82.9435 118.055L82.8427 119.189C82.8175 119.541 82.5606 119.833 82.2181 119.909L80.5961 120.272L80.5003 117.179L82.1476 117.204C82.5858 117.199 82.9384 117.546 82.9435 117.985C82.9435 118.01 82.9435 118.03 82.9435 118.055Z" fill="#CB7A63"/>
<path d="M54.5384 126.845C57.3896 128.25 60.8855 129.056 64.316 128.477C68.356 127.797 75.3932 123.742 78.4559 121.415L77.4233 119.878C75.8969 120.206 63.4244 126.543 55.3646 120.81C53.8634 119.742 47.9697 115.345 45.8842 115.435C42.5041 115.586 42.7963 119.128 44.2471 120.599C45.9447 122.321 52.2011 125.691 54.5334 126.84L54.5384 126.845Z" fill="#CB7A63"/>
<g opacity="0.2">
<path d="M82.8439 119.188C82.8137 119.536 82.5618 119.833 82.2193 119.909L80.6073 120.271C80.6073 120.271 79.7207 121.067 78.7535 121.369C78.6528 121.4 78.552 121.42 78.4563 121.42C75.3936 123.752 68.3614 127.797 64.3214 128.482C60.891 129.056 57.3951 128.255 54.5439 126.845C52.2116 125.697 45.9501 122.326 44.2525 120.604C42.8018 119.128 42.5096 115.592 45.8897 115.435C47.9701 115.345 53.8689 119.742 55.37 120.81C63.0571 126.276 74.7539 120.765 77.1466 119.959C77.1516 119.924 77.1567 119.883 77.1668 119.848C77.2625 119.455 77.4388 119.093 77.6906 118.78C77.9324 118.473 78.2548 118.216 78.6175 118.04L80.4965 117.183H80.5166L82.1487 117.198C82.5819 117.198 82.9396 117.546 82.9396 117.984C82.9396 118.004 82.9396 118.025 82.9396 118.05L82.8439 119.183V119.188Z" fill="black"/>
<path d="M80.518 117.178L80.5017 117.184V117.178H80.518Z" fill="black"/>
</g>
<path d="M65.1028 110.615C69.3795 120.04 59.4609 122.73 64.0046 138.184L42.4447 138.703C42.5907 130.422 45.5326 132.2 41.6538 116.629C41.3264 115.31 40.7773 111.526 42.1827 108.081C42.7318 106.741 43.704 105.603 44.9785 104.912C46.5703 104.051 53.5823 104.726 56.781 104.938C60.2468 104.449 64.4681 109.431 65.1028 110.615Z" fill="#407BFF"/>
<path opacity="0.5" d="M65.1028 110.615C69.3795 120.04 59.4609 122.73 64.0046 138.184L42.4447 138.703C42.5907 130.422 45.5326 132.2 41.6538 116.629C41.3264 115.31 40.7773 111.526 42.1827 108.081C42.7318 106.741 43.704 105.603 44.9785 104.912C46.5703 104.051 53.5823 104.726 56.781 104.938C60.2468 104.449 64.4681 109.431 65.1028 110.615Z" fill="white"/>
<path d="M60.9819 91.916C60.9214 92.3291 61.0877 92.6666 61.3446 92.7019C61.6015 92.7371 61.8634 92.45 61.9188 92.0521C61.9793 91.6541 61.813 91.3015 61.5561 91.2662C61.2992 91.231 61.0373 91.5231 60.9819 91.916Z" fill="#263238"/>
<path d="M61.4403 91.2762L62.4276 91.1402C62.4276 91.1402 61.8332 91.8152 61.4403 91.2762Z" fill="#263238"/>
<path d="M61.0474 92.4599C61.0474 92.4599 61.4705 94.2633 62.0951 95.1852C61.5007 95.5982 60.6444 95.2456 60.6444 95.2456L61.0474 92.4599Z" fill="#A02724"/>
<path d="M62.4075 89.1455C62.483 89.1153 62.5384 89.0448 62.5535 88.9642C62.5737 88.8332 62.483 88.7173 62.3571 88.6972C61.6116 88.5662 60.8459 88.808 60.3119 89.342C60.2162 89.4327 60.2112 89.5787 60.2968 89.6745C60.3875 89.7702 60.5336 89.7752 60.6293 89.6896C60.6393 89.6795 60.6494 89.6694 60.6595 89.6543C61.0927 89.2412 61.6972 89.0599 62.2866 89.1657C62.3269 89.1707 62.3722 89.1657 62.4075 89.1506V89.1455Z" fill="#263238"/>
<path d="M47.9358 88.657C47.5278 93.5684 47.2508 95.6337 49.3463 98.4899C52.4997 102.787 58.6252 102.223 60.484 97.5278C62.1664 93.3065 62.5543 85.9872 58.0711 83.3576C54.8774 81.4636 50.7568 82.5164 48.8577 85.7051C48.3237 86.6017 48.0064 87.6142 47.9358 88.6519V88.657Z" fill="#CB7A63"/>
<path d="M60.5939 97.2305C60.2211 96.9182 59.939 96.5051 59.7778 96.0316C59.7627 95.9812 59.7929 95.9258 59.8483 95.9056C59.8987 95.8905 59.9541 95.9208 59.9692 95.9762C60.1153 96.3842 60.3571 96.7419 60.6694 97.029L60.5939 97.2355V97.2305Z" fill="#263238"/>
<path d="M44.4342 82.2695C42.5603 84.8084 41.7089 85.4683 44.0261 92.2234C44.9581 94.9385 47.6631 98.5352 48.9779 98.8626C51.3354 99.4571 53.6274 97.7998 55.4005 96.1324C56.9521 94.6715 58.4381 93.0948 59.3801 91.1857C60.3221 89.2765 60.6696 86.9895 59.8939 85.0099C59.0476 82.8589 56.0604 80.9397 53.8238 80.4661C51.1943 79.912 45.9907 80.1589 44.4342 82.2695Z" fill="#263238"/>
<path d="M59.1231 91.6044C59.1231 91.6044 59.7124 92.6169 58.9669 93.3725L58.982 92.0225L59.1231 91.5994V91.6044Z" fill="#263238"/>
<path d="M59.1126 91.6042C59.1126 91.6042 59.3292 93.1558 58.0296 93.735L58.7298 92.0576L59.1176 91.5992L59.1126 91.6042Z" fill="#263238"/>
<path d="M50.4626 98.2885C50.4626 98.2885 49.032 98.9333 49.2385 100.344L50.2813 98.8577L50.4626 98.2885Z" fill="#263238"/>
<path d="M50.5191 98.3184C50.5191 98.3184 49.4311 99.4467 50.1464 100.681L50.5645 98.9128L50.5191 98.3133V98.3184Z" fill="#263238"/>
<path d="M61.0828 89.5782C61.5916 89.0543 62.1105 88.5204 62.4832 87.8907C62.856 87.261 63.0877 86.5155 62.9769 85.7952C62.8308 84.8582 62.1256 84.0875 61.3045 83.614C60.4834 83.1455 59.5414 82.9339 58.6145 82.7274C58.1612 82.6266 57.6524 82.5309 57.2544 82.7727C56.8665 83.0044 56.7003 83.4931 56.7255 83.9414C56.7457 84.3897 56.927 84.8129 57.0882 85.231C57.7279 86.8681 58.1309 88.5506 58.4382 90.2734C58.5944 91.1448 58.4735 91.7191 59.3349 91.3866C59.9142 91.16 60.6446 90.0316 61.0828 89.5782Z" fill="#263238"/>
<path d="M54.3025 92.0015C54.2521 93.14 54.65 94.2482 55.4157 95.0894C56.4383 96.1977 57.738 95.4723 58.1107 94.092C58.4533 92.8528 58.3223 90.7825 56.9773 90.1881C55.6323 89.5937 54.368 90.6163 54.2974 92.0015H54.3025Z" fill="#CB7A63"/>
<path d="M111.436 154.959L115.325 151.166L107.794 141.7L103.094 144.476L111.436 154.959Z" fill="#CB7A63"/>
<path d="M119.295 149.996C118.862 149.845 117.975 150.329 117.305 150.757C117.134 150.868 116.983 150.969 116.852 151.059H116.842C116.842 151.059 116.797 151.1 116.777 151.115C116.625 151.221 116.515 151.301 116.474 151.331C116.424 151.357 116.404 151.412 116.414 151.457C116.424 151.503 116.474 151.543 116.525 151.548C116.988 151.568 117.452 151.548 117.915 151.503C118.021 151.493 118.122 151.482 118.222 151.467C118.56 151.442 118.882 151.331 119.159 151.145C119.26 151.079 119.356 151.009 119.436 150.928C119.582 150.752 119.633 150.51 119.562 150.289C119.527 150.153 119.426 150.042 119.295 149.991V149.996ZM119.325 150.359C119.376 150.505 119.351 150.671 119.245 150.792C119.114 150.954 118.852 151.085 118.479 151.175C118.192 151.246 117.844 151.296 117.436 151.316C117.275 151.321 117.104 151.331 116.928 151.326C116.983 151.281 117.038 151.241 117.099 151.2C117.139 151.17 117.18 151.145 117.22 151.115C117.759 150.737 118.353 150.44 118.983 150.233C119.058 150.213 119.139 150.213 119.22 150.233C119.275 150.253 119.31 150.299 119.325 150.354V150.359Z" fill="#407BFF"/>
<path d="M117.139 148.39C116.902 148.481 116.716 148.672 116.625 148.904C116.308 149.68 116.776 150.874 116.857 151.06C116.857 151.06 116.857 151.062 116.857 151.065V151.08C116.877 151.12 116.912 151.151 116.958 151.156C116.983 151.156 117.008 151.156 117.033 151.146C117.048 151.146 117.068 151.125 117.073 151.115C117.078 151.105 117.084 151.105 117.089 151.1C117.159 151.01 117.235 150.894 117.3 150.758C117.673 150.058 118.02 148.889 117.713 148.486C117.623 148.365 117.456 148.259 117.129 148.39H117.139ZM117.013 150.773C116.877 150.375 116.635 149.529 116.857 149.005C116.917 148.859 117.023 148.733 117.164 148.657L117.235 148.622C117.451 148.536 117.507 148.612 117.527 148.637C117.748 148.934 117.411 150.128 117.018 150.773H117.013Z" fill="#407BFF"/>
<path opacity="0.2" d="M107.402 141.121L110.949 145.66L106.153 148.33L102.551 143.912L107.402 141.121Z" fill="black"/>
<path d="M42.2478 137.061L41.7491 139.016C41.6735 139.172 41.8599 139.318 42.1067 139.313L64.3115 138.789C64.5079 138.779 64.6641 138.683 64.6742 138.562L64.1201 136.512C64.1352 136.381 63.9589 136.27 63.7473 136.275L42.6054 136.895C42.4644 136.885 42.3284 136.95 42.2528 137.066L42.2478 137.061Z" fill="#263238"/>
<path d="M62.0044 139.021L61.42 139.081C61.3042 139.081 61.2085 139.046 61.2085 138.976L61.1984 136.452C61.1984 136.381 61.2941 136.311 61.41 136.296L61.9943 136.23C62.1102 136.23 62.2059 136.266 62.2059 136.341L62.2159 138.865C62.2159 138.94 62.1202 139.011 62.0044 139.026V139.021Z" fill="#407BFF"/>
<path d="M54.0557 139.121L53.4714 139.182C53.3555 139.182 53.2649 139.146 53.2598 139.076V136.552C53.2598 136.482 53.3455 136.411 53.4613 136.396L54.0406 136.331C54.1565 136.331 54.2522 136.366 54.2522 136.441L54.2623 138.965C54.2623 139.051 54.1666 139.111 54.0507 139.126L54.0557 139.121Z" fill="#407BFF"/>
<path d="M54.0557 139.121L53.4714 139.182C53.3555 139.182 53.2649 139.146 53.2598 139.076V136.552C53.2598 136.482 53.3455 136.411 53.4613 136.396L54.0406 136.331C54.1565 136.331 54.2522 136.366 54.2522 136.441L54.2623 138.965C54.2623 139.051 54.1666 139.111 54.0507 139.126L54.0557 139.121Z" fill="#407BFF"/>
<path d="M110.379 143.151L109.396 143.705L107.709 144.662L106.193 145.514L104.636 146.395L104.042 146.738C104.042 146.738 103.906 146.642 103.669 146.466C103.578 146.4 103.472 146.325 103.352 146.234C102.984 145.957 102.465 145.569 101.866 145.091C98.7323 142.612 93.1559 137.746 91.4986 133.318C90.4256 134.598 89.1411 136.2 87.6702 137.973C81.3382 145.614 71.4951 156.399 59.6573 157.805C59.4155 157.84 59.1788 157.86 58.9319 157.88C54.9776 158.223 51.8594 157.825 49.4314 156.933C43.2909 154.687 41.5782 149.287 42.0013 144.698V144.683C42.0416 142.537 42.4597 138.708 42.4597 138.708L64.8609 138.733C68.0194 134.9 74.3513 128.895 80.8294 125.107C80.9805 125.012 81.1367 124.921 81.2928 124.84C81.4843 124.724 81.6807 124.624 81.8721 124.518C83.9778 123.364 86.0834 122.473 88.0782 121.989C88.5215 121.883 88.9597 121.793 89.3929 121.727C89.8463 121.657 90.2946 121.616 90.7329 121.596C93.8007 121.46 96.4654 122.599 98.2739 125.666L110.061 142.673L110.399 143.161L110.379 143.151Z" fill="#407BFF"/>
<path d="M98.2863 119.872L73.5326 120.894L74.258 105.143L99.0117 104.12L98.2863 119.872Z" fill="#407BFF"/>
<path d="M97.9988 121.116L73.6028 122.124C72.9126 122.154 72.3736 121.61 72.4089 120.92L73.1293 105.269C73.1595 104.574 73.7489 103.989 74.439 103.959L98.835 102.952C99.5251 102.921 100.064 103.46 100.029 104.156L99.3085 119.807C99.2783 120.502 98.6889 121.086 97.9988 121.116Z" fill="#263238"/>
<path d="M98.2863 119.872L73.5326 120.894L74.258 105.143L99.0117 104.12L98.2863 119.872Z" fill="#407BFF"/>
<path opacity="0.9" d="M98.2863 119.872L73.5326 120.894L74.258 105.143L99.0117 104.12L98.2863 119.872Z" fill="white"/>
<path opacity="0.1" d="M83.0437 103.607L78.9533 121.892L80.5804 121.827L84.6153 103.541L83.0437 103.607Z" fill="white"/>
<path opacity="0.1" d="M85.5535 103.506L81.4632 121.792L84.6921 121.656L88.7271 103.375L85.5535 103.506Z" fill="white"/>
<path d="M90.2544 121.313L98.4956 121.081C98.6366 122.038 98.2286 122.396 97.7047 122.411L95.0702 122.477L93.3121 122.517L90.5768 122.592L73.6059 123.086L73.4699 121.892L90.2595 121.313H90.2544Z" fill="#407BFF"/>
<path d="M90.2543 121.313L98.4955 121.081C98.6365 122.038 98.2285 122.396 97.7046 122.411L95.0701 122.477L93.312 122.517L90.5767 122.592L69.5709 123.237C69.3291 123.242 69.1074 123.111 69.0016 122.89C68.8153 122.497 69.0923 122.033 69.5306 122.018L90.2594 121.308L90.2543 121.313Z" fill="#407BFF"/>
<path opacity="0.2" d="M90.2543 121.313L98.4955 121.081C98.6365 122.038 98.2285 122.396 97.7046 122.411L95.0701 122.477L93.312 122.517L90.5767 122.592L69.5709 123.237C69.3291 123.242 69.1074 123.111 69.0016 122.89C68.8153 122.497 69.0923 122.033 69.5306 122.018L90.2594 121.308L90.2543 121.313Z" fill="black"/>
<path opacity="0.2" d="M98.4947 121.081L98.5451 121.414C98.6207 121.927 98.2277 122.396 97.7039 122.411L95.0693 122.477L90.178 122.653L90.2586 121.313L98.4998 121.081H98.4947Z" fill="black"/>
<path opacity="0.2" d="M55.8088 111.078C55.8088 111.078 54.6451 113.451 58.0051 119.717L59.4105 122.271C59.8739 123.112 62.9568 121.395 63.8736 119.818C63.8736 119.818 57.9799 116.282 55.8088 111.078Z" fill="black"/>
<path d="M84.3055 118.382L86.6479 117.692L86.2701 121.314C86.2701 121.314 83.0008 123.5 81.8674 121.41L82.3208 120.241C82.6633 119.355 83.3937 118.67 84.2954 118.382H84.3055Z" fill="#CB7A63"/>
<path d="M89.3382 119.118L89.046 120.423C88.9604 120.826 88.6178 121.123 88.2047 121.158L86.2553 121.309L86.6331 117.688L88.5473 117.99C89.0561 118.055 89.4188 118.524 89.3482 119.032C89.3482 119.058 89.3382 119.088 89.3331 119.113L89.3382 119.118Z" fill="#CB7A63"/>
<path d="M64.8009 124.508C66.433 126.725 68.73 128.573 71.4351 129.102C74.6187 129.727 80.7442 125.223 83.6155 122.307C83.4694 121.078 83.555 120.413 82.3259 120.241C82.3259 120.241 79.1675 122.559 73.2032 123.949C71.2789 124.397 69.9944 122.428 68.3119 119.561C67.4757 118.131 64.7656 112.272 63.743 110.968C62.1059 108.872 57.4362 110.373 59.29 115.416C60.0708 117.536 63.4609 122.695 64.8009 124.508Z" fill="#CB7A63"/>
<path d="M63.0573 107.537C66.3719 110.579 67.9839 115.959 67.9839 115.959L60.2464 120.674C60.2464 120.674 54.5895 112.735 55.5969 109.97C56.3929 107.824 57.8688 106.413 59.8082 106.293C61.0121 106.217 62.1707 106.721 63.0573 107.532V107.537Z" fill="#407BFF"/>
<path d="M45.3163 139.429L44.7319 139.444C44.6161 139.429 44.5254 139.388 44.5304 139.313L44.742 136.799C44.7521 136.723 44.8478 136.663 44.9637 136.658L45.548 136.643C45.6639 136.658 45.7545 136.703 45.7495 136.774L45.5379 139.292C45.5278 139.368 45.4321 139.444 45.3163 139.429Z" fill="#407BFF"/>
<path d="M103.08 147.805L110.616 144.037L109.971 141.357L101.377 145.282L103.08 147.805Z" fill="#407BFF"/>
<path opacity="0.5" d="M103.08 147.805L110.616 144.037L109.971 141.357L101.377 145.282L103.08 147.805Z" fill="white"/>
<path d="M115.022 150.753L109.824 152.329C109.617 152.385 109.486 152.581 109.511 152.793L110.136 157.508C110.217 157.971 110.655 158.289 111.118 158.208C111.149 158.203 111.179 158.198 111.209 158.188C119.894 156.742 122.76 155.15 123.692 154.833C126.356 153.931 125.294 151.962 124.347 152.022C120.095 152.284 118.77 151.796 117.083 151.03C116.176 150.718 115.33 150.667 115.017 150.758L115.022 150.753Z" fill="#263238"/>
<path d="M45.1192 88.5966C43.5576 88.8434 42.0111 87.6445 41.5225 86.1434C41.0339 84.6423 41.4369 82.9648 42.2378 81.5997C42.8272 80.5922 46.6909 78.2045 48.1265 80.8945C50.9777 86.2442 45.1192 88.5966 45.1192 88.5966Z" fill="#263238"/>
<path d="M98.0683 109.522L82.8302 110.172L82.9007 108.661L98.1388 108.011L98.0683 109.522Z" fill="#407BFF"/>
<g opacity="0.7">
<path d="M98.0686 109.522L82.8305 110.172L82.901 108.661L98.1391 108.011L98.0686 109.522Z" fill="white"/>
</g>
<path d="M97.9765 111.622L82.7384 112.267L82.8039 110.755L98.042 110.111L97.9765 111.622Z" fill="#407BFF"/>
<g opacity="0.7">
<path d="M97.9767 111.622L82.7387 112.267L82.8041 110.755L98.0422 110.111L97.9767 111.622Z" fill="white"/>
</g>
<path d="M97.8811 113.719L82.6431 114.368L82.7136 112.857L97.9517 112.207L97.8811 113.719Z" fill="#407BFF"/>
<g opacity="0.7">
<path d="M97.8809 113.718L82.6428 114.368L82.7134 112.857L97.9514 112.207L97.8809 113.718Z" fill="white"/>
</g>
<path d="M97.7858 115.819L82.5477 116.463L82.6182 114.952L97.8563 114.307L97.7858 115.819Z" fill="#407BFF"/>
<g opacity="0.7">
<path d="M97.7869 115.819L82.5488 116.463L82.6193 114.952L97.8574 114.307L97.7869 115.819Z" fill="white"/>
</g>
<path d="M97.6952 117.914L82.4571 118.564L82.5226 117.053L97.7607 116.403L97.6952 117.914Z" fill="#407BFF"/>
<g opacity="0.7">
<path d="M97.6961 117.914L82.4581 118.563L82.5236 117.052L97.7616 116.402L97.6961 117.914Z" fill="white"/>
</g>
<path d="M76.6684 111.021L75.4454 111.073L75.467 111.576L76.69 111.524L76.6684 111.021Z" fill="#407BFF"/>
<g opacity="0.5">
<path d="M76.6686 111.021L75.4457 111.073L75.4673 111.576L76.6903 111.524L76.6686 111.021Z" fill="white"/>
</g>
<path d="M76.6141 112.478L75.3911 112.53L75.4127 113.034L76.6357 112.981L76.6141 112.478Z" fill="#407BFF"/>
<g opacity="0.5">
<path d="M76.6141 112.478L75.3911 112.531L75.4127 113.034L76.6357 112.981L76.6141 112.478Z" fill="white"/>
</g>
<path d="M76.5598 113.919L75.3368 113.972L75.3584 114.475L76.5814 114.423L76.5598 113.919Z" fill="#407BFF"/>
<g opacity="0.5">
<path d="M76.5595 113.919L75.3365 113.972L75.3582 114.475L76.5811 114.423L76.5595 113.919Z" fill="white"/>
</g>
<path d="M76.497 115.381L75.274 115.433L75.2957 115.937L76.5186 115.884L76.497 115.381Z" fill="#407BFF"/>
<g opacity="0.5">
<path d="M76.4966 115.381L75.2736 115.433L75.2952 115.937L76.5182 115.884L76.4966 115.381Z" fill="white"/>
</g>
<path d="M76.4486 116.824L75.2257 116.876L75.2473 117.38L76.4702 117.327L76.4486 116.824Z" fill="#407BFF"/>
<g opacity="0.5">
<path d="M75.2434 117.391L75.2888 116.882L76.5078 116.831L76.4625 117.335L75.2434 117.391Z" fill="white"/>
</g>
<path d="M76.3821 118.285L75.1591 118.337L75.1803 118.84L76.4033 118.789L76.3821 118.285Z" fill="#407BFF"/>
<g opacity="0.5">
<path d="M76.3825 118.285L75.1595 118.337L75.1807 118.84L76.4037 118.789L76.3825 118.285Z" fill="white"/>
</g>
<path d="M77.948 109.628L75.4192 110.569L75.4444 109.905L76.8448 109.678L75.4595 109.582L75.4847 108.917L77.948 109.628Z" fill="#407BFF"/>
<path d="M93.3886 107.225L82.8302 107.673L82.8806 106.626L93.4389 106.177L93.3886 107.225Z" fill="#407BFF"/>
<g opacity="0.7">
<path d="M93.3889 107.225L82.8305 107.673L82.8809 106.626L93.4392 106.177L93.3889 107.225Z" fill="white"/>
</g>
<path d="M79.142 107.769L77.5955 107.835L78.2201 107.437L78.3914 107.598L78.5778 107.432L79.142 107.769Z" fill="#407BFF"/>
<path d="M78.1596 107.391L77.535 107.789L77.5803 106.867L78.1596 107.391Z" fill="#407BFF"/>
<path d="M79.2432 106.838L79.1928 107.714L78.6236 107.382L79.2432 106.838Z" fill="#407BFF"/>
<path d="M78.4098 107.222L78.3752 107.259L78.3789 107.262L78.4135 107.226L78.4098 107.222Z" fill="white"/>
<path d="M78.3853 107.232L78.3817 107.235L78.4159 107.272L78.4195 107.268L78.3853 107.232Z" fill="white"/>
<path d="M79.2427 106.752L78.5778 107.356L78.3914 107.517L78.2201 107.361L77.6408 106.837L77.5955 106.792L79.2427 106.752Z" fill="#407BFF"/>
<path d="M76.6731 106.925L75.4501 106.977L75.4565 107.128L76.6795 107.076L76.6731 106.925Z" fill="#407BFF"/>
<path d="M76.6742 107.303L75.4512 107.355L75.4576 107.506L76.6806 107.454L76.6742 107.303Z" fill="#407BFF"/>
<path d="M76.671 107.695L75.448 107.747L75.4544 107.898L76.6774 107.846L76.671 107.695Z" fill="#407BFF"/>
<path d="M147.649 31.1664H140.31C139.645 31.1664 139.106 30.6274 139.106 29.9624C139.106 29.2975 139.645 28.7585 140.31 28.7585H147.649C148.314 28.7585 148.853 29.2975 148.853 29.9624C148.853 30.6274 148.314 31.1664 147.649 31.1664Z" fill="#407BFF"/>
<g opacity="0.7">
<path d="M147.649 31.1664H140.31C139.645 31.1664 139.106 30.6274 139.106 29.9625C139.106 29.2976 139.645 28.7586 140.31 28.7586H147.649C148.314 28.7586 148.853 29.2976 148.853 29.9625C148.853 30.6274 148.314 31.1664 147.649 31.1664Z" fill="white"/>
</g>
<path d="M174.574 55.9047L146.435 107.689C146.072 108.354 145.236 108.601 144.571 108.238L96.691 82.22C96.0261 81.8573 95.7792 81.0211 96.1419 80.3562L132.738 13.0064C133.101 12.3415 133.937 12.0947 134.602 12.4573L166.867 29.9874L174.579 55.9098L174.574 55.9047Z" fill="#407BFF"/>
<g opacity="0.2">
<path d="M174.574 55.9048L146.435 107.689C146.072 108.354 145.236 108.601 144.571 108.238L96.691 82.2201C96.0261 81.8574 95.7792 81.0212 96.1419 80.3562L132.738 13.0065C133.101 12.3415 133.937 12.0947 134.602 12.4574L166.867 29.9875L174.579 55.9098L174.574 55.9048Z" fill="white"/>
</g>
<path d="M158.775 67.5351L123.017 48.241L121.821 50.4576L157.579 69.7517L158.775 67.5351Z" fill="#407BFF"/>
<path d="M153.893 76.5911L118.134 57.297L116.938 59.5136L152.697 78.8077L153.893 76.5911Z" fill="#407BFF"/>
<path d="M149.004 85.6466L113.245 66.3525L112.049 68.5691L147.808 87.8632L149.004 85.6466Z" fill="#407BFF"/>
<path d="M166.907 29.9626L158.419 45.5835C158.056 46.2484 158.303 47.0846 158.968 47.4473L174.539 55.9101L166.902 29.9676L166.907 29.9626Z" fill="#407BFF"/>
<path opacity="0.7" d="M166.907 29.9626L158.419 45.5835C158.056 46.2484 158.303 47.0846 158.968 47.4473L174.539 55.9101L166.902 29.9676L166.907 29.9626Z" fill="white"/>
<path d="M181.907 54.1617L153.768 105.946C153.405 106.611 152.569 106.858 151.904 106.495L104.024 80.4769C103.359 80.1142 103.112 79.278 103.475 78.6131L140.071 11.2633C140.434 10.5984 141.27 10.3516 141.935 10.7143L174.2 28.2443L181.912 54.1667L181.907 54.1617Z" fill="#407BFF"/>
<g opacity="0.5">
<path d="M181.907 54.1618L153.768 105.946C153.405 106.611 152.569 106.858 151.904 106.495L104.024 80.4771C103.359 80.1144 103.112 79.2782 103.475 78.6133L140.071 11.2635C140.434 10.5986 141.27 10.3517 141.935 10.7144L174.2 28.2445L181.912 54.1669L181.907 54.1618Z" fill="white"/>
</g>
<path d="M165.168 65.2697L131.317 47.0092C130.788 46.7271 130.133 46.9236 129.846 47.4474L129.68 47.7547C129.397 48.2836 129.594 48.9385 130.118 49.2256L163.969 67.4861C164.498 67.7682 165.153 67.5718 165.44 67.0479L165.606 66.7406C165.888 66.2117 165.692 65.5568 165.168 65.2697Z" fill="#407BFF"/>
<path d="M160.272 74.3404L126.42 56.0748C125.894 55.7908 125.237 55.9872 124.953 56.5137L124.786 56.824C124.502 57.3504 124.698 58.0074 125.224 58.2914L159.076 76.557C159.603 76.841 160.26 76.6445 160.544 76.1181L160.711 75.8078C160.995 75.2814 160.799 74.6244 160.272 74.3404Z" fill="#407BFF"/>
<path d="M155.389 83.3958L121.537 65.1303C121.01 64.8463 120.353 65.0427 120.069 65.5691L119.902 65.8795C119.618 66.4059 119.814 67.0629 120.341 67.3469L154.193 85.6124C154.719 85.8965 155.376 85.7 155.66 85.1736L155.828 84.8633C156.112 84.3369 155.915 83.6799 155.389 83.3958Z" fill="#407BFF"/>
<path d="M174.245 28.2196L165.757 43.8405C165.395 44.5055 165.642 45.3417 166.306 45.7044L181.877 54.1672L174.24 28.2247L174.245 28.2196Z" fill="#407BFF"/>
<path opacity="0.7" d="M174.245 28.2196L165.757 43.8405C165.395 44.5055 165.642 45.3417 166.306 45.7044L181.877 54.1672L174.24 28.2247L174.245 28.2196Z" fill="white"/>
<path d="M172.302 4.4787L174.669 14.9917C165.703 17.455 157.658 26.3258 151.87 34.713C149.588 38.0226 147.654 41.8661 146.208 45.9313C146.208 45.9313 164.287 29.5749 174.256 28.6178L173.783 45.9968C173.783 45.9968 184.119 25.8624 204.198 18.4927C204.198 18.4927 187.379 6.38283 172.307 4.48374L172.302 4.4787Z" fill="#407BFF"/>
<path d="M50.3274 119.335L54.8963 171.557H47.5317L42.6152 115.36H45.9902C48.247 115.36 50.131 117.088 50.3274 119.335Z" fill="#407BFF"/>
<path opacity="0.2" d="M50.372 119.803L54.9006 171.557H47.536L42.6195 115.36H45.521C48.0448 115.36 50.1504 117.29 50.372 119.803Z" fill="black"/>
<path d="M45.5426 118.76L50.1619 171.557H6.31654L1.75268 119.41C1.56126 117.234 3.279 115.36 5.46523 115.36H41.825C43.7594 115.36 45.3713 116.836 45.5376 118.76H45.5426Z" fill="#407BFF"/>
<path opacity="0.2" d="M45.5929 119.335L50.1618 171.557H6.31641L1.813 120.095C1.59135 117.552 3.59623 115.36 6.15018 115.36H41.2506C43.5074 115.36 45.3914 117.088 45.5878 119.335H45.5929Z" fill="white"/>
<path d="M122.704 171.558H6.51722L5.2478 157.075H116.78C119.354 157.075 121.621 159.161 121.843 161.735L122.704 171.558Z" fill="#407BFF"/>
<path opacity="0.2" d="M122.704 171.558H6.51722L5.2478 157.075H116.78C119.354 157.075 121.621 159.161 121.843 161.735L122.704 171.558Z" fill="white"/>
<path d="M128.034 177.103H5.15244C3.56063 177.103 2.26602 175.814 2.26602 174.217C2.26602 172.625 3.55559 171.33 5.15244 171.33H128.034C129.626 171.33 130.921 172.62 130.921 174.217C130.921 175.809 129.631 177.103 128.034 177.103Z" fill="#407BFF"/>
<path opacity="0.2" d="M128.034 177.103H56.7002C55.1084 177.103 53.8137 175.814 53.8137 174.217C53.8137 172.625 55.1033 171.33 56.7002 171.33H128.034C129.626 171.33 130.921 172.62 130.921 174.217C130.921 175.809 129.631 177.103 128.034 177.103Z" fill="black"/>
<path d="M6.76394 177.104L8.21974 182.06H11.1313L12.7332 177.104H6.76394Z" fill="#263238"/>
<path opacity="0.5" d="M6.76394 177.104L8.21974 182.06H11.1313L12.7332 177.104H6.76394Z" fill="white"/>
<path d="M48.4893 177.104L49.9451 182.06H52.8567L54.4586 177.104H48.4893Z" fill="#263238"/>
<path opacity="0.5" d="M48.4893 177.104L49.9451 182.06H52.8567L54.4586 177.104H48.4893Z" fill="white"/>
<path d="M80.4263 177.104L81.8821 182.06H84.7937L86.3956 177.104H80.4263Z" fill="#263238"/>
<path opacity="0.5" d="M80.4263 177.104L81.8821 182.06H84.7937L86.3956 177.104H80.4263Z" fill="white"/>
<path d="M122.149 177.104L123.605 182.06H126.516L128.118 177.104H122.149Z" fill="#263238"/>
<path opacity="0.5" d="M122.149 177.104L123.605 182.06H126.516L128.118 177.104H122.149Z" fill="white"/>
</svg>
