<svg width="217" height="212" viewBox="0 0 217 212" fill="none" xmlns="http://www.w3.org/2000/svg">
<path d="M95.0283 128.491H14.2791V134.188H95.0283V128.491Z" fill="#EBEBEB"/>
<path d="M95.0281 128.491H59.9167V134.188H95.0281V128.491Z" fill="#E0E0E0"/>
<path d="M26.2107 134.195H14.2791V190.155H26.2107V134.195Z" fill="#EBEBEB"/>
<path d="M26.2107 139.969L14.2791 135.907V134.195H26.2107V139.969Z" fill="#E0E0E0"/>
<path d="M95.0282 134.195H83.0966V190.155H95.0282V134.195Z" fill="#E0E0E0"/>
<path d="M71.8483 134.195H59.9167V190.155H71.8483V134.195Z" fill="#EBEBEB"/>
<path d="M71.8419 139.969L59.9167 135.907V134.195H71.8419V139.969Z" fill="#E0E0E0"/>
<path d="M49.3906 134.195H37.4589V190.155H49.3906V134.195Z" fill="#E0E0E0"/>
<path d="M102.617 1.57338H0.84671V88.2309H102.617V1.57338Z" fill="#EBEBEB"/>
<path d="M102.617 88.2309H103.754L103.754 1.57339H102.617L102.617 88.2309Z" fill="#E0E0E0"/>
<path d="M98.7842 84.3985V5.4058L4.67904 5.4058V84.3985H98.7842Z" fill="#F5F5F5"/>
<path d="M50.5979 72.4034C56.3337 53.2221 57.9433 24.9772 70.1752 28.8798C82.407 32.7761 66.3811 74.5687 66.3811 74.5687L50.5979 72.4034Z" fill="white"/>
<path d="M60.4727 73.3613C54.6219 45.589 56.0974 8.71471 37.9189 9.56423C19.7404 10.4074 37.9189 74.5686 37.9189 74.5686L60.4727 73.3613Z" fill="white"/>
<path d="M73.3174 70.2441H33.524C31.7547 70.2441 30.4134 71.5408 30.3367 73.1823C29.5255 91.5141 32.5276 110.197 38.1166 128.491H68.5907C74.1797 110.197 77.1818 91.5141 76.3706 73.1823C76.3003 71.5408 74.9589 70.2441 73.311 70.2441H73.3174Z" fill="#EBEBEB"/>
<path d="M163.852 11.2443H161.61V190.155H163.852V11.2443Z" fill="#E0E0E0"/>
<path d="M216.542 11.2443H214.3V190.155H216.542V11.2443Z" fill="#E0E0E0"/>
<path d="M147.954 11.2443H145.712V190.155H147.954V11.2443Z" fill="#EBEBEB"/>
<path d="M200.644 11.2443H198.402V190.155H200.644V11.2443Z" fill="#EBEBEB"/>
<path d="M216.542 10.0176H145.712V12.464H216.542V10.0176Z" fill="#EBEBEB"/>
<path d="M216.542 53.8289H145.712V56.2753H216.542V53.8289Z" fill="#EBEBEB"/>
<path d="M216.542 97.64H145.712V100.086H216.542V97.64Z" fill="#EBEBEB"/>
<path d="M216.542 141.451H145.712V143.897H216.542V141.451Z" fill="#EBEBEB"/>
<path d="M216.542 185.262H145.712V187.708H216.542V185.262Z" fill="#EBEBEB"/>
<path d="M216.542 10.0178H200.644V12.4642H216.542V10.0178Z" fill="#E0E0E0"/>
<path d="M216.542 53.8289H200.644V56.2753H216.542V53.8289Z" fill="#E0E0E0"/>
<path d="M216.542 97.64H200.644V100.086H216.542V97.64Z" fill="#E0E0E0"/>
<path d="M216.542 141.451H200.644V143.897H216.542V141.451Z" fill="#E0E0E0"/>
<path d="M216.542 185.262H200.644V187.708H216.542V185.262Z" fill="#E0E0E0"/>
<path d="M174.283 24.9197V21.4705H165.769V24.9197C165.769 27.1744 163.942 29.0012 161.687 29.0012C159.433 29.0012 157.606 30.828 157.606 33.0827V53.8353H182.44V33.0827C182.44 30.828 180.613 29.0012 178.358 29.0012C176.104 29.0012 174.277 27.1744 174.277 24.9197H174.283Z" fill="#F0F0F0"/>
<path d="M191.906 83.3899H154.591V97.6402H191.906V83.3899Z" fill="#F0F0F0"/>
<path d="M191.906 97.6402H198.402V83.39H191.906V97.6402Z" fill="#E6E6E6"/>
<path d="M191.906 91.2974H198.402V89.7261H191.906V91.2974Z" fill="#EBEBEB"/>
<path d="M191.906 89.7328H154.591V91.3041H191.906V89.7328Z" fill="#F5F5F5"/>
<path d="M181.909 160.07H152.764V185.262H181.909V160.07Z" fill="#F0F0F0"/>
<path d="M181.909 185.262H186.981V160.07H181.909V185.262Z" fill="#E6E6E6"/>
<path d="M181.909 174.052H186.981V171.273H181.909V174.052Z" fill="#EBEBEB"/>
<path d="M181.909 171.28H152.764V174.058H181.909V171.28Z" fill="#F5F5F5"/>
<path d="M181.909 169.332H186.981V168.342H181.909V169.332Z" fill="#EBEBEB"/>
<path d="M181.909 168.342H152.764V169.332H181.909V168.342Z" fill="#F5F5F5"/>
<path d="M159.867 115.838H154.591V141.451H159.867V115.838Z" fill="#F0F0F0"/>
<path d="M159.867 124.965H154.591V132.324H159.867V124.965Z" fill="#FAFAFA"/>
<path d="M159.867 141.451H177.815V115.838H159.867V141.451Z" fill="#E6E6E6"/>
<path d="M168.017 112.529H162.058V141.451H168.017V112.529Z" fill="#EBEBEB"/>
<path d="M168.017 121.721H162.058V126.173H168.017V121.721Z" fill="#FAFAFA"/>
<path d="M168.017 129.156H162.058V133.608H168.017V129.156Z" fill="#FAFAFA"/>
<path d="M168.023 141.445H188.29V112.523H168.023V141.445Z" fill="#E0E0E0"/>
<path d="M174.653 115.838H171.44V141.451H174.653V115.838Z" fill="#F0F0F0"/>
<path d="M174.098 119.083H171.99V138.207H174.098V119.083Z" fill="#FAFAFA"/>
<path d="M174.647 141.451H185.563V115.838H174.647V141.451Z" fill="#E6E6E6"/>
<path d="M183.232 114.484H179.604V141.445H183.232V114.484Z" fill="#EBEBEB"/>
<path d="M183.232 123.055H179.604V127.207H183.232V123.055Z" fill="#FAFAFA"/>
<path d="M183.232 129.986H179.604V134.137H183.232V129.986Z" fill="#FAFAFA"/>
<path d="M183.232 141.451H195.56V114.49H183.232V141.451Z" fill="#E0E0E0"/>
<path d="M181.585 81.0657C184.688 77.9626 184.688 72.9316 181.585 69.8285C178.481 66.7254 173.45 66.7254 170.347 69.8285C167.244 72.9316 167.244 77.9626 170.347 81.0657C173.45 84.1688 178.481 84.1688 181.585 81.0657Z" fill="#F5F5F5"/>
<path d="M185.638 83.3073C188.639 82.8201 190.678 79.9919 190.19 76.9903C189.703 73.9888 186.875 71.9505 183.873 72.4377C180.872 72.925 178.834 75.7532 179.321 78.7547C179.808 81.7563 182.636 83.7945 185.638 83.3073Z" fill="#EBEBEB"/>
<path d="M36.047 162.235H118.086V204.609C118.086 206.889 116.234 208.741 113.954 208.741H40.1796C37.8993 208.741 36.047 206.889 36.047 204.609V162.235Z" fill="#407BFF"/>
<path d="M36.047 162.235H94.0954L86.9543 153.095C86.1687 152.092 84.2269 151.281 82.6109 151.281H30.4069C28.7909 151.281 28.1202 152.092 28.8995 153.095L36.0406 162.235H36.047Z" fill="#407BFF"/>
<path opacity="0.2" d="M36.047 162.235H94.0954L86.9543 153.095C86.1687 152.092 84.2269 151.281 82.6109 151.281H30.4069C28.7909 151.281 28.1202 152.092 28.8995 153.095L36.0406 162.235H36.047Z" fill="black"/>
<path d="M118.087 162.235H60.0382L67.1793 156.276C67.9649 155.624 69.9067 155.094 71.5227 155.094H123.727C125.343 155.094 126.013 155.624 125.234 156.276L118.093 162.235H118.087Z" fill="#407BFF"/>
<path opacity="0.2" d="M60.0382 162.235H118.087V204.609C118.087 206.889 116.234 208.741 113.954 208.741H64.1708C61.8905 208.741 60.0382 206.889 60.0382 204.609V162.235Z" fill="white"/>
<path opacity="0.5" d="M43.252 162.235V191.285L45.2577 189.701L46.6693 191.285L47.8957 189.522L49.154 191.285L50.9041 189.956L52.8331 191.285V162.235H43.252Z" fill="white"/>
<path d="M56.2383 98.8661L45.9227 90.2049" stroke="#407BFF" stroke-width="0.638738" stroke-miterlimit="10"/>
<path d="M61.5845 103.35L58.4419 100.712" stroke="#407BFF" stroke-width="0.638738" stroke-miterlimit="10"/>
<path d="M92.4867 121.484L126.519 78.9506L81.2066 40.9137L51.1604 75.3609L46.7147 83.9774C45.7822 85.0505 45.9099 86.5515 47.015 87.4841L87.9005 121.81C89.2227 122.915 91.3689 122.768 92.4803 121.49L92.4867 121.484Z" fill="#407BFF"/>
<path opacity="0.5" d="M69.1469 90.1156L64.2478 98.004L66.2215 98.432L66.8922 100.259L68.2016 100.335L68.8084 101.9L70.4116 102.367L71.6444 104.328L76.5435 96.4327L69.1469 90.1156Z" fill="white"/>
<path opacity="0.1" d="M125.036 77.6983L94.5176 111.749L51.1665 75.3541L81.2063 40.907L125.036 77.6983Z" fill="black"/>
<path d="M125.037 77.6987L94.5178 111.75L107.152 112.682L137.198 78.2353L125.037 77.6987Z" fill="#407BFF"/>
<path opacity="0.3" d="M125.037 77.6987L94.5178 111.75L107.152 112.682L137.198 78.2353L125.037 77.6987Z" fill="black"/>
<path d="M69.0511 40.3704L38.5258 74.4151L51.1664 75.354L81.2062 40.9069L69.0511 40.3704Z" fill="#407BFF"/>
<path opacity="0.4" d="M69.0511 40.3704L38.5258 74.4151L51.1664 75.354L81.2062 40.9069L69.0511 40.3704Z" fill="black"/>
<path opacity="0.1" d="M115.641 88.1864L125.036 77.6983L81.2063 40.907L75.5981 54.4227L115.641 88.1864Z" fill="black"/>
<path opacity="0.2" d="M51.1665 75.3541L81.2063 40.907L75.5982 54.4227L54.4432 78.1007L51.1665 75.3541Z" fill="black"/>
<path d="M135.626 13.6074C135.748 14.0226 135.626 14.4186 135.358 14.4953C135.09 14.5719 134.77 14.3036 134.649 13.8948C134.528 13.4861 134.649 13.0837 134.917 13.007C135.185 12.9304 135.505 13.1986 135.626 13.6074Z" fill="#263238"/>
<path d="M135.665 14.4125C135.665 14.4125 135.428 17.0696 134.732 18.5196C135.658 18.9858 136.808 18.3088 136.808 18.3088L135.665 14.4125Z" fill="#ED847E"/>
<path d="M136.469 10.8802C136.521 10.8546 136.565 10.8035 136.591 10.7396C136.636 10.6055 136.565 10.465 136.438 10.4203C135.122 9.95399 134.189 10.6566 134.151 10.6821C134.042 10.7652 134.017 10.9249 134.106 11.0335C134.189 11.142 134.349 11.1612 134.457 11.0782C134.457 11.0782 135.224 10.5161 136.271 10.8865C136.342 10.9121 136.412 10.9057 136.476 10.8738L136.469 10.8802Z" fill="#263238"/>
<path d="M149.825 16.3413C150.106 19.7266 150.943 25.9415 152.942 27.3531C152.942 27.3531 152.463 31.4219 145.303 32.4758C137.421 33.6383 140.96 29.1224 140.96 29.1224C145.105 27.4617 144.524 24.2872 143.336 21.4001L146.383 17.9126C147.526 16.6032 149.685 14.6103 149.832 16.3413H149.825Z" fill="#FFC3BD"/>
<path d="M155.517 29.001C156.156 28.4197 154.865 26.0947 154.092 25.7754C152.036 24.9131 143.617 25.7626 140.455 28.4836C139.548 29.9208 140.206 31.4793 140.206 31.4793L155.517 29.001Z" fill="white"/>
<path d="M182.305 199.742C181.781 199.902 181.251 199.979 180.977 199.781C180.862 199.698 180.74 199.532 180.804 199.206C180.842 199.033 180.938 198.899 181.098 198.81C181.788 198.407 183.493 198.937 183.563 198.963C183.608 198.976 183.646 199.021 183.653 199.072C183.653 199.123 183.634 199.167 183.589 199.193C183.346 199.334 182.829 199.583 182.305 199.742ZM181.373 198.963C181.321 198.982 181.27 199.001 181.232 199.027C181.136 199.084 181.079 199.161 181.06 199.257C181.008 199.487 181.104 199.551 181.13 199.576C181.436 199.793 182.478 199.48 183.199 199.116C182.676 198.982 181.839 198.823 181.373 198.963Z" fill="#407BFF"/>
<path d="M183.564 199.199C183.564 199.199 183.525 199.206 183.5 199.199C182.887 199.071 181.526 198.273 181.456 197.673C181.443 197.564 181.462 197.36 181.743 197.238C181.922 197.155 182.114 197.155 182.305 197.238C183.046 197.539 183.621 198.976 183.64 199.033C183.659 199.078 183.647 199.123 183.621 199.161C183.602 199.18 183.583 199.193 183.564 199.199ZM181.903 197.449C181.903 197.449 181.865 197.462 181.852 197.468C181.699 197.539 181.711 197.609 181.711 197.647C181.75 198.005 182.657 198.644 183.302 198.886C183.11 198.477 182.682 197.666 182.21 197.475C182.101 197.43 181.999 197.424 181.903 197.456V197.449Z" fill="#407BFF"/>
<path d="M144.869 206.602C144.185 206.602 143.527 206.506 143.304 206.2C143.227 206.091 143.163 205.912 143.317 205.65C143.4 205.503 143.534 205.408 143.719 205.357C144.607 205.114 146.466 206.174 146.549 206.219C146.593 206.244 146.619 206.296 146.612 206.347C146.606 206.398 146.561 206.442 146.51 206.449C146.172 206.519 145.514 206.596 144.875 206.596L144.869 206.602ZM144.026 205.567C143.936 205.567 143.853 205.574 143.783 205.599C143.668 205.631 143.585 205.689 143.534 205.778C143.444 205.938 143.476 206.014 143.508 206.059C143.757 206.404 145.105 206.41 146.095 206.27C145.603 206.014 144.645 205.574 144.026 205.574V205.567Z" fill="#407BFF"/>
<path d="M146.478 206.455C146.478 206.455 146.447 206.455 146.427 206.443C145.782 206.155 144.511 204.999 144.607 204.399C144.633 204.258 144.728 204.079 145.08 204.047C145.342 204.022 145.571 204.092 145.782 204.264C146.459 204.82 146.606 206.257 146.613 206.315C146.613 206.36 146.6 206.404 146.562 206.43C146.542 206.443 146.517 206.455 146.485 206.455H146.478ZM145.182 204.29C145.182 204.29 145.131 204.29 145.105 204.29C144.875 204.316 144.862 204.405 144.856 204.431C144.799 204.795 145.661 205.695 146.319 206.091C146.249 205.67 146.063 204.814 145.616 204.45C145.482 204.341 145.335 204.284 145.175 204.284L145.182 204.29Z" fill="#407BFF"/>
<path d="M152.342 206.327H147.009L146.479 193.987H151.806L152.342 206.327Z" fill="#FFC3BD"/>
<path d="M189.804 197.903L184.892 199.595L179.795 187.958L184.707 186.265L189.804 197.903Z" fill="#FFC3BD"/>
<path d="M183.723 198.375L189.446 196.619C189.657 196.555 189.88 196.644 189.989 196.836L192.384 201.058C192.633 201.499 192.397 202.054 191.918 202.195C189.912 202.776 188.903 202.955 186.387 203.728C184.841 204.201 180.932 205.683 178.741 206.123C176.595 206.558 175.828 204.456 176.684 204.079C180.529 202.387 182.088 200.464 183.001 198.95C183.167 198.676 183.429 198.478 183.729 198.382L183.723 198.375Z" fill="#263238"/>
<path d="M147.047 205.708H152.866C153.083 205.708 153.275 205.861 153.319 206.072L154.373 210.811C154.482 211.303 154.111 211.77 153.607 211.757C151.505 211.718 148.478 211.597 145.833 211.597C142.748 211.597 141.445 211.763 137.83 211.763C135.645 211.763 135.032 209.553 135.952 209.349C140.123 208.435 142.161 208.34 145.763 206.117C146.153 205.874 146.587 205.702 147.047 205.702V205.708Z" fill="#263238"/>
<path d="M162.536 30.7514C164.088 32.1758 165.43 33.6002 166.822 35.0885C168.183 36.5831 169.505 38.1161 170.757 39.7576C172.021 41.3864 173.216 43.0982 174.308 45.0272C174.851 45.9981 175.368 47.0137 175.803 48.1826C175.911 48.4764 176.02 48.7638 176.109 49.096C176.205 49.4154 176.301 49.7283 176.371 50.0924L176.48 50.6226L176.556 51.2102C176.601 51.4912 176.646 52.2705 176.556 52.839C176.39 54.0398 175.924 54.9596 175.458 55.675C174.985 56.384 174.481 56.9077 173.989 57.3676C172.999 58.2746 172.034 58.9198 171.07 59.4946C169.147 60.6252 167.244 61.4364 165.334 62.1709C161.501 63.6081 157.688 64.6109 153.722 65.3646L152.604 61.5258C156.072 60.0248 159.585 58.4024 162.843 56.665C164.465 55.7963 166.043 54.8574 167.384 53.8674C168.049 53.3819 168.649 52.8581 169.039 52.4046C169.237 52.1811 169.364 51.9703 169.415 51.8553C169.46 51.7467 169.396 51.7595 169.345 51.9895C169.3 52.4174 169.313 52.0853 169.205 51.8553C169.179 51.7467 169.115 51.5998 169.058 51.4593C169.013 51.3252 168.93 51.1655 168.86 51.0058C168.559 50.3798 168.157 49.6772 167.704 48.981C166.784 47.5758 165.672 46.1578 164.51 44.759C163.335 43.3665 162.095 41.9804 160.824 40.6199C159.579 39.253 158.218 37.8925 156.966 36.6214L162.523 30.7578L162.536 30.7514Z" fill="#FFC3BD"/>
<path d="M154.06 60.9192L149.001 62.4394L152.233 67.7537C152.233 67.7537 155.21 66.5209 155.861 63.9979L154.06 60.9128V60.9192Z" fill="#FFC3BD"/>
<path d="M147.002 64.317L148.982 68.7051L152.233 67.7534L149.001 62.4391L147.002 64.317Z" fill="#FFC3BD"/>
<path d="M150.758 32.195C150.279 37.2985 161.086 45.206 161.086 45.206L171.491 38.0841C171.491 38.0841 169.351 33.498 163.814 29.9402C157.861 26.1142 151.358 25.8395 150.758 32.1886V32.195Z" fill="#407BFF"/>
<g opacity="0.3">
<path d="M150.758 32.195C150.279 37.2985 161.086 45.206 161.086 45.206L171.491 38.0841C171.491 38.0841 169.351 33.498 163.814 29.9402C157.861 26.1142 151.358 25.8395 150.758 32.1886V32.195Z" fill="white"/>
</g>
<path d="M133.065 31.7862C133.065 31.7862 128.389 38.9528 139.484 77.392L167.678 73.2275C167.282 69.3312 162.562 52.3344 162.408 33.7535C162.377 29.9785 159.208 26.9829 155.44 27.1745C154.616 27.2192 153.773 27.2767 152.942 27.3597C149.314 27.7174 144.083 28.3753 140.96 29.129C136.84 30.1254 133.065 31.7925 133.065 31.7925V31.7862Z" fill="#407BFF"/>
<g opacity="0.3">
<path d="M133.065 31.7862C133.065 31.7862 128.389 38.9528 139.484 77.392L167.678 73.2275C167.282 69.3312 162.562 52.3344 162.408 33.7535C162.377 29.9785 159.208 26.9829 155.44 27.1745C154.616 27.2192 153.773 27.2767 152.942 27.3597C149.314 27.7174 144.083 28.3753 140.96 29.129C136.84 30.1254 133.065 31.7925 133.065 31.7925V31.7862Z" fill="white"/>
</g>
<path opacity="0.2" d="M132.375 44.1329L132.471 44.0244L139.107 44.612C140.11 48.8915 136.424 54.7296 134.476 57.4378C133.346 51.9511 132.707 47.5885 132.381 44.1329H132.375Z" fill="black"/>
<path opacity="0.2" d="M146.478 193.987L146.753 200.349H152.087L151.812 193.987H146.478Z" fill="black"/>
<path opacity="0.2" d="M184.707 186.271L179.795 187.964L182.427 193.962L187.339 192.269L184.707 186.271Z" fill="black"/>
<path d="M149.129 8.70189C150.305 13.8565 151.256 16.8139 149.461 20.1672C146.76 25.2069 139.829 24.7214 137.134 20.0203C134.713 15.7919 133.193 8.06954 137.562 4.59481C141.86 1.17756 147.954 3.54089 149.129 8.70189Z" fill="#FFC3BD"/>
<path d="M138.775 13.7546L136.814 14.9555L137 8.24871C137 8.24871 134.943 8.38923 133.448 7.22034C134.157 6.54328 145.195 2.67892 148.637 3.34959C148.995 3.19629 149.429 2.53201 149.429 2.53201C149.429 2.53201 149.563 3.36875 148.976 3.68812C149.404 3.61147 150.451 3.80948 150.745 4.42906C149.819 4.23105 149.282 4.51209 149.282 4.51209C149.282 4.51209 153.14 5.09334 151.761 10.4076C150.234 16.2649 150.739 19.631 150.739 19.631C150.739 19.631 147.89 21.8283 145.405 21.4259C142.761 18.5132 138.948 15.0129 138.769 13.7482L138.775 13.7546Z" fill="#263238"/>
<path d="M135.019 6.68387C131.902 6.70942 130.791 5.16367 129.986 3.8862C132.222 3.64348 136.878 2.21271 140.34 1.96999C143.802 1.72727 147.577 2.366 146.434 3.86065C145.29 5.35529 135.013 6.68387 135.013 6.68387H135.019Z" fill="#263238"/>
<path d="M135.703 5.3042C133.167 4.9529 130.65 2.53847 132.567 0.232628C133.276 1.93167 138.066 1.73366 141.458 1.02466C145.91 0.0921054 149.027 1.59953 147.443 4.6463C146.574 6.31341 135.703 5.31059 135.703 5.31059V5.3042Z" fill="#263238"/>
<path d="M141.534 12.2281C141.937 13.5502 141.79 14.9938 141.362 16.0605C140.717 17.6637 139.305 17.338 138.571 15.9519C137.906 14.7 137.44 12.3622 138.526 11.2061C139.593 10.0691 141.068 10.7143 141.534 12.2281Z" fill="#FFC3BD"/>
<path d="M149.487 75.9164C149.487 75.9164 154.06 114.847 157.382 130.101C161.016 146.804 178.946 192.365 178.946 192.365L187.913 189.273C187.913 189.273 176.416 154.973 173.369 131.621C171.025 113.679 167.685 73.2337 167.685 73.2337L149.493 75.9228L149.487 75.9164Z" fill="#263238"/>
<path d="M176.659 189.503C176.621 189.516 178.492 193.329 178.492 193.329L188.935 189.938L187.709 186.821L176.653 189.503H176.659Z" fill="#407BFF"/>
<path opacity="0.3" d="M152.01 95.8898C153.441 106.704 155.274 119.498 156.89 127.705C159.221 115.141 159.815 99.3326 152.01 95.8898Z" fill="black"/>
<path d="M139.485 77.3919C139.485 77.3919 135.69 113.966 136.272 130.215C136.872 147.116 144.773 199.122 144.773 199.122H153.799C153.799 199.122 152.138 148.107 152.54 131.506C152.981 113.41 159.764 74.4026 159.764 74.4026L139.491 77.3983L139.485 77.3919Z" fill="#263238"/>
<path d="M143.029 195.526C142.985 195.526 143.54 199.276 143.54 199.276H154.52L154.814 195.929L143.029 195.526Z" fill="#407BFF"/>
<path d="M137.734 40.7667C136.737 42.3508 135.728 43.7752 134.674 45.2443C133.633 46.7006 132.535 48.1186 131.41 49.5238C129.143 52.3215 126.728 55.0297 124.02 57.5847C123.305 58.2042 122.641 58.843 121.874 59.4434L121.312 59.8969L121.031 60.1205C120.929 60.2035 120.884 60.2482 120.673 60.3951C119.964 60.9125 119.262 61.2319 118.61 61.4618C117.294 61.9089 116.157 62.0175 115.078 62.0622C114.005 62.1069 113.002 62.0367 112.031 61.9281C108.154 61.449 104.743 60.3696 101.332 58.9069L102.431 55.0617C105.74 55.3938 109.201 55.6748 112.287 55.5343C113.053 55.4896 113.794 55.413 114.452 55.298C115.103 55.183 115.697 54.9978 116.01 54.8125C116.17 54.7295 116.253 54.6465 116.228 54.6273C116.189 54.6529 116.311 54.5443 116.368 54.4868L116.579 54.2888L117.007 53.8864C117.582 53.3754 118.131 52.7558 118.687 52.1937C119.792 51.0057 120.884 49.7857 121.932 48.4827C122.998 47.2116 124.027 45.883 125.042 44.548C126.064 43.2131 127.054 41.8398 128.057 40.4793C129.041 39.1188 130.024 37.6944 130.944 36.3658L137.715 40.7667H137.734Z" fill="#FFC3BD"/>
<path d="M141.445 39.074C143.591 46.0937 131.136 53.8927 131.136 53.8927L123.037 43.5707C123.037 43.5707 125.285 39.042 129.743 34.1876C135.249 28.1899 139.81 33.7277 141.445 39.074Z" fill="#407BFF"/>
<g opacity="0.3">
<path d="M141.445 39.074C143.591 46.0937 131.136 53.8927 131.136 53.8927L123.037 43.5707C123.037 43.5707 125.285 39.042 129.743 34.1876C135.249 28.1899 139.81 33.7277 141.445 39.074Z" fill="white"/>
</g>
<path d="M104.309 55.3364L97.7558 54.1356L98.4456 59.8139C98.4456 59.8139 101.85 61.7238 104.328 58.7345L104.309 55.3428V55.3364Z" fill="#FFC3BD"/>
<path d="M95.2324 55.4131L96.6504 59.5074L98.4389 59.8076L97.7491 54.1292L95.2324 55.4131Z" fill="#FFC3BD"/>
</svg>
