<svg width="190" height="198" viewBox="0 0 190 198" fill="none" xmlns="http://www.w3.org/2000/svg">
<g clip-path="url(#clip0_780_10379)">
<mask id="path-1-outside-1_780_10379" maskUnits="userSpaceOnUse" x="-24.2831" y="-19.4612" width="239.445" height="239.445" fill="black">
<rect fill="white" x="-24.2831" y="-19.4612" width="239.445" height="239.445"/>
<path d="M187.209 76.5719C200.148 127.497 169.354 179.27 118.428 192.209C67.5028 205.148 15.7304 174.354 2.79143 123.428C-10.1476 72.5028 20.6465 20.7305 71.5719 7.79147C122.497 -5.14753 174.27 25.6465 187.209 76.5719ZM43.3632 113.12C50.609 141.638 79.6015 158.883 108.12 151.637C136.638 144.391 153.883 115.398 146.637 86.8803C139.391 58.3621 110.398 41.1174 81.8802 48.3632C53.362 55.6091 36.1174 84.6016 43.3632 113.12Z"/>
</mask>
<path d="M187.209 76.5719C200.148 127.497 169.354 179.27 118.428 192.209C67.5028 205.148 15.7304 174.354 2.79143 123.428C-10.1476 72.5028 20.6465 20.7305 71.5719 7.79147C122.497 -5.14753 174.27 25.6465 187.209 76.5719ZM43.3632 113.12C50.609 141.638 79.6015 158.883 108.12 151.637C136.638 144.391 153.883 115.398 146.637 86.8803C139.391 58.3621 110.398 41.1174 81.8802 48.3632C53.362 55.6091 36.1174 84.6016 43.3632 113.12Z" fill="#141517"/>
<path d="M187.209 76.5719C200.148 127.497 169.354 179.27 118.428 192.209C67.5028 205.148 15.7304 174.354 2.79143 123.428C-10.1476 72.5028 20.6465 20.7305 71.5719 7.79147C122.497 -5.14753 174.27 25.6465 187.209 76.5719ZM43.3632 113.12C50.609 141.638 79.6015 158.883 108.12 151.637C136.638 144.391 153.883 115.398 146.637 86.8803C139.391 58.3621 110.398 41.1174 81.8802 48.3632C53.362 55.6091 36.1174 84.6016 43.3632 113.12Z" stroke="white" stroke-width="6" mask="url(#path-1-outside-1_780_10379)"/>
<mask id="path-2-outside-2_780_10379" maskUnits="userSpaceOnUse" x="-24.1539" y="-17.8861" width="238.953" height="237.507" fill="black">
<rect fill="white" x="-24.1539" y="-17.8861" width="238.953" height="237.507"/>
<path d="M95.8722 4.50643C117.881 4.79227 139.11 12.7006 155.942 26.8838C172.774 41.0671 184.167 60.6477 188.18 82.2895C192.194 103.931 188.579 126.295 177.952 145.57C167.325 164.846 150.343 179.84 129.9 187.998C109.457 196.157 86.8178 196.974 65.8396 190.312C44.8613 183.65 26.8422 169.92 14.8524 151.461C2.86255 133.002 -2.3561 110.958 0.0856029 89.0828C2.52731 67.2079 12.4783 46.8564 28.243 31.4958L57.4563 61.4778C48.628 70.0797 43.0554 81.4766 41.6881 93.7265C40.3207 105.976 43.2432 118.322 49.9575 128.658C56.6718 138.995 66.7625 146.684 78.5103 150.415C90.2581 154.146 102.936 153.688 114.384 149.119C125.832 144.551 135.342 136.154 141.293 125.36C147.244 114.565 149.269 102.042 147.021 89.9223C144.774 77.8029 138.393 66.8377 128.968 58.8951C119.542 50.9525 107.654 46.5238 95.3286 46.3638L95.8722 4.50643Z"/>
</mask>
<path d="M95.8722 4.50643C117.881 4.79227 139.11 12.7006 155.942 26.8838C172.774 41.0671 184.167 60.6477 188.18 82.2895C192.194 103.931 188.579 126.295 177.952 145.57C167.325 164.846 150.343 179.84 129.9 187.998C109.457 196.157 86.8178 196.974 65.8396 190.312C44.8613 183.65 26.8422 169.92 14.8524 151.461C2.86255 133.002 -2.3561 110.958 0.0856029 89.0828C2.52731 67.2079 12.4783 46.8564 28.243 31.4958L57.4563 61.4778C48.628 70.0797 43.0554 81.4766 41.6881 93.7265C40.3207 105.976 43.2432 118.322 49.9575 128.658C56.6718 138.995 66.7625 146.684 78.5103 150.415C90.2581 154.146 102.936 153.688 114.384 149.119C125.832 144.551 135.342 136.154 141.293 125.36C147.244 114.565 149.269 102.042 147.021 89.9223C144.774 77.8029 138.393 66.8377 128.968 58.8951C119.542 50.9525 107.654 46.5238 95.3286 46.3638L95.8722 4.50643Z" fill="#324054"/>
<path d="M95.8722 4.50643C117.881 4.79227 139.11 12.7006 155.942 26.8838C172.774 41.0671 184.167 60.6477 188.18 82.2895C192.194 103.931 188.579 126.295 177.952 145.57C167.325 164.846 150.343 179.84 129.9 187.998C109.457 196.157 86.8178 196.974 65.8396 190.312C44.8613 183.65 26.8422 169.92 14.8524 151.461C2.86255 133.002 -2.3561 110.958 0.0856029 89.0828C2.52731 67.2079 12.4783 46.8564 28.243 31.4958L57.4563 61.4778C48.628 70.0797 43.0554 81.4766 41.6881 93.7265C40.3207 105.976 43.2432 118.322 49.9575 128.658C56.6718 138.995 66.7625 146.684 78.5103 150.415C90.2581 154.146 102.936 153.688 114.384 149.119C125.832 144.551 135.342 136.154 141.293 125.36C147.244 114.565 149.269 102.042 147.021 89.9223C144.774 77.8029 138.393 66.8377 128.968 58.8951C119.542 50.9525 107.654 46.5238 95.3286 46.3638L95.8722 4.50643Z" stroke="white" stroke-width="6" mask="url(#path-2-outside-2_780_10379)"/>
<mask id="path-3-outside-3_780_10379" maskUnits="userSpaceOnUse" x="-23.7906" y="-17.5228" width="238.953" height="237.507" fill="black">
<rect fill="white" x="-23.7906" y="-17.5228" width="238.953" height="237.507"/>
<path d="M96.2355 4.86975C114.627 5.10862 132.556 10.6738 147.85 20.8916C163.145 31.1094 175.149 45.5416 182.411 62.4411C189.672 79.3406 191.879 97.9827 188.764 116.111C185.65 134.239 177.347 151.075 164.861 164.581C152.375 178.088 136.242 187.685 118.414 192.212C100.586 196.739 81.8284 196.001 64.4115 190.087C46.9946 184.173 31.6654 173.337 20.2797 158.891C8.89401 144.445 1.94001 127.009 0.259565 108.692L41.9454 104.868C42.8864 115.125 46.7806 124.889 53.1566 132.979C59.5326 141.069 68.117 147.137 77.8705 150.449C87.6239 153.76 98.1283 154.174 108.112 151.639C118.095 149.104 127.13 143.729 134.122 136.166C141.114 128.602 145.764 119.174 147.508 109.022C149.252 98.8704 148.016 88.4308 143.95 78.9671C139.884 69.5033 133.161 61.4213 124.596 55.6993C116.031 49.9774 105.991 46.8608 95.6919 46.7271L96.2355 4.86975Z"/>
</mask>
<path d="M96.2355 4.86975C114.627 5.10862 132.556 10.6738 147.85 20.8916C163.145 31.1094 175.149 45.5416 182.411 62.4411C189.672 79.3406 191.879 97.9827 188.764 116.111C185.65 134.239 177.347 151.075 164.861 164.581C152.375 178.088 136.242 187.685 118.414 192.212C100.586 196.739 81.8284 196.001 64.4115 190.087C46.9946 184.173 31.6654 173.337 20.2797 158.891C8.89401 144.445 1.94001 127.009 0.259565 108.692L41.9454 104.868C42.8864 115.125 46.7806 124.889 53.1566 132.979C59.5326 141.069 68.117 147.137 77.8705 150.449C87.6239 153.76 98.1283 154.174 108.112 151.639C118.095 149.104 127.13 143.729 134.122 136.166C141.114 128.602 145.764 119.174 147.508 109.022C149.252 98.8704 148.016 88.4308 143.95 78.9671C139.884 69.5033 133.161 61.4213 124.596 55.6993C116.031 49.9774 105.991 46.8608 95.6919 46.7271L96.2355 4.86975Z" fill="#B0D0FF"/>
<path d="M96.2355 4.86975C114.627 5.10862 132.556 10.6738 147.85 20.8916C163.145 31.1094 175.149 45.5416 182.411 62.4411C189.672 79.3406 191.879 97.9827 188.764 116.111C185.65 134.239 177.347 151.075 164.861 164.581C152.375 178.088 136.242 187.685 118.414 192.212C100.586 196.739 81.8284 196.001 64.4115 190.087C46.9946 184.173 31.6654 173.337 20.2797 158.891C8.89401 144.445 1.94001 127.009 0.259565 108.692L41.9454 104.868C42.8864 115.125 46.7806 124.889 53.1566 132.979C59.5326 141.069 68.117 147.137 77.8705 150.449C87.6239 153.76 98.1283 154.174 108.112 151.639C118.095 149.104 127.13 143.729 134.122 136.166C141.114 128.602 145.764 119.174 147.508 109.022C149.252 98.8704 148.016 88.4308 143.95 78.9671C139.884 69.5033 133.161 61.4213 124.596 55.6993C116.031 49.9774 105.991 46.8608 95.6919 46.7271L96.2355 4.86975Z" stroke="white" stroke-width="6" mask="url(#path-3-outside-3_780_10379)"/>
<mask id="path-4-outside-4_780_10379" maskUnits="userSpaceOnUse" x="-2.46807" y="-17.5228" width="217.63" height="232.089" fill="black">
<rect fill="white" x="-2.46807" y="-17.5228" width="217.63" height="232.089"/>
<path d="M96.2355 4.86975C111.114 5.06298 125.739 8.74317 138.936 15.6147C152.134 22.4861 163.536 32.3573 172.226 44.4352C180.916 56.513 186.652 70.4607 188.973 85.1578C191.295 99.8549 190.136 114.892 185.592 129.06C181.047 143.228 173.242 156.133 162.805 166.737C152.367 177.341 139.588 185.35 125.494 190.119C111.4 194.888 96.3833 196.285 81.6512 194.197C66.9191 192.11 52.8821 186.595 40.6678 178.098L64.574 143.735C71.414 148.494 79.2747 151.581 87.5247 152.75C95.7746 153.92 104.184 153.137 112.077 150.467C119.969 147.796 127.126 143.311 132.971 137.373C138.816 131.434 143.186 124.208 145.731 116.273C148.276 108.339 148.925 99.9188 147.625 91.6884C146.325 83.458 143.113 75.6473 138.247 68.8837C133.38 62.1201 126.995 56.5923 119.604 52.7442C112.214 48.8962 104.024 46.8353 95.6919 46.7271L96.2355 4.86975Z"/>
</mask>
<path d="M96.2355 4.86975C111.114 5.06298 125.739 8.74317 138.936 15.6147C152.134 22.4861 163.536 32.3573 172.226 44.4352C180.916 56.513 186.652 70.4607 188.973 85.1578C191.295 99.8549 190.136 114.892 185.592 129.06C181.047 143.228 173.242 156.133 162.805 166.737C152.367 177.341 139.588 185.35 125.494 190.119C111.4 194.888 96.3833 196.285 81.6512 194.197C66.9191 192.11 52.8821 186.595 40.6678 178.098L64.574 143.735C71.414 148.494 79.2747 151.581 87.5247 152.75C95.7746 153.92 104.184 153.137 112.077 150.467C119.969 147.796 127.126 143.311 132.971 137.373C138.816 131.434 143.186 124.208 145.731 116.273C148.276 108.339 148.925 99.9188 147.625 91.6884C146.325 83.458 143.113 75.6473 138.247 68.8837C133.38 62.1201 126.995 56.5923 119.604 52.7442C112.214 48.8962 104.024 46.8353 95.6919 46.7271L96.2355 4.86975Z" fill="#2D72DB"/>
<path d="M96.2355 4.86975C111.114 5.06298 125.739 8.74317 138.936 15.6147C152.134 22.4861 163.536 32.3573 172.226 44.4352C180.916 56.513 186.652 70.4607 188.973 85.1578C191.295 99.8549 190.136 114.892 185.592 129.06C181.047 143.228 173.242 156.133 162.805 166.737C152.367 177.341 139.588 185.35 125.494 190.119C111.4 194.888 96.3833 196.285 81.6512 194.197C66.9191 192.11 52.8821 186.595 40.6678 178.098L64.574 143.735C71.414 148.494 79.2747 151.581 87.5247 152.75C95.7746 153.92 104.184 153.137 112.077 150.467C119.969 147.796 127.126 143.311 132.971 137.373C138.816 131.434 143.186 124.208 145.731 116.273C148.276 108.339 148.925 99.9188 147.625 91.6884C146.325 83.458 143.113 75.6473 138.247 68.8837C133.38 62.1201 126.995 56.5923 119.604 52.7442C112.214 48.8962 104.024 46.8353 95.6919 46.7271L96.2355 4.86975Z" stroke="white" stroke-width="6" mask="url(#path-4-outside-4_780_10379)"/>
<path d="M76.7418 99V97.0966L81.7915 92.1463C82.2745 91.6586 82.677 91.2254 82.9989 90.8466C83.3209 90.4678 83.5624 90.1009 83.7234 89.7457C83.8844 89.3906 83.9648 89.0118 83.9648 88.6094C83.9648 88.1501 83.8607 87.7571 83.6523 87.4304C83.444 87.099 83.1576 86.8433 82.793 86.6634C82.4284 86.4834 82.0141 86.3935 81.5501 86.3935C81.0719 86.3935 80.6528 86.4929 80.293 86.6918C79.9331 86.8859 79.6538 87.1629 79.4549 87.5227C79.2608 87.8826 79.1637 88.3111 79.1637 88.8082H76.6566C76.6566 87.8849 76.8673 87.0824 77.2887 86.4006C77.7101 85.7187 78.2901 85.1908 79.0288 84.8168C79.7721 84.4427 80.6244 84.2557 81.5856 84.2557C82.561 84.2557 83.418 84.438 84.1566 84.8026C84.8952 85.1671 85.4682 85.6667 85.8754 86.3011C86.2873 86.9356 86.4933 87.66 86.4933 88.4744C86.4933 89.0189 86.3891 89.554 86.1808 90.0795C85.9724 90.6051 85.6055 91.1875 85.0799 91.8267C84.5591 92.4659 83.8275 93.2401 82.8853 94.1491L80.3782 96.6989V96.7983H86.7134V99H76.7418ZM94.5401 99.277C93.3706 99.277 92.3668 98.9811 91.5288 98.3892C90.6954 97.7926 90.0539 96.9332 89.604 95.8111C89.159 94.6842 88.9364 93.3277 88.9364 91.7415C88.9412 90.1553 89.1661 88.8059 89.6112 87.6932C90.061 86.5758 90.7025 85.7235 91.5359 85.1364C92.3739 84.5492 93.3754 84.2557 94.5401 84.2557C95.7049 84.2557 96.7063 84.5492 97.5444 85.1364C98.3825 85.7235 99.024 86.5758 99.4691 87.6932C99.9189 88.8106 100.144 90.16 100.144 91.7415C100.144 93.3324 99.9189 94.6913 99.4691 95.8182C99.024 96.9403 98.3825 97.7973 97.5444 98.3892C96.7111 98.9811 95.7096 99.277 94.5401 99.277ZM94.5401 97.054C95.4492 97.054 96.1665 96.6065 96.6921 95.7116C97.2224 94.812 97.4876 93.4886 97.4876 91.7415C97.4876 90.5862 97.3668 89.6155 97.1254 88.8295C96.8839 88.0436 96.543 87.4517 96.1026 87.054C95.6623 86.6515 95.1415 86.4503 94.5401 86.4503C93.6358 86.4503 92.9208 86.9001 92.3952 87.7997C91.8697 88.6946 91.6045 90.0085 91.5998 91.7415C91.5951 92.9015 91.7111 93.8769 91.9478 94.6676C92.1893 95.4583 92.5302 96.0549 92.9705 96.4574C93.4109 96.8551 93.9341 97.054 94.5401 97.054ZM107.88 99.277C106.71 99.277 105.707 98.9811 104.869 98.3892C104.035 97.7926 103.394 96.9332 102.944 95.8111C102.499 94.6842 102.276 93.3277 102.276 91.7415C102.281 90.1553 102.506 88.8059 102.951 87.6932C103.401 86.5758 104.042 85.7235 104.876 85.1364C105.714 84.5492 106.715 84.2557 107.88 84.2557C109.045 84.2557 110.046 84.5492 110.884 85.1364C111.722 85.7235 112.364 86.5758 112.809 87.6932C113.259 88.8106 113.484 90.16 113.484 91.7415C113.484 93.3324 113.259 94.6913 112.809 95.8182C112.364 96.9403 111.722 97.7973 110.884 98.3892C110.051 98.9811 109.049 99.277 107.88 99.277ZM107.88 97.054C108.789 97.054 109.506 96.6065 110.032 95.7116C110.562 94.812 110.827 93.4886 110.827 91.7415C110.827 90.5862 110.707 89.6155 110.465 88.8295C110.224 88.0436 109.883 87.4517 109.442 87.054C109.002 86.6515 108.481 86.4503 107.88 86.4503C106.976 86.4503 106.261 86.9001 105.735 87.7997C105.21 88.6946 104.944 90.0085 104.94 91.7415C104.935 92.9015 105.051 93.8769 105.288 94.6676C105.529 95.4583 105.87 96.0549 106.31 96.4574C106.751 96.8551 107.274 97.054 107.88 97.054Z" fill="#141517"/>
<path d="M85.414 113.418C85.414 114.226 85.2662 114.921 84.9705 115.502C84.6749 116.081 84.2696 116.527 83.7547 116.84C83.2423 117.15 82.6596 117.305 82.0068 117.305C81.3514 117.305 80.7663 117.15 80.2514 116.84C79.739 116.527 79.335 116.08 79.0393 115.498C78.7437 114.917 78.5959 114.223 78.5959 113.418C78.5959 112.61 78.7437 111.916 79.0393 111.337C79.335 110.756 79.739 110.31 80.2514 110C80.7663 109.687 81.3514 109.53 82.0068 109.53C82.6596 109.53 83.2423 109.687 83.7547 110C84.2696 110.31 84.6749 110.756 84.9705 111.337C85.2662 111.916 85.414 112.61 85.414 113.418ZM84.2832 113.418C84.2832 112.802 84.1834 112.283 83.9838 111.862C83.7868 111.438 83.5158 111.118 83.1708 110.901C82.8284 110.682 82.4404 110.572 82.0068 110.572C81.5707 110.572 81.1815 110.682 80.839 110.901C80.4966 111.118 80.2256 111.438 80.026 111.862C79.8289 112.283 79.7304 112.802 79.7304 113.418C79.7304 114.034 79.8289 114.554 80.026 114.977C80.2256 115.399 80.4966 115.719 80.839 115.938C81.1815 116.155 81.5707 116.263 82.0068 116.263C82.4404 116.263 82.8284 116.155 83.1708 115.938C83.5158 115.719 83.7868 115.399 83.9838 114.977C84.1834 114.554 84.2832 114.034 84.2832 113.418ZM86.749 117.202V111.526H87.817V112.427H87.8761C87.9796 112.122 88.1619 111.882 88.423 111.707C88.6866 111.529 88.9847 111.441 89.3173 111.441C89.3863 111.441 89.4676 111.443 89.5612 111.448C89.6573 111.453 89.7324 111.459 89.7866 111.467V112.524C89.7423 112.511 89.6635 112.498 89.5501 112.483C89.4368 112.466 89.3235 112.457 89.2101 112.457C88.949 112.457 88.7162 112.512 88.5117 112.623C88.3097 112.732 88.1495 112.883 88.0313 113.078C87.913 113.27 87.8539 113.489 87.8539 113.736V117.202H86.749ZM92.6645 117.313C92.2062 117.313 91.7973 117.196 91.4376 116.962C91.0804 116.725 90.7995 116.389 90.595 115.953C90.393 115.514 90.292 114.988 90.292 114.375C90.292 113.762 90.3942 113.237 90.5987 112.801C90.8057 112.365 91.089 112.031 91.4487 111.799C91.8084 111.568 92.2161 111.452 92.6719 111.452C93.0242 111.452 93.3075 111.511 93.5218 111.629C93.7386 111.745 93.9061 111.881 94.0244 112.036C94.1451 112.191 94.2387 112.328 94.3053 112.446H94.3718V109.634H95.4767V117.202H94.3976V116.319H94.3053C94.2387 116.439 94.1427 116.577 94.017 116.733C93.8938 116.888 93.7238 117.023 93.507 117.139C93.2902 117.255 93.0094 117.313 92.6645 117.313ZM92.9084 116.37C93.2262 116.37 93.4947 116.287 93.714 116.119C93.9357 115.949 94.1032 115.714 94.2166 115.413C94.3324 115.113 94.3902 114.763 94.3902 114.364C94.3902 113.97 94.3336 113.625 94.2203 113.329C94.1069 113.033 93.9406 112.803 93.7214 112.638C93.5021 112.473 93.2311 112.39 92.9084 112.39C92.5758 112.39 92.2986 112.477 92.0769 112.649C91.8552 112.822 91.6876 113.057 91.5743 113.355C91.4634 113.653 91.408 113.989 91.408 114.364C91.408 114.743 91.4647 115.084 91.578 115.388C91.6913 115.691 91.8589 115.931 92.0806 116.108C92.3048 116.283 92.5807 116.37 92.9084 116.37ZM99.5001 117.317C98.9409 117.317 98.4593 117.197 98.0552 116.958C97.6536 116.717 97.3432 116.378 97.124 115.942C96.9072 115.503 96.7988 114.99 96.7988 114.401C96.7988 113.819 96.9072 113.307 97.124 112.864C97.3432 112.42 97.6487 112.074 98.0404 111.825C98.4346 111.576 98.8953 111.452 99.4225 111.452C99.7428 111.452 100.053 111.505 100.354 111.611C100.654 111.717 100.924 111.883 101.163 112.11C101.402 112.336 101.591 112.631 101.729 112.993C101.866 113.353 101.935 113.79 101.935 114.305V114.696H97.4233V113.869H100.853C100.853 113.578 100.794 113.321 100.675 113.096C100.557 112.87 100.391 112.691 100.176 112.56C99.9645 112.43 99.7157 112.365 99.4299 112.365C99.1195 112.365 98.8485 112.441 98.6169 112.594C98.3878 112.744 98.2104 112.941 98.0848 113.185C97.9616 113.426 97.9 113.689 97.9 113.972V114.619C97.9 114.998 97.9665 115.321 98.0996 115.587C98.2351 115.853 98.4235 116.056 98.665 116.197C98.9064 116.335 99.1885 116.404 99.5112 116.404C99.7206 116.404 99.9116 116.374 100.084 116.315C100.256 116.253 100.406 116.162 100.531 116.042C100.657 115.921 100.753 115.772 100.819 115.594L101.865 115.783C101.781 116.091 101.631 116.361 101.414 116.592C101.2 116.821 100.93 117 100.605 117.128C100.282 117.254 99.914 117.317 99.5001 117.317ZM103.161 117.202V111.526H104.229V112.427H104.289C104.392 112.122 104.574 111.882 104.835 111.707C105.099 111.529 105.397 111.441 105.73 111.441C105.799 111.441 105.88 111.443 105.974 111.448C106.07 111.453 106.145 111.459 106.199 111.467V112.524C106.155 112.511 106.076 112.498 105.963 112.483C105.849 112.466 105.736 112.457 105.623 112.457C105.361 112.457 105.129 112.512 104.924 112.623C104.722 112.732 104.562 112.883 104.444 113.078C104.325 113.27 104.266 113.489 104.266 113.736V117.202H103.161ZM111.409 112.912L110.407 113.089C110.365 112.961 110.299 112.839 110.208 112.723C110.119 112.607 109.998 112.512 109.846 112.439C109.693 112.365 109.502 112.328 109.273 112.328C108.96 112.328 108.699 112.398 108.489 112.538C108.28 112.676 108.175 112.855 108.175 113.074C108.175 113.264 108.245 113.417 108.386 113.532C108.526 113.648 108.753 113.743 109.066 113.817L109.968 114.024C110.49 114.145 110.879 114.331 111.135 114.582C111.392 114.833 111.52 115.16 111.52 115.561C111.52 115.901 111.421 116.204 111.224 116.47C111.029 116.734 110.757 116.941 110.407 117.091C110.06 117.241 109.657 117.317 109.199 117.317C108.563 117.317 108.045 117.181 107.643 116.91C107.242 116.637 106.995 116.249 106.904 115.746L107.972 115.583C108.038 115.862 108.175 116.072 108.382 116.215C108.589 116.356 108.859 116.426 109.191 116.426C109.554 116.426 109.843 116.351 110.06 116.201C110.277 116.048 110.385 115.862 110.385 115.642C110.385 115.465 110.319 115.316 110.186 115.195C110.055 115.075 109.854 114.983 109.583 114.922L108.622 114.711C108.093 114.591 107.701 114.398 107.447 114.135C107.196 113.871 107.07 113.537 107.07 113.133C107.07 112.798 107.164 112.505 107.351 112.254C107.538 112.002 107.797 111.807 108.127 111.666C108.457 111.523 108.835 111.452 109.262 111.452C109.875 111.452 110.358 111.585 110.71 111.851C111.063 112.115 111.295 112.468 111.409 112.912Z" fill="#5B5F65"/>
</g>
<defs>
<clipPath id="clip0_780_10379">
<rect width="190" height="198" fill="white"/>
</clipPath>
</defs>
</svg>
