<svg width="190" height="198" viewBox="0 0 190 198" fill="none" xmlns="http://www.w3.org/2000/svg">
<g clip-path="url(#clip0_1434_10168)">
<mask id="path-1-outside-1_1434_10168" maskUnits="userSpaceOnUse" x="-24.2831" y="-19.4612" width="239.445" height="239.445" fill="black">
<rect fill="white" x="-24.2831" y="-19.4612" width="239.445" height="239.445"/>
<path d="M187.209 76.5719C200.148 127.497 169.354 179.27 118.428 192.209C67.5028 205.148 15.7305 174.354 2.79144 123.428C-10.1476 72.5028 20.6465 20.7305 71.5719 7.79146C122.497 -5.14755 174.27 25.6465 187.209 76.5719ZM43.3632 113.12C50.6091 141.638 79.6016 158.883 108.12 151.637C136.638 144.391 153.883 115.398 146.637 86.8803C139.391 58.362 110.398 41.1174 81.8803 48.3632C53.362 55.6091 36.1174 84.6016 43.3632 113.12Z"/>
</mask>
<path d="M187.209 76.5719C200.148 127.497 169.354 179.27 118.428 192.209C67.5028 205.148 15.7305 174.354 2.79144 123.428C-10.1476 72.5028 20.6465 20.7305 71.5719 7.79146C122.497 -5.14755 174.27 25.6465 187.209 76.5719ZM43.3632 113.12C50.6091 141.638 79.6016 158.883 108.12 151.637C136.638 144.391 153.883 115.398 146.637 86.8803C139.391 58.362 110.398 41.1174 81.8803 48.3632C53.362 55.6091 36.1174 84.6016 43.3632 113.12Z" fill="#141517"/>
<path d="M187.209 76.5719C200.148 127.497 169.354 179.27 118.428 192.209C67.5028 205.148 15.7305 174.354 2.79144 123.428C-10.1476 72.5028 20.6465 20.7305 71.5719 7.79146C122.497 -5.14755 174.27 25.6465 187.209 76.5719ZM43.3632 113.12C50.6091 141.638 79.6016 158.883 108.12 151.637C136.638 144.391 153.883 115.398 146.637 86.8803C139.391 58.362 110.398 41.1174 81.8803 48.3632C53.362 55.6091 36.1174 84.6016 43.3632 113.12Z" stroke="white" stroke-width="6" mask="url(#path-1-outside-1_1434_10168)"/>
<mask id="path-2-outside-2_1434_10168" maskUnits="userSpaceOnUse" x="-24.1539" y="-17.8861" width="238.953" height="237.507" fill="black">
<rect fill="white" x="-24.1539" y="-17.8861" width="238.953" height="237.507"/>
<path d="M95.8722 4.50646C117.881 4.7923 139.11 12.7006 155.942 26.8838C172.774 41.0671 184.167 60.6478 188.18 82.2895C192.194 103.931 188.579 126.295 177.952 145.57C167.325 164.846 150.343 179.84 129.9 187.998C109.457 196.157 86.8178 196.974 65.8396 190.312C44.8613 183.65 26.8422 169.92 14.8524 151.461C2.86255 133.003 -2.3561 110.958 0.0856029 89.0828C2.52731 67.2079 12.4783 46.8564 28.243 31.4959L57.4563 61.4779C48.628 70.0797 43.0554 81.4766 41.6881 93.7265C40.3207 105.976 43.2432 118.322 49.9575 128.658C56.6718 138.995 66.7625 146.684 78.5103 150.415C90.2581 154.146 102.936 153.688 114.384 149.119C125.832 144.551 135.342 136.154 141.293 125.36C147.244 114.565 149.269 102.042 147.021 89.9223C144.774 77.8029 138.393 66.8377 128.968 58.8951C119.542 50.9525 107.654 46.5239 95.3286 46.3638L95.8722 4.50646Z"/>
</mask>
<path d="M95.8722 4.50646C117.881 4.7923 139.11 12.7006 155.942 26.8838C172.774 41.0671 184.167 60.6478 188.18 82.2895C192.194 103.931 188.579 126.295 177.952 145.57C167.325 164.846 150.343 179.84 129.9 187.998C109.457 196.157 86.8178 196.974 65.8396 190.312C44.8613 183.65 26.8422 169.92 14.8524 151.461C2.86255 133.003 -2.3561 110.958 0.0856029 89.0828C2.52731 67.2079 12.4783 46.8564 28.243 31.4959L57.4563 61.4779C48.628 70.0797 43.0554 81.4766 41.6881 93.7265C40.3207 105.976 43.2432 118.322 49.9575 128.658C56.6718 138.995 66.7625 146.684 78.5103 150.415C90.2581 154.146 102.936 153.688 114.384 149.119C125.832 144.551 135.342 136.154 141.293 125.36C147.244 114.565 149.269 102.042 147.021 89.9223C144.774 77.8029 138.393 66.8377 128.968 58.8951C119.542 50.9525 107.654 46.5239 95.3286 46.3638L95.8722 4.50646Z" fill="#324054"/>
<path d="M95.8722 4.50646C117.881 4.7923 139.11 12.7006 155.942 26.8838C172.774 41.0671 184.167 60.6478 188.18 82.2895C192.194 103.931 188.579 126.295 177.952 145.57C167.325 164.846 150.343 179.84 129.9 187.998C109.457 196.157 86.8178 196.974 65.8396 190.312C44.8613 183.65 26.8422 169.92 14.8524 151.461C2.86255 133.003 -2.3561 110.958 0.0856029 89.0828C2.52731 67.2079 12.4783 46.8564 28.243 31.4959L57.4563 61.4779C48.628 70.0797 43.0554 81.4766 41.6881 93.7265C40.3207 105.976 43.2432 118.322 49.9575 128.658C56.6718 138.995 66.7625 146.684 78.5103 150.415C90.2581 154.146 102.936 153.688 114.384 149.119C125.832 144.551 135.342 136.154 141.293 125.36C147.244 114.565 149.269 102.042 147.021 89.9223C144.774 77.8029 138.393 66.8377 128.968 58.8951C119.542 50.9525 107.654 46.5239 95.3286 46.3638L95.8722 4.50646Z" stroke="white" stroke-width="6" mask="url(#path-2-outside-2_1434_10168)"/>
<mask id="path-3-outside-3_1434_10168" maskUnits="userSpaceOnUse" x="-23.7906" y="-17.5228" width="238.953" height="237.507" fill="black">
<rect fill="white" x="-23.7906" y="-17.5228" width="238.953" height="237.507"/>
<path d="M96.2355 4.86974C114.628 5.10861 132.556 10.6738 147.85 20.8916C163.145 31.1094 175.149 45.5416 182.411 62.4411C189.672 79.3406 191.879 97.9827 188.764 116.111C185.65 134.238 177.347 151.075 164.861 164.581C152.375 178.088 136.242 187.685 118.414 192.212C100.586 196.739 81.8285 196.001 64.4116 190.087C46.9946 184.173 31.6655 173.337 20.2797 158.891C8.89403 144.445 1.94002 127.009 0.25958 108.692L41.9454 104.867C42.8864 115.125 46.7807 124.889 53.1567 132.979C59.5327 141.069 68.117 147.137 77.8705 150.449C87.6239 153.76 98.1283 154.174 108.112 151.639C118.095 149.104 127.13 143.729 134.122 136.166C141.114 128.602 145.764 119.174 147.508 109.022C149.252 98.8703 148.016 88.4308 143.95 78.967C139.884 69.5033 133.161 61.4213 124.596 55.6993C116.031 49.9773 105.991 46.8608 95.6919 46.7271L96.2355 4.86974Z"/>
</mask>
<path d="M96.2355 4.86974C114.628 5.10861 132.556 10.6738 147.85 20.8916C163.145 31.1094 175.149 45.5416 182.411 62.4411C189.672 79.3406 191.879 97.9827 188.764 116.111C185.65 134.238 177.347 151.075 164.861 164.581C152.375 178.088 136.242 187.685 118.414 192.212C100.586 196.739 81.8285 196.001 64.4116 190.087C46.9946 184.173 31.6655 173.337 20.2797 158.891C8.89403 144.445 1.94002 127.009 0.25958 108.692L41.9454 104.867C42.8864 115.125 46.7807 124.889 53.1567 132.979C59.5327 141.069 68.117 147.137 77.8705 150.449C87.6239 153.76 98.1283 154.174 108.112 151.639C118.095 149.104 127.13 143.729 134.122 136.166C141.114 128.602 145.764 119.174 147.508 109.022C149.252 98.8703 148.016 88.4308 143.95 78.967C139.884 69.5033 133.161 61.4213 124.596 55.6993C116.031 49.9773 105.991 46.8608 95.6919 46.7271L96.2355 4.86974Z" fill="#B0D0FF"/>
<path d="M96.2355 4.86974C114.628 5.10861 132.556 10.6738 147.85 20.8916C163.145 31.1094 175.149 45.5416 182.411 62.4411C189.672 79.3406 191.879 97.9827 188.764 116.111C185.65 134.238 177.347 151.075 164.861 164.581C152.375 178.088 136.242 187.685 118.414 192.212C100.586 196.739 81.8285 196.001 64.4116 190.087C46.9946 184.173 31.6655 173.337 20.2797 158.891C8.89403 144.445 1.94002 127.009 0.25958 108.692L41.9454 104.867C42.8864 115.125 46.7807 124.889 53.1567 132.979C59.5327 141.069 68.117 147.137 77.8705 150.449C87.6239 153.76 98.1283 154.174 108.112 151.639C118.095 149.104 127.13 143.729 134.122 136.166C141.114 128.602 145.764 119.174 147.508 109.022C149.252 98.8703 148.016 88.4308 143.95 78.967C139.884 69.5033 133.161 61.4213 124.596 55.6993C116.031 49.9773 105.991 46.8608 95.6919 46.7271L96.2355 4.86974Z" stroke="white" stroke-width="6" mask="url(#path-3-outside-3_1434_10168)"/>
<mask id="path-4-outside-4_1434_10168" maskUnits="userSpaceOnUse" x="-2.46805" y="-17.5228" width="217.63" height="232.089" fill="black">
<rect fill="white" x="-2.46805" y="-17.5228" width="217.63" height="232.089"/>
<path d="M96.2355 4.86974C111.114 5.06297 125.739 8.74316 138.936 15.6146C152.134 22.4861 163.536 32.3573 172.226 44.4351C180.916 56.513 186.652 70.4607 188.973 85.1578C191.295 99.8549 190.136 114.892 185.592 129.06C181.047 143.228 173.242 156.133 162.805 166.737C152.367 177.341 139.588 185.35 125.494 190.119C111.4 194.888 96.3833 196.285 81.6512 194.197C66.9191 192.109 52.8821 186.595 40.6678 178.098L64.574 143.735C71.414 148.493 79.2747 151.581 87.5247 152.75C95.7746 153.92 104.184 153.137 112.077 150.467C119.969 147.796 127.126 143.311 132.971 137.373C138.816 131.434 143.186 124.208 145.731 116.273C148.276 108.339 148.925 99.9187 147.625 91.6884C146.325 83.458 143.113 75.6473 138.247 68.8837C133.38 62.1201 126.995 56.5922 119.604 52.7442C112.214 48.8962 104.024 46.8353 95.6919 46.7271L96.2355 4.86974Z"/>
</mask>
<path d="M96.2355 4.86974C111.114 5.06297 125.739 8.74316 138.936 15.6146C152.134 22.4861 163.536 32.3573 172.226 44.4351C180.916 56.513 186.652 70.4607 188.973 85.1578C191.295 99.8549 190.136 114.892 185.592 129.06C181.047 143.228 173.242 156.133 162.805 166.737C152.367 177.341 139.588 185.35 125.494 190.119C111.4 194.888 96.3833 196.285 81.6512 194.197C66.9191 192.109 52.8821 186.595 40.6678 178.098L64.574 143.735C71.414 148.493 79.2747 151.581 87.5247 152.75C95.7746 153.92 104.184 153.137 112.077 150.467C119.969 147.796 127.126 143.311 132.971 137.373C138.816 131.434 143.186 124.208 145.731 116.273C148.276 108.339 148.925 99.9187 147.625 91.6884C146.325 83.458 143.113 75.6473 138.247 68.8837C133.38 62.1201 126.995 56.5922 119.604 52.7442C112.214 48.8962 104.024 46.8353 95.6919 46.7271L96.2355 4.86974Z" fill="#2D72DB"/>
<path d="M96.2355 4.86974C111.114 5.06297 125.739 8.74316 138.936 15.6146C152.134 22.4861 163.536 32.3573 172.226 44.4351C180.916 56.513 186.652 70.4607 188.973 85.1578C191.295 99.8549 190.136 114.892 185.592 129.06C181.047 143.228 173.242 156.133 162.805 166.737C152.367 177.341 139.588 185.35 125.494 190.119C111.4 194.888 96.3833 196.285 81.6512 194.197C66.9191 192.109 52.8821 186.595 40.6678 178.098L64.574 143.735C71.414 148.493 79.2747 151.581 87.5247 152.75C95.7746 153.92 104.184 153.137 112.077 150.467C119.969 147.796 127.126 143.311 132.971 137.373C138.816 131.434 143.186 124.208 145.731 116.273C148.276 108.339 148.925 99.9187 147.625 91.6884C146.325 83.458 143.113 75.6473 138.247 68.8837C133.38 62.1201 126.995 56.5922 119.604 52.7442C112.214 48.8962 104.024 46.8353 95.6919 46.7271L96.2355 4.86974Z" stroke="white" stroke-width="6" mask="url(#path-4-outside-4_1434_10168)"/>
<path d="M69.4743 99V97.0966L74.524 92.1463C75.0069 91.6586 75.4094 91.2254 75.7314 90.8466C76.0533 90.4678 76.2948 90.1009 76.4558 89.7457C76.6168 89.3906 76.6973 89.0118 76.6973 88.6094C76.6973 88.1501 76.5931 87.7571 76.3848 87.4304C76.1764 87.099 75.89 86.8433 75.5254 86.6634C75.1608 86.4834 74.7465 86.3935 74.2825 86.3935C73.8043 86.3935 73.3852 86.4929 73.0254 86.6918C72.6655 86.8859 72.3862 87.1629 72.1873 87.5227C71.9932 87.8826 71.8961 88.3111 71.8961 88.8082H69.389C69.389 87.8849 69.5997 87.0824 70.0211 86.4006C70.4425 85.7187 71.0225 85.1908 71.7612 84.8168C72.5046 84.4427 73.3568 84.2557 74.318 84.2557C75.2934 84.2557 76.1504 84.438 76.889 84.8026C77.6277 85.1671 78.2006 85.6667 78.6078 86.3011C79.0197 86.9356 79.2257 87.66 79.2257 88.4744C79.2257 89.0189 79.1215 89.554 78.9132 90.0795C78.7048 90.6051 78.3379 91.1875 77.8123 91.8267C77.2915 92.4659 76.56 93.2401 75.6177 94.1491L73.1106 96.6989V96.7983H79.4458V99H69.4743ZM87.2725 99.277C86.103 99.277 85.0993 98.9811 84.2612 98.3892C83.4279 97.7926 82.7863 96.9332 82.3365 95.8111C81.8914 94.6842 81.6689 93.3277 81.6689 91.7415C81.6736 90.1553 81.8985 88.8059 82.3436 87.6932C82.7934 86.5758 83.435 85.7235 84.2683 85.1364C85.1064 84.5492 86.1078 84.2557 87.2725 84.2557C88.4373 84.2557 89.4387 84.5492 90.2768 85.1364C91.1149 85.7235 91.7565 86.5758 92.2015 87.6932C92.6513 88.8106 92.8762 90.16 92.8762 91.7415C92.8762 93.3324 92.6513 94.6913 92.2015 95.8182C91.7565 96.9403 91.1149 97.7973 90.2768 98.3892C89.4435 98.9811 88.4421 99.277 87.2725 99.277ZM87.2725 97.054C88.1816 97.054 88.899 96.6065 89.4245 95.7116C89.9548 94.812 90.22 93.4886 90.22 91.7415C90.22 90.5862 90.0993 89.6155 89.8578 88.8295C89.6163 88.0436 89.2754 87.4517 88.835 87.054C88.3947 86.6515 87.8739 86.4503 87.2725 86.4503C86.3682 86.4503 85.6532 86.9001 85.1277 87.7997C84.6021 88.6946 84.3369 90.0085 84.3322 91.7415C84.3275 92.9015 84.4435 93.8769 84.6802 94.6676C84.9217 95.4583 85.2626 96.0549 85.7029 96.4574C86.1433 96.8551 86.6665 97.054 87.2725 97.054ZM100.612 99.277C99.4429 99.277 98.4391 98.9811 97.601 98.3892C96.7677 97.7926 96.1261 96.9332 95.6763 95.8111C95.2312 94.6842 95.0087 93.3277 95.0087 91.7415C95.0134 90.1553 95.2383 88.8059 95.6834 87.6932C96.1332 86.5758 96.7748 85.7235 97.6081 85.1364C98.4462 84.5492 99.4476 84.2557 100.612 84.2557C101.777 84.2557 102.779 84.5492 103.617 85.1364C104.455 85.7235 105.096 86.5758 105.541 87.6932C105.991 88.8106 106.216 90.16 106.216 91.7415C106.216 93.3324 105.991 94.6913 105.541 95.8182C105.096 96.9403 104.455 97.7973 103.617 98.3892C102.783 98.9811 101.782 99.277 100.612 99.277ZM100.612 97.054C101.521 97.054 102.239 96.6065 102.764 95.7116C103.295 94.812 103.56 93.4886 103.56 91.7415C103.56 90.5862 103.439 89.6155 103.198 88.8295C102.956 88.0436 102.615 87.4517 102.175 87.054C101.735 86.6515 101.214 86.4503 100.612 86.4503C99.708 86.4503 98.9931 86.9001 98.4675 87.7997C97.9419 88.6946 97.6768 90.0085 97.6721 91.7415C97.6673 92.9015 97.7833 93.8769 98.0201 94.6676C98.2615 95.4583 98.6025 96.0549 99.0428 96.4574C99.4831 96.8551 100.006 97.054 100.612 97.054ZM108.718 99V84.4545H111.353V91.1378H111.53L117.205 84.4545H120.422L114.797 90.9815L120.472 99H117.305L112.965 92.7642L111.353 94.6676V99H108.718Z" fill="#141517"/>
<path d="M85.7321 109.634H86.8777V114.612C86.8777 115.141 86.7532 115.611 86.5044 116.019C86.2556 116.426 85.9058 116.746 85.4549 116.98C85.0041 117.212 84.4756 117.328 83.8696 117.328C83.266 117.328 82.7387 117.212 82.2879 116.98C81.8371 116.746 81.4872 116.426 81.2384 116.019C80.9896 115.611 80.8652 115.141 80.8652 114.612V109.634H82.007V114.519C82.007 114.862 82.0822 115.166 82.2325 115.432C82.3852 115.698 82.6008 115.907 82.8792 116.06C83.1576 116.21 83.4877 116.286 83.8696 116.286C84.2539 116.286 84.5852 116.21 84.8636 116.06C85.1445 115.907 85.3588 115.698 85.5066 115.432C85.6569 115.166 85.7321 114.862 85.7321 114.519V109.634ZM92.7026 112.912L91.7012 113.089C91.6593 112.961 91.5928 112.839 91.5016 112.723C91.4129 112.607 91.2922 112.512 91.1394 112.439C90.9867 112.365 90.7958 112.328 90.5666 112.328C90.2538 112.328 89.9926 112.398 89.7832 112.538C89.5738 112.676 89.4691 112.855 89.4691 113.074C89.4691 113.264 89.5393 113.417 89.6797 113.532C89.8202 113.648 90.0468 113.743 90.3597 113.817L91.2614 114.024C91.7837 114.145 92.1729 114.331 92.4292 114.582C92.6854 114.833 92.8135 115.16 92.8135 115.561C92.8135 115.901 92.7149 116.204 92.5178 116.47C92.3232 116.734 92.051 116.941 91.7012 117.091C91.3538 117.241 90.951 117.317 90.4927 117.317C89.8571 117.317 89.3385 117.181 88.937 116.91C88.5354 116.637 88.289 116.249 88.1979 115.746L89.2658 115.583C89.3324 115.862 89.4691 116.072 89.676 116.215C89.883 116.356 90.1528 116.426 90.4853 116.426C90.8475 116.426 91.137 116.351 91.3538 116.201C91.5706 116.048 91.679 115.862 91.679 115.643C91.679 115.465 91.6125 115.316 91.4794 115.195C91.3489 115.075 91.1481 114.984 90.8771 114.922L89.9162 114.711C89.3866 114.591 88.9948 114.398 88.7411 114.135C88.4898 113.871 88.3642 113.537 88.3642 113.133C88.3642 112.798 88.4578 112.505 88.645 112.254C88.8322 112.003 89.0909 111.807 89.4211 111.666C89.7512 111.523 90.1294 111.452 90.5556 111.452C91.169 111.452 91.6519 111.585 92.0042 111.851C92.3565 112.115 92.5893 112.468 92.7026 112.912ZM96.4748 117.317C95.9155 117.317 95.4339 117.197 95.0298 116.958C94.6283 116.717 94.3178 116.378 94.0986 115.942C93.8818 115.503 93.7734 114.99 93.7734 114.401C93.7734 113.819 93.8818 113.307 94.0986 112.864C94.3178 112.42 94.6233 112.074 95.0151 111.825C95.4092 111.576 95.8699 111.452 96.3972 111.452C96.7174 111.452 97.0278 111.505 97.3284 111.611C97.629 111.717 97.8987 111.883 98.1377 112.11C98.3767 112.336 98.5652 112.631 98.7031 112.993C98.8411 113.353 98.9101 113.79 98.9101 114.305V114.697H94.3979V113.869H97.8273C97.8273 113.578 97.7682 113.321 97.6499 113.096C97.5317 112.87 97.3654 112.691 97.151 112.561C96.9392 112.43 96.6903 112.365 96.4045 112.365C96.0941 112.365 95.8231 112.441 95.5915 112.594C95.3624 112.744 95.185 112.941 95.0594 113.185C94.9362 113.427 94.8746 113.689 94.8746 113.972V114.619C94.8746 114.998 94.9411 115.321 95.0742 115.587C95.2097 115.853 95.3981 116.056 95.6396 116.197C95.881 116.335 96.1631 116.404 96.4858 116.404C96.6953 116.404 96.8862 116.374 97.0586 116.315C97.2311 116.254 97.3801 116.162 97.5058 116.042C97.6314 115.921 97.7275 115.772 97.794 115.595L98.8399 115.783C98.7561 116.091 98.6058 116.361 98.389 116.592C98.1747 116.821 97.9049 117 97.5797 117.128C97.257 117.254 96.8887 117.317 96.4748 117.317ZM100.136 117.202V111.526H101.204V112.427H101.263C101.367 112.122 101.549 111.882 101.81 111.707C102.074 111.53 102.372 111.441 102.704 111.441C102.773 111.441 102.855 111.443 102.948 111.448C103.044 111.453 103.119 111.459 103.174 111.467V112.524C103.129 112.511 103.051 112.498 102.937 112.483C102.824 112.466 102.711 112.457 102.597 112.457C102.336 112.457 102.103 112.512 101.899 112.623C101.697 112.732 101.537 112.883 101.418 113.078C101.3 113.27 101.241 113.489 101.241 113.736V117.202H100.136ZM108.383 112.912L107.382 113.089C107.34 112.961 107.273 112.839 107.182 112.723C107.094 112.607 106.973 112.512 106.82 112.439C106.667 112.365 106.477 112.328 106.247 112.328C105.935 112.328 105.673 112.398 105.464 112.538C105.255 112.676 105.15 112.855 105.15 113.074C105.15 113.264 105.22 113.417 105.36 113.532C105.501 113.648 105.728 113.743 106.04 113.817L106.942 114.024C107.464 114.145 107.854 114.331 108.11 114.582C108.366 114.833 108.494 115.16 108.494 115.561C108.494 115.901 108.396 116.204 108.199 116.47C108.004 116.734 107.732 116.941 107.382 117.091C107.035 117.241 106.632 117.317 106.173 117.317C105.538 117.317 105.019 117.181 104.618 116.91C104.216 116.637 103.97 116.249 103.879 115.746L104.947 115.583C105.013 115.862 105.15 116.072 105.357 116.215C105.564 116.356 105.834 116.426 106.166 116.426C106.528 116.426 106.818 116.351 107.035 116.201C107.251 116.048 107.36 115.862 107.36 115.643C107.36 115.465 107.293 115.316 107.16 115.195C107.03 115.075 106.829 114.984 106.558 114.922L105.597 114.711C105.067 114.591 104.676 114.398 104.422 114.135C104.171 113.871 104.045 113.537 104.045 113.133C104.045 112.798 104.139 112.505 104.326 112.254C104.513 112.003 104.772 111.807 105.102 111.666C105.432 111.523 105.81 111.452 106.236 111.452C106.85 111.452 107.333 111.585 107.685 111.851C108.037 112.115 108.27 112.468 108.383 112.912Z" fill="#5B5F65"/>
</g>
<defs>
<clipPath id="clip0_1434_10168">
<rect width="190" height="198" fill="white"/>
</clipPath>
</defs>
</svg>
