<svg width="292" height="163" viewBox="0 0 292 163" fill="none" xmlns="http://www.w3.org/2000/svg">
<path d="M31.5947 52.4023H291.087" stroke="#ABB7BE" stroke-opacity="0.5" stroke-dasharray="2 2"/>
<path d="M31.5947 72.7617H291.087" stroke="#ABB7BE" stroke-opacity="0.5" stroke-dasharray="2 2"/>
<path d="M31.5947 93.1211H291.087" stroke="#ABB7BE" stroke-opacity="0.5" stroke-dasharray="2 2"/>
<path d="M31.5947 113.479H291.087" stroke="#ABB7BE" stroke-opacity="0.5" stroke-dasharray="2 2"/>
<path d="M31.5947 11.6846H291.087" stroke="#ABB7BE" stroke-opacity="0.5" stroke-dasharray="2 2"/>
<path d="M31.5947 32.0439H291.087" stroke="#ABB7BE" stroke-opacity="0.5" stroke-dasharray="2 2"/>
<path d="M31.5947 133.839H291.087" stroke="#ABB7BE" stroke-opacity="0.5" stroke-dasharray="2 2"/>
<path d="M93 11.6846L93 133.839" stroke="#ABB7BE" stroke-opacity="0.5" stroke-dasharray="2 2"/>
<path d="M161 11.6846L161 133.839" stroke="#ABB7BE" stroke-opacity="0.5" stroke-dasharray="2 2"/>
<path d="M229 11.6846L229 133.839" stroke="#ABB7BE" stroke-opacity="0.5" stroke-dasharray="2 2"/>
<path d="M51.6266 145.091C51.5882 144.767 51.4327 144.516 51.1599 144.337C50.8872 144.158 50.5527 144.068 50.1564 144.068C49.8666 144.068 49.6131 144.115 49.3957 144.209C49.1805 144.303 49.0122 144.431 48.8908 144.596C48.7714 144.76 48.7118 144.946 48.7118 145.155C48.7118 145.33 48.7533 145.48 48.8364 145.605C48.9217 145.729 49.0303 145.832 49.1624 145.915C49.2945 145.996 49.433 146.064 49.5779 146.117C49.7228 146.168 49.856 146.21 49.9774 146.241L50.6422 146.42C50.8126 146.465 51.0023 146.527 51.2111 146.606C51.422 146.685 51.6234 146.792 51.8151 146.929C52.009 147.063 52.1688 147.235 52.2945 147.446C52.4202 147.657 52.4831 147.916 52.4831 148.223C52.4831 148.577 52.3904 148.896 52.205 149.182C52.0218 149.467 51.7533 149.694 51.3996 149.863C51.0481 150.031 50.6209 150.115 50.118 150.115C49.6493 150.115 49.2434 150.039 48.9003 149.888C48.5594 149.737 48.291 149.526 48.0949 149.255C47.9011 148.985 47.7913 148.67 47.7658 148.312H48.5839C48.6052 148.56 48.6883 148.764 48.8332 148.926C48.9802 149.086 49.1656 149.205 49.3893 149.284C49.6152 149.361 49.8581 149.399 50.118 149.399C50.4206 149.399 50.6922 149.35 50.933 149.252C51.1738 149.152 51.3645 149.013 51.5051 148.837C51.6457 148.658 51.716 148.449 51.716 148.21C51.716 147.993 51.6553 147.816 51.5339 147.68C51.4124 147.543 51.2526 147.433 51.0545 147.347C50.8563 147.262 50.6422 147.187 50.4121 147.124L49.6067 146.893C49.0953 146.746 48.6905 146.537 48.3922 146.264C48.0939 145.991 47.9447 145.634 47.9447 145.193C47.9447 144.827 48.0438 144.507 48.242 144.234C48.4422 143.96 48.7107 143.746 49.0474 143.595C49.3861 143.442 49.7643 143.365 50.182 143.365C50.6038 143.365 50.9788 143.441 51.307 143.592C51.6351 143.741 51.895 143.946 52.0868 144.206C52.2807 144.466 52.3829 144.761 52.3936 145.091H51.6266ZM55.1286 150.115C54.8175 150.115 54.5352 150.056 54.2816 149.939C54.0281 149.82 53.8267 149.648 53.6776 149.425C53.5285 149.199 53.4539 148.926 53.4539 148.607C53.4539 148.325 53.5093 148.097 53.6201 147.923C53.7309 147.746 53.879 147.607 54.0643 147.507C54.2497 147.407 54.4542 147.332 54.678 147.283C54.9038 147.232 55.1307 147.192 55.3587 147.162C55.657 147.124 55.8988 147.095 56.0842 147.076C56.2717 147.054 56.4081 147.019 56.4933 146.97C56.5807 146.921 56.6243 146.836 56.6243 146.714V146.689C56.6243 146.374 56.538 146.129 56.3655 145.954C56.195 145.779 55.9361 145.692 55.5888 145.692C55.2287 145.692 54.9464 145.771 54.7419 145.928C54.5373 146.086 54.3935 146.254 54.3104 146.433L53.5945 146.178C53.7223 145.879 53.8928 145.647 54.1059 145.481C54.3211 145.312 54.5554 145.195 54.809 145.129C55.0647 145.061 55.3161 145.027 55.5633 145.027C55.7209 145.027 55.902 145.046 56.1066 145.085C56.3133 145.121 56.5125 145.196 56.7042 145.311C56.8981 145.426 57.059 145.6 57.1868 145.832C57.3147 146.065 57.3786 146.376 57.3786 146.766V150H56.6243V149.335H56.586C56.5348 149.442 56.4496 149.556 56.3303 149.677C56.211 149.799 56.0522 149.902 55.8541 149.987C55.6559 150.072 55.4141 150.115 55.1286 150.115ZM55.2437 149.438C55.5419 149.438 55.7934 149.379 55.9979 149.262C56.2046 149.145 56.3601 148.993 56.4645 148.808C56.5711 148.623 56.6243 148.428 56.6243 148.223V147.533C56.5924 147.571 56.5221 147.606 56.4134 147.638C56.3069 147.668 56.1833 147.695 56.0427 147.718C55.9042 147.739 55.7689 147.759 55.6368 147.776C55.5068 147.79 55.4013 147.803 55.3204 147.814C55.1243 147.839 54.9411 147.881 54.7706 147.939C54.6023 147.994 54.466 148.078 54.3616 148.191C54.2593 148.302 54.2081 148.453 54.2081 148.645C54.2081 148.907 54.3051 149.105 54.499 149.239C54.695 149.371 54.9432 149.438 55.2437 149.438ZM58.7553 150V145.091H59.484V145.858H59.5479C59.6502 145.596 59.8153 145.392 60.0433 145.248C60.2713 145.1 60.5451 145.027 60.8647 145.027C61.1885 145.027 61.4581 145.1 61.6733 145.248C61.8906 145.392 62.06 145.596 62.1814 145.858H62.2326C62.3583 145.604 62.5468 145.403 62.7983 145.254C63.0497 145.103 63.3512 145.027 63.7027 145.027C64.1416 145.027 64.5007 145.164 64.7798 145.439C65.0589 145.712 65.1985 146.137 65.1985 146.714V150H64.4442V146.714C64.4442 146.352 64.3451 146.093 64.147 145.938C63.9488 145.782 63.7155 145.705 63.447 145.705C63.1019 145.705 62.8345 145.809 62.6448 146.018C62.4552 146.224 62.3604 146.487 62.3604 146.804V150H61.5934V146.638C61.5934 146.359 61.5028 146.134 61.3217 145.963C61.1406 145.791 60.9073 145.705 60.6218 145.705C60.4257 145.705 60.2425 145.757 60.072 145.861C59.9037 145.966 59.7674 146.11 59.663 146.296C59.5607 146.479 59.5095 146.691 59.5095 146.932V150H58.7553ZM66.5775 151.841V145.091H67.3062V145.871H67.3957C67.4511 145.786 67.5278 145.677 67.6258 145.545C67.726 145.411 67.8687 145.291 68.0541 145.187C68.2416 145.08 68.4952 145.027 68.8148 145.027C69.2281 145.027 69.5925 145.13 69.9078 145.337C70.2231 145.544 70.4692 145.837 70.6461 146.216C70.8229 146.595 70.9114 147.043 70.9114 147.558C70.9114 148.078 70.8229 148.529 70.6461 148.91C70.4692 149.289 70.2242 149.583 69.911 149.792C69.5978 149.999 69.2366 150.102 68.8275 150.102C68.5122 150.102 68.2597 150.05 68.0701 149.946C67.8805 149.839 67.7345 149.719 67.6322 149.585C67.53 149.448 67.4511 149.335 67.3957 149.246H67.3318V151.841H66.5775ZM67.319 147.545C67.319 147.916 67.3734 148.243 67.482 148.527C67.5907 148.808 67.7494 149.028 67.9582 149.188C68.167 149.346 68.4227 149.425 68.7253 149.425C69.0406 149.425 69.3038 149.342 69.5147 149.175C69.7278 149.007 69.8876 148.781 69.9941 148.498C70.1028 148.212 70.1571 147.895 70.1571 147.545C70.1571 147.2 70.1038 146.889 69.9973 146.612C69.8929 146.333 69.7342 146.113 69.5211 145.951C69.3101 145.787 69.0449 145.705 68.7253 145.705C68.4185 145.705 68.1606 145.782 67.9518 145.938C67.743 146.091 67.5854 146.306 67.4788 146.583C67.3723 146.858 67.319 147.179 67.319 147.545ZM72.8162 143.455V150H72.0619V143.455H72.8162ZM76.2559 150.102C75.7829 150.102 75.3749 149.998 75.0318 149.789C74.6909 149.578 74.4278 149.284 74.2424 148.907C74.0592 148.528 73.9676 148.087 73.9676 147.584C73.9676 147.081 74.0592 146.638 74.2424 146.254C74.4278 145.869 74.6856 145.568 75.0158 145.353C75.3482 145.136 75.736 145.027 76.1792 145.027C76.4349 145.027 76.6874 145.07 76.9367 145.155C77.1859 145.24 77.4129 145.379 77.6174 145.57C77.822 145.76 77.985 146.011 78.1064 146.325C78.2278 146.638 78.2886 147.023 78.2886 147.482V147.801H74.5045V147.149H77.5215C77.5215 146.872 77.4661 146.625 77.3553 146.408C77.2467 146.19 77.0911 146.019 76.8887 145.893C76.6884 145.767 76.4519 145.705 76.1792 145.705C75.8788 145.705 75.6188 145.779 75.3994 145.928C75.182 146.075 75.0148 146.267 74.8976 146.504C74.7804 146.74 74.7218 146.994 74.7218 147.264V147.699C74.7218 148.07 74.7857 148.384 74.9136 148.642C75.0435 148.897 75.2236 149.092 75.4537 149.227C75.6838 149.359 75.9512 149.425 76.2559 149.425C76.4541 149.425 76.633 149.397 76.7928 149.342C76.9548 149.284 77.0943 149.199 77.2115 149.086C77.3287 148.971 77.4193 148.828 77.4832 148.658L78.2119 148.862C78.1352 149.109 78.0063 149.327 77.8252 149.514C77.644 149.7 77.4203 149.844 77.154 149.949C76.8877 150.051 76.5883 150.102 76.2559 150.102ZM43.5079 161H42.6769L45.0803 154.455H45.8985L48.3019 161H47.4709L45.515 155.49H45.4638L43.5079 161ZM43.8147 158.443H47.1641V159.146H43.8147V158.443ZM49.2191 162.841V156.091H49.9478V156.871H50.0373C50.0927 156.786 50.1694 156.677 50.2674 156.545C50.3676 156.411 50.5103 156.291 50.6957 156.187C50.8832 156.08 51.1368 156.027 51.4564 156.027C51.8697 156.027 52.2341 156.13 52.5494 156.337C52.8647 156.544 53.1108 156.837 53.2877 157.216C53.4645 157.595 53.553 158.043 53.553 158.558C53.553 159.078 53.4645 159.529 53.2877 159.91C53.1108 160.289 52.8658 160.583 52.5526 160.792C52.2394 160.999 51.8782 161.102 51.4691 161.102C51.1538 161.102 50.9013 161.05 50.7117 160.946C50.5221 160.839 50.3761 160.719 50.2738 160.585C50.1716 160.448 50.0927 160.335 50.0373 160.246H49.9734V162.841H49.2191ZM49.9606 158.545C49.9606 158.916 50.015 159.243 50.1236 159.527C50.2323 159.808 50.391 160.028 50.5998 160.188C50.8086 160.346 51.0643 160.425 51.3669 160.425C51.6822 160.425 51.9454 160.342 52.1563 160.175C52.3694 160.007 52.5292 159.781 52.6357 159.498C52.7444 159.212 52.7987 158.895 52.7987 158.545C52.7987 158.2 52.7454 157.889 52.6389 157.612C52.5345 157.333 52.3758 157.113 52.1627 156.951C51.9517 156.787 51.6865 156.705 51.3669 156.705C51.0601 156.705 50.8022 156.782 50.5934 156.938C50.3846 157.091 50.227 157.306 50.1204 157.583C50.0139 157.858 49.9606 158.179 49.9606 158.545ZM54.7035 162.841V156.091H55.4322V156.871H55.5217C55.5771 156.786 55.6538 156.677 55.7518 156.545C55.852 156.411 55.9947 156.291 56.1801 156.187C56.3676 156.08 56.6211 156.027 56.9407 156.027C57.3541 156.027 57.7184 156.13 58.0338 156.337C58.3491 156.544 58.5952 156.837 58.7721 157.216C58.9489 157.595 59.0373 158.043 59.0373 158.558C59.0373 159.078 58.9489 159.529 58.7721 159.91C58.5952 160.289 58.3502 160.583 58.037 160.792C57.7238 160.999 57.3626 161.102 56.9535 161.102C56.6382 161.102 56.3857 161.05 56.1961 160.946C56.0064 160.839 55.8605 160.719 55.7582 160.585C55.6559 160.448 55.5771 160.335 55.5217 160.246H55.4578V162.841H54.7035ZM55.445 158.545C55.445 158.916 55.4993 159.243 55.608 159.527C55.7167 159.808 55.8754 160.028 56.0842 160.188C56.293 160.346 56.5487 160.425 56.8513 160.425C57.1666 160.425 57.4297 160.342 57.6407 160.175C57.8537 160.007 58.0135 159.781 58.1201 159.498C58.2287 159.212 58.2831 158.895 58.2831 158.545C58.2831 158.2 58.2298 157.889 58.1233 157.612C58.0189 157.333 57.8601 157.113 57.6471 156.951C57.4361 156.787 57.1709 156.705 56.8513 156.705C56.5444 156.705 56.2866 156.782 56.0778 156.938C55.869 157.091 55.7113 157.306 55.6048 157.583C55.4983 157.858 55.445 158.179 55.445 158.545ZM60.1879 161V156.091H60.9166V156.832H60.9677C61.0572 156.589 61.2191 156.392 61.4535 156.241C61.6879 156.09 61.9521 156.014 62.2461 156.014C62.3015 156.014 62.3708 156.015 62.4539 156.017C62.537 156.02 62.5998 156.023 62.6424 156.027V156.794C62.6169 156.788 62.5583 156.778 62.4667 156.765C62.3772 156.75 62.2824 156.743 62.1822 156.743C61.9436 156.743 61.7305 156.793 61.543 156.893C61.3576 156.991 61.2106 157.127 61.102 157.302C60.9954 157.475 60.9422 157.672 60.9422 157.893V161H60.1879ZM65.3814 161.102C64.9383 161.102 64.5494 160.997 64.2149 160.786C63.8825 160.575 63.6226 160.28 63.4351 159.901C63.2497 159.521 63.157 159.078 63.157 158.571C63.157 158.06 63.2497 157.613 63.4351 157.232C63.6226 156.85 63.8825 156.554 64.2149 156.343C64.5494 156.132 64.9383 156.027 65.3814 156.027C65.8246 156.027 66.2124 156.132 66.5448 156.343C66.8793 156.554 67.1392 156.85 67.3246 157.232C67.5121 157.613 67.6059 158.06 67.6059 158.571C67.6059 159.078 67.5121 159.521 67.3246 159.901C67.1392 160.28 66.8793 160.575 66.5448 160.786C66.2124 160.997 65.8246 161.102 65.3814 161.102ZM65.3814 160.425C65.7181 160.425 65.9951 160.338 66.2124 160.166C66.4297 159.993 66.5906 159.766 66.695 159.485C66.7994 159.204 66.8516 158.899 66.8516 158.571C66.8516 158.243 66.7994 157.937 66.695 157.654C66.5906 157.37 66.4297 157.141 66.2124 156.967C65.9951 156.792 65.7181 156.705 65.3814 156.705C65.0448 156.705 64.7678 156.792 64.5505 156.967C64.3331 157.141 64.1723 157.37 64.0679 157.654C63.9635 157.937 63.9113 158.243 63.9113 158.571C63.9113 158.899 63.9635 159.204 64.0679 159.485C64.1723 159.766 64.3331 159.993 64.5505 160.166C64.7678 160.338 65.0448 160.425 65.3814 160.425ZM72.5957 156.091L70.7803 161H70.0133L68.1979 156.091H69.0161L70.3712 160.003H70.4224L71.7775 156.091H72.5957ZM75.4737 161.102C75.0007 161.102 74.5926 160.998 74.2496 160.789C73.9087 160.578 73.6456 160.284 73.4602 159.907C73.2769 159.528 73.1853 159.087 73.1853 158.584C73.1853 158.081 73.2769 157.638 73.4602 157.254C73.6456 156.869 73.9034 156.568 74.2336 156.353C74.566 156.136 74.9538 156.027 75.397 156.027C75.6527 156.027 75.9051 156.07 76.1544 156.155C76.4037 156.24 76.6306 156.379 76.8352 156.57C77.0397 156.76 77.2027 157.011 77.3242 157.325C77.4456 157.638 77.5063 158.023 77.5063 158.482V158.801H73.7223V158.149H76.7393C76.7393 157.872 76.6839 157.625 76.5731 157.408C76.4644 157.19 76.3089 157.019 76.1065 156.893C75.9062 156.767 75.6697 156.705 75.397 156.705C75.0965 156.705 74.8366 156.779 74.6171 156.928C74.3998 157.075 74.2326 157.267 74.1154 157.504C73.9982 157.74 73.9396 157.994 73.9396 158.264V158.699C73.9396 159.07 74.0035 159.384 74.1313 159.642C74.2613 159.897 74.4414 160.092 74.6715 160.227C74.9016 160.359 75.169 160.425 75.4737 160.425C75.6718 160.425 75.8508 160.397 76.0106 160.342C76.1725 160.284 76.3121 160.199 76.4293 160.086C76.5465 159.971 76.637 159.828 76.701 159.658L77.4296 159.862C77.3529 160.109 77.224 160.327 77.0429 160.514C76.8618 160.7 76.6381 160.844 76.3718 160.949C76.1054 161.051 75.8061 161.102 75.4737 161.102ZM80.5074 161.102C80.0983 161.102 79.7372 160.999 79.424 160.792C79.1108 160.583 78.8657 160.289 78.6889 159.91C78.512 159.529 78.4236 159.078 78.4236 158.558C78.4236 158.043 78.512 157.595 78.6889 157.216C78.8657 156.837 79.1118 156.544 79.4272 156.337C79.7425 156.13 80.1068 156.027 80.5202 156.027C80.8398 156.027 81.0923 156.08 81.2777 156.187C81.4652 156.291 81.6079 156.411 81.7059 156.545C81.8061 156.677 81.8838 156.786 81.9392 156.871H82.0032V154.455H82.7574V161H82.0287V160.246H81.9392C81.8838 160.335 81.805 160.448 81.7027 160.585C81.6005 160.719 81.4545 160.839 81.2649 160.946C81.0752 161.05 80.8228 161.102 80.5074 161.102ZM80.6097 160.425C80.9122 160.425 81.1679 160.346 81.3767 160.188C81.5855 160.028 81.7443 159.808 81.8529 159.527C81.9616 159.243 82.0159 158.916 82.0159 158.545C82.0159 158.179 81.9627 157.858 81.8561 157.583C81.7496 157.306 81.5919 157.091 81.3831 156.938C81.1743 156.782 80.9165 156.705 80.6097 156.705C80.2901 156.705 80.0237 156.787 79.8107 156.951C79.5997 157.113 79.441 157.333 79.3345 157.612C79.2301 157.889 79.1779 158.2 79.1779 158.545C79.1779 158.895 79.2311 159.212 79.3377 159.498C79.4463 159.781 79.6061 160.007 79.8171 160.175C80.0301 160.342 80.2943 160.425 80.6097 160.425Z" fill="#677283"/>
<path d="M120.059 145.5H119.266C119.219 145.272 119.137 145.072 119.02 144.899C118.905 144.727 118.764 144.582 118.598 144.464C118.434 144.345 118.252 144.256 118.052 144.196C117.851 144.136 117.642 144.107 117.425 144.107C117.029 144.107 116.67 144.207 116.348 144.407C116.028 144.607 115.774 144.902 115.584 145.292C115.397 145.682 115.303 146.161 115.303 146.727C115.303 147.294 115.397 147.772 115.584 148.162C115.774 148.552 116.028 148.847 116.348 149.048C116.67 149.248 117.029 149.348 117.425 149.348C117.642 149.348 117.851 149.318 118.052 149.259C118.252 149.199 118.434 149.11 118.598 148.993C118.764 148.874 118.905 148.728 119.02 148.555C119.137 148.381 119.219 148.18 119.266 147.955H120.059C119.999 148.289 119.89 148.588 119.733 148.853C119.575 149.117 119.379 149.342 119.145 149.527C118.91 149.71 118.647 149.85 118.355 149.946C118.065 150.042 117.755 150.089 117.425 150.089C116.867 150.089 116.37 149.953 115.936 149.68C115.501 149.408 115.159 149.02 114.91 148.517C114.661 148.014 114.536 147.418 114.536 146.727C114.536 146.037 114.661 145.44 114.91 144.938C115.159 144.435 115.501 144.047 115.936 143.774C116.37 143.501 116.867 143.365 117.425 143.365C117.755 143.365 118.065 143.413 118.355 143.509C118.647 143.605 118.91 143.745 119.145 143.931C119.379 144.114 119.575 144.338 119.733 144.602C119.89 144.864 119.999 145.163 120.059 145.5ZM123.232 150.102C122.788 150.102 122.4 149.997 122.065 149.786C121.733 149.575 121.473 149.28 121.285 148.901C121.1 148.521 121.007 148.078 121.007 147.571C121.007 147.06 121.1 146.613 121.285 146.232C121.473 145.85 121.733 145.554 122.065 145.343C122.4 145.132 122.788 145.027 123.232 145.027C123.675 145.027 124.063 145.132 124.395 145.343C124.729 145.554 124.989 145.85 125.175 146.232C125.362 146.613 125.456 147.06 125.456 147.571C125.456 148.078 125.362 148.521 125.175 148.901C124.989 149.28 124.729 149.575 124.395 149.786C124.063 149.997 123.675 150.102 123.232 150.102ZM123.232 149.425C123.568 149.425 123.845 149.338 124.062 149.166C124.28 148.993 124.441 148.766 124.545 148.485C124.65 148.204 124.702 147.899 124.702 147.571C124.702 147.243 124.65 146.937 124.545 146.654C124.441 146.37 124.28 146.141 124.062 145.967C123.845 145.792 123.568 145.705 123.232 145.705C122.895 145.705 122.618 145.792 122.401 145.967C122.183 146.141 122.022 146.37 121.918 146.654C121.814 146.937 121.761 147.243 121.761 147.571C121.761 147.899 121.814 148.204 121.918 148.485C122.022 148.766 122.183 148.993 122.401 149.166C122.618 149.338 122.895 149.425 123.232 149.425ZM127.362 143.455V150H126.607V143.455H127.362ZM130.737 150.102C130.294 150.102 129.905 149.997 129.571 149.786C129.238 149.575 128.979 149.28 128.791 148.901C128.606 148.521 128.513 148.078 128.513 147.571C128.513 147.06 128.606 146.613 128.791 146.232C128.979 145.85 129.238 145.554 129.571 145.343C129.905 145.132 130.294 145.027 130.737 145.027C131.181 145.027 131.568 145.132 131.901 145.343C132.235 145.554 132.495 145.85 132.681 146.232C132.868 146.613 132.962 147.06 132.962 147.571C132.962 148.078 132.868 148.521 132.681 148.901C132.495 149.28 132.235 149.575 131.901 149.786C131.568 149.997 131.181 150.102 130.737 150.102ZM130.737 149.425C131.074 149.425 131.351 149.338 131.568 149.166C131.786 148.993 131.947 148.766 132.051 148.485C132.155 148.204 132.208 147.899 132.208 147.571C132.208 147.243 132.155 146.937 132.051 146.654C131.947 146.37 131.786 146.141 131.568 145.967C131.351 145.792 131.074 145.705 130.737 145.705C130.401 145.705 130.124 145.792 129.906 145.967C129.689 146.141 129.528 146.37 129.424 146.654C129.319 146.937 129.267 147.243 129.267 147.571C129.267 147.899 129.319 148.204 129.424 148.485C129.528 148.766 129.689 148.993 129.906 149.166C130.124 149.338 130.401 149.425 130.737 149.425ZM137.207 147.993V145.091H137.961V150H137.207V149.169H137.156C137.041 149.418 136.862 149.63 136.619 149.805C136.376 149.978 136.069 150.064 135.698 150.064C135.392 150.064 135.119 149.997 134.88 149.863C134.642 149.726 134.454 149.522 134.318 149.249C134.181 148.974 134.113 148.628 134.113 148.21V145.091H134.867V148.159C134.867 148.517 134.968 148.803 135.168 149.016C135.37 149.229 135.628 149.335 135.941 149.335C136.129 149.335 136.32 149.287 136.513 149.191C136.709 149.096 136.873 148.949 137.006 148.75C137.14 148.552 137.207 148.3 137.207 147.993ZM139.343 150V145.091H140.071V145.832H140.123C140.212 145.589 140.374 145.392 140.608 145.241C140.843 145.09 141.107 145.014 141.401 145.014C141.456 145.014 141.526 145.015 141.609 145.017C141.692 145.02 141.755 145.023 141.797 145.027V145.794C141.772 145.788 141.713 145.778 141.621 145.765C141.532 145.75 141.437 145.743 141.337 145.743C141.098 145.743 140.885 145.793 140.698 145.893C140.512 145.991 140.365 146.127 140.257 146.302C140.15 146.475 140.097 146.672 140.097 146.893V150H139.343ZM107.954 161H107.123L109.527 154.455H110.345L112.748 161H111.917L109.961 155.49H109.91L107.954 161ZM108.261 158.443H111.61V159.146H108.261V158.443ZM113.665 162.841V156.091H114.394V156.871H114.484C114.539 156.786 114.616 156.677 114.714 156.545C114.814 156.411 114.957 156.291 115.142 156.187C115.33 156.08 115.583 156.027 115.903 156.027C116.316 156.027 116.68 156.13 116.996 156.337C117.311 156.544 117.557 156.837 117.734 157.216C117.911 157.595 117.999 158.043 117.999 158.558C117.999 159.078 117.911 159.529 117.734 159.91C117.557 160.289 117.312 160.583 116.999 160.792C116.686 160.999 116.325 161.102 115.915 161.102C115.6 161.102 115.348 161.05 115.158 160.946C114.968 160.839 114.822 160.719 114.72 160.585C114.618 160.448 114.539 160.335 114.484 160.246H114.42V162.841H113.665ZM114.407 158.545C114.407 158.916 114.461 159.243 114.57 159.527C114.679 159.808 114.837 160.028 115.046 160.188C115.255 160.346 115.511 160.425 115.813 160.425C116.129 160.425 116.392 160.342 116.603 160.175C116.816 160.007 116.975 159.781 117.082 159.498C117.191 159.212 117.245 158.895 117.245 158.545C117.245 158.2 117.192 157.889 117.085 157.612C116.981 157.333 116.822 157.113 116.609 156.951C116.398 156.787 116.133 156.705 115.813 156.705C115.506 156.705 115.249 156.782 115.04 156.938C114.831 157.091 114.673 157.306 114.567 157.583C114.46 157.858 114.407 158.179 114.407 158.545ZM119.15 162.841V156.091H119.879V156.871H119.968C120.023 156.786 120.1 156.677 120.198 156.545C120.298 156.411 120.441 156.291 120.626 156.187C120.814 156.08 121.067 156.027 121.387 156.027C121.8 156.027 122.165 156.13 122.48 156.337C122.795 156.544 123.042 156.837 123.218 157.216C123.395 157.595 123.484 158.043 123.484 158.558C123.484 159.078 123.395 159.529 123.218 159.91C123.042 160.289 122.796 160.583 122.483 160.792C122.17 160.999 121.809 161.102 121.4 161.102C121.084 161.102 120.832 161.05 120.642 160.946C120.453 160.839 120.307 160.719 120.205 160.585C120.102 160.448 120.023 160.335 119.968 160.246H119.904V162.841H119.15ZM119.891 158.545C119.891 158.916 119.946 159.243 120.054 159.527C120.163 159.808 120.322 160.028 120.53 160.188C120.739 160.346 120.995 160.425 121.298 160.425C121.613 160.425 121.876 160.342 122.087 160.175C122.3 160.007 122.46 159.781 122.566 159.498C122.675 159.212 122.729 158.895 122.729 158.545C122.729 158.2 122.676 157.889 122.57 157.612C122.465 157.333 122.306 157.113 122.093 156.951C121.882 156.787 121.617 156.705 121.298 156.705C120.991 156.705 120.733 156.782 120.524 156.938C120.315 157.091 120.158 157.306 120.051 157.583C119.945 157.858 119.891 158.179 119.891 158.545ZM124.634 161V156.091H125.363V156.832H125.414C125.504 156.589 125.665 156.392 125.9 156.241C126.134 156.09 126.398 156.014 126.692 156.014C126.748 156.014 126.817 156.015 126.9 156.017C126.983 156.02 127.046 156.023 127.089 156.027V156.794C127.063 156.788 127.005 156.778 126.913 156.765C126.823 156.75 126.729 156.743 126.629 156.743C126.39 156.743 126.177 156.793 125.989 156.893C125.804 156.991 125.657 157.127 125.548 157.302C125.442 157.475 125.388 157.672 125.388 157.893V161H124.634ZM129.828 161.102C129.385 161.102 128.996 160.997 128.661 160.786C128.329 160.575 128.069 160.28 127.881 159.901C127.696 159.521 127.603 159.078 127.603 158.571C127.603 158.06 127.696 157.613 127.881 157.232C128.069 156.85 128.329 156.554 128.661 156.343C128.996 156.132 129.385 156.027 129.828 156.027C130.271 156.027 130.659 156.132 130.991 156.343C131.326 156.554 131.586 156.85 131.771 157.232C131.958 157.613 132.052 158.06 132.052 158.571C132.052 159.078 131.958 159.521 131.771 159.901C131.586 160.28 131.326 160.575 130.991 160.786C130.659 160.997 130.271 161.102 129.828 161.102ZM129.828 160.425C130.164 160.425 130.441 160.338 130.659 160.166C130.876 159.993 131.037 159.766 131.141 159.485C131.246 159.204 131.298 158.899 131.298 158.571C131.298 158.243 131.246 157.937 131.141 157.654C131.037 157.37 130.876 157.141 130.659 156.967C130.441 156.792 130.164 156.705 129.828 156.705C129.491 156.705 129.214 156.792 128.997 156.967C128.779 157.141 128.619 157.37 128.514 157.654C128.41 157.937 128.358 158.243 128.358 158.571C128.358 158.899 128.41 159.204 128.514 159.485C128.619 159.766 128.779 159.993 128.997 160.166C129.214 160.338 129.491 160.425 129.828 160.425ZM137.042 156.091L135.227 161H134.46L132.644 156.091H133.462L134.818 160.003H134.869L136.224 156.091H137.042ZM139.333 161.115C139.022 161.115 138.739 161.056 138.486 160.939C138.232 160.82 138.031 160.648 137.882 160.425C137.733 160.199 137.658 159.926 137.658 159.607C137.658 159.325 137.713 159.097 137.824 158.923C137.935 158.746 138.083 158.607 138.268 158.507C138.454 158.407 138.658 158.332 138.882 158.283C139.108 158.232 139.335 158.192 139.563 158.162C139.861 158.124 140.103 158.095 140.288 158.076C140.476 158.054 140.612 158.019 140.697 157.97C140.785 157.921 140.828 157.836 140.828 157.714V157.689C140.828 157.374 140.742 157.129 140.57 156.954C140.399 156.779 140.14 156.692 139.793 156.692C139.433 156.692 139.151 156.771 138.946 156.928C138.741 157.086 138.598 157.254 138.515 157.433L137.799 157.178C137.926 156.879 138.097 156.647 138.31 156.481C138.525 156.312 138.76 156.195 139.013 156.129C139.269 156.061 139.52 156.027 139.767 156.027C139.925 156.027 140.106 156.046 140.311 156.085C140.517 156.121 140.717 156.196 140.908 156.311C141.102 156.426 141.263 156.6 141.391 156.832C141.519 157.065 141.583 157.376 141.583 157.766V161H140.828V160.335H140.79C140.739 160.442 140.654 160.556 140.534 160.677C140.415 160.799 140.256 160.902 140.058 160.987C139.86 161.072 139.618 161.115 139.333 161.115ZM139.448 160.438C139.746 160.438 139.997 160.379 140.202 160.262C140.409 160.145 140.564 159.993 140.669 159.808C140.775 159.623 140.828 159.428 140.828 159.223V158.533C140.796 158.571 140.726 158.606 140.617 158.638C140.511 158.668 140.387 158.695 140.247 158.718C140.108 158.739 139.973 158.759 139.841 158.776C139.711 158.79 139.605 158.803 139.524 158.814C139.328 158.839 139.145 158.881 138.975 158.939C138.806 158.994 138.67 159.078 138.566 159.191C138.463 159.302 138.412 159.453 138.412 159.645C138.412 159.907 138.509 160.105 138.703 160.239C138.899 160.371 139.147 160.438 139.448 160.438ZM143.714 154.455V161H142.959V154.455H143.714ZM148.572 157.19L147.895 157.382C147.852 157.269 147.789 157.159 147.706 157.053C147.625 156.944 147.515 156.855 147.374 156.784C147.233 156.714 147.053 156.679 146.834 156.679C146.533 156.679 146.283 156.748 146.083 156.887C145.885 157.023 145.785 157.197 145.785 157.408C145.785 157.595 145.854 157.743 145.99 157.852C146.126 157.961 146.339 158.051 146.629 158.124L147.358 158.303C147.797 158.409 148.124 158.572 148.339 158.792C148.554 159.009 148.662 159.289 148.662 159.632C148.662 159.913 148.581 160.165 148.419 160.386C148.259 160.608 148.035 160.783 147.748 160.911C147.46 161.038 147.126 161.102 146.744 161.102C146.244 161.102 145.829 160.994 145.501 160.776C145.173 160.559 144.965 160.241 144.878 159.824L145.594 159.645C145.662 159.909 145.791 160.107 145.98 160.239C146.172 160.371 146.423 160.438 146.731 160.438C147.083 160.438 147.362 160.363 147.569 160.214C147.778 160.062 147.882 159.881 147.882 159.67C147.882 159.5 147.822 159.357 147.703 159.242C147.584 159.125 147.401 159.038 147.153 158.98L146.335 158.788C145.886 158.682 145.555 158.517 145.344 158.293C145.136 158.067 145.031 157.785 145.031 157.446C145.031 157.169 145.109 156.924 145.265 156.711C145.422 156.498 145.636 156.331 145.907 156.209C146.18 156.088 146.489 156.027 146.834 156.027C147.32 156.027 147.701 156.134 147.978 156.347C148.257 156.56 148.455 156.841 148.572 157.19Z" fill="#677283"/>
<path d="M178.18 143.455H179.126L181.351 148.888H181.427L183.652 143.455H184.598V150H183.856V145.027H183.793L181.747 150H181.031L178.986 145.027H178.922V150H178.18V143.455ZM187.529 150.115C187.218 150.115 186.936 150.056 186.683 149.939C186.429 149.82 186.228 149.648 186.078 149.425C185.929 149.199 185.855 148.926 185.855 148.607C185.855 148.325 185.91 148.097 186.021 147.923C186.132 147.746 186.28 147.607 186.465 147.507C186.651 147.407 186.855 147.332 187.079 147.283C187.305 147.232 187.532 147.192 187.76 147.162C188.058 147.124 188.3 147.095 188.485 147.076C188.673 147.054 188.809 147.019 188.894 146.97C188.982 146.921 189.025 146.836 189.025 146.714V146.689C189.025 146.374 188.939 146.129 188.766 145.954C188.596 145.779 188.337 145.692 187.99 145.692C187.63 145.692 187.347 145.771 187.143 145.928C186.938 146.086 186.794 146.254 186.711 146.433L185.995 146.178C186.123 145.879 186.294 145.647 186.507 145.481C186.722 145.312 186.956 145.195 187.21 145.129C187.466 145.061 187.717 145.027 187.964 145.027C188.122 145.027 188.303 145.046 188.507 145.085C188.714 145.121 188.913 145.196 189.105 145.311C189.299 145.426 189.46 145.6 189.588 145.832C189.716 146.065 189.779 146.376 189.779 146.766V150H189.025V149.335H188.987C188.936 149.442 188.85 149.556 188.731 149.677C188.612 149.799 188.453 149.902 188.255 149.987C188.057 150.072 187.815 150.115 187.529 150.115ZM187.645 149.438C187.943 149.438 188.194 149.379 188.399 149.262C188.605 149.145 188.761 148.993 188.865 148.808C188.972 148.623 189.025 148.428 189.025 148.223V147.533C188.993 147.571 188.923 147.606 188.814 147.638C188.708 147.668 188.584 147.695 188.444 147.718C188.305 147.739 188.17 147.759 188.038 147.776C187.908 147.79 187.802 147.803 187.721 147.814C187.525 147.839 187.342 147.881 187.172 147.939C187.003 147.994 186.867 148.078 186.762 148.191C186.66 148.302 186.609 148.453 186.609 148.645C186.609 148.907 186.706 149.105 186.9 149.239C187.096 149.371 187.344 149.438 187.645 149.438ZM193.291 145.091V145.73H190.747V145.091H193.291ZM191.489 143.915H192.243V148.594C192.243 148.807 192.274 148.967 192.335 149.073C192.399 149.178 192.48 149.248 192.578 149.284C192.679 149.318 192.784 149.335 192.895 149.335C192.978 149.335 193.046 149.331 193.099 149.322C193.153 149.312 193.195 149.303 193.227 149.297L193.381 149.974C193.329 149.994 193.258 150.013 193.166 150.032C193.075 150.053 192.959 150.064 192.818 150.064C192.605 150.064 192.396 150.018 192.192 149.926C191.989 149.835 191.821 149.695 191.687 149.508C191.555 149.32 191.489 149.084 191.489 148.798V143.915ZM196.431 150.102C195.958 150.102 195.55 149.998 195.207 149.789C194.866 149.578 194.603 149.284 194.418 148.907C194.234 148.528 194.143 148.087 194.143 147.584C194.143 147.081 194.234 146.638 194.418 146.254C194.603 145.869 194.861 145.568 195.191 145.353C195.524 145.136 195.911 145.027 196.354 145.027C196.61 145.027 196.863 145.07 197.112 145.155C197.361 145.24 197.588 145.379 197.793 145.57C197.997 145.76 198.16 146.011 198.282 146.325C198.403 146.638 198.464 147.023 198.464 147.482V147.801H194.68V147.149H197.697C197.697 146.872 197.641 146.625 197.531 146.408C197.422 146.19 197.266 146.019 197.064 145.893C196.864 145.767 196.627 145.705 196.354 145.705C196.054 145.705 195.794 145.779 195.575 145.928C195.357 146.075 195.19 146.267 195.073 146.504C194.956 146.74 194.897 146.994 194.897 147.264V147.699C194.897 148.07 194.961 148.384 195.089 148.642C195.219 148.897 195.399 149.092 195.629 149.227C195.859 149.359 196.127 149.425 196.431 149.425C196.629 149.425 196.808 149.397 196.968 149.342C197.13 149.284 197.27 149.199 197.387 149.086C197.504 148.971 197.595 148.828 197.658 148.658L198.387 148.862C198.31 149.109 198.182 149.327 198 149.514C197.819 149.7 197.596 149.844 197.329 149.949C197.063 150.051 196.764 150.102 196.431 150.102ZM199.611 150V145.091H200.34V145.832H200.391C200.481 145.589 200.642 145.392 200.877 145.241C201.111 145.09 201.375 145.014 201.669 145.014C201.725 145.014 201.794 145.015 201.877 145.017C201.96 145.02 202.023 145.023 202.066 145.027V145.794C202.04 145.788 201.982 145.778 201.89 145.765C201.801 145.75 201.706 145.743 201.606 145.743C201.367 145.743 201.154 145.793 200.966 145.893C200.781 145.991 200.634 146.127 200.525 146.302C200.419 146.475 200.366 146.672 200.366 146.893V150H199.611ZM202.96 150V145.091H203.714V150H202.96ZM203.343 144.273C203.196 144.273 203.07 144.223 202.963 144.123C202.859 144.022 202.806 143.902 202.806 143.761C202.806 143.621 202.859 143.5 202.963 143.4C203.07 143.3 203.196 143.25 203.343 143.25C203.49 143.25 203.616 143.3 203.721 143.4C203.827 143.5 203.88 143.621 203.88 143.761C203.88 143.902 203.827 144.022 203.721 144.123C203.616 144.223 203.49 144.273 203.343 144.273ZM206.54 150.115C206.229 150.115 205.947 150.056 205.693 149.939C205.44 149.82 205.238 149.648 205.089 149.425C204.94 149.199 204.866 148.926 204.866 148.607C204.866 148.325 204.921 148.097 205.032 147.923C205.142 147.746 205.291 147.607 205.476 147.507C205.661 147.407 205.866 147.332 206.09 147.283C206.315 147.232 206.542 147.192 206.77 147.162C207.069 147.124 207.31 147.095 207.496 147.076C207.683 147.054 207.82 147.019 207.905 146.97C207.992 146.921 208.036 146.836 208.036 146.714V146.689C208.036 146.374 207.95 146.129 207.777 145.954C207.607 145.779 207.348 145.692 207 145.692C206.64 145.692 206.358 145.771 206.153 145.928C205.949 146.086 205.805 146.254 205.722 146.433L205.006 146.178C205.134 145.879 205.304 145.647 205.517 145.481C205.733 145.312 205.967 145.195 206.221 145.129C206.476 145.061 206.728 145.027 206.975 145.027C207.133 145.027 207.314 145.046 207.518 145.085C207.725 145.121 207.924 145.196 208.116 145.311C208.31 145.426 208.471 145.6 208.598 145.832C208.726 146.065 208.79 146.376 208.79 146.766V150H208.036V149.335H207.998C207.946 149.442 207.861 149.556 207.742 149.677C207.623 149.799 207.464 149.902 207.266 149.987C207.068 150.072 206.826 150.115 206.54 150.115ZM206.655 149.438C206.954 149.438 207.205 149.379 207.41 149.262C207.616 149.145 207.772 148.993 207.876 148.808C207.983 148.623 208.036 148.428 208.036 148.223V147.533C208.004 147.571 207.934 147.606 207.825 147.638C207.718 147.668 207.595 147.695 207.454 147.718C207.316 147.739 207.18 147.759 207.048 147.776C206.918 147.79 206.813 147.803 206.732 147.814C206.536 147.839 206.353 147.881 206.182 147.939C206.014 147.994 205.878 148.078 205.773 148.191C205.671 148.302 205.62 148.453 205.62 148.645C205.62 148.907 205.717 149.105 205.911 149.239C206.107 149.371 206.355 149.438 206.655 149.438ZM210.921 143.455V150H210.167V143.455H210.921ZM179.333 154.455V161H178.541V154.455H179.333ZM181.574 158.047V161H180.82V156.091H181.549V156.858H181.613C181.728 156.609 181.903 156.408 182.137 156.257C182.371 156.104 182.674 156.027 183.045 156.027C183.377 156.027 183.668 156.095 183.917 156.232C184.166 156.366 184.36 156.57 184.499 156.845C184.637 157.118 184.707 157.463 184.707 157.881V161H183.952V157.932C183.952 157.546 183.852 157.246 183.652 157.031C183.452 156.813 183.177 156.705 182.827 156.705C182.587 156.705 182.371 156.757 182.182 156.861C181.994 156.966 181.846 157.118 181.737 157.318C181.629 157.518 181.574 157.761 181.574 158.047ZM186.839 158.047V161H186.085V154.455H186.839V156.858H186.903C187.018 156.604 187.191 156.403 187.421 156.254C187.653 156.103 187.962 156.027 188.348 156.027C188.682 156.027 188.975 156.094 189.227 156.228C189.478 156.36 189.673 156.564 189.811 156.839C189.952 157.112 190.022 157.459 190.022 157.881V161H189.268V157.932C189.268 157.542 189.167 157.24 188.964 157.027C188.764 156.812 188.486 156.705 188.13 156.705C187.883 156.705 187.662 156.757 187.466 156.861C187.272 156.966 187.118 157.118 187.005 157.318C186.895 157.518 186.839 157.761 186.839 158.047ZM193.397 161.102C192.953 161.102 192.565 160.997 192.23 160.786C191.898 160.575 191.638 160.28 191.45 159.901C191.265 159.521 191.172 159.078 191.172 158.571C191.172 158.06 191.265 157.613 191.45 157.232C191.638 156.85 191.898 156.554 192.23 156.343C192.565 156.132 192.953 156.027 193.397 156.027C193.84 156.027 194.228 156.132 194.56 156.343C194.894 156.554 195.154 156.85 195.34 157.232C195.527 157.613 195.621 158.06 195.621 158.571C195.621 159.078 195.527 159.521 195.34 159.901C195.154 160.28 194.894 160.575 194.56 160.786C194.228 160.997 193.84 161.102 193.397 161.102ZM193.397 160.425C193.733 160.425 194.01 160.338 194.228 160.166C194.445 159.993 194.606 159.766 194.71 159.485C194.815 159.204 194.867 158.899 194.867 158.571C194.867 158.243 194.815 157.937 194.71 157.654C194.606 157.37 194.445 157.141 194.228 156.967C194.01 156.792 193.733 156.705 193.397 156.705C193.06 156.705 192.783 156.792 192.566 156.967C192.348 157.141 192.187 157.37 192.083 157.654C191.979 157.937 191.926 158.243 191.926 158.571C191.926 158.899 191.979 159.204 192.083 159.485C192.187 159.766 192.348 159.993 192.566 160.166C192.783 160.338 193.06 160.425 193.397 160.425ZM199.866 158.993V156.091H200.62V161H199.866V160.169H199.815C199.7 160.418 199.521 160.63 199.278 160.805C199.035 160.978 198.728 161.064 198.358 161.064C198.051 161.064 197.778 160.997 197.539 160.863C197.301 160.726 197.113 160.522 196.977 160.249C196.841 159.974 196.772 159.628 196.772 159.21V156.091H197.527V159.159C197.527 159.517 197.627 159.803 197.827 160.016C198.029 160.229 198.287 160.335 198.6 160.335C198.788 160.335 198.979 160.287 199.173 160.191C199.369 160.096 199.533 159.949 199.665 159.75C199.799 159.552 199.866 159.3 199.866 158.993ZM205.479 157.19L204.802 157.382C204.759 157.269 204.696 157.159 204.613 157.053C204.532 156.944 204.421 156.855 204.281 156.784C204.14 156.714 203.96 156.679 203.741 156.679C203.44 156.679 203.19 156.748 202.989 156.887C202.791 157.023 202.692 157.197 202.692 157.408C202.692 157.595 202.76 157.743 202.897 157.852C203.033 157.961 203.246 158.051 203.536 158.124L204.265 158.303C204.704 158.409 205.031 158.572 205.246 158.792C205.461 159.009 205.569 159.289 205.569 159.632C205.569 159.913 205.488 160.165 205.326 160.386C205.166 160.608 204.942 160.783 204.655 160.911C204.367 161.038 204.032 161.102 203.651 161.102C203.15 161.102 202.736 160.994 202.408 160.776C202.08 160.559 201.872 160.241 201.785 159.824L202.5 159.645C202.569 159.909 202.698 160.107 202.887 160.239C203.079 160.371 203.329 160.438 203.638 160.438C203.99 160.438 204.269 160.363 204.476 160.214C204.684 160.062 204.789 159.881 204.789 159.67C204.789 159.5 204.729 159.357 204.61 159.242C204.491 159.125 204.307 159.038 204.06 158.98L203.242 158.788C202.792 158.682 202.462 158.517 202.251 158.293C202.042 158.067 201.938 157.785 201.938 157.446C201.938 157.169 202.016 156.924 202.171 156.711C202.329 156.498 202.543 156.331 202.814 156.209C203.086 156.088 203.395 156.027 203.741 156.027C204.226 156.027 204.608 156.134 204.885 156.347C205.164 156.56 205.362 156.841 205.479 157.19ZM208.762 161.102C208.289 161.102 207.881 160.998 207.538 160.789C207.197 160.578 206.934 160.284 206.749 159.907C206.566 159.528 206.474 159.087 206.474 158.584C206.474 158.081 206.566 157.638 206.749 157.254C206.934 156.869 207.192 156.568 207.522 156.353C207.855 156.136 208.242 156.027 208.686 156.027C208.941 156.027 209.194 156.07 209.443 156.155C209.692 156.24 209.919 156.379 210.124 156.57C210.328 156.76 210.491 157.011 210.613 157.325C210.734 157.638 210.795 158.023 210.795 158.482V158.801H207.011V158.149H210.028C210.028 157.872 209.972 157.625 209.862 157.408C209.753 157.19 209.597 157.019 209.395 156.893C209.195 156.767 208.958 156.705 208.686 156.705C208.385 156.705 208.125 156.779 207.906 156.928C207.688 157.075 207.521 157.267 207.404 157.504C207.287 157.74 207.228 157.994 207.228 158.264V158.699C207.228 159.07 207.292 159.384 207.42 159.642C207.55 159.897 207.73 160.092 207.96 160.227C208.19 160.359 208.458 160.425 208.762 160.425C208.96 160.425 209.139 160.397 209.299 160.342C209.461 160.284 209.601 160.199 209.718 160.086C209.835 159.971 209.926 159.828 209.99 159.658L210.718 159.862C210.642 160.109 210.513 160.327 210.331 160.514C210.15 160.7 209.927 160.844 209.66 160.949C209.394 161.051 209.095 161.102 208.762 161.102Z" fill="#677283"/>
<path d="M245.093 150V143.455H247.305C247.819 143.455 248.238 143.547 248.564 143.733C248.892 143.916 249.135 144.164 249.293 144.477C249.451 144.79 249.529 145.14 249.529 145.526C249.529 145.911 249.451 146.262 249.293 146.577C249.137 146.892 248.897 147.144 248.571 147.331C248.245 147.517 247.827 147.609 247.318 147.609H245.733V146.906H247.292C247.644 146.906 247.926 146.846 248.139 146.724C248.352 146.603 248.507 146.439 248.603 146.232C248.701 146.023 248.75 145.788 248.75 145.526C248.75 145.263 248.701 145.029 248.603 144.822C248.507 144.616 248.351 144.454 248.136 144.337C247.921 144.217 247.635 144.158 247.279 144.158H245.886V150H245.093ZM250.704 150V145.091H251.433V145.832H251.484C251.573 145.589 251.735 145.392 251.97 145.241C252.204 145.09 252.468 145.014 252.762 145.014C252.818 145.014 252.887 145.015 252.97 145.017C253.053 145.02 253.116 145.023 253.159 145.027V145.794C253.133 145.788 253.074 145.778 252.983 145.765C252.893 145.75 252.798 145.743 252.698 145.743C252.46 145.743 252.247 145.793 252.059 145.893C251.874 145.991 251.727 146.127 251.618 146.302C251.512 146.475 251.458 146.672 251.458 146.893V150H250.704ZM255.898 150.102C255.454 150.102 255.066 149.997 254.731 149.786C254.399 149.575 254.139 149.28 253.951 148.901C253.766 148.521 253.673 148.078 253.673 147.571C253.673 147.06 253.766 146.613 253.951 146.232C254.139 145.85 254.399 145.554 254.731 145.343C255.066 145.132 255.454 145.027 255.898 145.027C256.341 145.027 256.729 145.132 257.061 145.343C257.395 145.554 257.655 145.85 257.841 146.232C258.028 146.613 258.122 147.06 258.122 147.571C258.122 148.078 258.028 148.521 257.841 148.901C257.655 149.28 257.395 149.575 257.061 149.786C256.729 149.997 256.341 150.102 255.898 150.102ZM255.898 149.425C256.234 149.425 256.511 149.338 256.729 149.166C256.946 148.993 257.107 148.766 257.211 148.485C257.316 148.204 257.368 147.899 257.368 147.571C257.368 147.243 257.316 146.937 257.211 146.654C257.107 146.37 256.946 146.141 256.729 145.967C256.511 145.792 256.234 145.705 255.898 145.705C255.561 145.705 255.284 145.792 255.067 145.967C254.849 146.141 254.688 146.37 254.584 146.654C254.48 146.937 254.427 147.243 254.427 147.571C254.427 147.899 254.48 148.204 254.584 148.485C254.688 148.766 254.849 148.993 255.067 149.166C255.284 149.338 255.561 149.425 255.898 149.425ZM261.127 150.102C260.718 150.102 260.357 149.999 260.044 149.792C259.73 149.583 259.485 149.289 259.309 148.91C259.132 148.529 259.043 148.078 259.043 147.558C259.043 147.043 259.132 146.595 259.309 146.216C259.485 145.837 259.731 145.544 260.047 145.337C260.362 145.13 260.726 145.027 261.14 145.027C261.459 145.027 261.712 145.08 261.897 145.187C262.085 145.291 262.228 145.411 262.326 145.545C262.426 145.677 262.503 145.786 262.559 145.871H262.623V143.455H263.377V150H262.648V149.246H262.559C262.503 149.335 262.425 149.448 262.322 149.585C262.22 149.719 262.074 149.839 261.884 149.946C261.695 150.05 261.442 150.102 261.127 150.102ZM261.229 149.425C261.532 149.425 261.788 149.346 261.996 149.188C262.205 149.028 262.364 148.808 262.473 148.527C262.581 148.243 262.636 147.916 262.636 147.545C262.636 147.179 262.582 146.858 262.476 146.583C262.369 146.306 262.212 146.091 262.003 145.938C261.794 145.782 261.536 145.705 261.229 145.705C260.91 145.705 260.643 145.787 260.43 145.951C260.219 146.113 260.061 146.333 259.954 146.612C259.85 146.889 259.797 147.2 259.797 147.545C259.797 147.895 259.851 148.212 259.957 148.498C260.066 148.781 260.226 149.007 260.437 149.175C260.65 149.342 260.914 149.425 261.229 149.425ZM267.957 147.993V145.091H268.711V150H267.957V149.169H267.906C267.791 149.418 267.612 149.63 267.369 149.805C267.126 149.978 266.819 150.064 266.448 150.064C266.142 150.064 265.869 149.997 265.63 149.863C265.392 149.726 265.204 149.522 265.068 149.249C264.931 148.974 264.863 148.628 264.863 148.21V145.091H265.617V148.159C265.617 148.517 265.718 148.803 265.918 149.016C266.12 149.229 266.378 149.335 266.691 149.335C266.879 149.335 267.07 149.287 267.263 149.191C267.459 149.096 267.623 148.949 267.756 148.75C267.89 148.552 267.957 148.3 267.957 147.993ZM272.087 150.102C271.627 150.102 271.23 149.994 270.898 149.776C270.566 149.559 270.31 149.26 270.131 148.878C269.952 148.497 269.863 148.061 269.863 147.571C269.863 147.072 269.954 146.632 270.137 146.251C270.323 145.868 270.581 145.568 270.911 145.353C271.243 145.136 271.631 145.027 272.074 145.027C272.419 145.027 272.73 145.091 273.007 145.219C273.284 145.347 273.511 145.526 273.688 145.756C273.865 145.986 273.975 146.254 274.017 146.561H273.263C273.206 146.337 273.078 146.139 272.88 145.967C272.684 145.792 272.419 145.705 272.087 145.705C271.793 145.705 271.535 145.781 271.314 145.935C271.094 146.086 270.923 146.3 270.799 146.577C270.678 146.852 270.617 147.175 270.617 147.545C270.617 147.925 270.676 148.255 270.796 148.536C270.917 148.817 271.088 149.036 271.307 149.191C271.529 149.347 271.789 149.425 272.087 149.425C272.283 149.425 272.461 149.391 272.621 149.322C272.781 149.254 272.916 149.156 273.027 149.028C273.137 148.901 273.216 148.747 273.263 148.568H274.017C273.975 148.858 273.869 149.119 273.701 149.351C273.535 149.581 273.314 149.765 273.039 149.901C272.767 150.035 272.449 150.102 272.087 150.102ZM277.255 145.091V145.73H274.711V145.091H277.255ZM275.452 143.915H276.207V148.594C276.207 148.807 276.238 148.967 276.299 149.073C276.363 149.178 276.444 149.248 276.542 149.284C276.642 149.318 276.748 149.335 276.859 149.335C276.942 149.335 277.01 149.331 277.063 149.322C277.116 149.312 277.159 149.303 277.191 149.297L277.344 149.974C277.293 149.994 277.222 150.013 277.13 150.032C277.039 150.053 276.923 150.064 276.782 150.064C276.569 150.064 276.36 150.018 276.156 149.926C275.953 149.835 275.785 149.695 275.651 149.508C275.518 149.32 275.452 149.084 275.452 148.798V143.915ZM241.229 161V156.091H241.984V161H241.229ZM241.613 155.273C241.466 155.273 241.339 155.223 241.233 155.123C241.128 155.022 241.076 154.902 241.076 154.761C241.076 154.621 241.128 154.5 241.233 154.4C241.339 154.3 241.466 154.25 241.613 154.25C241.76 154.25 241.886 154.3 241.99 154.4C242.097 154.5 242.15 154.621 242.15 154.761C242.15 154.902 242.097 155.022 241.99 155.123C241.886 155.223 241.76 155.273 241.613 155.273ZM245.359 161.102C244.916 161.102 244.527 160.997 244.193 160.786C243.861 160.575 243.601 160.28 243.413 159.901C243.228 159.521 243.135 159.078 243.135 158.571C243.135 158.06 243.228 157.613 243.413 157.232C243.601 156.85 243.861 156.554 244.193 156.343C244.527 156.132 244.916 156.027 245.359 156.027C245.803 156.027 246.19 156.132 246.523 156.343C246.857 156.554 247.117 156.85 247.303 157.232C247.49 157.613 247.584 158.06 247.584 158.571C247.584 159.078 247.49 159.521 247.303 159.901C247.117 160.28 246.857 160.575 246.523 160.786C246.19 160.997 245.803 161.102 245.359 161.102ZM245.359 160.425C245.696 160.425 245.973 160.338 246.19 160.166C246.408 159.993 246.569 159.766 246.673 159.485C246.777 159.204 246.83 158.899 246.83 158.571C246.83 158.243 246.777 157.937 246.673 157.654C246.569 157.37 246.408 157.141 246.19 156.967C245.973 156.792 245.696 156.705 245.359 156.705C245.023 156.705 244.746 156.792 244.528 156.967C244.311 157.141 244.15 157.37 244.046 157.654C243.941 157.937 243.889 158.243 243.889 158.571C243.889 158.899 243.941 159.204 244.046 159.485C244.15 159.766 244.311 159.993 244.528 160.166C244.746 160.338 245.023 160.425 245.359 160.425ZM249.49 158.047V161H248.735V156.091H249.464V156.858H249.528C249.643 156.609 249.818 156.408 250.052 156.257C250.286 156.104 250.589 156.027 250.96 156.027C251.292 156.027 251.583 156.095 251.832 156.232C252.081 156.366 252.275 156.57 252.414 156.845C252.552 157.118 252.622 157.463 252.622 157.881V161H251.867V157.932C251.867 157.546 251.767 157.246 251.567 157.031C251.367 156.813 251.092 156.705 250.742 156.705C250.502 156.705 250.286 156.757 250.097 156.861C249.909 156.966 249.761 157.118 249.653 157.318C249.544 157.518 249.49 157.761 249.49 158.047ZM260.213 156.091C260.175 155.767 260.019 155.516 259.746 155.337C259.474 155.158 259.139 155.068 258.743 155.068C258.453 155.068 258.199 155.115 257.982 155.209C257.767 155.303 257.599 155.431 257.477 155.596C257.358 155.76 257.298 155.946 257.298 156.155C257.298 156.33 257.34 156.48 257.423 156.605C257.508 156.729 257.617 156.832 257.749 156.915C257.881 156.996 258.019 157.064 258.164 157.117C258.309 157.168 258.442 157.21 258.564 157.241L259.229 157.42C259.399 157.465 259.589 157.527 259.797 157.606C260.008 157.685 260.21 157.792 260.402 157.929C260.595 158.063 260.755 158.235 260.881 158.446C261.007 158.657 261.07 158.916 261.07 159.223C261.07 159.577 260.977 159.896 260.791 160.182C260.608 160.467 260.34 160.694 259.986 160.863C259.634 161.031 259.207 161.115 258.704 161.115C258.236 161.115 257.83 161.039 257.487 160.888C257.146 160.737 256.877 160.526 256.681 160.255C256.487 159.985 256.378 159.67 256.352 159.312H257.17C257.192 159.56 257.275 159.764 257.42 159.926C257.567 160.086 257.752 160.205 257.976 160.284C258.202 160.361 258.445 160.399 258.704 160.399C259.007 160.399 259.279 160.35 259.519 160.252C259.76 160.152 259.951 160.013 260.092 159.837C260.232 159.658 260.302 159.449 260.302 159.21C260.302 158.993 260.242 158.816 260.12 158.68C259.999 158.543 259.839 158.433 259.641 158.347C259.443 158.262 259.229 158.187 258.998 158.124L258.193 157.893C257.682 157.746 257.277 157.537 256.979 157.264C256.68 156.991 256.531 156.634 256.531 156.193C256.531 155.827 256.63 155.507 256.828 155.234C257.029 154.96 257.297 154.746 257.634 154.595C257.973 154.442 258.351 154.365 258.768 154.365C259.19 154.365 259.565 154.441 259.893 154.592C260.222 154.741 260.481 154.946 260.673 155.206C260.867 155.466 260.969 155.761 260.98 156.091H260.213ZM264.405 156.091V156.73H261.861V156.091H264.405ZM262.603 154.915H263.357V159.594C263.357 159.807 263.388 159.967 263.45 160.073C263.514 160.178 263.595 160.248 263.693 160.284C263.793 160.318 263.898 160.335 264.009 160.335C264.092 160.335 264.16 160.331 264.214 160.322C264.267 160.312 264.309 160.303 264.341 160.297L264.495 160.974C264.444 160.994 264.372 161.013 264.281 161.032C264.189 161.053 264.073 161.064 263.932 161.064C263.719 161.064 263.51 161.018 263.306 160.926C263.104 160.835 262.935 160.695 262.801 160.508C262.669 160.32 262.603 160.084 262.603 159.798V154.915ZM266.985 161.115C266.673 161.115 266.391 161.056 266.138 160.939C265.884 160.82 265.683 160.648 265.534 160.425C265.384 160.199 265.31 159.926 265.31 159.607C265.31 159.325 265.365 159.097 265.476 158.923C265.587 158.746 265.735 158.607 265.92 158.507C266.106 158.407 266.31 158.332 266.534 158.283C266.76 158.232 266.987 158.192 267.215 158.162C267.513 158.124 267.755 158.095 267.94 158.076C268.128 158.054 268.264 158.019 268.349 157.97C268.437 157.921 268.48 157.836 268.48 157.714V157.689C268.48 157.374 268.394 157.129 268.221 156.954C268.051 156.779 267.792 156.692 267.445 156.692C267.085 156.692 266.802 156.771 266.598 156.928C266.393 157.086 266.249 157.254 266.166 157.433L265.45 157.178C265.578 156.879 265.749 156.647 265.962 156.481C266.177 156.312 266.411 156.195 266.665 156.129C266.921 156.061 267.172 156.027 267.419 156.027C267.577 156.027 267.758 156.046 267.963 156.085C268.169 156.121 268.368 156.196 268.56 156.311C268.754 156.426 268.915 156.6 269.043 156.832C269.171 157.065 269.235 157.376 269.235 157.766V161H268.48V160.335H268.442C268.391 160.442 268.306 160.556 268.186 160.677C268.067 160.799 267.908 160.902 267.71 160.987C267.512 161.072 267.27 161.115 266.985 161.115ZM267.1 160.438C267.398 160.438 267.649 160.379 267.854 160.262C268.061 160.145 268.216 159.993 268.32 159.808C268.427 159.623 268.48 159.428 268.48 159.223V158.533C268.448 158.571 268.378 158.606 268.269 158.638C268.163 158.668 268.039 158.695 267.899 158.718C267.76 158.739 267.625 158.759 267.493 158.776C267.363 158.79 267.257 158.803 267.176 158.814C266.98 158.839 266.797 158.881 266.627 158.939C266.458 158.994 266.322 159.078 266.218 159.191C266.115 159.302 266.064 159.453 266.064 159.645C266.064 159.907 266.161 160.105 266.355 160.239C266.551 160.371 266.799 160.438 267.1 160.438ZM270.611 161V156.091H271.34V156.832H271.391C271.481 156.589 271.642 156.392 271.877 156.241C272.111 156.09 272.375 156.014 272.669 156.014C272.725 156.014 272.794 156.015 272.877 156.017C272.96 156.02 273.023 156.023 273.066 156.027V156.794C273.04 156.788 272.982 156.778 272.89 156.765C272.801 156.75 272.706 156.743 272.606 156.743C272.367 156.743 272.154 156.793 271.966 156.893C271.781 156.991 271.634 157.127 271.525 157.302C271.419 157.475 271.366 157.672 271.366 157.893V161H270.611ZM276.402 156.091V156.73H273.858V156.091H276.402ZM274.6 154.915H275.354V159.594C275.354 159.807 275.385 159.967 275.447 160.073C275.511 160.178 275.592 160.248 275.69 160.284C275.79 160.318 275.895 160.335 276.006 160.335C276.089 160.335 276.157 160.331 276.211 160.322C276.264 160.312 276.307 160.303 276.339 160.297L276.492 160.974C276.441 160.994 276.369 161.013 276.278 161.032C276.186 161.053 276.07 161.064 275.929 161.064C275.716 161.064 275.508 161.018 275.303 160.926C275.101 160.835 274.932 160.695 274.798 160.508C274.666 160.32 274.6 160.084 274.6 159.798V154.915ZM280.926 157.19L280.249 157.382C280.206 157.269 280.143 157.159 280.06 157.053C279.979 156.944 279.869 156.855 279.728 156.784C279.587 156.714 279.407 156.679 279.188 156.679C278.887 156.679 278.637 156.748 278.437 156.887C278.239 157.023 278.139 157.197 278.139 157.408C278.139 157.595 278.208 157.743 278.344 157.852C278.48 157.961 278.693 158.051 278.983 158.124L279.712 158.303C280.151 158.409 280.478 158.572 280.693 158.792C280.908 159.009 281.016 159.289 281.016 159.632C281.016 159.913 280.935 160.165 280.773 160.386C280.613 160.608 280.389 160.783 280.102 160.911C279.814 161.038 279.48 161.102 279.098 161.102C278.598 161.102 278.183 160.994 277.855 160.776C277.527 160.559 277.319 160.241 277.232 159.824L277.948 159.645C278.016 159.909 278.145 160.107 278.334 160.239C278.526 160.371 278.777 160.438 279.085 160.438C279.437 160.438 279.716 160.363 279.923 160.214C280.132 160.062 280.236 159.881 280.236 159.67C280.236 159.5 280.176 159.357 280.057 159.242C279.938 159.125 279.755 159.038 279.507 158.98L278.689 158.788C278.24 158.682 277.909 158.517 277.698 158.293C277.49 158.067 277.385 157.785 277.385 157.446C277.385 157.169 277.463 156.924 277.619 156.711C277.776 156.498 277.99 156.331 278.261 156.209C278.534 156.088 278.843 156.027 279.188 156.027C279.674 156.027 280.055 156.134 280.332 156.347C280.611 156.56 280.809 156.841 280.926 157.19Z" fill="#677283"/>
<path d="M3.32812 134.17C2.86979 134.17 2.45703 134.079 2.08984 133.896C1.72266 133.714 1.42839 133.464 1.20703 133.146C0.985677 132.829 0.864583 132.467 0.84375 132.061H1.78125C1.81771 132.423 1.98177 132.722 2.27344 132.959C2.56771 133.193 2.91927 133.311 3.32812 133.311C3.65625 133.311 3.94792 133.234 4.20313 133.08C4.46094 132.926 4.66276 132.715 4.80859 132.447C4.95703 132.176 5.03125 131.87 5.03125 131.529C5.03125 131.18 4.95443 130.869 4.80078 130.596C4.64974 130.32 4.44141 130.102 4.17578 129.943C3.91016 129.785 3.60677 129.704 3.26562 129.701C3.02083 129.699 2.76953 129.736 2.51172 129.814C2.25391 129.89 2.04167 129.988 1.875 130.107L0.96875 129.998L1.45313 126.061H5.60938V126.92H2.26563L1.98438 129.279H2.03125C2.19531 129.149 2.40104 129.041 2.64844 128.955C2.89583 128.869 3.15365 128.826 3.42188 128.826C3.91146 128.826 4.34766 128.943 4.73047 129.178C5.11589 129.41 5.41797 129.727 5.63672 130.131C5.85807 130.535 5.96875 130.995 5.96875 131.514C5.96875 132.024 5.85417 132.48 5.625 132.881C5.39844 133.279 5.08594 133.594 4.6875 133.826C4.28906 134.055 3.83594 134.17 3.32812 134.17Z" fill="#677283"/>
<path d="M3.64062 105.701V113.701H2.67188V106.717H2.625L0.671875 108.014V107.029L2.67188 105.701H3.64062ZM8.55078 113.811C7.96224 113.811 7.46094 113.65 7.04688 113.33C6.63281 113.007 6.31641 112.54 6.09766 111.928C5.87891 111.313 5.76953 110.571 5.76953 109.701C5.76953 108.837 5.87891 108.098 6.09766 107.486C6.31901 106.872 6.63672 106.403 7.05078 106.08C7.46745 105.755 7.96745 105.592 8.55078 105.592C9.13411 105.592 9.63281 105.755 10.0469 106.08C10.4635 106.403 10.7813 106.872 11 107.486C11.2214 108.098 11.332 108.837 11.332 109.701C11.332 110.571 11.2227 111.313 11.0039 111.928C10.7852 112.54 10.4687 113.007 10.0547 113.33C9.64063 113.65 9.13932 113.811 8.55078 113.811ZM8.55078 112.951C9.13411 112.951 9.58724 112.67 9.91016 112.107C10.2331 111.545 10.3945 110.743 10.3945 109.701C10.3945 109.008 10.3203 108.419 10.1719 107.932C10.026 107.445 9.8151 107.074 9.53906 106.818C9.26563 106.563 8.9362 106.436 8.55078 106.436C7.97266 106.436 7.52083 106.721 7.19531 107.291C6.86979 107.859 6.70703 108.662 6.70703 109.701C6.70703 110.394 6.77995 110.982 6.92578 111.467C7.07161 111.951 7.28125 112.32 7.55469 112.572C7.83073 112.825 8.16276 112.951 8.55078 112.951Z" fill="#677283"/>
<path d="M3.64062 84.1445V92.1445H2.67188V85.1602H2.625L0.671875 86.457V85.4727L2.67188 84.1445H3.64062ZM8.44141 92.2539C7.98307 92.2539 7.57031 92.1628 7.20313 91.9805C6.83594 91.7982 6.54167 91.5482 6.32031 91.2305C6.09896 90.9128 5.97786 90.5508 5.95703 90.1445H6.89453C6.93099 90.5065 7.09505 90.806 7.38672 91.043C7.68099 91.2773 8.03255 91.3945 8.44141 91.3945C8.76953 91.3945 9.0612 91.3177 9.31641 91.1641C9.57422 91.0104 9.77604 90.7995 9.92188 90.5312C10.0703 90.2604 10.1445 89.9544 10.1445 89.6133C10.1445 89.2643 10.0677 88.9531 9.91406 88.6797C9.76302 88.4036 9.55469 88.1862 9.28906 88.0273C9.02344 87.8685 8.72005 87.7878 8.37891 87.7852C8.13411 87.7826 7.88281 87.8203 7.625 87.8984C7.36719 87.974 7.15495 88.0716 6.98828 88.1914L6.08203 88.082L6.56641 84.1445H10.7227V85.0039H7.37891L7.09766 87.3633H7.14453C7.30859 87.2331 7.51432 87.125 7.76172 87.0391C8.00911 86.9531 8.26693 86.9102 8.53516 86.9102C9.02474 86.9102 9.46094 87.0273 9.84375 87.2617C10.2292 87.4935 10.5313 87.8112 10.75 88.2148C10.9714 88.6185 11.082 89.0794 11.082 89.5977C11.082 90.1081 10.9674 90.5638 10.7383 90.9648C10.5117 91.3633 10.1992 91.6784 9.80078 91.9102C9.40234 92.1393 8.94922 92.2539 8.44141 92.2539Z" fill="#677283"/>
<path d="M0.828125 72.9834V72.2803L3.46875 69.3896C3.77865 69.0511 4.03385 68.7568 4.23438 68.5068C4.4349 68.2542 4.58333 68.0173 4.67969 67.7959C4.77865 67.5719 4.82813 67.3376 4.82813 67.0928C4.82813 66.8115 4.76042 66.568 4.625 66.3623C4.49219 66.1566 4.3099 65.9977 4.07813 65.8857C3.84635 65.7738 3.58594 65.7178 3.29687 65.7178C2.98958 65.7178 2.72135 65.7816 2.49219 65.9092C2.26563 66.0342 2.08984 66.21 1.96484 66.4365C1.84245 66.6631 1.78125 66.9287 1.78125 67.2334H0.859375C0.859375 66.7646 0.967448 66.3532 1.18359 65.999C1.39974 65.6449 1.69401 65.3688 2.06641 65.1709C2.44141 64.973 2.86198 64.874 3.32812 64.874C3.79688 64.874 4.21224 64.973 4.57422 65.1709C4.9362 65.3688 5.22005 65.6357 5.42578 65.9717C5.63151 66.3076 5.73437 66.6813 5.73437 67.0928C5.73437 67.387 5.68099 67.6748 5.57422 67.9561C5.47005 68.2347 5.28776 68.5459 5.02734 68.8896C4.76953 69.2308 4.41146 69.6475 3.95312 70.1396L2.15625 72.0615V72.124H5.875V72.9834H0.828125ZM10.0977 73.0928C9.50911 73.0928 9.00781 72.9326 8.59375 72.6123C8.17969 72.2894 7.86328 71.8219 7.64453 71.21C7.42578 70.5954 7.31641 69.8532 7.31641 68.9834C7.31641 68.1188 7.42578 67.3805 7.64453 66.7686C7.86589 66.154 8.18359 65.6852 8.59766 65.3623C9.01432 65.0368 9.51432 64.874 10.0977 64.874C10.681 64.874 11.1797 65.0368 11.5938 65.3623C12.0104 65.6852 12.3281 66.154 12.5469 66.7686C12.7682 67.3805 12.8789 68.1188 12.8789 68.9834C12.8789 69.8532 12.7695 70.5954 12.5508 71.21C12.332 71.8219 12.0156 72.2894 11.6016 72.6123C11.1875 72.9326 10.6862 73.0928 10.0977 73.0928ZM10.0977 72.2334C10.681 72.2334 11.1341 71.9521 11.457 71.3896C11.7799 70.8271 11.9414 70.0251 11.9414 68.9834C11.9414 68.2907 11.8672 67.7008 11.7188 67.2139C11.5729 66.7269 11.362 66.3558 11.0859 66.1006C10.8125 65.8454 10.4831 65.7178 10.0977 65.7178C9.51953 65.7178 9.06771 66.0029 8.74219 66.5732C8.41667 67.141 8.25391 67.9443 8.25391 68.9834C8.25391 69.6761 8.32682 70.2646 8.47266 70.749C8.61849 71.2334 8.82813 71.6019 9.10156 71.8545C9.3776 72.1071 9.70964 72.2334 10.0977 72.2334Z" fill="#677283"/>
<path d="M0.828125 51.4268V50.7236L3.46875 47.833C3.77865 47.4945 4.03385 47.2002 4.23438 46.9502C4.4349 46.6976 4.58333 46.4606 4.67969 46.2393C4.77865 46.0153 4.82813 45.7809 4.82813 45.5361C4.82813 45.2549 4.76042 45.0114 4.625 44.8057C4.49219 44.5999 4.3099 44.4411 4.07813 44.3291C3.84635 44.2171 3.58594 44.1611 3.29687 44.1611C2.98958 44.1611 2.72135 44.2249 2.49219 44.3525C2.26563 44.4775 2.08984 44.6533 1.96484 44.8799C1.84245 45.1064 1.78125 45.3721 1.78125 45.6768H0.859375C0.859375 45.208 0.967448 44.7965 1.18359 44.4424C1.39974 44.0882 1.69401 43.8122 2.06641 43.6143C2.44141 43.4163 2.86198 43.3174 3.32812 43.3174C3.79688 43.3174 4.21224 43.4163 4.57422 43.6143C4.9362 43.8122 5.22005 44.0791 5.42578 44.415C5.63151 44.751 5.73437 45.1247 5.73437 45.5361C5.73437 45.8304 5.68099 46.1182 5.57422 46.3994C5.47005 46.6781 5.28776 46.9893 5.02734 47.333C4.76953 47.6742 4.41146 48.0908 3.95312 48.583L2.15625 50.5049V50.5674H5.875V51.4268H0.828125ZM9.98828 51.5361C9.52995 51.5361 9.11719 51.445 8.75 51.2627C8.38281 51.0804 8.08854 50.8304 7.86719 50.5127C7.64583 50.195 7.52474 49.833 7.50391 49.4268H8.44141C8.47786 49.7887 8.64193 50.0882 8.93359 50.3252C9.22786 50.5596 9.57943 50.6768 9.98828 50.6768C10.3164 50.6768 10.6081 50.5999 10.8633 50.4463C11.1211 50.2926 11.3229 50.0817 11.4688 49.8135C11.6172 49.5426 11.6914 49.2367 11.6914 48.8955C11.6914 48.5465 11.6146 48.2354 11.4609 47.9619C11.3099 47.6859 11.1016 47.4684 10.8359 47.3096C10.5703 47.1507 10.2669 47.07 9.92578 47.0674C9.68099 47.0648 9.42969 47.1025 9.17188 47.1807C8.91406 47.2562 8.70182 47.3538 8.53516 47.4736L7.62891 47.3643L8.11328 43.4268H12.2695V44.2861H8.92578L8.64453 46.6455H8.69141C8.85547 46.5153 9.0612 46.4072 9.30859 46.3213C9.55599 46.2354 9.8138 46.1924 10.082 46.1924C10.5716 46.1924 11.0078 46.3096 11.3906 46.5439C11.776 46.7757 12.0781 47.0934 12.2969 47.4971C12.5182 47.9007 12.6289 48.3617 12.6289 48.8799C12.6289 49.3903 12.5143 49.846 12.2852 50.2471C12.0586 50.6455 11.7461 50.9606 11.3477 51.1924C10.9492 51.4215 10.4961 51.5361 9.98828 51.5361Z" fill="#677283"/>
<path d="M3.53125 32.375C3.01563 32.375 2.55599 32.2865 2.15234 32.1094C1.7513 31.9323 1.43229 31.6862 1.19531 31.3711C0.960938 31.0534 0.833333 30.6849 0.8125 30.2656H1.79688C1.81771 30.5234 1.90625 30.7461 2.0625 30.9336C2.21875 31.1185 2.42318 31.2617 2.67578 31.3633C2.92839 31.4648 3.20833 31.5156 3.51563 31.5156C3.85938 31.5156 4.16406 31.4557 4.42969 31.3359C4.69531 31.2161 4.90365 31.0495 5.05469 30.8359C5.20573 30.6224 5.28125 30.375 5.28125 30.0937C5.28125 29.7995 5.20833 29.5404 5.0625 29.3164C4.91667 29.0898 4.70313 28.9128 4.42188 28.7852C4.14063 28.6576 3.79688 28.5937 3.39063 28.5937H2.75V27.7344H3.39063C3.70833 27.7344 3.98698 27.6771 4.22656 27.5625C4.46875 27.4479 4.65755 27.2865 4.79297 27.0781C4.93099 26.8698 5 26.625 5 26.3437C5 26.0729 4.9401 25.8372 4.82031 25.6367C4.70052 25.4362 4.53125 25.2799 4.3125 25.168C4.09635 25.056 3.84115 25 3.54688 25C3.27083 25 3.01042 25.0508 2.76563 25.1523C2.52344 25.2513 2.32552 25.3958 2.17188 25.5859C2.01823 25.7734 1.9349 26 1.92188 26.2656H0.984375C1 25.8464 1.1263 25.4792 1.36328 25.1641C1.60026 24.8464 1.91016 24.599 2.29297 24.4219C2.67839 24.2448 3.10156 24.1562 3.5625 24.1562C4.05729 24.1562 4.48177 24.2565 4.83594 24.457C5.1901 24.6549 5.46224 24.9167 5.65234 25.2422C5.84245 25.5677 5.9375 25.9193 5.9375 26.2969C5.9375 26.7474 5.81901 27.1315 5.58203 27.4492C5.34766 27.7669 5.02865 27.987 4.625 28.1094V28.1719C5.13021 28.2552 5.52474 28.4701 5.80859 28.8164C6.09245 29.1602 6.23438 29.5859 6.23438 30.0937C6.23438 30.5286 6.11589 30.9193 5.87891 31.2656C5.64453 31.6094 5.32422 31.8802 4.91797 32.0781C4.51172 32.276 4.04948 32.375 3.53125 32.375ZM10.4414 32.375C9.85286 32.375 9.35156 32.2148 8.9375 31.8945C8.52344 31.5716 8.20703 31.1042 7.98828 30.4922C7.76953 29.8776 7.66016 29.1354 7.66016 28.2656C7.66016 27.401 7.76953 26.6628 7.98828 26.0508C8.20964 25.4362 8.52734 24.9674 8.94141 24.6445C9.35807 24.319 9.85807 24.1562 10.4414 24.1562C11.0247 24.1562 11.5234 24.319 11.9375 24.6445C12.3542 24.9674 12.6719 25.4362 12.8906 26.0508C13.112 26.6628 13.2227 27.401 13.2227 28.2656C13.2227 29.1354 13.1133 29.8776 12.8945 30.4922C12.6758 31.1042 12.3594 31.5716 11.9453 31.8945C11.5313 32.2148 11.0299 32.375 10.4414 32.375ZM10.4414 31.5156C11.0247 31.5156 11.4779 31.2344 11.8008 30.6719C12.1237 30.1094 12.2852 29.3073 12.2852 28.2656C12.2852 27.5729 12.2109 26.9831 12.0625 26.4961C11.9167 26.0091 11.7057 25.638 11.4297 25.3828C11.1563 25.1276 10.8268 25 10.4414 25C9.86328 25 9.41146 25.2852 9.08594 25.8555C8.76042 26.4232 8.59766 27.2266 8.59766 28.2656C8.59766 28.9583 8.67057 29.5469 8.81641 30.0312C8.96224 30.5156 9.17188 30.8841 9.44531 31.1367C9.72135 31.3893 10.0534 31.5156 10.4414 31.5156Z" fill="#677283"/>
<path d="M3.53125 12.0156C3.01563 12.0156 2.55599 11.9271 2.15234 11.75C1.7513 11.5729 1.43229 11.3268 1.19531 11.0117C0.960938 10.694 0.833333 10.3255 0.8125 9.90625H1.79688C1.81771 10.1641 1.90625 10.3867 2.0625 10.5742C2.21875 10.7591 2.42318 10.9023 2.67578 11.0039C2.92839 11.1055 3.20833 11.1562 3.51563 11.1562C3.85938 11.1562 4.16406 11.0964 4.42969 10.9766C4.69531 10.8568 4.90365 10.6901 5.05469 10.4766C5.20573 10.263 5.28125 10.0156 5.28125 9.73437C5.28125 9.4401 5.20833 9.18099 5.0625 8.95703C4.91667 8.73047 4.70313 8.55339 4.42188 8.42578C4.14063 8.29818 3.79688 8.23437 3.39063 8.23437H2.75V7.375H3.39063C3.70833 7.375 3.98698 7.31771 4.22656 7.20312C4.46875 7.08854 4.65755 6.92708 4.79297 6.71875C4.93099 6.51042 5 6.26562 5 5.98437C5 5.71354 4.9401 5.47786 4.82031 5.27734C4.70052 5.07682 4.53125 4.92057 4.3125 4.80859C4.09635 4.69661 3.84115 4.64062 3.54688 4.64062C3.27083 4.64062 3.01042 4.69141 2.76563 4.79297C2.52344 4.89193 2.32552 5.03646 2.17188 5.22656C2.01823 5.41406 1.9349 5.64063 1.92188 5.90625H0.984375C1 5.48698 1.1263 5.11979 1.36328 4.80469C1.60026 4.48698 1.91016 4.23958 2.29297 4.0625C2.67839 3.88542 3.10156 3.79687 3.5625 3.79687C4.05729 3.79687 4.48177 3.89714 4.83594 4.09766C5.1901 4.29557 5.46224 4.55729 5.65234 4.88281C5.84245 5.20833 5.9375 5.5599 5.9375 5.9375C5.9375 6.38802 5.81901 6.77214 5.58203 7.08984C5.34766 7.40755 5.02865 7.6276 4.625 7.75V7.8125C5.13021 7.89583 5.52474 8.11068 5.80859 8.45703C6.09245 8.80078 6.23438 9.22656 6.23438 9.73437C6.23438 10.1693 6.11589 10.5599 5.87891 10.9062C5.64453 11.25 5.32422 11.5208 4.91797 11.7187C4.51172 11.9167 4.04948 12.0156 3.53125 12.0156ZM10.332 12.0156C9.8737 12.0156 9.46094 11.9245 9.09375 11.7422C8.72656 11.5599 8.43229 11.3099 8.21094 10.9922C7.98958 10.6745 7.86849 10.3125 7.84766 9.90625H8.78516C8.82161 10.2682 8.98568 10.5677 9.27734 10.8047C9.57161 11.0391 9.92318 11.1562 10.332 11.1562C10.6602 11.1562 10.9518 11.0794 11.207 10.9258C11.4648 10.7721 11.6667 10.5612 11.8125 10.293C11.9609 10.0221 12.0352 9.71615 12.0352 9.375C12.0352 9.02604 11.9583 8.71484 11.8047 8.44141C11.6536 8.16536 11.4453 7.94792 11.1797 7.78906C10.9141 7.63021 10.6107 7.54948 10.2695 7.54687C10.0247 7.54427 9.77344 7.58203 9.51563 7.66016C9.25781 7.73568 9.04557 7.83333 8.87891 7.95312L7.97266 7.84375L8.45703 3.90625H12.6133V4.76562H9.26953L8.98828 7.125H9.03516C9.19922 6.99479 9.40495 6.88672 9.65234 6.80078C9.89974 6.71484 10.1576 6.67187 10.4258 6.67187C10.9154 6.67187 11.3516 6.78906 11.7344 7.02344C12.1198 7.25521 12.4219 7.57292 12.6406 7.97656C12.862 8.38021 12.9727 8.84115 12.9727 9.35937C12.9727 9.86979 12.8581 10.3255 12.6289 10.7266C12.4023 11.125 12.0898 11.4401 11.6914 11.6719C11.293 11.901 10.8398 12.0156 10.332 12.0156Z" fill="#677283"/>
<rect x="53" y="89.5283" width="21" height="44.3108" fill="#7EB182"/>
<rect x="53" y="83.54" width="21" height="5.98795" fill="#E1AE2A"/>
<rect x="118" y="32.0439" width="21" height="25.1494" fill="#C4565C"/>
<rect x="184" y="32.0439" width="21" height="16.7663" fill="#E1AE2A"/>
<rect x="251" y="42.8223" width="21" height="10.7783" fill="#E1AE2A"/>
<rect x="118" y="54.7979" width="21" height="79.0409" fill="#7EB182"/>
<rect x="184" y="41.624" width="21" height="92.2144" fill="#7EB182"/>
<rect x="251" y="48.8096" width="21" height="85.0289" fill="#7EB182"/>
</svg>
