<svg width="77" height="51" viewBox="0 0 77 51" fill="none" xmlns="http://www.w3.org/2000/svg">
<path d="M0 38.5C8.9266e-07 28.2892 4.05624 18.4965 11.2764 11.2764C18.4965 4.05624 28.2892 1.09546e-06 38.5 0C48.7108 -1.09546e-06 58.5035 4.05624 65.7236 11.2764C72.9438 18.4965 77 28.2892 77 38.5L60.8903 38.5C60.8903 32.5617 58.5314 26.8666 54.3324 22.6676C50.1333 18.4686 44.4383 16.1097 38.5 16.1097C32.5617 16.1097 26.8666 18.4686 22.6676 22.6676C18.4686 26.8666 16.1097 32.5617 16.1097 38.5L0 38.5Z" fill="#678DA3" fill-opacity="0.37"/>
<path d="M0 38.5C4.42178e-07 33.4421 0.996635 28.4337 2.93295 23.7611C4.86927 19.0885 7.70733 14.8432 11.2849 11.2678C14.8626 7.69247 19.1096 4.85708 23.7835 2.9237C28.4573 0.990316 33.4663 -0.00317062 38.5242 7.6007e-06C43.5821 0.00318582 48.5899 1.00297 53.2612 2.94222C57.9326 4.88148 62.1761 7.7222 65.7493 11.3021C69.3224 14.8819 72.1551 19.1308 74.0855 23.8058C76.016 28.4808 77.0063 33.4905 77 38.5484L60.8916 38.5281C60.8953 35.5865 60.3193 32.6729 59.1966 29.9539C58.0738 27.2349 56.4263 24.7637 54.3482 22.6817C52.27 20.5996 49.802 18.9475 47.0851 17.8196C44.3683 16.6917 41.4558 16.1103 38.5141 16.1084C35.5724 16.1066 32.6592 16.6844 29.9409 17.8088C27.2226 18.9333 24.7525 20.5823 22.6717 22.6618C20.591 24.7412 18.9404 27.2103 17.8142 29.9279C16.688 32.6454 16.1084 35.5583 16.1084 38.5L0 38.5Z" fill="#13823F"/>
<path d="M0 38.5C4.42e-07 33.4441 0.995833 28.4377 2.93064 23.7667C4.86545 19.0956 7.70134 14.8514 11.2764 11.2764C14.8514 7.70133 19.0957 4.86544 23.7667 2.93064C28.4377 0.995831 33.4441 -6.63e-07 38.5 0C43.5559 6.63001e-07 48.5623 0.995833 53.2333 2.93064C57.9044 4.86545 62.1486 7.70134 65.7236 11.2764C69.2987 14.8514 72.1346 19.0957 74.0694 23.7667C76.0042 28.4377 77 33.4441 77 38.5L60.8916 38.5C60.8916 35.5595 60.3124 32.6478 59.1871 29.9311C58.0619 27.2144 56.4125 24.746 54.3333 22.6668C52.254 20.5875 49.7856 18.9381 47.0689 17.8129C44.3522 16.6876 41.4405 16.1084 38.5 16.1084C35.5595 16.1084 32.6478 16.6876 29.9311 17.8129C27.2144 18.9381 24.746 20.5875 22.6667 22.6667C20.5875 24.746 18.9381 27.2144 17.8129 29.9311C16.6876 32.6478 16.1084 35.5595 16.1084 38.5L0 38.5Z" fill="#4CA770"/>
<path d="M0 38.5C6.65688e-07 30.8854 2.25799 23.4419 6.48842 17.1106C10.7189 10.7793 16.7317 5.84462 23.7667 2.93065C30.8017 0.0166797 38.5427 -0.745747 46.011 0.739786C53.4793 2.22532 60.3393 5.89209 65.7236 11.2764L54.3333 22.6668C51.2017 19.5352 47.2119 17.4027 42.8684 16.5387C38.5248 15.6747 34.0226 16.1181 29.9311 17.8129C25.8396 19.5076 22.3425 22.3776 19.8821 26.0599C17.4216 29.7422 16.1084 34.0714 16.1084 38.5H0Z" fill="#E3C371"/>
<path d="M0 38.5C8.9266e-07 28.2892 4.05624 18.4965 11.2764 11.2764C18.4965 4.05624 28.2892 -1.21763e-07 38.5 0L38.5 16.1097C32.5617 16.1097 26.8666 18.4686 22.6676 22.6676C18.4686 26.8666 16.1097 32.5617 16.1097 38.5L0 38.5Z" fill="#DB584F"/>
<g filter="url(#filter0_d_21_87)">
<path d="M67.7606 23.0831L31.3235 33.5424L34.9677 39.8543L67.7606 23.0831Z" fill="#485D68"/>
</g>
<ellipse cx="35.0158" cy="35.8736" rx="4.21659" ry="4.21659" fill="#1E1E1E"/>
<defs>
<filter id="filter0_d_21_87" x="30.3386" y="23.0831" width="38.4068" height="19.7258" filterUnits="userSpaceOnUse" color-interpolation-filters="sRGB">
<feFlood flood-opacity="0" result="BackgroundImageFix"/>
<feColorMatrix in="SourceAlpha" type="matrix" values="0 0 0 0 0 0 0 0 0 0 0 0 0 0 0 0 0 0 127 0" result="hardAlpha"/>
<feOffset dy="1.9697"/>
<feGaussianBlur stdDeviation="0.492424"/>
<feComposite in2="hardAlpha" operator="out"/>
<feColorMatrix type="matrix" values="0 0 0 0 0 0 0 0 0 0 0 0 0 0 0 0 0 0 0.25 0"/>
<feBlend mode="normal" in2="BackgroundImageFix" result="effect1_dropShadow_21_87"/>
<feBlend mode="normal" in="SourceGraphic" in2="effect1_dropShadow_21_87" result="shape"/>
</filter>
</defs>
</svg>
