<svg width="224" height="142" viewBox="0 0 224 142" fill="none" xmlns="http://www.w3.org/2000/svg">
<path d="M76.3784 40.5642C76.3784 58.5567 91.2317 73.1422 109.555 73.1422C127.878 73.1422 142.731 58.5567 142.731 40.5642C142.731 22.5718 127.878 7.98633 109.555 7.98633C91.2317 7.98633 76.3784 22.5718 76.3784 40.5642ZM81.2515 40.5642C81.2515 25.2148 93.9234 12.7721 109.555 12.7721C125.186 12.7721 137.858 25.2148 137.858 40.5642C137.858 55.9137 125.186 68.3564 109.555 68.3564C93.9234 68.3564 81.2515 55.9137 81.2515 40.5642Z" fill="#2D72DB"/>
<path d="M140.535 44.9862C140.53 44.9862 140.523 44.9862 140.517 44.9854C140.441 44.9755 140.386 44.9055 140.396 44.828C140.493 44.0673 140.562 43.291 140.6 42.5204C140.605 42.443 140.673 42.3828 140.747 42.3869C140.825 42.391 140.884 42.457 140.881 42.5344C140.842 43.3124 140.773 44.0962 140.675 44.8643C140.666 44.9351 140.605 44.987 140.535 44.987V44.9862ZM140.307 35.8771C140.24 35.8771 140.181 35.8293 140.169 35.7617C139.799 33.6923 139.204 31.6559 138.402 29.7109C133.675 18.2448 122.48 10.8367 109.882 10.8367C104.006 10.8367 98.2953 12.4685 93.3653 15.5565C93.2994 15.5977 93.2128 15.5779 93.1716 15.512C93.1304 15.4461 93.1502 15.3595 93.2161 15.3183C98.1914 12.2031 103.954 10.5557 109.882 10.5557C122.595 10.5557 133.891 18.033 138.661 29.6038C139.471 31.5677 140.071 33.6231 140.446 35.7123C140.46 35.7889 140.409 35.8614 140.333 35.8754C140.324 35.8771 140.316 35.8779 140.308 35.8779L140.307 35.8771Z" fill="white"/>
<path d="M96.4019 26.047C100.417 31.8329 103.728 37.6814 106.465 43.5812C114.407 31.9906 122.544 21.3656 130.942 12.0282L147.622 9.7736C134.142 21.8165 118.639 40.6326 104.796 59.8273C99.577 48.4406 94.3605 37.0746 89.9026 32.547L96.4019 26.047Z" fill="#45984D"/>
<path d="M17.1264 101.018V99.5062H26.1321V101.018H22.5014V111.143H20.7514V101.018H17.1264ZM29.6847 105.961V111.143H27.9858V99.5062H29.6619V103.836H29.7699C29.9744 103.366 30.2869 102.993 30.7074 102.716C31.1278 102.44 31.6771 102.302 32.3551 102.302C32.9536 102.302 33.4763 102.425 33.9233 102.671C34.3741 102.917 34.7225 103.285 34.9688 103.773C35.2188 104.258 35.3438 104.864 35.3438 105.591V111.143H33.6449V105.796C33.6449 105.156 33.4801 104.66 33.1506 104.307C32.821 103.951 32.3627 103.773 31.7756 103.773C31.3741 103.773 31.0142 103.858 30.696 104.029C30.3816 104.199 30.1335 104.449 29.9517 104.779C29.7737 105.105 29.6847 105.499 29.6847 105.961ZM40.1506 111.336C39.5975 111.336 39.0975 111.233 38.6506 111.029C38.2036 110.821 37.8494 110.519 37.5881 110.126C37.3305 109.732 37.2017 109.249 37.2017 108.677C37.2017 108.184 37.2964 107.779 37.4858 107.461C37.6752 107.143 37.9309 106.891 38.2528 106.705C38.5748 106.519 38.9347 106.379 39.3324 106.285C39.7301 106.19 40.1354 106.118 40.5483 106.069C41.071 106.008 41.4953 105.959 41.821 105.921C42.1468 105.879 42.3835 105.813 42.5312 105.722C42.679 105.631 42.7528 105.483 42.7528 105.279V105.239C42.7528 104.743 42.6127 104.358 42.3324 104.086C42.0559 103.813 41.643 103.677 41.0938 103.677C40.5218 103.677 40.071 103.804 39.7415 104.057C39.4157 104.307 39.1903 104.586 39.0653 104.893L37.4688 104.529C37.6581 103.999 37.9347 103.571 38.2983 103.245C38.6657 102.915 39.0881 102.677 39.5653 102.529C40.0426 102.377 40.5445 102.302 41.071 102.302C41.4195 102.302 41.7888 102.343 42.179 102.427C42.5729 102.506 42.9403 102.654 43.2812 102.87C43.6259 103.086 43.9081 103.394 44.1278 103.796C44.3475 104.194 44.4574 104.711 44.4574 105.347V111.143H42.7983V109.949H42.7301C42.6203 110.169 42.4555 110.385 42.2358 110.597C42.0161 110.809 41.7339 110.985 41.3892 111.126C41.0445 111.266 40.6316 111.336 40.1506 111.336ZM40.5199 109.972C40.9896 109.972 41.3911 109.879 41.7244 109.694C42.0616 109.508 42.3172 109.266 42.4915 108.966C42.6695 108.663 42.7585 108.34 42.7585 107.995V106.87C42.6979 106.93 42.5805 106.987 42.4062 107.04C42.2358 107.09 42.0407 107.133 41.821 107.171C41.6013 107.205 41.3873 107.237 41.179 107.268C40.9706 107.294 40.7964 107.317 40.6562 107.336C40.3267 107.377 40.0256 107.448 39.7528 107.546C39.4839 107.644 39.268 107.787 39.1051 107.972C38.946 108.154 38.8665 108.396 38.8665 108.699C38.8665 109.12 39.0218 109.438 39.3324 109.654C39.643 109.866 40.0388 109.972 40.5199 109.972ZM48.419 105.961V111.143H46.7202V102.415H48.3509V103.836H48.4588C48.6596 103.374 48.974 103.002 49.402 102.722C49.8338 102.442 50.3774 102.302 51.0327 102.302C51.6274 102.302 52.1482 102.427 52.5952 102.677C53.0421 102.923 53.3887 103.29 53.6349 103.779C53.8812 104.268 54.0043 104.872 54.0043 105.591V111.143H52.3054V105.796C52.3054 105.163 52.1406 104.669 51.8111 104.313C51.4815 103.953 51.0289 103.773 50.4531 103.773C50.0592 103.773 49.7088 103.858 49.402 104.029C49.099 104.199 48.8584 104.449 48.6804 104.779C48.5062 105.105 48.419 105.499 48.419 105.961ZM57.8452 108.182L57.8338 106.108H58.1293L61.6065 102.415H63.6406L59.6747 106.62H59.4077L57.8452 108.182ZM56.2827 111.143V99.5062H57.9815V111.143H56.2827ZM61.794 111.143L58.669 106.995L59.8395 105.807L63.8793 111.143H61.794ZM70.4972 114.415C70.2434 114.415 70.0123 114.394 69.804 114.353C69.5956 114.315 69.4403 114.273 69.3381 114.228L69.7472 112.836C70.0578 112.919 70.3343 112.955 70.5767 112.944C70.8191 112.932 71.0331 112.841 71.2188 112.671C71.4081 112.501 71.5748 112.222 71.7188 111.836L71.929 111.256L68.7358 102.415H70.554L72.7642 109.188H72.8551L75.0653 102.415H76.8892L73.2926 112.307C73.1259 112.762 72.9138 113.146 72.6562 113.461C72.3987 113.779 72.0919 114.018 71.7358 114.177C71.3797 114.336 70.9669 114.415 70.4972 114.415ZM81.8651 111.319C81.0469 111.319 80.3329 111.131 79.723 110.756C79.1132 110.381 78.6397 109.857 78.3026 109.182C77.9654 108.508 77.7969 107.72 77.7969 106.819C77.7969 105.913 77.9654 105.122 78.3026 104.444C78.6397 103.766 79.1132 103.239 79.723 102.864C80.3329 102.489 81.0469 102.302 81.8651 102.302C82.6832 102.302 83.3973 102.489 84.0071 102.864C84.617 103.239 85.0904 103.766 85.4276 104.444C85.7647 105.122 85.9332 105.913 85.9332 106.819C85.9332 107.72 85.7647 108.508 85.4276 109.182C85.0904 109.857 84.617 110.381 84.0071 110.756C83.3973 111.131 82.6832 111.319 81.8651 111.319ZM81.8707 109.893C82.401 109.893 82.8404 109.752 83.1889 109.472C83.5374 109.192 83.795 108.819 83.9616 108.353C84.1321 107.887 84.2173 107.374 84.2173 106.813C84.2173 106.256 84.1321 105.745 83.9616 105.279C83.795 104.809 83.5374 104.432 83.1889 104.148C82.8404 103.864 82.401 103.722 81.8707 103.722C81.3366 103.722 80.8935 103.864 80.5412 104.148C80.1927 104.432 79.9332 104.809 79.7628 105.279C79.5961 105.745 79.5128 106.256 79.5128 106.813C79.5128 107.374 79.5961 107.887 79.7628 108.353C79.9332 108.819 80.1927 109.192 80.5412 109.472C80.8935 109.752 81.3366 109.893 81.8707 109.893ZM93.358 107.523V102.415H95.0625V111.143H93.392V109.631H93.3011C93.1004 110.097 92.7784 110.485 92.3352 110.796C91.8958 111.103 91.3485 111.256 90.6932 111.256C90.1326 111.256 89.6364 111.133 89.2045 110.887C88.7765 110.637 88.4394 110.268 88.1932 109.779C87.9508 109.29 87.8295 108.686 87.8295 107.966V102.415H89.5284V107.762C89.5284 108.357 89.6932 108.83 90.0227 109.182C90.3523 109.535 90.7803 109.711 91.3068 109.711C91.625 109.711 91.9413 109.631 92.2557 109.472C92.5739 109.313 92.8371 109.073 93.0455 108.751C93.2576 108.429 93.3617 108.019 93.358 107.523ZM105.733 102.415V103.779H100.801V102.415H105.733ZM102.153 111.143V101.404C102.153 100.858 102.273 100.406 102.511 100.046C102.75 99.6824 103.066 99.4115 103.46 99.2335C103.854 99.0517 104.282 98.9608 104.744 98.9608C105.085 98.9608 105.377 98.9892 105.619 99.046C105.862 99.099 106.042 99.1483 106.159 99.1937L105.761 100.569C105.682 100.546 105.58 100.519 105.455 100.489C105.33 100.455 105.178 100.438 105 100.438C104.587 100.438 104.292 100.54 104.114 100.745C103.939 100.949 103.852 101.245 103.852 101.631V111.143H102.153ZM110.818 111.319C110 111.319 109.286 111.131 108.676 110.756C108.066 110.381 107.593 109.857 107.256 109.182C106.919 108.508 106.75 107.72 106.75 106.819C106.75 105.913 106.919 105.122 107.256 104.444C107.593 103.766 108.066 103.239 108.676 102.864C109.286 102.489 110 102.302 110.818 102.302C111.636 102.302 112.35 102.489 112.96 102.864C113.57 103.239 114.044 103.766 114.381 104.444C114.718 105.122 114.886 105.913 114.886 106.819C114.886 107.72 114.718 108.508 114.381 109.182C114.044 109.857 113.57 110.381 112.96 110.756C112.35 111.131 111.636 111.319 110.818 111.319ZM110.824 109.893C111.354 109.893 111.794 109.752 112.142 109.472C112.491 109.192 112.748 108.819 112.915 108.353C113.085 107.887 113.17 107.374 113.17 106.813C113.17 106.256 113.085 105.745 112.915 105.279C112.748 104.809 112.491 104.432 112.142 104.148C111.794 103.864 111.354 103.722 110.824 103.722C110.29 103.722 109.847 103.864 109.494 104.148C109.146 104.432 108.886 104.809 108.716 105.279C108.549 105.745 108.466 106.256 108.466 106.813C108.466 107.374 108.549 107.887 108.716 108.353C108.886 108.819 109.146 109.192 109.494 109.472C109.847 109.752 110.29 109.893 110.824 109.893ZM116.783 111.143V102.415H118.425V103.802H118.516C118.675 103.332 118.955 102.963 119.357 102.694C119.762 102.421 120.22 102.285 120.732 102.285C120.838 102.285 120.963 102.288 121.107 102.296C121.254 102.304 121.37 102.313 121.453 102.324V103.949C121.385 103.93 121.264 103.91 121.089 103.887C120.915 103.86 120.741 103.847 120.567 103.847C120.165 103.847 119.807 103.932 119.493 104.103C119.182 104.269 118.936 104.502 118.754 104.802C118.572 105.097 118.482 105.434 118.482 105.813V111.143H116.783ZM133.697 104.546L132.158 104.819C132.093 104.622 131.991 104.434 131.851 104.256C131.714 104.078 131.529 103.932 131.294 103.819C131.059 103.705 130.766 103.648 130.413 103.648C129.932 103.648 129.531 103.756 129.209 103.972C128.887 104.184 128.726 104.459 128.726 104.796C128.726 105.088 128.834 105.323 129.05 105.501C129.266 105.679 129.614 105.824 130.095 105.938L131.482 106.256C132.285 106.442 132.883 106.728 133.277 107.114C133.671 107.501 133.868 108.002 133.868 108.62C133.868 109.143 133.716 109.608 133.413 110.018C133.114 110.423 132.696 110.741 132.158 110.972C131.624 111.203 131.004 111.319 130.3 111.319C129.322 111.319 128.525 111.11 127.908 110.694C127.29 110.273 126.911 109.677 126.771 108.904L128.413 108.654C128.516 109.082 128.726 109.406 129.044 109.626C129.362 109.841 129.777 109.949 130.288 109.949C130.845 109.949 131.29 109.834 131.624 109.603C131.957 109.368 132.124 109.082 132.124 108.745C132.124 108.472 132.021 108.243 131.817 108.057C131.616 107.872 131.307 107.732 130.891 107.637L129.413 107.313C128.599 107.127 127.997 106.832 127.607 106.427C127.22 106.021 127.027 105.508 127.027 104.887C127.027 104.372 127.171 103.921 127.459 103.535C127.747 103.148 128.144 102.847 128.652 102.631C129.16 102.412 129.741 102.302 130.396 102.302C131.339 102.302 132.082 102.506 132.624 102.915C133.165 103.321 133.523 103.864 133.697 104.546ZM141.264 107.523V102.415H142.969V111.143H141.298V109.631H141.207C141.007 110.097 140.685 110.485 140.241 110.796C139.802 111.103 139.255 111.256 138.599 111.256C138.039 111.256 137.543 111.133 137.111 110.887C136.683 110.637 136.346 110.268 136.099 109.779C135.857 109.29 135.736 108.686 135.736 107.966V102.415H137.435V107.762C137.435 108.357 137.599 108.83 137.929 109.182C138.259 109.535 138.687 109.711 139.213 109.711C139.531 109.711 139.848 109.631 140.162 109.472C140.48 109.313 140.743 109.073 140.952 108.751C141.164 108.429 141.268 108.019 141.264 107.523ZM145.388 111.143V99.5062H147.087V103.83H147.189C147.287 103.648 147.429 103.438 147.615 103.199C147.801 102.961 148.058 102.752 148.388 102.574C148.717 102.393 149.153 102.302 149.695 102.302C150.399 102.302 151.028 102.48 151.581 102.836C152.134 103.192 152.568 103.705 152.882 104.376C153.2 105.046 153.359 105.853 153.359 106.796C153.359 107.739 153.202 108.548 152.888 109.222C152.573 109.893 152.142 110.41 151.592 110.773C151.043 111.133 150.416 111.313 149.712 111.313C149.181 111.313 148.748 111.224 148.411 111.046C148.077 110.868 147.816 110.66 147.626 110.421C147.437 110.182 147.291 109.97 147.189 109.785H147.047V111.143H145.388ZM147.053 106.779C147.053 107.393 147.142 107.93 147.32 108.393C147.498 108.855 147.755 109.216 148.092 109.478C148.429 109.735 148.842 109.864 149.331 109.864C149.839 109.864 150.263 109.73 150.604 109.461C150.945 109.188 151.202 108.819 151.376 108.353C151.554 107.887 151.643 107.362 151.643 106.779C151.643 106.203 151.556 105.686 151.382 105.228C151.212 104.769 150.954 104.408 150.609 104.143C150.268 103.877 149.842 103.745 149.331 103.745C148.839 103.745 148.422 103.872 148.081 104.126C147.744 104.379 147.488 104.733 147.314 105.188C147.14 105.643 147.053 106.173 147.053 106.779ZM155.267 111.143V102.415H156.898V103.836H157.006C157.188 103.355 157.485 102.98 157.898 102.711C158.311 102.438 158.805 102.302 159.381 102.302C159.964 102.302 160.453 102.438 160.847 102.711C161.244 102.983 161.538 103.358 161.727 103.836H161.818C162.027 103.37 162.358 102.999 162.812 102.722C163.267 102.442 163.809 102.302 164.438 102.302C165.229 102.302 165.875 102.55 166.375 103.046C166.879 103.542 167.131 104.29 167.131 105.29V111.143H165.432V105.449C165.432 104.858 165.271 104.43 164.949 104.165C164.627 103.9 164.242 103.768 163.795 103.768C163.242 103.768 162.812 103.938 162.506 104.279C162.199 104.616 162.045 105.05 162.045 105.58V111.143H160.352V105.341C160.352 104.868 160.205 104.487 159.909 104.199C159.614 103.912 159.229 103.768 158.756 103.768C158.434 103.768 158.136 103.853 157.864 104.023C157.595 104.19 157.377 104.423 157.21 104.722C157.047 105.021 156.966 105.368 156.966 105.762V111.143H155.267ZM169.408 111.143V102.415H171.107V111.143H169.408ZM170.266 101.069C169.97 101.069 169.716 100.97 169.504 100.773C169.296 100.573 169.192 100.334 169.192 100.057C169.192 99.777 169.296 99.5384 169.504 99.3414C169.716 99.1407 169.97 99.0403 170.266 99.0403C170.561 99.0403 170.813 99.1407 171.021 99.3414C171.233 99.5384 171.339 99.777 171.339 100.057C171.339 100.334 171.233 100.573 171.021 100.773C170.813 100.97 170.561 101.069 170.266 101.069ZM177.466 102.415V103.779H172.699V102.415H177.466ZM173.977 100.324H175.676V108.58C175.676 108.91 175.725 109.158 175.824 109.324C175.922 109.487 176.049 109.599 176.205 109.66C176.364 109.716 176.536 109.745 176.722 109.745C176.858 109.745 176.977 109.735 177.08 109.716C177.182 109.698 177.261 109.682 177.318 109.671L177.625 111.074C177.527 111.112 177.386 111.15 177.205 111.188C177.023 111.23 176.795 111.252 176.523 111.256C176.076 111.264 175.659 111.184 175.273 111.018C174.886 110.851 174.574 110.593 174.335 110.245C174.097 109.896 173.977 109.459 173.977 108.932V100.324ZM183.419 102.415V103.779H178.652V102.415H183.419ZM179.93 100.324H181.629V108.58C181.629 108.91 181.679 109.158 181.777 109.324C181.875 109.487 182.002 109.599 182.158 109.66C182.317 109.716 182.489 109.745 182.675 109.745C182.811 109.745 182.93 109.735 183.033 109.716C183.135 109.698 183.214 109.682 183.271 109.671L183.578 111.074C183.48 111.112 183.339 111.15 183.158 111.188C182.976 111.23 182.749 111.252 182.476 111.256C182.029 111.264 181.612 111.184 181.226 111.018C180.839 110.851 180.527 110.593 180.288 110.245C180.05 109.896 179.93 109.459 179.93 108.932V100.324ZM185.298 111.143V102.415H186.997V111.143H185.298ZM186.156 101.069C185.861 101.069 185.607 100.97 185.395 100.773C185.187 100.573 185.082 100.334 185.082 100.057C185.082 99.777 185.187 99.5384 185.395 99.3414C185.607 99.1407 185.861 99.0403 186.156 99.0403C186.452 99.0403 186.704 99.1407 186.912 99.3414C187.124 99.5384 187.23 99.777 187.23 100.057C187.23 100.334 187.124 100.573 186.912 100.773C186.704 100.97 186.452 101.069 186.156 101.069ZM190.982 105.961V111.143H189.283V102.415H190.913V103.836H191.021C191.222 103.374 191.536 103.002 191.964 102.722C192.396 102.442 192.94 102.302 193.595 102.302C194.19 102.302 194.711 102.427 195.158 102.677C195.605 102.923 195.951 103.29 196.197 103.779C196.444 104.268 196.567 104.872 196.567 105.591V111.143H194.868V105.796C194.868 105.163 194.703 104.669 194.374 104.313C194.044 103.953 193.591 103.773 193.016 103.773C192.622 103.773 192.271 103.858 191.964 104.029C191.661 104.199 191.421 104.449 191.243 104.779C191.069 105.105 190.982 105.499 190.982 105.961ZM202.504 114.597C201.811 114.597 201.214 114.506 200.714 114.324C200.218 114.143 199.813 113.902 199.499 113.603C199.184 113.304 198.949 112.976 198.794 112.62L200.254 112.018C200.357 112.184 200.493 112.36 200.663 112.546C200.838 112.735 201.072 112.896 201.368 113.029C201.667 113.162 202.052 113.228 202.521 113.228C203.165 113.228 203.697 113.071 204.118 112.756C204.538 112.446 204.749 111.949 204.749 111.268V109.552H204.641C204.538 109.737 204.391 109.944 204.197 110.171C204.008 110.398 203.747 110.595 203.413 110.762C203.08 110.929 202.646 111.012 202.112 111.012C201.423 111.012 200.802 110.851 200.249 110.529C199.699 110.203 199.264 109.724 198.942 109.091C198.624 108.455 198.464 107.673 198.464 106.745C198.464 105.817 198.622 105.021 198.936 104.358C199.254 103.696 199.69 103.188 200.243 102.836C200.796 102.48 201.423 102.302 202.124 102.302C202.665 102.302 203.103 102.393 203.436 102.574C203.769 102.752 204.029 102.961 204.214 103.199C204.404 103.438 204.55 103.648 204.652 103.83H204.777V102.415H206.442V111.336C206.442 112.086 206.268 112.701 205.919 113.182C205.571 113.663 205.099 114.019 204.504 114.251C203.913 114.482 203.247 114.597 202.504 114.597ZM202.487 109.603C202.976 109.603 203.389 109.489 203.726 109.262C204.067 109.031 204.324 108.701 204.499 108.273C204.677 107.841 204.766 107.324 204.766 106.722C204.766 106.135 204.679 105.618 204.504 105.171C204.33 104.724 204.074 104.376 203.737 104.126C203.4 103.872 202.983 103.745 202.487 103.745C201.976 103.745 201.55 103.877 201.209 104.143C200.868 104.404 200.61 104.76 200.436 105.211C200.266 105.662 200.18 106.165 200.18 106.722C200.18 107.294 200.268 107.796 200.442 108.228C200.616 108.66 200.874 108.997 201.214 109.239C201.559 109.482 201.983 109.603 202.487 109.603ZM50.6222 138.415C50.3684 138.415 50.1373 138.394 49.929 138.353C49.7206 138.315 49.5653 138.273 49.4631 138.228L49.8722 136.836C50.1828 136.919 50.4593 136.955 50.7017 136.944C50.9441 136.932 51.1581 136.841 51.3438 136.671C51.5331 136.501 51.6998 136.222 51.8438 135.836L52.054 135.256L48.8608 126.415H50.679L52.8892 133.188H52.9801L55.1903 126.415H57.0142L53.4176 136.307C53.2509 136.762 53.0388 137.146 52.7812 137.461C52.5237 137.779 52.2169 138.018 51.8608 138.177C51.5047 138.336 51.0919 138.415 50.6222 138.415ZM61.9901 135.319C61.1719 135.319 60.4579 135.131 59.848 134.756C59.2382 134.381 58.7647 133.857 58.4276 133.182C58.0904 132.508 57.9219 131.72 57.9219 130.819C57.9219 129.913 58.0904 129.122 58.4276 128.444C58.7647 127.766 59.2382 127.239 59.848 126.864C60.4579 126.489 61.1719 126.302 61.9901 126.302C62.8082 126.302 63.5223 126.489 64.1321 126.864C64.742 127.239 65.2154 127.766 65.5526 128.444C65.8897 129.122 66.0582 129.913 66.0582 130.819C66.0582 131.72 65.8897 132.508 65.5526 133.182C65.2154 133.857 64.742 134.381 64.1321 134.756C63.5223 135.131 62.8082 135.319 61.9901 135.319ZM61.9957 133.893C62.526 133.893 62.9654 133.752 63.3139 133.472C63.6624 133.192 63.92 132.819 64.0866 132.353C64.2571 131.887 64.3423 131.374 64.3423 130.813C64.3423 130.256 64.2571 129.745 64.0866 129.279C63.92 128.809 63.6624 128.432 63.3139 128.148C62.9654 127.864 62.526 127.722 61.9957 127.722C61.4616 127.722 61.0185 127.864 60.6662 128.148C60.3177 128.432 60.0582 128.809 59.8878 129.279C59.7211 129.745 59.6378 130.256 59.6378 130.813C59.6378 131.374 59.7211 131.887 59.8878 132.353C60.0582 132.819 60.3177 133.192 60.6662 133.472C61.0185 133.752 61.4616 133.893 61.9957 133.893ZM73.483 131.523V126.415H75.1875V135.143H73.517V133.631H73.4261C73.2254 134.097 72.9034 134.485 72.4602 134.796C72.0208 135.103 71.4735 135.256 70.8182 135.256C70.2576 135.256 69.7614 135.133 69.3295 134.887C68.9015 134.637 68.5644 134.268 68.3182 133.779C68.0758 133.29 67.9545 132.686 67.9545 131.966V126.415H69.6534V131.762C69.6534 132.357 69.8182 132.83 70.1477 133.182C70.4773 133.535 70.9053 133.711 71.4318 133.711C71.75 133.711 72.0663 133.631 72.3807 133.472C72.6989 133.313 72.9621 133.073 73.1705 132.751C73.3826 132.429 73.4867 132.019 73.483 131.523ZM77.4702 135.143V126.415H79.1122V127.802H79.2031C79.3622 127.332 79.6425 126.963 80.044 126.694C80.4493 126.421 80.9077 126.285 81.419 126.285C81.5251 126.285 81.6501 126.288 81.794 126.296C81.9418 126.304 82.0573 126.313 82.1406 126.324V127.949C82.0724 127.93 81.9512 127.91 81.777 127.887C81.6027 127.86 81.4285 127.847 81.2543 127.847C80.8527 127.847 80.4948 127.932 80.1804 128.103C79.8698 128.269 79.6236 128.502 79.4418 128.802C79.2599 129.097 79.169 129.434 79.169 129.813V135.143H77.4702ZM91.919 126.415V127.779H87.152V126.415H91.919ZM88.4304 124.324H90.1293V132.58C90.1293 132.91 90.1785 133.158 90.277 133.324C90.3755 133.487 90.5024 133.599 90.6577 133.66C90.8168 133.716 90.9891 133.745 91.1747 133.745C91.3111 133.745 91.4304 133.735 91.5327 133.716C91.6349 133.698 91.7145 133.682 91.7713 133.671L92.0781 135.074C91.9796 135.112 91.8395 135.15 91.6577 135.188C91.4759 135.23 91.2486 135.252 90.9759 135.256C90.5289 135.264 90.1122 135.184 89.7259 135.018C89.3395 134.851 89.027 134.593 88.7884 134.245C88.5497 133.896 88.4304 133.459 88.4304 132.932V124.324ZM97.4659 135.319C96.6061 135.319 95.8655 135.135 95.2443 134.768C94.6269 134.396 94.1496 133.876 93.8125 133.205C93.4792 132.531 93.3125 131.741 93.3125 130.836C93.3125 129.942 93.4792 129.154 93.8125 128.472C94.1496 127.79 94.6193 127.258 95.2216 126.876C95.8277 126.493 96.536 126.302 97.3466 126.302C97.839 126.302 98.3163 126.383 98.7784 126.546C99.2405 126.709 99.6553 126.965 100.023 127.313C100.39 127.662 100.68 128.114 100.892 128.671C101.104 129.224 101.21 129.896 101.21 130.688V131.29H94.2727V130.018H99.5455C99.5455 129.571 99.4545 129.175 99.2727 128.83C99.0909 128.482 98.8352 128.207 98.5057 128.006C98.1799 127.805 97.7973 127.705 97.358 127.705C96.8807 127.705 96.464 127.823 96.108 128.057C95.7557 128.288 95.483 128.591 95.2898 128.966C95.1004 129.338 95.0057 129.741 95.0057 130.177V131.171C95.0057 131.754 95.108 132.251 95.3125 132.66C95.5208 133.069 95.8106 133.381 96.1818 133.597C96.553 133.809 96.9867 133.915 97.483 133.915C97.8049 133.915 98.0985 133.87 98.3636 133.779C98.6288 133.684 98.858 133.544 99.0511 133.358C99.2443 133.173 99.392 132.944 99.4943 132.671L101.102 132.961C100.973 133.434 100.742 133.849 100.409 134.205C100.08 134.557 99.6648 134.832 99.1648 135.029C98.6686 135.222 98.1023 135.319 97.4659 135.319ZM109.635 128.546L108.095 128.819C108.031 128.622 107.929 128.434 107.788 128.256C107.652 128.078 107.466 127.932 107.232 127.819C106.997 127.705 106.703 127.648 106.351 127.648C105.87 127.648 105.468 127.756 105.146 127.972C104.824 128.184 104.663 128.459 104.663 128.796C104.663 129.088 104.771 129.323 104.987 129.501C105.203 129.679 105.552 129.824 106.033 129.938L107.419 130.256C108.222 130.442 108.821 130.728 109.214 131.114C109.608 131.501 109.805 132.002 109.805 132.62C109.805 133.143 109.654 133.608 109.351 134.018C109.052 134.423 108.633 134.741 108.095 134.972C107.561 135.203 106.942 135.319 106.237 135.319C105.26 135.319 104.463 135.11 103.845 134.694C103.228 134.273 102.849 133.677 102.709 132.904L104.351 132.654C104.453 133.082 104.663 133.406 104.982 133.626C105.3 133.841 105.714 133.949 106.226 133.949C106.783 133.949 107.228 133.834 107.561 133.603C107.894 133.368 108.061 133.082 108.061 132.745C108.061 132.472 107.959 132.243 107.754 132.057C107.554 131.872 107.245 131.732 106.828 131.637L105.351 131.313C104.536 131.127 103.934 130.832 103.544 130.427C103.158 130.021 102.964 129.508 102.964 128.887C102.964 128.372 103.108 127.921 103.396 127.535C103.684 127.148 104.082 126.847 104.589 126.631C105.097 126.412 105.679 126.302 106.334 126.302C107.277 126.302 108.019 126.506 108.561 126.915C109.103 127.321 109.461 127.864 109.635 128.546ZM115.747 126.415V127.779H110.98V126.415H115.747ZM112.259 124.324H113.957V132.58C113.957 132.91 114.007 133.158 114.105 133.324C114.204 133.487 114.33 133.599 114.486 133.66C114.645 133.716 114.817 133.745 115.003 133.745C115.139 133.745 115.259 133.735 115.361 133.716C115.463 133.698 115.543 133.682 115.599 133.671L115.906 135.074C115.808 135.112 115.668 135.15 115.486 135.188C115.304 135.23 115.077 135.252 114.804 135.256C114.357 135.264 113.94 135.184 113.554 135.018C113.168 134.851 112.855 134.593 112.616 134.245C112.378 133.896 112.259 133.459 112.259 132.932V124.324ZM117.626 135.143V126.415H119.325V135.143H117.626ZM118.484 125.069C118.189 125.069 117.935 124.97 117.723 124.773C117.515 124.573 117.411 124.334 117.411 124.057C117.411 123.777 117.515 123.538 117.723 123.341C117.935 123.141 118.189 123.04 118.484 123.04C118.78 123.04 119.032 123.141 119.24 123.341C119.452 123.538 119.558 123.777 119.558 124.057C119.558 124.334 119.452 124.573 119.24 124.773C119.032 124.97 118.78 125.069 118.484 125.069ZM121.611 135.143V126.415H123.241V127.836H123.349C123.531 127.355 123.829 126.98 124.241 126.711C124.654 126.438 125.149 126.302 125.724 126.302C126.308 126.302 126.796 126.438 127.19 126.711C127.588 126.983 127.882 127.358 128.071 127.836H128.162C128.37 127.37 128.702 126.999 129.156 126.722C129.611 126.442 130.152 126.302 130.781 126.302C131.573 126.302 132.219 126.55 132.719 127.046C133.223 127.542 133.474 128.29 133.474 129.29V135.143H131.776V129.449C131.776 128.858 131.615 128.43 131.293 128.165C130.971 127.9 130.586 127.768 130.139 127.768C129.586 127.768 129.156 127.938 128.849 128.279C128.543 128.616 128.389 129.05 128.389 129.58V135.143H126.696V129.341C126.696 128.868 126.548 128.487 126.253 128.199C125.957 127.912 125.573 127.768 125.099 127.768C124.777 127.768 124.48 127.853 124.207 128.023C123.938 128.19 123.721 128.423 123.554 128.722C123.391 129.021 123.31 129.368 123.31 129.762V135.143H121.611ZM139.428 135.319C138.609 135.319 137.895 135.131 137.286 134.756C136.676 134.381 136.202 133.857 135.865 133.182C135.528 132.508 135.359 131.72 135.359 130.819C135.359 129.913 135.528 129.122 135.865 128.444C136.202 127.766 136.676 127.239 137.286 126.864C137.895 126.489 138.609 126.302 139.428 126.302C140.246 126.302 140.96 126.489 141.57 126.864C142.179 127.239 142.653 127.766 142.99 128.444C143.327 129.122 143.496 129.913 143.496 130.819C143.496 131.72 143.327 132.508 142.99 133.182C142.653 133.857 142.179 134.381 141.57 134.756C140.96 135.131 140.246 135.319 139.428 135.319ZM139.433 133.893C139.964 133.893 140.403 133.752 140.751 133.472C141.1 133.192 141.357 132.819 141.524 132.353C141.695 131.887 141.78 131.374 141.78 130.813C141.78 130.256 141.695 129.745 141.524 129.279C141.357 128.809 141.1 128.432 140.751 128.148C140.403 127.864 139.964 127.722 139.433 127.722C138.899 127.722 138.456 127.864 138.104 128.148C137.755 128.432 137.496 128.809 137.325 129.279C137.159 129.745 137.075 130.256 137.075 130.813C137.075 131.374 137.159 131.887 137.325 132.353C137.496 132.819 137.755 133.192 138.104 133.472C138.456 133.752 138.899 133.893 139.433 133.893ZM147.091 129.961V135.143H145.392V126.415H147.023V127.836H147.131C147.331 127.374 147.646 127.002 148.074 126.722C148.506 126.442 149.049 126.302 149.705 126.302C150.299 126.302 150.82 126.427 151.267 126.677C151.714 126.923 152.061 127.29 152.307 127.779C152.553 128.268 152.676 128.872 152.676 129.591V135.143H150.977V129.796C150.977 129.163 150.813 128.669 150.483 128.313C150.153 127.953 149.701 127.773 149.125 127.773C148.731 127.773 148.381 127.858 148.074 128.029C147.771 128.199 147.53 128.449 147.352 128.779C147.178 129.105 147.091 129.499 147.091 129.961ZM154.955 135.143V126.415H156.653V135.143H154.955ZM155.812 125.069C155.517 125.069 155.263 124.97 155.051 124.773C154.843 124.573 154.739 124.334 154.739 124.057C154.739 123.777 154.843 123.538 155.051 123.341C155.263 123.141 155.517 123.04 155.812 123.04C156.108 123.04 156.36 123.141 156.568 123.341C156.78 123.538 156.886 123.777 156.886 124.057C156.886 124.334 156.78 124.573 156.568 124.773C156.36 124.97 156.108 125.069 155.812 125.069ZM161.479 135.336C160.926 135.336 160.426 135.233 159.979 135.029C159.532 134.821 159.178 134.519 158.916 134.126C158.659 133.732 158.53 133.249 158.53 132.677C158.53 132.184 158.625 131.779 158.814 131.461C159.003 131.143 159.259 130.891 159.581 130.705C159.903 130.519 160.263 130.379 160.661 130.285C161.058 130.19 161.464 130.118 161.876 130.069C162.399 130.008 162.823 129.959 163.149 129.921C163.475 129.879 163.712 129.813 163.859 129.722C164.007 129.631 164.081 129.483 164.081 129.279V129.239C164.081 128.743 163.941 128.358 163.661 128.086C163.384 127.813 162.971 127.677 162.422 127.677C161.85 127.677 161.399 127.804 161.07 128.057C160.744 128.307 160.518 128.586 160.393 128.893L158.797 128.529C158.986 127.999 159.263 127.571 159.626 127.245C159.994 126.915 160.416 126.677 160.893 126.529C161.371 126.377 161.873 126.302 162.399 126.302C162.748 126.302 163.117 126.343 163.507 126.427C163.901 126.506 164.268 126.654 164.609 126.87C164.954 127.086 165.236 127.394 165.456 127.796C165.676 128.194 165.786 128.711 165.786 129.347V135.143H164.126V133.949H164.058C163.948 134.169 163.784 134.385 163.564 134.597C163.344 134.809 163.062 134.985 162.717 135.126C162.373 135.266 161.96 135.336 161.479 135.336ZM161.848 133.972C162.318 133.972 162.719 133.879 163.053 133.694C163.39 133.508 163.645 133.266 163.82 132.966C163.998 132.663 164.087 132.34 164.087 131.995V130.87C164.026 130.93 163.909 130.987 163.734 131.04C163.564 131.09 163.369 131.133 163.149 131.171C162.929 131.205 162.715 131.237 162.507 131.268C162.299 131.294 162.125 131.317 161.984 131.336C161.655 131.377 161.354 131.448 161.081 131.546C160.812 131.644 160.596 131.787 160.433 131.972C160.274 132.154 160.195 132.396 160.195 132.699C160.195 133.12 160.35 133.438 160.661 133.654C160.971 133.866 161.367 133.972 161.848 133.972ZM169.747 123.506V135.143H168.048V123.506H169.747ZM174.175 123.506L174.027 131.796H172.453L172.305 123.506H174.175ZM173.243 135.251C172.929 135.251 172.66 135.141 172.436 134.921C172.213 134.698 172.103 134.429 172.107 134.114C172.103 133.804 172.213 133.538 172.436 133.319C172.66 133.095 172.929 132.983 173.243 132.983C173.55 132.983 173.815 133.095 174.038 133.319C174.262 133.538 174.375 133.804 174.379 134.114C174.375 134.323 174.321 134.514 174.214 134.688C174.112 134.858 173.976 134.995 173.805 135.097C173.635 135.199 173.447 135.251 173.243 135.251Z" fill="#324054"/>
</svg>
