<svg width="190" height="130" viewBox="0 0 190 130" fill="none" xmlns="http://www.w3.org/2000/svg">
<path d="M13.8627 71.2335L0.408234 109.84L57.8906 129.73L71.3451 91.1235L13.8627 71.2335Z" fill="white"/>
<path d="M71.3413 91.1144C71.1146 91.2468 70.8759 91.3576 70.6283 91.4454L68.5413 92.2862L60.8208 95.2956L35.2176 105.061L35.0048 105.139L34.8853 104.949L34.5904 104.488L19.8363 81.0294L15.416 73.887L14.24 71.9303C14.0945 71.7077 13.9695 71.4724 13.8667 71.2272C14.043 71.426 14.1993 71.6416 14.3333 71.8708L15.5989 73.7717L20.1648 80.836L35.0608 104.209C35.1579 104.369 35.2587 104.525 35.352 104.67L35.0197 104.558L60.6827 94.9497L68.4667 92.089L70.5909 91.345C70.8329 91.2439 71.0842 91.1666 71.3413 91.1144Z" fill="#C0D3F0"/>
<path d="M0.407996 109.852C0.329596 109.722 6.49706 105.927 14.1803 101.374C21.8635 96.8208 28.1579 93.2385 28.2363 93.3687C28.3147 93.4989 22.1472 97.2933 14.4603 101.847C6.77333 106.4 0.486396 109.964 0.407996 109.852Z" fill="#C0D3F0"/>
<path d="M47.5115 99.4769C47.6533 99.4286 50.0949 106.173 52.9621 114.509C55.8293 122.846 58.0357 129.672 57.8901 129.721C57.7445 129.769 55.3067 123.025 52.4395 114.688C49.5723 106.351 47.3659 99.5253 47.5115 99.4769Z" fill="#C0D3F0"/>
<path d="M183.492 61.185L126.612 70.7915L133.111 108.994L189.991 99.3876L183.492 61.185Z" fill="#C0D3F0"/>
<path d="M183.487 61.2018C183.359 61.4147 183.212 61.6152 183.046 61.8008L181.699 63.4487L176.659 69.4602C172.332 74.5455 166.411 81.5056 159.859 89.2134L159.721 89.3771L159.534 89.273L159.078 89.0237L136.074 76.2344L129.133 72.306L127.267 71.2161C127.041 71.1005 126.829 70.9622 126.632 70.8032C126.87 70.89 127.1 70.997 127.319 71.1231L129.242 72.1312L136.264 75.9107L159.343 88.5587L159.799 88.808L159.474 88.8675L176.401 69.2147L181.564 63.3111C182.158 62.6526 182.628 62.1244 182.987 61.7226C183.139 61.5361 183.307 61.3619 183.487 61.2018Z" fill="white"/>
<path d="M133.106 109.008C132.982 108.933 136.369 102.974 140.669 95.6974C144.97 88.4211 148.562 82.5807 148.685 82.6551C148.808 82.7295 145.422 88.6852 141.121 95.9652C136.82 103.245 133.229 109.078 133.106 109.008Z" fill="white"/>
<path d="M167.512 78.976C167.609 78.8718 172.739 83.3544 178.925 88.9939C185.111 94.6335 190.084 99.2909 189.983 99.41C189.882 99.529 184.779 95.0241 178.57 89.392C172.362 83.7599 167.4 79.0913 167.512 78.976Z" fill="white"/>
<path d="M126.637 0.460598L116.389 26.4211L155.044 41.57L165.291 15.6094L126.637 0.460598Z" fill="white"/>
<path d="M165.279 15.9555C165.123 16.0427 164.956 16.1114 164.783 16.1601L163.338 16.6809L157.988 18.5223L140.251 24.4743L140.106 24.5226L140.031 24.3887L139.844 24.0688L130.44 7.65988C129.264 5.5804 128.308 3.88408 127.625 2.66764L126.878 1.3024C126.784 1.14652 126.704 0.982124 126.639 0.811363C126.755 0.951705 126.858 1.10238 126.946 1.26148C127.147 1.6 127.416 2.04268 127.756 2.59324L130.675 7.52968C133.124 11.7444 136.481 17.5104 140.184 23.8977L140.371 24.2213L140.15 24.1358L157.917 18.2879L163.293 16.5432L164.761 16.108C164.929 16.0435 165.103 15.9925 165.279 15.9555Z" fill="#C0D3F0"/>
<path d="M116.38 26.7732C116.328 26.684 120.64 24.2622 126.009 21.3681C131.377 18.4739 135.767 16.2047 135.816 16.294C135.865 16.3833 131.56 18.805 126.188 21.688C120.815 24.571 116.429 26.8662 116.38 26.7732Z" fill="#C0D3F0"/>
<path d="M148.793 21.0035C148.894 20.9738 150.372 25.6349 152.093 31.4195C153.814 37.2041 155.136 41.9025 155.035 41.9322C154.934 41.962 153.456 37.3046 151.735 31.5162C150.014 25.7279 148.692 21.0333 148.793 21.0035Z" fill="#C0D3F0"/>
<path d="M51.3829 62.9428L139.441 62.3067L141.894 121.961L50.7109 121.12L51.3829 62.9428Z" fill="#2D72DB"/>
<path d="M51.3792 62.9428L93.0581 29.34C93.9145 28.6504 94.9832 28.2761 96.0843 28.2802C97.1853 28.2843 98.2512 28.6665 99.1024 29.3624L139.441 62.3067" fill="#2D72DB"/>
<g opacity="0.3">
<path d="M51.3792 62.9428L93.0581 29.34C93.9145 28.6504 94.9832 28.2761 96.0843 28.2802C97.1853 28.2843 98.2512 28.6665 99.1024 29.3624L139.441 62.3067" fill="#141517"/>
</g>
<path d="M50.7109 121.12C50.6027 121.016 57.6512 113.345 66.4581 103.989C75.2651 94.6335 82.4891 87.1302 82.6011 87.2307C82.7131 87.3311 75.6608 95.0018 66.8539 104.361C58.0469 113.721 50.8229 121.22 50.7109 121.12Z" fill="#141517"/>
<path d="M141.894 121.961C141.782 122.061 134.916 114.547 126.561 105.18C118.206 95.8127 111.523 88.1346 111.628 88.0342C111.732 87.9338 118.605 95.4482 126.961 104.819C135.316 114.19 142.013 121.86 141.894 121.961Z" fill="#141517"/>
<g opacity="0.5">
<path d="M139.441 62.3067L95.2197 97.5053L51.3829 62.9428" fill="#141517"/>
</g>
<path d="M55.8144 66.2015L55.68 38.8L132.785 37.8886L133.654 66.7223L95.216 97.044L55.8144 66.2015Z" fill="#F5F5F5"/>
<path d="M55.8144 66.2015C55.8144 66.2015 56.0645 66.3875 56.5387 66.7558L58.6293 68.3777L66.6 74.579L95.2757 96.9808H95.1787L133.606 66.6479L133.569 66.726C133.404 61.2279 133.229 55.4544 133.05 49.5843C132.934 45.6299 132.814 41.7239 132.699 37.8923L132.796 37.9853L55.6912 38.8595L55.7509 38.8C55.7808 47.4192 55.8069 54.2678 55.8219 58.9624C55.8219 61.3097 55.8219 63.1176 55.8219 64.3415V65.7291C55.8219 66.0416 55.8219 66.2015 55.8219 66.2015C55.8219 66.2015 55.8219 66.0453 55.8219 65.7365C55.8219 65.4278 55.8219 64.9628 55.8219 64.3564C55.8219 63.1325 55.7957 61.3283 55.7771 58.9847C55.7472 54.2826 55.7024 47.4304 55.6464 38.8V38.7368H55.7061L132.814 37.7956H132.908V37.8923C133.023 41.7202 133.139 45.6262 133.259 49.5806C133.438 55.4544 133.61 61.2242 133.778 66.726V66.7744L133.74 66.8042L95.2869 97.111L95.2384 97.1482L95.1899 97.111L66.5328 74.6348L58.6107 68.4038L56.52 66.767C56.0496 66.395 55.8144 66.2015 55.8144 66.2015Z" fill="#141517"/>
<path d="M120.599 51.6898C120.599 51.7419 108.805 51.8572 94.264 51.9428C79.7227 52.0283 67.9253 52.0618 67.9253 52.006C67.9253 51.9502 79.7152 51.8386 94.264 51.7493C108.813 51.66 120.599 51.634 120.599 51.6898Z" fill="#141517"/>
<path d="M120.599 59.4274C120.599 59.4832 108.805 59.5985 94.264 59.6841C79.7227 59.7696 67.9253 59.7994 67.9253 59.7473C67.9253 59.6952 79.7152 59.5799 94.264 59.4906C108.813 59.4014 120.599 59.3753 120.599 59.4274Z" fill="#141517"/>
<path d="M120.599 68.3517C120.599 68.4038 108.805 68.5191 94.264 68.6084C79.7227 68.6976 67.9253 68.7237 67.9253 68.6679C67.9253 68.6121 79.7152 68.5005 94.264 68.4149C108.813 68.3294 120.599 68.2959 120.599 68.3517Z" fill="#141517"/>
<path d="M120.599 77.2722C120.599 77.328 109.35 77.4359 95.4736 77.5215C81.5968 77.607 70.3483 77.6294 70.3445 77.5773C70.3408 77.5252 81.5931 77.4136 95.4736 77.328C109.354 77.2425 120.599 77.2202 120.599 77.2722Z" fill="#141517"/>
<path d="M110.735 85.1028C110.634 85.1199 110.532 85.1274 110.429 85.1252L109.541 85.1512L106.285 85.2033L95.5371 85.3558C91.3408 85.4265 87.5365 85.4488 84.7851 85.4525H81.5296H80.6411C80.5387 85.4544 80.4363 85.4481 80.3349 85.4339C80.436 85.4169 80.5385 85.4094 80.6411 85.4116L81.5296 85.3893L84.7851 85.3335L95.5333 85.181C99.7296 85.1103 103.534 85.088 106.282 85.0842H109.541H110.429C110.532 85.084 110.634 85.0902 110.735 85.1028Z" fill="#141517"/>
<path d="M100.809 92.6321C100.809 92.6842 98.296 92.7288 95.2085 92.7288C92.1211 92.7288 89.6085 92.6842 89.6085 92.6321C89.6085 92.58 92.1248 92.5354 95.2085 92.5354C98.2923 92.5354 100.809 92.5763 100.809 92.6321Z" fill="#141517"/>
<path d="M126.763 86.5536C131.907 86.5536 136.077 82.3982 136.077 77.2722C136.077 72.1463 131.907 67.9908 126.763 67.9908C121.618 67.9908 117.448 72.1463 117.448 77.2722C117.448 82.3982 121.618 86.5536 126.763 86.5536Z" fill="#141517"/>
<path d="M124.34 86.5536C129.484 86.5536 133.654 82.3982 133.654 77.2722C133.654 72.1463 129.484 67.9908 124.34 67.9908C119.195 67.9908 115.025 72.1463 115.025 77.2722C115.025 82.3982 119.195 86.5536 124.34 86.5536Z" fill="#5B5F65"/>
<path d="M125.523 72.9533V80.6686H124.093V74.14H122.454V72.9384L125.523 72.9533Z" fill="white"/>
</svg>
