<svg width="39" height="38" viewBox="0 0 39 38" fill="none" xmlns="http://www.w3.org/2000/svg">
<g clip-path="url(#clip0_5479_7999)">
<path d="M6.83464 9.50008H3.66797V31.6667C3.66797 33.4163 5.08505 34.8334 6.83464 34.8334H29.0013V31.6667H6.83464V9.50008ZM32.168 3.16675H13.168C11.4184 3.16675 10.0013 4.58383 10.0013 6.33341V25.3334C10.0013 27.083 11.4184 28.5001 13.168 28.5001H32.168C33.9176 28.5001 35.3346 27.083 35.3346 25.3334V6.33341C35.3346 4.58383 33.9176 3.16675 32.168 3.16675ZM30.5846 17.4167H24.2513V23.7501H21.0846V17.4167H14.7513V14.2501H21.0846V7.91675H24.2513V14.2501H30.5846V17.4167Z" fill="#B7BDC6"/>
</g>
<defs>
<clipPath id="clip0_5479_7999">
<rect width="38" height="38" fill="white" transform="translate(0.5)"/>
</clipPath>
</defs>
</svg>
