<svg width="19" height="19" viewBox="0 0 19 19" fill="none" xmlns="http://www.w3.org/2000/svg">
<path d="M0.558594 18.1074V4.10742H4.55859V0.107422H14.5586V8.10742H18.5586V18.1074H10.5586V14.1074H8.55859V18.1074H0.558594ZM2.55859 16.1074H4.55859V14.1074H2.55859V16.1074ZM2.55859 12.1074H4.55859V10.1074H2.55859V12.1074ZM2.55859 8.10742H4.55859V6.10742H2.55859V8.10742ZM6.55859 12.1074H8.55859V10.1074H6.55859V12.1074ZM6.55859 8.10742H8.55859V6.10742H6.55859V8.10742ZM6.55859 4.10742H8.55859V2.10742H6.55859V4.10742ZM10.5586 12.1074H12.5586V10.1074H10.5586V12.1074ZM10.5586 8.10742H12.5586V6.10742H10.5586V8.10742ZM10.5586 4.10742H12.5586V2.10742H10.5586V4.10742ZM14.5586 16.1074H16.5586V14.1074H14.5586V16.1074ZM14.5586 12.1074H16.5586V10.1074H14.5586V12.1074Z" fill="#2D72DB"/>
</svg>
