<svg width="13" height="13" viewBox="0 0 13 13" fill="none" xmlns="http://www.w3.org/2000/svg">
<path d="M8.56875 6.69375C8.62565 6.63431 8.67026 6.56422 8.7 6.4875C8.76251 6.33534 8.76251 6.16467 8.7 6.0125C8.67026 5.93578 8.62565 5.86569 8.56875 5.80625L6.69375 3.93125C6.57606 3.81356 6.41644 3.74745 6.25 3.74745C6.08356 3.74745 5.92394 3.81356 5.80625 3.93125C5.68856 4.04894 5.62245 4.20856 5.62245 4.375C5.62245 4.54144 5.68856 4.70106 5.80625 4.81875L6.61875 5.625H4.375C4.20924 5.625 4.05027 5.69085 3.93306 5.80806C3.81585 5.92527 3.75 6.08424 3.75 6.25C3.75 6.41576 3.81585 6.57473 3.93306 6.69194C4.05027 6.80915 4.20924 6.875 4.375 6.875H6.61875L5.80625 7.68125C5.74767 7.73935 5.70118 7.80848 5.66945 7.88464C5.63772 7.9608 5.62138 8.0425 5.62138 8.125C5.62138 8.20751 5.63772 8.2892 5.66945 8.36536C5.70118 8.44153 5.74767 8.51065 5.80625 8.56875C5.86435 8.62733 5.93348 8.67383 6.00964 8.70556C6.0858 8.73729 6.1675 8.75363 6.25 8.75363C6.33251 8.75363 6.4142 8.73729 6.49036 8.70556C6.56653 8.67383 6.63565 8.62733 6.69375 8.56875L8.56875 6.69375ZM12.5 6.25C12.5 5.01387 12.1334 3.8055 11.4467 2.77769C10.7599 1.74988 9.78381 0.948803 8.64178 0.475756C7.49974 0.00270803 6.24307 -0.121063 5.03069 0.120095C3.81831 0.361252 2.70466 0.956507 1.83059 1.83059C0.956507 2.70466 0.361252 3.81831 0.120095 5.03069C-0.121063 6.24307 0.00270803 7.49974 0.475756 8.64178C0.948803 9.78381 1.74988 10.7599 2.77769 11.4467C3.8055 12.1334 5.01387 12.5 6.25 12.5C7.90761 12.5 9.49732 11.8415 10.6694 10.6694C11.8415 9.49732 12.5 7.90761 12.5 6.25ZM1.25 6.25C1.25 5.2611 1.54325 4.2944 2.09265 3.47215C2.64206 2.64991 3.42296 2.00904 4.33659 1.63061C5.25022 1.25217 6.25555 1.15315 7.22545 1.34608C8.19536 1.539 9.08627 2.01521 9.78554 2.71447C10.4848 3.41373 10.961 4.30465 11.1539 5.27455C11.3469 6.24446 11.2478 7.24979 10.8694 8.16342C10.491 9.07705 9.8501 9.85794 9.02785 10.4074C8.20561 10.9568 7.23891 11.25 6.25 11.25C4.92392 11.25 3.65215 10.7232 2.71447 9.78554C1.77679 8.84786 1.25 7.57609 1.25 6.25Z" fill="#B7BDC6"/>
</svg>
