<svg width="12" height="20" viewBox="0 0 12 20" fill="none" xmlns="http://www.w3.org/2000/svg">
<path fill-rule="evenodd" clip-rule="evenodd" d="M1.70711 12.6261C1.31658 12.2356 0.683417 12.2356 0.292893 12.6261C-0.0976311 13.0167 -0.0976311 13.6498 0.292893 14.0404L5.29289 19.0404C5.68342 19.4309 6.31658 19.4309 6.70711 19.0404L11.7071 14.0404C12.0976 13.6498 12.0976 13.0167 11.7071 12.6261C11.3166 12.2356 10.6834 12.2356 10.2929 12.6261L6 16.919L1.70711 12.6261ZM0.292893 5.95958C-0.0976311 6.35011 -0.0976311 6.98327 0.292893 7.37379C0.683417 7.76432 1.31658 7.76432 1.70711 7.37379L6 3.0809L10.2929 7.37379C10.6834 7.76432 11.3166 7.76432 11.7071 7.37379C12.0976 6.98327 12.0976 6.35011 11.7071 5.95958L6.70711 0.959579C6.31658 0.569056 5.68342 0.569056 5.29289 0.959579L0.292893 5.95958Z" fill="#324054"/>
</svg>
