<svg width="18" height="20" viewBox="0 0 18 20" fill="none" xmlns="http://www.w3.org/2000/svg">
<path d="M16.5 13.3333V6.66667C16.4997 6.3744 16.4225 6.08734 16.2763 5.8343C16.13 5.58126 15.9198 5.37114 15.6667 5.225L9.83333 1.89167C9.57997 1.74539 9.29256 1.66838 9 1.66838C8.70744 1.66838 8.42003 1.74539 8.16667 1.89167L2.33333 5.225C2.08022 5.37114 1.86998 5.58126 1.72372 5.8343C1.57745 6.08734 1.5003 6.3744 1.5 6.66667V13.3333C1.5003 13.6256 1.57745 13.9127 1.72372 14.1657C1.86998 14.4187 2.08022 14.6289 2.33333 14.775L8.16667 18.1083C8.42003 18.2546 8.70744 18.3316 9 18.3316C9.29256 18.3316 9.57997 18.2546 9.83333 18.1083L15.6667 14.775C15.9198 14.6289 16.13 14.4187 16.2763 14.1657C16.4225 13.9127 16.4997 13.6256 16.5 13.3333Z" stroke="#2D72DB" stroke-width="1.5" stroke-linecap="round" stroke-linejoin="round"/>
<path d="M1.72498 5.8L8.99998 10.0083L16.275 5.8" stroke="#2D72DB" stroke-width="1.5" stroke-linecap="round" stroke-linejoin="round"/>
<path d="M9 18.4V10" stroke="#2D72DB" stroke-width="1.5" stroke-linecap="round" stroke-linejoin="round"/>
</svg>
