<svg width="18" height="17" viewBox="0 0 18 17" fill="none" xmlns="http://www.w3.org/2000/svg">
<g clip-path="url(#clip0_896_9731)">
<path d="M9.44291 15.2518C9.19506 15.129 8.9472 15.0045 8.69935 14.8816C8.10346 14.5844 7.50931 14.2873 6.91342 13.9901C6.19096 13.6299 5.46674 13.2696 4.74428 12.9077C4.12201 12.5972 3.49799 12.2868 2.87572 11.9763C2.57338 11.8253 2.27279 11.6692 1.96693 11.5231C1.96342 11.5215 1.95814 11.5181 1.95463 11.5165C2.10053 11.7555 2.24467 11.9946 2.39057 12.2337C2.39057 11.9846 2.39057 11.7373 2.39057 11.4883C2.39057 10.8956 2.39057 10.3012 2.39057 9.70856C2.39057 8.99138 2.39057 8.27419 2.39057 7.55534C2.39057 6.93278 2.39057 6.31022 2.39057 5.68601C2.39057 5.38386 2.39584 5.08171 2.39057 4.77956C2.39057 4.77624 2.39057 4.77126 2.39057 4.76794C1.94935 5.007 1.50814 5.24606 1.06869 5.48513C1.31654 5.60964 1.56439 5.73249 1.81225 5.857C2.40814 6.15417 3.00228 6.45134 3.59818 6.74851C4.32064 7.10876 5.04486 7.47067 5.76732 7.83093C6.38959 8.14138 7.01361 8.45349 7.63588 8.76394C7.93822 8.91501 8.23881 9.07106 8.54467 9.21716C8.54818 9.21882 8.55345 9.22214 8.55697 9.2238C8.41107 8.98474 8.26693 8.74567 8.12103 8.50661C8.12103 8.75397 8.12103 9.003 8.12103 9.25036C8.12103 9.84304 8.12103 10.4357 8.12103 11.0284C8.12103 11.7456 8.12103 12.4628 8.12103 13.18C8.12103 13.8025 8.12103 14.4251 8.12103 15.0476C8.12103 15.3498 8.11752 15.6519 8.12103 15.9541C8.12103 15.9574 8.12103 15.9624 8.12103 15.9657C8.12103 16.1782 8.21947 16.4023 8.37767 16.5534C8.5306 16.6978 8.78021 16.8057 8.99994 16.7958C9.2267 16.7858 9.46224 16.7161 9.62221 16.5534C9.78041 16.3907 9.87885 16.1915 9.87885 15.9657C9.87885 15.7183 9.87885 15.4693 9.87885 15.2219C9.87885 14.6293 9.87885 14.0366 9.87885 13.4439C9.87885 12.7267 9.87885 12.0095 9.87885 11.2924C9.87885 10.6698 9.87885 10.0472 9.87885 9.42468C9.87885 9.12253 9.88236 8.82038 9.87885 8.51823C9.87885 8.51491 9.87885 8.50993 9.87885 8.50661C9.87885 8.22439 9.71361 7.92556 9.44291 7.78942C9.19506 7.66491 8.9472 7.54206 8.69935 7.41755C8.10346 7.12038 7.50931 6.82321 6.91342 6.52604C6.19096 6.16579 5.46674 5.80388 4.74428 5.44362C4.12201 5.13317 3.49799 4.82106 2.87572 4.51062C2.57338 4.35954 2.27103 4.20515 1.96693 4.05739C1.96342 4.05573 1.95814 4.05241 1.95463 4.05075C1.67338 3.90964 1.34818 3.89636 1.06693 4.05075C0.799745 4.19851 0.630995 4.47409 0.630995 4.76794C0.630995 5.01696 0.630995 5.26433 0.630995 5.51335C0.630995 6.10603 0.630995 6.70036 0.630995 7.29304C0.630995 8.01022 0.630995 8.72741 0.630995 9.44626C0.630995 10.0688 0.630995 10.6914 0.630995 11.3156C0.630995 11.6177 0.62748 11.9199 0.630995 12.222C0.630995 12.2254 0.630995 12.2303 0.630995 12.2337C0.630995 12.5159 0.79623 12.8164 1.06693 12.9508C1.31478 13.0737 1.56264 13.1982 1.81049 13.3211C2.40639 13.6182 3.00053 13.9154 3.59642 14.2126C4.31889 14.5728 5.0431 14.9331 5.76556 15.295C6.38783 15.6054 7.01185 15.9159 7.63412 16.2263C7.93646 16.3774 8.23881 16.5318 8.54291 16.6796C8.54642 16.6812 8.5517 16.6845 8.55521 16.6862C8.76264 16.7891 9.00346 16.829 9.23197 16.7692C9.43588 16.7161 9.65736 16.5667 9.75756 16.3874C9.86478 16.1948 9.91928 15.9607 9.84545 15.7482C9.77865 15.5473 9.64681 15.3531 9.44291 15.2518Z" fill="#2D68FE"/>
<path d="M16.0471 11.5165C15.7993 11.6394 15.5514 11.7639 15.3036 11.8867C14.7077 12.1839 14.1135 12.4811 13.5176 12.7782C12.7952 13.1385 12.0709 13.4987 11.3485 13.8607C10.7262 14.1711 10.1022 14.4816 9.47992 14.792C9.17758 14.9431 8.87172 15.0892 8.57113 15.2452C8.56762 15.2469 8.56234 15.2502 8.55883 15.2519C9.00004 15.4909 9.44125 15.73 9.8807 15.9691C9.8807 15.7217 9.8807 15.4727 9.8807 15.2253C9.8807 14.6326 9.8807 14.0399 9.8807 13.4473C9.8807 12.7301 9.8807 12.0129 9.8807 11.2957C9.8807 10.6732 9.8807 10.0506 9.8807 9.42803C9.8807 9.12589 9.88598 8.82374 9.8807 8.52159C9.8807 8.51827 9.8807 8.51329 9.8807 8.50997C9.73481 8.74903 9.59067 8.98809 9.44477 9.22716C9.69262 9.10264 9.94047 8.97979 10.1883 8.85528C10.7842 8.55811 11.3784 8.26094 11.9743 7.96378C12.6967 7.60352 13.4209 7.24161 14.1434 6.88135C14.7657 6.57091 15.3897 6.2588 16.012 5.94835C16.3143 5.79727 16.6202 5.64952 16.9207 5.49512C16.9243 5.49346 16.9295 5.49014 16.933 5.48848C16.4918 5.24942 16.0506 5.01036 15.6112 4.7713C15.6112 5.02032 15.6112 5.26768 15.6112 5.51671C15.6112 6.10938 15.6112 6.70372 15.6112 7.29639C15.6112 8.01358 15.6112 8.73077 15.6112 9.44962C15.6112 10.0722 15.6112 10.6947 15.6112 11.319C15.6112 11.6211 15.6077 11.9232 15.6112 12.2254C15.6112 12.2287 15.6112 12.2337 15.6112 12.237C15.6112 12.4495 15.7096 12.6736 15.8678 12.8247C16.0207 12.9691 16.2704 13.0771 16.4901 13.0671C16.7168 13.0571 16.9524 12.9874 17.1123 12.8247C17.2705 12.662 17.369 12.4628 17.369 12.237C17.369 11.988 17.369 11.7406 17.369 11.4916C17.369 10.8989 17.369 10.3046 17.369 9.71192C17.369 8.99473 17.369 8.27755 17.369 7.5587C17.369 6.93614 17.369 6.31358 17.369 5.68936C17.369 5.38721 17.3725 5.08507 17.369 4.78292C17.369 4.7796 17.369 4.77462 17.369 4.7713C17.369 4.47911 17.2002 4.20186 16.933 4.05411C16.6536 3.89971 16.3266 3.913 16.0454 4.05411C15.7975 4.17862 15.5496 4.30147 15.3018 4.42598C14.7059 4.72315 14.1118 5.02032 13.5159 5.31749C12.7934 5.67774 12.0692 6.03966 11.3467 6.39991C10.7245 6.71036 10.1004 7.02247 9.47817 7.33292C9.17582 7.48399 8.8682 7.63009 8.56938 7.78614C8.56586 7.7878 8.56059 7.79112 8.55707 7.79278C8.28637 7.92725 8.12113 8.22608 8.12113 8.50997C8.12113 8.75733 8.12113 9.00636 8.12113 9.25372C8.12113 9.84639 8.12113 10.4391 8.12113 11.0317C8.12113 11.7489 8.12113 12.4661 8.12113 13.1833C8.12113 13.8059 8.12113 14.4284 8.12113 15.051C8.12113 15.3531 8.11762 15.6553 8.12113 15.9574C8.12113 15.9607 8.12113 15.9657 8.12113 15.9691C8.12113 16.2612 8.28988 16.5385 8.55707 16.6862C8.83656 16.8406 9.16352 16.8257 9.44477 16.6862C9.69262 16.5634 9.94047 16.4389 10.1883 16.316C10.7842 16.0189 11.3784 15.7217 11.9743 15.4245C12.6967 15.0643 13.4209 14.704 14.1434 14.3421C14.7657 14.0316 15.3897 13.7212 16.012 13.4107C16.3143 13.2597 16.6219 13.1136 16.9207 12.9575C16.9243 12.9559 16.9295 12.9525 16.933 12.9509C17.1229 12.8563 17.2811 12.6471 17.3373 12.4545C17.3954 12.2553 17.369 11.9913 17.2495 11.8153C16.9823 11.4235 16.483 11.299 16.0471 11.5165Z" fill="#2D68FE"/>
<path d="M16.047 4.05244C15.7991 4.17695 15.5513 4.2998 15.3034 4.42431C14.7075 4.72148 14.1134 5.01865 13.5175 5.31582C12.795 5.67607 12.0708 6.03798 11.3483 6.39824C10.7261 6.70869 10.102 7.0208 9.47978 7.33125C9.17744 7.48232 8.87158 7.63007 8.57099 7.78447C8.56748 7.78613 8.56221 7.78945 8.55869 7.79111C8.854 7.79111 9.14932 7.79111 9.44639 7.79111C9.19853 7.6666 8.95068 7.54375 8.70283 7.41923C8.10693 7.12207 7.51279 6.8249 6.91689 6.52773C6.19443 6.16748 5.47021 5.80556 4.74775 5.44531C4.12549 5.13486 3.50146 4.82275 2.8792 4.5123C2.57685 4.36123 2.27627 4.20517 1.97041 4.05908C1.96689 4.05742 1.96162 4.0541 1.9581 4.05244C1.9581 4.53056 1.9581 5.00869 1.9581 5.48515C2.20595 5.3623 2.45381 5.23779 2.70166 5.11494C3.29756 4.81777 3.8917 4.5206 4.4876 4.22343C5.21006 3.86318 5.93428 3.50127 6.65674 3.14101C7.279 2.83056 7.90303 2.52011 8.52529 2.208C8.82764 2.05693 9.1335 1.90918 9.43408 1.75478C9.4376 1.75312 9.44287 1.7498 9.44639 1.74814C9.15107 1.74814 8.85576 1.74814 8.55869 1.74814C8.80654 1.87099 9.05439 1.9955 9.30225 2.11836C9.89814 2.41552 10.4923 2.71269 11.0882 3.00986C11.8106 3.37011 12.5349 3.73203 13.2573 4.09228C13.8796 4.40273 14.5036 4.71318 15.1259 5.02529C15.4282 5.17636 15.7306 5.33076 16.0347 5.47851C16.0382 5.48017 16.0435 5.48349 16.047 5.48515C16.2544 5.58808 16.4952 5.62793 16.7237 5.56816C16.9276 5.51504 17.1491 5.36562 17.2493 5.18632C17.3565 4.99375 17.411 4.75966 17.3372 4.54716C17.2687 4.34629 17.1368 4.15205 16.9329 4.05078C16.6815 3.92627 16.4302 3.80009 16.1788 3.67558C15.5812 3.37841 14.9853 3.07959 14.3876 2.78242C13.6616 2.4205 12.9356 2.05859 12.2097 1.69668C11.5892 1.38623 10.9687 1.07744 10.3481 0.766988C10.0493 0.617574 9.75224 0.463179 9.45166 0.320406C9.26885 0.232418 9.08779 0.190914 8.88213 0.217476C8.76084 0.232418 8.65537 0.267281 8.54463 0.322066C8.51123 0.338668 8.47959 0.355269 8.44619 0.370211C8.2915 0.446578 8.13682 0.524605 7.98213 0.600972C7.41787 0.883199 6.85185 1.16543 6.2876 1.44599C5.56865 1.80459 4.84795 2.16484 4.129 2.52343C3.47861 2.84716 2.82998 3.17255 2.17959 3.49629C1.82451 3.67392 1.46943 3.85156 1.11435 4.02754C1.09853 4.03584 1.08095 4.04414 1.06513 4.05244C0.492088 4.33799 0.492088 5.19961 1.06513 5.48515C1.3165 5.61132 1.56787 5.73584 1.81924 5.86201C2.41689 6.16084 3.01279 6.458 3.61045 6.75683C4.33642 7.11875 5.0624 7.48232 5.78838 7.84423C6.40889 8.15468 7.02939 8.46347 7.6499 8.77392C7.94873 8.92334 8.2458 9.07773 8.54639 9.22217C8.7292 9.31015 8.91025 9.35166 9.11592 9.32509C9.23721 9.31015 9.34267 9.27529 9.45342 9.2205C9.48681 9.2039 9.51846 9.1873 9.55186 9.17236C9.70654 9.09599 9.86123 9.01797 10.0159 8.9416C10.5802 8.65937 11.1462 8.37714 11.7104 8.09492C12.4294 7.73632 13.1501 7.37607 13.869 7.01748C14.5194 6.69375 15.1681 6.36836 15.8185 6.04463C16.1735 5.86699 16.5286 5.68935 16.8837 5.51171C16.8995 5.50341 16.9171 5.49511 16.9329 5.48681C17.1228 5.39218 17.281 5.183 17.3372 4.99043C17.3952 4.79121 17.3688 4.52724 17.2493 4.35127C16.9821 3.95947 16.4829 3.83496 16.047 4.05244Z" fill="#2D68FE"/>
<path d="M5.69878 7.35785C5.94663 7.23333 6.19448 7.11048 6.44233 6.98597C7.03823 6.6888 7.63237 6.39163 8.22827 6.09447C8.95073 5.73421 9.67495 5.3723 10.3974 5.01204C11.0197 4.7016 11.6437 4.38949 12.266 4.07904C12.5683 3.92796 12.8759 3.78187 13.1748 3.62581C13.1783 3.62415 13.1835 3.62083 13.1871 3.61917C13.3769 3.52454 13.5351 3.31536 13.5914 3.12279C13.6494 2.92357 13.623 2.6596 13.5035 2.48363C13.2363 2.09183 12.7371 1.96898 12.3011 2.18646C12.0533 2.31097 11.8054 2.43382 11.5576 2.55833C10.9617 2.8555 10.3675 3.15267 9.77163 3.44984C9.04917 3.81009 8.32495 4.17201 7.60249 4.53226C6.98022 4.84271 6.3562 5.15482 5.73394 5.46527C5.43159 5.61634 5.12397 5.76244 4.82515 5.91849C4.82163 5.92015 4.81636 5.92347 4.81284 5.92513C4.623 6.01976 4.4648 6.22894 4.40855 6.42152C4.35054 6.62074 4.3769 6.8847 4.49644 7.06068C4.76187 7.45081 5.26284 7.57533 5.69878 7.35785Z" fill="#2D68FE"/>
</g>
<defs>
<clipPath id="clip0_896_9731">
<rect width="18" height="17" fill="white"/>
</clipPath>
</defs>
</svg>
