<svg width="12" height="14" viewBox="0 0 12 14" fill="none" xmlns="http://www.w3.org/2000/svg">
<path d="M8.625 5.48355L3.375 2.45605" stroke="#2D72DB" stroke-linecap="round" stroke-linejoin="round"/>
<path d="M11.25 9.33344V4.66677C11.2498 4.46218 11.1958 4.26124 11.0934 4.08412C10.991 3.90699 10.8438 3.7599 10.6667 3.65761L6.58333 1.32427C6.40598 1.22188 6.20479 1.16797 6 1.16797C5.79521 1.16797 5.59402 1.22188 5.41667 1.32427L1.33333 3.65761C1.15615 3.7599 1.00899 3.90699 0.906603 4.08412C0.804217 4.26124 0.75021 4.46218 0.75 4.66677V9.33344C0.75021 9.53803 0.804217 9.73897 0.906603 9.91609C1.00899 10.0932 1.15615 10.2403 1.33333 10.3426L5.41667 12.6759C5.59402 12.7783 5.79521 12.8322 6 12.8322C6.20479 12.8322 6.40598 12.7783 6.58333 12.6759L10.6667 10.3426C10.8438 10.2403 10.991 10.0932 11.0934 9.91609C11.1958 9.73897 11.2498 9.53803 11.25 9.33344Z" stroke="#2D72DB" stroke-linecap="round" stroke-linejoin="round"/>
<path d="M0.907715 4.06006L6.00021 7.00589L11.0927 4.06006" stroke="#2D72DB" stroke-linecap="round" stroke-linejoin="round"/>
<path d="M6 12.88V7" stroke="#2D72DB" stroke-linecap="round" stroke-linejoin="round"/>
</svg>
