<svg width="14" height="16" viewBox="0 0 14 16" fill="none" xmlns="http://www.w3.org/2000/svg">
<path d="M9.00469 13C8.44601 13 7.97222 12.8071 7.58333 12.4214C7.19444 12.0356 7 11.5634 7 11.0047C7 10.446 7.19288 9.97222 7.57865 9.58333C7.9644 9.19444 8.43662 9 8.99531 9C9.55399 9 10.0278 9.19288 10.4167 9.57865C10.8056 9.9644 11 10.4366 11 10.9953C11 11.554 10.8071 12.0278 10.4214 12.4167C10.0356 12.8056 9.56338 13 9.00469 13ZM1.5 16C1.0875 16 0.734375 15.8507 0.440625 15.5521C0.146875 15.2535 0 14.9028 0 14.5V3.5C0 3.09722 0.146875 2.74653 0.440625 2.44792C0.734375 2.14931 1.0875 2 1.5 2H3V0.75C3 0.5375 3.07145 0.359374 3.21435 0.215624C3.35727 0.0718745 3.53435 0 3.7456 0C3.95687 0 4.13542 0.0718745 4.28125 0.215624C4.42708 0.359374 4.5 0.5375 4.5 0.75V2H9.5V0.75C9.5 0.5375 9.57145 0.359374 9.71435 0.215624C9.85727 0.0718745 10.0344 0 10.2456 0C10.4569 0 10.6354 0.0718745 10.7812 0.215624C10.9271 0.359374 11 0.5375 11 0.75V2H12.5C12.9125 2 13.2656 2.14931 13.5594 2.44792C13.8531 2.74653 14 3.09722 14 3.5V14.5C14 14.9028 13.8531 15.2535 13.5594 15.5521C13.2656 15.8507 12.9125 16 12.5 16H1.5ZM1.5 14.5H12.5V7H1.5V14.5ZM1.5 5.5H12.5V3.5H1.5V5.5Z" fill="#5F61E1"/>
</svg>
