<svg width="21" height="21" viewBox="0 0 21 21" fill="none" xmlns="http://www.w3.org/2000/svg">
<path d="M2.94141 7.55892C2.94141 8.01725 3.31641 8.39225 3.77474 8.39225C4.23307 8.39225 4.60807 8.01725 4.60807 7.55892V5.89225H6.27474C6.73307 5.89225 7.10807 5.51725 7.10807 5.05892C7.10807 4.60059 6.73307 4.22559 6.27474 4.22559H4.60807V2.55892C4.60807 2.10059 4.23307 1.72559 3.77474 1.72559C3.31641 1.72559 2.94141 2.10059 2.94141 2.55892V4.22559H1.27474C0.816406 4.22559 0.441406 4.60059 0.441406 5.05892C0.441406 5.51725 0.816406 5.89225 1.27474 5.89225H2.94141V7.55892Z" fill="#2D72DB"/>
<path d="M11.2749 15.0593C12.6556 15.0593 13.7749 13.94 13.7749 12.5593C13.7749 11.1786 12.6556 10.0593 11.2749 10.0593C9.89419 10.0593 8.7749 11.1786 8.7749 12.5593C8.7749 13.94 9.89419 15.0593 11.2749 15.0593Z" fill="#2D72DB"/>
<path d="M17.9414 5.8925H15.2997L14.2664 4.7675C13.9581 4.42583 13.5081 4.22583 13.0414 4.22583H7.70807C7.84974 4.47583 7.94141 4.75083 7.94141 5.05916C7.94141 5.97583 7.19141 6.72583 6.27474 6.72583H5.44141V7.55916C5.44141 8.47583 4.69141 9.22583 3.77474 9.22583C3.46641 9.22583 3.19141 9.13416 2.94141 8.9925V17.5592C2.94141 18.4758 3.69141 19.2258 4.60807 19.2258H17.9414C18.8581 19.2258 19.6081 18.4758 19.6081 17.5592V7.55916C19.6081 6.6425 18.8581 5.8925 17.9414 5.8925ZM11.2747 16.7258C8.97474 16.7258 7.10807 14.8592 7.10807 12.5592C7.10807 10.2592 8.97474 8.3925 11.2747 8.3925C13.5747 8.3925 15.4414 10.2592 15.4414 12.5592C15.4414 14.8592 13.5747 16.7258 11.2747 16.7258Z" fill="#2D72DB"/>
</svg>
