<svg width="18" height="18" viewBox="0 0 18 18" fill="none" xmlns="http://www.w3.org/2000/svg">
<path d="M15 5H10V13C10 13.2652 9.89464 13.5196 9.70711 13.7071C9.51957 13.8946 9.26522 14 9 14C8.73478 14 8.48043 13.8946 8.29289 13.7071C8.10536 13.5196 8 13.2652 8 13V5H3C2.20459 5.00079 1.44199 5.31712 0.879557 5.87956C0.31712 6.44199 0.000794215 7.20459 0 8V15C0.000794215 15.7954 0.31712 16.558 0.879557 17.1204C1.44199 17.6829 2.20459 17.9992 3 18H15C15.7954 17.9992 16.558 17.6829 17.1204 17.1204C17.6829 16.558 17.9992 15.7954 18 15V8C17.9992 7.20459 17.6829 6.44199 17.1204 5.87956C16.558 5.31712 15.7954 5.00079 15 5Z" fill="#DDDEFF"/>
<rect y="5" width="18" height="13" rx="3" fill="#B7EABC"/>
<path d="M8.45204 12.7144C8.32245 12.9192 8.11737 13.1111 7.90931 13.1566C7.70125 13.2022 7.43319 13.1066 7.22295 12.9763L2.47906 9.90059L3.44016 8.38211L7.43858 10.9745L14.1633 0.265021L15.655 1.26826L8.45204 12.7144Z" fill="#45984D"/>
</svg>
