<svg width="21" height="21" viewBox="0 0 21 21" fill="none" xmlns="http://www.w3.org/2000/svg">
<path d="M10.5 20.5625C8.50983 20.5625 6.56435 19.9723 4.90958 18.8667C3.25481 17.761 1.96507 16.1894 1.20347 14.3508C0.44186 12.5121 0.242589 10.4888 0.630853 8.53691C1.01912 6.58497 1.97748 4.79201 3.38474 3.38474C4.79201 1.97748 6.58497 1.01912 8.53691 0.630853C10.4888 0.242589 12.5121 0.44186 14.3508 1.20347C16.1894 1.96507 17.761 3.25481 18.8667 4.90958C19.9723 6.56435 20.5625 8.50983 20.5625 10.5C20.5625 13.1687 19.5023 15.7282 17.6153 17.6153C15.7282 19.5023 13.1687 20.5625 10.5 20.5625ZM10.5 1.875C8.79414 1.875 7.12659 2.38085 5.70821 3.32858C4.28984 4.27631 3.18435 5.62335 2.53154 7.19936C1.87874 8.77537 1.70793 10.5096 2.04073 12.1827C2.37353 13.8557 3.19498 15.3926 4.40121 16.5988C5.60744 17.805 7.14426 18.6265 8.81735 18.9593C10.4904 19.2921 12.2246 19.1213 13.8006 18.4685C15.3767 17.8157 16.7237 16.7102 17.6714 15.2918C18.6192 13.8734 19.125 12.2059 19.125 10.5C19.125 8.21251 18.2163 6.01871 16.5988 4.40121C14.9813 2.78371 12.7875 1.875 10.5 1.875ZM9.53688 13.9141L16.0056 8.16407L15.0569 7.08594L9.0625 12.3903L5.97907 9.27094L4.95844 10.2916L8.55219 13.8853C8.61935 13.9519 8.699 14.0046 8.78657 14.0404C8.87414 14.0762 8.96791 14.0943 9.0625 14.0938C9.23721 14.0935 9.40585 14.0296 9.53688 13.9141Z" fill="#45984D"/>
</svg>
