<svg width="18" height="18" viewBox="0 0 18 18" fill="none" xmlns="http://www.w3.org/2000/svg">
<path d="M9.125 12.2708C9.48611 12.2708 9.83681 12.1701 10.1771 11.9688C10.5174 11.7674 10.6875 11.4444 10.6875 11C10.6875 10.625 10.5451 10.3229 10.2604 10.0938C9.97569 9.86458 9.52083 9.63889 8.89583 9.41667C8.46528 9.26389 7.92014 9.01736 7.26042 8.67708C6.60069 8.33681 6.27083 7.71528 6.27083 6.8125C6.27083 6.77083 6.36111 6.43056 6.54167 5.79167C6.72222 5.15278 7.31944 4.72222 8.33333 4.5V4.1875C8.33333 3.99306 8.39931 3.82986 8.53125 3.69792C8.66319 3.56597 8.82639 3.5 9.02083 3.5C9.21528 3.5 9.37847 3.56597 9.51042 3.69792C9.64236 3.82986 9.70833 3.99306 9.70833 4.1875V4.47917C10.1944 4.5625 10.5833 4.72569 10.875 4.96875C11.1667 5.21181 11.3889 5.45139 11.5417 5.6875C11.6389 5.84028 11.6458 5.99306 11.5625 6.14583C11.4792 6.29861 11.3472 6.40972 11.1667 6.47917C11.0139 6.54861 10.8542 6.55903 10.6875 6.51042C10.5208 6.46181 10.3819 6.36806 10.2708 6.22917C10.1597 6.09028 10.0035 5.96875 9.80208 5.86458C9.60069 5.76042 9.35417 5.70833 9.0625 5.70833C8.78472 5.70833 8.47917 5.78819 8.14583 5.94792C7.8125 6.10764 7.64583 6.38889 7.64583 6.79167C7.64583 7.16667 7.81597 7.45139 8.15625 7.64583C8.49653 7.84028 9.02083 8.05556 9.72917 8.29167C10.6597 8.61111 11.2812 9.00347 11.5938 9.46875C11.9062 9.93403 12.0625 10.4444 12.0625 11C12.0625 11.5139 11.9583 11.9306 11.75 12.25C11.5417 12.5694 11.3021 12.8229 11.0312 13.0104C10.7604 13.1979 10.4965 13.3264 10.2396 13.3958C9.98264 13.4653 9.79861 13.5069 9.6875 13.5208V13.8125C9.6875 14.0069 9.62153 14.1701 9.48958 14.3021C9.35764 14.434 9.19444 14.5 9 14.5C8.80556 14.5 8.64236 14.434 8.51042 14.3021C8.37847 14.1701 8.3125 14.0069 8.3125 13.8125V13.5C8.0625 13.4306 7.72222 13.2812 7.29167 13.0521C6.86111 12.8229 6.49306 12.4097 6.1875 11.8125C6.10417 11.6319 6.10069 11.4514 6.17708 11.2708C6.25347 11.0903 6.38889 10.9653 6.58333 10.8958C6.75 10.8264 6.92014 10.8264 7.09375 10.8958C7.26736 10.9653 7.40278 11.0833 7.5 11.25C7.625 11.4861 7.81597 11.7153 8.07292 11.9375C8.32986 12.1597 8.68056 12.2708 9.125 12.2708ZM9 18C7.43056 18 5.98958 17.6354 4.67708 16.9062C3.36458 16.1771 2.30556 15.2014 1.5 13.9792V15.75C1.5 15.9583 1.42708 16.1354 1.28125 16.2812C1.13542 16.4271 0.958333 16.5 0.75 16.5C0.541667 16.5 0.364583 16.4271 0.21875 16.2812C0.0729167 16.1354 0 15.9583 0 15.75V12.25C0 12.0417 0.0729167 11.8646 0.21875 11.7188C0.364583 11.5729 0.541667 11.5 0.75 11.5H4.25C4.45833 11.5 4.63542 11.5729 4.78125 11.7188C4.92708 11.8646 5 12.0417 5 12.25C5 12.4583 4.92708 12.6354 4.78125 12.7812C4.63542 12.9271 4.45833 13 4.25 13H2.64583C3.3125 14.0556 4.20139 14.9028 5.3125 15.5417C6.42361 16.1806 7.65278 16.5 9 16.5C10.9583 16.5 12.6424 15.8472 14.0521 14.5417C15.4618 13.2361 16.2639 11.6319 16.4583 9.72917C16.4861 9.52083 16.5729 9.34722 16.7188 9.20833C16.8646 9.06944 17.0417 9 17.25 9C17.4583 9 17.6389 9.07292 17.7917 9.21875C17.9444 9.36458 18.0069 9.53472 17.9792 9.72917C17.8819 10.8819 17.5833 11.9618 17.0833 12.9688C16.5833 13.9757 15.9306 14.8507 15.125 15.5938C14.3194 16.3368 13.3924 16.9236 12.3438 17.3542C11.2951 17.7847 10.1806 18 9 18ZM9 1.5C7.04167 1.5 5.35764 2.15278 3.94792 3.45833C2.53819 4.76389 1.73611 6.36806 1.54167 8.27083C1.51389 8.47917 1.42708 8.65278 1.28125 8.79167C1.13542 8.93056 0.958333 9 0.75 9C0.541667 9 0.361111 8.92708 0.208333 8.78125C0.0555556 8.63542 -0.00694445 8.46528 0.0208333 8.27083C0.118056 7.11806 0.416667 6.03819 0.916667 5.03125C1.41667 4.02431 2.06944 3.14931 2.875 2.40625C3.68056 1.66319 4.60764 1.07639 5.65625 0.645833C6.70486 0.215278 7.81944 0 9 0C10.5694 0 12.0104 0.364583 13.3229 1.09375C14.6354 1.82292 15.6944 2.79861 16.5 4.02083V2.25C16.5 2.04167 16.5729 1.86458 16.7188 1.71875C16.8646 1.57292 17.0417 1.5 17.25 1.5C17.4583 1.5 17.6354 1.57292 17.7812 1.71875C17.9271 1.86458 18 2.04167 18 2.25V5.75C18 5.95833 17.9271 6.13542 17.7812 6.28125C17.6354 6.42708 17.4583 6.5 17.25 6.5H13.75C13.5417 6.5 13.3646 6.42708 13.2188 6.28125C13.0729 6.13542 13 5.95833 13 5.75C13 5.54167 13.0729 5.36458 13.2188 5.21875C13.3646 5.07292 13.5417 5 13.75 5H15.3542C14.6875 3.94444 13.7986 3.09722 12.6875 2.45833C11.5764 1.81944 10.3472 1.5 9 1.5Z" fill="#2D72DB"/>
</svg>
