<svg width="42" height="42" viewBox="0 0 42 42" fill="none" xmlns="http://www.w3.org/2000/svg">
<g clip-path="url(#clip0_5556_8081)">
<path d="M21.0004 42.0011C32.5983 42.0011 42.0004 32.599 42.0004 21.0011C42.0004 9.40309 32.5983 0.00106812 21.0004 0.00106812C9.40238 0.00106812 0.000366211 9.40309 0.000366211 21.0011C0.000366211 32.599 9.40238 42.0011 21.0004 42.0011Z" fill="#EF4C45"/>
<path d="M25.4118 41.5046C25.8168 41.4266 26.2195 41.3367 26.6193 41.2351C27.2932 41.0467 27.9573 40.8247 28.609 40.5701C29.2616 40.3175 29.9011 40.0325 30.5253 39.7161C31.1496 39.3984 31.7576 39.0497 32.347 38.6713C32.9358 38.2928 33.5052 37.8852 34.0533 37.4498C34.6023 37.0139 35.1291 36.5507 35.6318 36.0621C36.1336 35.5746 36.6108 35.0624 37.0615 34.5273C37.5126 33.9918 37.9366 33.434 38.332 32.8561C38.7273 32.2791 39.0935 31.6828 39.4293 31.0693C39.7651 30.4549 40.07 29.8241 40.3428 29.1793C40.6158 28.5343 40.8565 27.8761 41.0638 27.2071C41.2414 26.6202 41.3932 26.0257 41.5188 25.4256L29.0465 12.9533C27.9908 11.8956 26.7364 11.057 25.3555 10.4858C23.9746 9.91458 22.4944 9.62197 21 9.62481C19.5057 9.62296 18.0257 9.91593 16.6448 10.4869C15.2639 11.0579 14.0092 11.8957 12.9526 12.9524C11.8959 14.009 11.0581 15.2637 10.4871 16.6446C9.91613 18.0255 9.62317 19.5055 9.62501 20.9998C9.62501 24.1463 10.8973 26.9883 12.9535 29.0463L25.4135 41.5046H25.4118Z" fill="#DF2209"/>
<path fill-rule="evenodd" clip-rule="evenodd" d="M21 32C27.3513 32 32.5 26.8513 32.5 20.5C32.5 14.1487 27.3513 9 21 9C14.6487 9 9.5 14.1487 9.5 20.5C9.5 26.8513 14.6487 32 21 32ZM16.945 18.2638C16.682 18.2638 16.4697 18.0515 16.4697 17.7885C16.4697 17.5255 16.682 17.3132 16.945 17.3132H18.6085V16.8221C18.6085 16.1599 19.1472 15.6212 19.8094 15.6212H21.6472C22.3094 15.6212 22.8481 16.1599 22.8481 16.8221V17.3132H24.5116C24.7745 17.3132 24.9868 17.5255 24.9868 17.7885C24.9868 18.0515 24.7745 18.2638 24.5116 18.2638H24.2581V23.8785C24.2581 24.7435 23.5578 25.4438 22.696 25.4438H18.7606C17.8987 25.4438 17.1985 24.7435 17.1985 23.8785V18.2638H16.945ZM22.3854 23.1434V19.6136C22.3854 19.3506 22.1731 19.1383 21.9102 19.1383C21.6472 19.1383 21.4349 19.3506 21.4349 19.6136V23.1434C21.4349 23.4064 21.6472 23.6187 21.9102 23.6187C22.1731 23.6187 22.3854 23.4064 22.3854 23.1434ZM19.8094 16.5718C19.67 16.5718 19.5591 16.6827 19.5591 16.8221V17.3132H21.8975V16.8221C21.8975 16.6827 21.7866 16.5718 21.6472 16.5718H19.8094ZM19.5464 19.1383C19.2834 19.1383 19.0711 19.3506 19.0711 19.6136V23.1434C19.0711 23.4064 19.2834 23.6187 19.5464 23.6187C19.8094 23.6187 20.0217 23.4064 20.0217 23.1434V19.6136C20.0217 19.3506 19.8094 19.1383 19.5464 19.1383Z" fill="white"/>
</g>
<defs>
<clipPath id="clip0_5556_8081">
<rect width="42" height="42" fill="white"/>
</clipPath>
</defs>
</svg>
