<svg width="14" height="16" viewBox="0 0 14 16" fill="none" xmlns="http://www.w3.org/2000/svg">
<path d="M1 4H2.33333H13" stroke="#324054" stroke-linecap="round" stroke-linejoin="round"/>
<path d="M11.6667 4V13.3333C11.6667 13.687 11.5262 14.0261 11.2761 14.2761C11.0261 14.5262 10.687 14.6667 10.3333 14.6667H3.66667C3.31304 14.6667 2.97391 14.5262 2.72386 14.2761C2.47381 14.0261 2.33333 13.687 2.33333 13.3333V4M4.33333 4V2.66667C4.33333 2.31304 4.47381 1.97391 4.72386 1.72386C4.97391 1.47381 5.31304 1.33333 5.66667 1.33333H8.33333C8.68695 1.33333 9.02609 1.47381 9.27614 1.72386C9.52619 1.97391 9.66667 2.31304 9.66667 2.66667V4" stroke="#324054" stroke-linecap="round" stroke-linejoin="round"/>
<path d="M5.66667 7.33333V11.3333" stroke="#324054" stroke-linecap="round" stroke-linejoin="round"/>
<path d="M8.33333 7.33333V11.3333" stroke="#324054" stroke-linecap="round" stroke-linejoin="round"/>
</svg>
