<svg width="19" height="20" viewBox="0 0 19 20" fill="none" xmlns="http://www.w3.org/2000/svg">
<path d="M9.62012 5.41678V4.06229H8.26563V5.41678H7.68184L6.23389 6.62296V8.95133L7.68184 10.1575H9.71358L10.2974 10.6445V11.7023L9.71358 12.1893H8.17217L7.58838 11.7023V11.1734H6.23389V12.3376L7.68184 13.5437H8.26563V14.8982H9.62012V13.5437H10.2039L11.6519 12.3376V10.0092L10.2039 8.80302H8.17217L7.58838 8.31608V7.25822L8.17217 6.77127H9.71358L10.2974 7.25822V7.78715H11.6519V6.62296L10.2039 5.41678H9.62012Z" fill="#FDAD15"/>
<path fill-rule="evenodd" clip-rule="evenodd" d="M11.8788 16.0656C10.9709 16.4714 9.96495 16.6971 8.90626 16.6971C4.87945 16.6971 1.61507 13.4327 1.61507 9.40586C1.61507 5.37905 4.87945 2.11467 8.90626 2.11467C12.9331 2.11467 16.1975 5.37905 16.1975 9.40586C16.1975 10.4646 15.9718 11.4706 15.566 12.3785C15.6219 12.3761 15.678 12.3748 15.7345 12.3748C16.2527 12.3748 16.747 12.477 17.1985 12.6622C17.5948 11.6536 17.8125 10.5551 17.8125 9.40586C17.8125 4.48707 13.8251 0.499603 8.90626 0.499603C3.98747 0.499603 0 4.48707 0 9.40586C0 14.3247 3.98747 18.3121 8.90626 18.3121C10.0555 18.3121 11.1539 18.0945 12.1624 17.6981C11.9773 17.2467 11.8751 16.7524 11.8751 16.2342C11.8751 16.1777 11.8764 16.1215 11.8788 16.0656Z" fill="#FDAD15"/>
<circle cx="15.1406" cy="15.6412" r="3.37696" stroke="#FDAD15" stroke-width="0.964845"/>
<path d="M14.8438 13.5628V15.7579" stroke="#FDAD15" stroke-width="0.593751"/>
<path d="M16.7729 15.9375L14.5466 15.904" stroke="#FDAD15" stroke-width="0.593751"/>
</svg>
