<svg width="4" height="18" viewBox="0 0 4 18" fill="none" xmlns="http://www.w3.org/2000/svg">
<path d="M3.94377 15.8062C3.94377 14.7327 3.07353 13.8625 2.00002 13.8625C0.926521 13.8625 0.0562744 14.7327 0.0562744 15.8062C0.0562744 16.8798 0.926521 17.75 2.00002 17.75C3.07353 17.75 3.94377 16.8798 3.94377 15.8062Z" fill="#5B5F65"/>
<path d="M3.9439 8.99999C3.9439 7.92649 3.07365 7.05624 2.00015 7.05624C0.926643 7.05624 0.0563965 7.92649 0.0563965 8.99999C0.0563965 10.0735 0.926643 10.9437 2.00015 10.9437C3.07365 10.9437 3.9439 10.0735 3.9439 8.99999Z" fill="#5B5F65"/>
<path d="M3.9439 2.19375C3.9439 1.12024 3.07365 0.249997 2.00015 0.249997C0.926643 0.249997 0.0563965 1.12024 0.0563965 2.19375C0.0563965 3.26725 0.926643 4.1375 2.00015 4.1375C3.07365 4.1375 3.9439 3.26725 3.9439 2.19375Z" fill="#5B5F65"/>
</svg>
