<svg width="18" height="4" viewBox="0 0 18 4" fill="none" xmlns="http://www.w3.org/2000/svg">
<path d="M2.44375 3.94374C3.51725 3.94374 4.3875 3.0735 4.3875 1.99999C4.3875 0.92649 3.51725 0.0562439 2.44375 0.0562439C1.37025 0.0562439 0.5 0.92649 0.5 1.99999C0.5 3.0735 1.37025 3.94374 2.44375 3.94374Z" fill="#7B7F85"/>
<path d="M9.2499 3.94374C10.3234 3.94374 11.1937 3.0735 11.1937 1.99999C11.1937 0.92649 10.3234 0.0562439 9.2499 0.0562439C8.1764 0.0562439 7.30615 0.92649 7.30615 1.99999C7.30615 3.0735 8.1764 3.94374 9.2499 3.94374Z" fill="#7B7F85"/>
<path d="M16.0561 3.94374C17.1296 3.94374 17.9998 3.0735 17.9998 1.99999C17.9998 0.92649 17.1296 0.0562439 16.0561 0.0562439C14.9826 0.0562439 14.1123 0.92649 14.1123 1.99999C14.1123 3.0735 14.9826 3.94374 16.0561 3.94374Z" fill="#7B7F85"/>
</svg>
