<svg width="12" height="14" viewBox="0 0 12 14" fill="none" xmlns="http://www.w3.org/2000/svg">
<path d="M6.00009 0.21875C5.77529 0.218982 5.55976 0.308385 5.40081 0.467343C5.24185 0.6263 5.15244 0.841826 5.15221 1.06662V7.3745L4.02215 6.24444C3.62971 5.86294 3.12528 5.96006 2.83259 6.25319C2.53946 6.54631 2.4419 7.049 2.82602 7.44537L5.39809 10.0179C5.55121 10.1758 5.76121 10.2642 5.98871 10.2664H5.99615C6.22365 10.2664 6.44328 10.1767 6.59946 10.0201L9.17634 7.44319C9.5574 7.04856 9.46027 6.54587 9.16759 6.25275C8.8749 5.95962 8.37221 5.86337 7.9754 6.24662L6.84753 7.3745V1.06619C6.84718 0.84154 6.75778 0.626192 6.59893 0.467342C6.44008 0.308492 6.22474 0.219097 6.00009 0.21875Z" fill="#383941"/>
<path d="M0.850683 8.57324C0.625959 8.57347 0.410499 8.66282 0.251555 8.82168C0.0926099 8.98054 0.00315501 9.19596 0.00280762 9.42068V10.3587C0.00280762 12.2461 1.538 13.7812 3.42537 13.7812H8.57475C10.4621 13.7812 11.9973 12.2456 11.9973 10.3587V9.42068C11.997 9.19603 11.9076 8.98068 11.7487 8.82183C11.5899 8.66298 11.3745 8.57359 11.1499 8.57324C10.9251 8.57347 10.7097 8.66282 10.5507 8.82168C10.3918 8.98054 10.3023 9.19596 10.302 9.42068V10.3587C10.3015 10.8166 10.1194 11.2557 9.79558 11.5795C9.47176 11.9033 9.0327 12.0855 8.57475 12.0859H3.42537C2.96742 12.0855 2.52835 11.9033 2.20453 11.5795C1.88071 11.2557 1.69858 10.8166 1.69812 10.3587V9.42068C1.69777 9.19596 1.60832 8.98054 1.44937 8.82168C1.29043 8.66282 1.07541 8.57347 0.850683 8.57324Z" fill="#383941"/>
</svg>
