<svg width="23" height="23" viewBox="0 0 23 23" fill="none" xmlns="http://www.w3.org/2000/svg">
<path fill-rule="evenodd" clip-rule="evenodd" d="M2.87866 4C2.87866 4.29739 2.9968 4.58261 3.20709 4.79289L12.5112 14.097L14.6256 14.6256L14.097 12.5112L4.79288 3.20711C4.58259 2.99682 4.29737 2.87868 3.99998 2.87868C3.70259 2.87868 3.41738 2.99682 3.20709 3.20711C2.9968 3.41739 2.87866 3.70261 2.87866 4ZM1.79288 6.20711C1.20751 5.62175 0.878662 4.82783 0.878662 4C0.878662 3.17217 1.20751 2.37825 1.79288 1.79289C2.37824 1.20753 3.17216 0.878679 3.99998 0.878679C4.82781 0.878679 5.62173 1.20753 6.20709 1.79289L15.7071 11.2929C15.8352 11.4211 15.9262 11.5816 15.9701 11.7575L16.9701 15.7575C17.0553 16.0982 16.9555 16.4587 16.7071 16.7071C16.4587 16.9555 16.0982 17.0553 15.7574 16.9701L11.7574 15.9701C11.5816 15.9262 11.421 15.8353 11.2929 15.7071L1.79288 6.20711ZM3.87866 22.1213C3.31605 21.5587 2.99998 20.7956 2.99998 20L2.99998 13C2.99998 12.4477 3.4477 12 3.99998 12C4.55227 12 4.99998 12.4477 4.99998 13L4.99998 20C4.99998 20.2652 5.10534 20.5196 5.29288 20.7071C5.48041 20.8946 5.73477 21 5.99998 21H20C20.2652 21 20.5196 20.8946 20.7071 20.7071C20.8946 20.5196 21 20.2652 21 20V6C21 5.73479 20.8946 5.48043 20.7071 5.29289C20.5196 5.10536 20.2652 5 20 5H13C12.4477 5 12 4.55228 12 4C12 3.44772 12.4477 3 13 3H20C20.7956 3 21.5587 3.31607 22.1213 3.87868C22.6839 4.44129 23 5.20435 23 6V20C23 20.7957 22.6839 21.5587 22.1213 22.1213C21.5587 22.6839 20.7956 23 20 23H5.99998C5.20433 23 4.44127 22.6839 3.87866 22.1213Z" fill="#5B5F65"/>
</svg>
