<svg width="20" height="16" viewBox="0 0 20 16" fill="none" xmlns="http://www.w3.org/2000/svg">
<path fill-rule="evenodd" clip-rule="evenodd" d="M6.03301 0.5L13.9663 0.5C14.4314 0.500247 14.8877 0.630235 15.283 0.87535C15.6779 1.12025 15.9967 1.47037 16.2037 1.8864C16.2039 1.88677 16.2041 1.88713 16.2043 1.8875L19.0781 7.62689C19.1361 7.74271 19.1663 7.87047 19.1663 8V13C19.1663 13.663 18.9029 14.2989 18.4341 14.7678C17.9653 15.2366 17.3294 15.5 16.6663 15.5H3.33301C2.66997 15.5 2.03408 15.2366 1.56524 14.7678C1.0964 14.2989 0.833008 13.663 0.833008 13V8C0.833008 7.87047 0.863205 7.74272 0.921202 7.62689L3.79507 1.8875C3.79527 1.88709 3.79547 1.88669 3.79567 1.88628C4.00266 1.4703 4.32148 1.12022 4.71637 0.87535C5.11164 0.630236 5.5679 0.500247 6.03301 0.5ZM6.03329 2.16667C5.87831 2.16678 5.72643 2.21011 5.59472 2.29178C5.46296 2.37349 5.35661 2.49033 5.28762 2.62917L5.28648 2.63145L3.01558 7.16667H6.66634C6.94497 7.16667 7.20516 7.30592 7.35972 7.53775L8.77899 9.66667H11.2204L12.6396 7.53775C12.7942 7.30592 13.0544 7.16667 13.333 7.16667H16.9838L14.7129 2.63144L14.7117 2.62917C14.6427 2.49033 14.5364 2.37349 14.4046 2.29178C14.2729 2.21011 14.121 2.16678 13.9661 2.16667H6.03329ZM17.4997 8.83333H13.779L12.3597 10.9622C12.2052 11.1941 11.945 11.3333 11.6663 11.3333H8.33301C8.05438 11.3333 7.79419 11.1941 7.63963 10.9622L6.22035 8.83333H2.49967V13C2.49967 13.221 2.58747 13.433 2.74375 13.5893C2.90003 13.7455 3.11199 13.8333 3.33301 13.8333H16.6663C16.8874 13.8333 17.0993 13.7455 17.2556 13.5893C17.4119 13.433 17.4997 13.221 17.4997 13V8.83333Z" fill="white"/>
</svg>
