<svg width="120" height="35" viewBox="0 0 120 35" fill="none" xmlns="http://www.w3.org/2000/svg">
<g clip-path="url(#clip0_3842_1459)">
<path d="M11.7197 21.5697L13.0949 18.4004H0V34.2518H3.16933V27.9108H8.96796L10.3432 24.739H3.16933V21.5697H11.7197Z" fill="white"/>
<path d="M21.9731 18.4004H18.5266L11.6455 34.2518H15.104L20.2511 22.3845L25.4089 34.2518H28.853L21.9743 18.4004H21.9731Z" fill="white"/>
<path d="M45.0721 26.3243C46.1293 25.9739 46.6585 24.9167 46.6585 23.155C46.6585 19.9833 44.8969 18.4004 41.3723 18.4004H30.8047V34.2518H41.3723C44.8981 34.2518 46.6585 32.6654 46.6585 29.4972C46.6585 27.7368 46.1293 26.6783 45.0721 26.3255V26.3243ZM40.8455 31.0825H33.9764V27.9108H41.3711C42.7824 27.9108 43.4856 28.4388 43.4856 29.496C43.4856 30.5533 42.606 31.0825 40.8455 31.0825ZM41.3711 24.739H33.9764V21.5697H40.8455C42.6072 21.5697 43.4856 22.0989 43.4856 23.155C43.4856 24.211 42.7812 24.7378 41.3711 24.7378V24.739Z" fill="white"/>
<path d="M61.7838 18.4004L57.2272 23.8414L52.6743 18.4004H48.5293L55.6444 26.9051V34.2506H58.8137V26.9051L65.9264 18.4004H61.785H61.7838Z" fill="white"/>
<path d="M73.606 21.5697H83.648V18.4004H73.0804C69.5582 18.4004 67.793 19.9833 67.793 23.155C67.793 26.3267 69.557 27.9096 73.0804 27.9096H77.835C79.5966 27.9096 80.4751 28.4376 80.4751 29.4948C80.4751 30.5521 79.5954 31.0813 77.835 31.0813H67.793V34.2506H78.363C81.8851 34.2506 83.6468 32.6642 83.6468 29.496C83.6468 26.3279 81.8851 24.7378 78.363 24.7378H73.6048C71.8431 24.7378 70.9647 24.2122 70.9647 23.155C70.9647 22.0977 71.8431 21.5697 73.6048 21.5697H73.606Z" fill="white"/>
<path d="M97.387 18.4004H92.1032C88.5774 18.4004 86.8193 20.1621 86.8193 23.6842V28.968C86.8193 32.4902 88.5774 34.2518 92.1032 34.2518V34.2638L97.387 34.2518C100.909 34.2458 102.671 32.4854 102.671 28.968V23.6842C102.671 20.1621 100.91 18.4004 97.387 18.4004ZM99.499 28.4388C99.499 30.2005 98.6194 31.0825 96.8589 31.0825H92.63C90.8719 31.0825 89.9899 30.2005 89.9899 28.4388V24.2122C89.9899 22.4506 90.6943 21.5685 92.1044 21.5685H96.8589C98.6206 21.5685 99.499 22.4506 99.499 24.2122V28.4388Z" fill="white"/>
<path d="M102.384 7.0922H102.389C104.498 8.44346 106.453 10.0179 108.217 11.782L102.292 17.7078V7.0874C102.324 7.0874 102.352 7.0874 102.384 7.0922Z" fill="#2B3990"/>
<path d="M112.915 17.6178V17.7114H102.292V17.709L108.217 11.7832C109.983 13.5497 111.56 15.5046 112.915 17.6178Z" fill="#1C75BC"/>
<path d="M120 0L109.847 10.1524C103.575 3.87975 94.9102 0 85.3398 0H120Z" fill="#1C75BC"/>
<path d="M119.999 34.6598C119.999 25.0894 116.119 16.4251 109.847 10.1524L119.999 0V34.6598Z" fill="#2B3990"/>
</g>
<defs>
<clipPath id="clip0_3842_1459">
<rect width="120" height="34.6598" fill="white"/>
</clipPath>
</defs>
</svg>
