<svg width="120" height="35" viewBox="0 0 120 35" fill="none" xmlns="http://www.w3.org/2000/svg">
<path d="M11.7197 21.5697L13.0949 18.4004H0V34.2518H3.16933V27.9108H8.96796L10.3432 24.739H3.16933V21.5697H11.7197Z" fill="#808285"/>
<path d="M21.973 18.4004H18.5265L11.6454 34.2518H15.1039L20.2509 22.3845L25.4087 34.2518H28.8529L21.9742 18.4004H21.973Z" fill="#808285"/>
<path d="M45.0724 26.3243C46.1297 25.9739 46.6589 24.9166 46.6589 23.155C46.6589 19.9832 44.8972 18.4004 41.3727 18.4004H30.8051V34.2518H41.3727C44.8984 34.2518 46.6589 32.6653 46.6589 29.4972C46.6589 27.7367 46.1297 26.6783 45.0724 26.3255V26.3243ZM40.8459 31.0825H33.9768V27.9107H41.3715C42.7827 27.9107 43.486 28.4388 43.486 29.496C43.486 30.5532 42.6063 31.0825 40.8459 31.0825ZM41.3715 24.739H33.9768V21.5697H40.8459C42.6075 21.5697 43.486 22.0989 43.486 23.155C43.486 24.211 42.7815 24.7378 41.3715 24.7378V24.739Z" fill="#808285"/>
<path d="M61.783 18.4004L57.2264 23.8414L52.6735 18.4004H48.5285L55.6436 26.9051V34.2506H58.8129V26.9051L65.9256 18.4004H61.7842H61.783Z" fill="#808285"/>
<path d="M73.606 21.5697H83.648V18.4004H73.0804C69.5582 18.4004 67.793 19.9832 67.793 23.155C67.793 26.3267 69.557 27.9095 73.0804 27.9095H77.835C79.5966 27.9095 80.4751 28.4376 80.4751 29.4948C80.4751 30.552 79.5954 31.0813 77.835 31.0813H67.793V34.2506H78.363C81.8851 34.2506 83.6468 32.6641 83.6468 29.496C83.6468 26.3279 81.8851 24.7378 78.363 24.7378H73.6048C71.8431 24.7378 70.9647 24.2122 70.9647 23.155C70.9647 22.0977 71.8431 21.5697 73.6048 21.5697H73.606Z" fill="#808285"/>
<path d="M97.3874 18.4004H92.1036C88.5778 18.4004 86.8197 20.162 86.8197 23.6842V28.968C86.8197 32.4901 88.5778 34.2518 92.1036 34.2518V34.2638L97.3874 34.2518C100.91 34.2458 102.671 32.4853 102.671 28.968V23.6842C102.671 20.162 100.911 18.4004 97.3874 18.4004ZM99.4995 28.4388C99.4995 30.2004 98.6198 31.0825 96.8593 31.0825H92.6304C90.8723 31.0825 89.9903 30.2004 89.9903 28.4388V24.2122C89.9903 22.4505 90.6947 21.5685 92.1048 21.5685H96.8593C98.621 21.5685 99.4995 22.4505 99.4995 24.2122V28.4388Z" fill="#808285"/>
<path d="M102.384 7.09228H102.389C104.498 8.44354 106.452 10.018 108.216 11.7821L102.292 17.7079V7.08748C102.324 7.08748 102.352 7.08748 102.384 7.09228Z" fill="#2B3990"/>
<path d="M112.915 17.618V17.7116H102.292V17.7092L108.216 11.7833C109.983 13.5498 111.56 15.5047 112.915 17.618Z" fill="#1C75BC"/>
<path d="M120 0L109.847 10.1524C103.575 3.87975 94.9102 0 85.3398 0H120Z" fill="#1C75BC"/>
<path d="M119.999 34.6598C119.999 25.0894 116.12 16.4251 109.847 10.1524L119.999 1.90735e-05V34.6598Z" fill="#2B3990"/>
</svg>
