<svg width="24" height="23" viewBox="0 0 24 23" fill="none" xmlns="http://www.w3.org/2000/svg">
<path d="M8.49169 17.9663C8.37981 17.9663 8.27252 17.9218 8.19343 17.8427L5.65669 15.3064C5.5776 15.2273 5.53317 15.12 5.53317 15.0081C5.53317 14.8963 5.5776 14.789 5.65669 14.7099L7.02779 13.3388C7.10735 13.2619 7.21392 13.2194 7.32453 13.2204C7.43515 13.2213 7.54096 13.2657 7.61918 13.3439C7.6974 13.4221 7.74177 13.5279 7.74273 13.6385C7.74369 13.7492 7.70117 13.8557 7.62432 13.9353L6.55149 15.0081L8.78996 17.2462C8.84894 17.3052 8.8891 17.3803 8.90538 17.4622C8.92165 17.544 8.91329 17.6288 8.88137 17.7059C8.84945 17.7829 8.79539 17.8488 8.72603 17.8952C8.65667 17.9415 8.57512 17.9663 8.49169 17.9663Z" fill="#FDAD15"/>
<path d="M7.22351 16.6983C7.14009 16.6983 7.05854 16.6735 6.98918 16.6271C6.91982 16.5808 6.86576 16.5149 6.83384 16.4378C6.80191 16.3608 6.79356 16.2759 6.80983 16.1941C6.8261 16.1123 6.86627 16.0371 6.92525 15.9781L7.90526 14.9981C7.98483 14.9213 8.0914 14.8787 8.20201 14.8797C8.31262 14.8807 8.41844 14.925 8.49665 15.0033C8.57487 15.0815 8.61924 15.1873 8.6202 15.2979C8.62116 15.4085 8.57864 15.5151 8.50179 15.5947L7.52178 16.5747C7.44268 16.6538 7.33539 16.6983 7.22351 16.6983ZM10.9056 15.5525C10.8502 15.5526 10.7953 15.5418 10.7441 15.5205C10.6929 15.4993 10.6464 15.4682 10.6074 15.4289L9.34175 14.1632L9.33626 14.1582L8.07064 12.8925C7.99155 12.8134 7.94712 12.7061 7.94712 12.5943C7.94712 12.4824 7.99155 12.3751 8.07064 12.296L8.80765 11.559C9.05379 11.3188 9.38404 11.1842 9.72798 11.184C10.0719 11.1838 10.4023 11.318 10.6488 11.5579C10.8952 11.7978 11.0381 12.1245 11.0471 12.4684C11.0561 12.8122 10.9304 13.1459 10.6968 13.3984L12.2577 13.3376C12.3134 13.3343 12.3691 13.3423 12.4215 13.361C12.474 13.3798 12.5221 13.409 12.563 13.4468C12.6039 13.4846 12.6367 13.5303 12.6595 13.5812C12.6823 13.632 12.6946 13.6869 12.6957 13.7426C12.7 13.8544 12.6598 13.9633 12.5838 14.0454C12.5079 14.1275 12.4024 14.1761 12.2907 14.1805L10.6158 14.2459L11.2039 14.8327C11.2629 14.8917 11.3031 14.9669 11.3193 15.0487C11.3356 15.1306 11.3272 15.2154 11.2953 15.2924C11.2634 15.3695 11.2093 15.4354 11.14 15.4818C11.0706 15.5281 10.9891 15.5524 10.9056 15.5525ZM8.96501 12.5947L9.63748 13.2663L10.0762 12.8276C10.162 12.7378 10.2092 12.6181 10.2078 12.494C10.2065 12.3699 10.1565 12.2512 10.0687 12.1634C9.98097 12.0757 9.86233 12.0257 9.7382 12.0243C9.61408 12.0229 9.49434 12.0702 9.40461 12.1559L8.96501 12.5947ZM13.3192 13.1389C13.2073 13.1389 13.1 13.0944 13.0209 13.0153L10.4846 10.4786C10.4055 10.3995 10.3611 10.2922 10.3611 10.1803C10.3611 10.0684 10.4055 9.96116 10.4846 9.88204L11.8553 8.51137C11.9348 8.43452 12.0414 8.392 12.152 8.39296C12.2626 8.39392 12.3685 8.43829 12.4467 8.51651C12.5249 8.59473 12.5693 8.70054 12.5702 8.81115C12.5712 8.92177 12.5287 9.02833 12.4518 9.1079L11.3794 10.1803L13.32 12.1209L14.3929 11.0485C14.4724 10.9717 14.579 10.9292 14.6896 10.9301C14.8002 10.9311 14.906 10.9754 14.9842 11.0537C15.0625 11.1319 15.1068 11.2377 15.1078 11.3483C15.1088 11.4589 15.0662 11.5655 14.9894 11.6451L13.6183 13.0157C13.579 13.0549 13.5323 13.086 13.481 13.1071C13.4297 13.1283 13.3747 13.1391 13.3192 13.1389Z" fill="#FDAD15"/>
<path d="M12.051 11.8708C11.9676 11.8708 11.8861 11.846 11.8167 11.7997C11.7473 11.7533 11.6933 11.6874 11.6614 11.6103C11.6294 11.5333 11.6211 11.4485 11.6373 11.3666C11.6536 11.2848 11.6938 11.2096 11.7528 11.1506L12.7172 10.1879C12.7979 10.1188 12.9017 10.0827 13.0079 10.0868C13.114 10.0909 13.2148 10.1349 13.2899 10.2101C13.365 10.2852 13.409 10.3859 13.4131 10.4921C13.4172 10.5983 13.3811 10.7021 13.312 10.7828L12.3493 11.7455C12.3103 11.785 12.2638 11.8164 12.2126 11.8379C12.1615 11.8594 12.1065 11.8706 12.051 11.8708ZM15.7332 10.725C15.6213 10.725 15.514 10.6805 15.4349 10.6014L12.8986 8.06463C12.8195 7.98552 12.7751 7.87823 12.7751 7.76637C12.7751 7.6545 12.8195 7.54721 12.8986 7.4681L14.2692 6.09743C14.3488 6.02058 14.4554 5.97806 14.566 5.97902C14.6766 5.97998 14.7824 6.02435 14.8606 6.10257C14.9389 6.18079 14.9832 6.2866 14.9842 6.39721C14.9851 6.50783 14.9426 6.61439 14.8658 6.69396L13.7934 7.76637L15.734 9.70699L16.8068 8.63458C16.8457 8.59429 16.8923 8.56215 16.9438 8.54004C16.9952 8.51793 17.0506 8.50629 17.1066 8.50581C17.1626 8.50532 17.2182 8.51599 17.27 8.53721C17.3219 8.55842 17.369 8.58974 17.4086 8.62936C17.4482 8.66897 17.4795 8.71607 17.5007 8.76792C17.5219 8.81976 17.5326 8.87532 17.5321 8.93133C17.5316 8.98735 17.52 9.04271 17.4979 9.09418C17.4758 9.14565 17.4436 9.1922 17.4034 9.23112L16.0323 10.6018C15.993 10.641 15.9463 10.672 15.895 10.6932C15.8437 10.7143 15.7887 10.7251 15.7332 10.725Z" fill="#FDAD15"/>
<path d="M14.465 9.4568C14.3816 9.45678 14.3 9.43203 14.2307 9.38567C14.1613 9.33932 14.1072 9.27344 14.0753 9.19636C14.0434 9.11928 14.035 9.03447 14.0513 8.95265C14.0676 8.87082 14.1078 8.79566 14.1667 8.73666L15.1295 7.77394C15.209 7.69709 15.3156 7.65457 15.4262 7.65553C15.5368 7.65649 15.6426 7.70086 15.7208 7.77908C15.7991 7.8573 15.8434 7.96311 15.8444 8.07373C15.8454 8.18434 15.8028 8.29091 15.726 8.37047L14.7633 9.33319C14.7242 9.3725 14.6777 9.40367 14.6265 9.42489C14.5753 9.4461 14.5204 9.45695 14.465 9.4568Z" fill="#FDAD15"/>
<path d="M1.87629 16.5658L1.87608 16.5656C1.35538 16.0436 1.06296 15.3365 1.06296 14.5992C1.06296 13.8619 1.35538 13.1548 1.87608 12.6328L1.87627 12.6326L4.68048 9.828L4.68356 9.82491L4.68359 9.82494C4.81031 9.70255 4.98002 9.63483 5.15619 9.63636C5.33235 9.63789 5.50086 9.70856 5.62543 9.83313L5.44866 10.0099L5.62544 9.83313C5.75001 9.9577 5.82067 10.1262 5.8222 10.3024C5.82373 10.4785 5.75601 10.6483 5.63362 10.775L5.63061 10.7781L5.63059 10.7781L2.82663 13.5824C2.82658 13.5825 2.82653 13.5825 2.82648 13.5826C2.55743 13.8525 2.40635 14.2181 2.40635 14.5992C2.40635 14.9803 2.55742 15.3458 2.82644 15.6158C2.8265 15.6158 2.82657 15.6159 2.82663 15.6159L7.88397 20.6733L1.87629 16.5658ZM1.87629 16.5658L6.93404 21.6235C6.93408 21.6236 6.93411 21.6236 6.93414 21.6236C7.19231 21.8821 7.49899 22.087 7.83658 22.2265C8.174 22.366 8.53565 22.4375 8.90077 22.4368M1.87629 16.5658L8.90077 22.4368M20.4602 3.77259L20.4602 3.77256C20.4151 3.59573 20.3233 3.43432 20.1942 3.30528C20.0652 3.17625 19.9038 3.08436 19.7269 3.03928L19.7269 3.03928L15.455 1.94979C15.4549 1.94976 15.4548 1.94973 15.4546 1.9497C15.2128 1.88901 14.9595 1.89181 14.7191 1.95783C14.4787 2.02386 14.2594 2.15088 14.0825 2.32657C14.0824 2.32665 14.0823 2.32672 14.0823 2.32679L7.96143 8.44764L7.95836 8.45071L7.95833 8.45068C7.83162 8.57307 7.6619 8.64079 7.48574 8.63926C7.30957 8.63773 7.14106 8.56707 7.01649 8.4425C6.89192 8.31792 6.82126 8.14941 6.81973 7.97325C6.81819 7.79708 6.88592 7.62737 7.0083 7.50065L7.0113 7.49755L7.01132 7.49757L13.131 1.37617L13.1314 1.37578C13.473 1.03556 13.897 0.789673 14.3619 0.662088C14.8269 0.534502 15.317 0.529575 15.7844 0.647786L15.7848 0.647903L20.0593 1.73761L20.0593 1.73762C20.4699 1.84237 20.8448 2.05579 21.1445 2.35545C21.4441 2.65512 21.6576 3.02997 21.7623 3.44061L21.5201 3.50241L21.7623 3.44062L22.852 7.71337L22.8521 7.71379C22.9705 8.18147 22.9657 8.67185 22.8381 9.13711C22.7105 9.60236 22.4646 10.0266 22.1242 10.3685L22.1238 10.3689L10.8691 21.6235L20.4602 3.77259ZM20.4602 3.77259L21.5498 8.04475C21.5498 8.04494 21.5499 8.04512 21.5499 8.0453C21.6108 8.287 21.6082 8.54035 21.5423 8.78074C21.4763 9.02123 21.3492 9.24055 21.1734 9.41738C21.1733 9.41744 21.1733 9.4175 21.1732 9.41756L9.91748 20.6733L20.4602 3.77259ZM8.90077 22.4368C8.9006 22.4368 8.90044 22.4368 8.90028 22.4368L8.90094 22.1868L8.90077 22.4368ZM8.90077 22.4368C9.2662 22.4377 9.6282 22.3664 9.96595 22.2268C10.3038 22.0873 10.6107 21.8823 10.869 21.6236L8.90077 22.4368ZM8.90073 21.0936C8.51966 21.0936 8.15414 20.9425 7.88423 20.6735H9.91722C9.64731 20.9425 9.28179 21.0936 8.90073 21.0936Z" fill="#FDAD15" stroke="#FDAD15" stroke-width="0.5"/>
<path d="M6.42221 10.0666C6.33875 10.0666 6.25714 10.0419 6.18771 9.99561C6.11829 9.94929 6.06416 9.88341 6.03219 9.80632C6.00021 9.72922 5.99182 9.64438 6.00808 9.56251C6.02434 9.48065 6.06451 9.40545 6.12352 9.34642L6.3488 9.12114C6.42791 9.04198 6.53522 8.99749 6.64713 8.99745C6.75904 8.99741 6.86638 9.04183 6.94554 9.12093C7.0247 9.20004 7.0692 9.30735 7.06924 9.41926C7.06928 9.53117 7.02486 9.63851 6.94575 9.71767L6.72047 9.94295C6.6814 9.98226 6.63493 10.0134 6.58373 10.0346C6.53253 10.0559 6.47763 10.0667 6.42221 10.0666ZM18.7216 6.77425C18.5392 6.77481 18.3586 6.73915 18.1901 6.66933C18.0217 6.59952 17.8688 6.49695 17.7403 6.36756C17.5135 6.14058 17.3724 5.84198 17.341 5.52264C17.3097 5.2033 17.39 4.88297 17.5683 4.61621C17.7467 4.34946 18.012 4.15278 18.319 4.05967C18.6261 3.96657 18.956 3.98281 19.2524 4.10561C19.5489 4.22842 19.7936 4.4502 19.9448 4.73318C20.0961 5.01616 20.1446 5.34283 20.082 5.65755C20.0195 5.97227 19.8497 6.25556 19.6018 6.45918C19.3538 6.6628 19.0424 6.77415 18.7216 6.77425ZM18.7216 4.84248C18.614 4.84248 18.5089 4.87435 18.4195 4.93408C18.3301 4.99381 18.2604 5.0787 18.2192 5.17804C18.178 5.27737 18.1672 5.38669 18.1881 5.49216C18.2091 5.59763 18.2608 5.69453 18.3368 5.77061C18.4403 5.8697 18.5781 5.92502 18.7213 5.92502C18.8646 5.92502 19.0024 5.8697 19.1059 5.77061C19.1819 5.69456 19.2336 5.5977 19.2545 5.49226C19.2755 5.38683 19.2647 5.27755 19.2236 5.17823C19.1825 5.07891 19.1128 4.99401 19.0235 4.93425C18.9341 4.8745 18.829 4.84256 18.7216 4.84248Z" fill="#FDAD15"/>
</svg>
