<svg width="17" height="16" viewBox="0 0 17 16" fill="none" xmlns="http://www.w3.org/2000/svg">
<mask id="mask0_17_2792" style="mask-type:luminance" maskUnits="userSpaceOnUse" x="0" y="0" width="17" height="16">
<path d="M16.4034 0H0.5V16H16.4034V0Z" fill="white"/>
</mask>
<g mask="url(#mask0_17_2792)">
<path d="M16.4026 8.1832C16.4026 7.63937 16.3579 7.09262 16.2624 6.55762H8.61035V9.63827H12.9923C12.8105 10.6319 12.2263 11.5108 11.3707 12.0693V14.0681H13.985C15.5202 12.6748 16.4026 10.6172 16.4026 8.1832Z" fill="#4285F4"/>
<path d="M8.61102 15.9992C10.799 15.9992 12.6443 15.2908 13.9886 14.0679L11.3744 12.069C10.647 12.557 9.70801 12.8334 8.61399 12.8334C6.49752 12.8334 4.70299 11.4252 4.0591 9.53223H1.36133V11.5928C2.73854 14.2944 5.54362 15.9992 8.61102 15.9992Z" fill="#34A853"/>
<path d="M4.05582 9.53282C3.71599 8.53926 3.71599 7.46338 4.05582 6.46981V4.40918H1.36103C0.210384 6.6697 0.210384 9.33294 1.36103 11.5934L4.05582 9.53282Z" fill="#FBBC04"/>
<path d="M8.61102 3.16546C9.76763 3.14783 10.8855 3.577 11.7231 4.36481L14.0393 2.08076C12.5727 0.722694 10.6261 -0.0239539 8.61102 -0.000437454C5.54361 -0.000437454 2.73854 1.70451 1.36133 4.4089L4.05611 6.46953C4.69701 4.57351 6.49454 3.16546 8.61102 3.16546Z" fill="#EA4335"/>
</g>
</svg>
