<svg width="14" height="14" viewBox="0 0 14 14" fill="none" xmlns="http://www.w3.org/2000/svg">
<path d="M6.99967 0.333313C3.31967 0.333313 0.333008 3.31998 0.333008 6.99998C0.333008 10.68 3.31967 13.6666 6.99967 13.6666C10.6797 13.6666 13.6663 10.68 13.6663 6.99998C13.6663 3.31998 10.6797 0.333313 6.99967 0.333313ZM6.99967 10.3333C6.63301 10.3333 6.33301 10.0333 6.33301 9.66665V6.99998C6.33301 6.63331 6.63301 6.33331 6.99967 6.33331C7.36634 6.33331 7.66634 6.63331 7.66634 6.99998V9.66665C7.66634 10.0333 7.36634 10.3333 6.99967 10.3333ZM7.66634 4.99998H6.33301V3.66665H7.66634V4.99998Z" fill="#7B7F85"/>
</svg>
