<svg width="18" height="18" viewBox="0 0 18 18" fill="none" xmlns="http://www.w3.org/2000/svg">
<path d="M18 1.3125V16.6875C18 17.0356 17.8617 17.3694 17.6156 17.6156C17.3694 17.8617 17.0356 18 16.6875 18H1.3125C0.9644 18 0.630564 17.8617 0.384423 17.6156C0.138282 17.3694 0 17.0356 0 16.6875V1.3125C0 0.964403 0.138282 0.630564 0.384423 0.384422C0.630564 0.138281 0.9644 0 1.3125 0L16.6875 0C17.0356 0 17.3694 0.138281 17.6156 0.384422C17.8617 0.630564 18 0.964403 18 1.3125ZM5.25 6.75H2.625V15.375H5.25V6.75ZM5.47501 3.9375C5.47869 3.63344 5.39213 3.33512 5.22627 3.08026C5.06042 2.82539 4.82271 2.62543 4.54322 2.50566C4.26372 2.38589 3.95498 2.35168 3.65605 2.40737C3.35711 2.46306 3.0814 2.60613 2.86377 2.81851C2.64615 3.03089 2.49639 3.30303 2.43343 3.60052C2.37047 3.89801 2.39713 4.20749 2.51005 4.48982C2.62297 4.77216 2.81709 5.01467 3.06783 5.18669C3.31858 5.35871 3.61469 5.45252 3.91875 5.45625H3.9375C4.1345 5.46124 4.33055 5.42736 4.51445 5.35655C4.69835 5.28574 4.8665 5.17939 5.00928 5.04357C5.15207 4.90775 5.26669 4.74513 5.3466 4.565C5.42651 4.38486 5.47014 4.19075 5.47501 3.99375V3.9375ZM15.375 10.2075C15.375 7.5825 13.6388 6.5625 12.1313 6.5625C10.6238 6.5625 9.50625 7.44 9.25875 7.96875H9.225V6.75H6.75V15.375H9.375V10.875C9.375 9.49125 10.3163 8.87625 11.2313 8.87625C11.9812 8.87625 12.75 9.45375 12.75 10.8412V15.375H15.375V10.2075Z" fill="#0A66C2"/>
</svg>
