<svg width="20" height="20" viewBox="0 0 20 20" fill="none" xmlns="http://www.w3.org/2000/svg">
<path d="M10.1098 13.3899L6.22984 17.2699C5.76007 17.7232 5.1327 17.9766 4.47984 17.9766C3.82698 17.9766 3.1996 17.7232 2.72984 17.2699C2.49944 17.0404 2.31663 16.7676 2.19189 16.4673C2.06715 16.167 2.00294 15.845 2.00294 15.5199C2.00294 15.1947 2.06715 14.8727 2.19189 14.5724C2.31663 14.2721 2.49944 13.9993 2.72984 13.7699L6.60984 9.88985C6.79814 9.70155 6.90393 9.44615 6.90393 9.17985C6.90393 8.91355 6.79814 8.65816 6.60984 8.46985C6.42153 8.28155 6.16614 8.17576 5.89984 8.17576C5.63353 8.17576 5.37814 8.28155 5.18984 8.46985L1.30984 12.3599C0.528193 13.2106 0.105457 14.3305 0.129911 15.4856C0.154365 16.6407 0.624118 17.7417 1.44107 18.5586C2.25802 19.3756 3.359 19.8453 4.51408 19.8698C5.66917 19.8942 6.78904 19.4715 7.63984 18.6899L11.5298 14.8099C11.7181 14.6215 11.8239 14.3662 11.8239 14.0999C11.8239 13.8336 11.7181 13.5782 11.5298 13.3899C11.3415 13.2015 11.0861 13.0958 10.8198 13.0958C10.5535 13.0958 10.2981 13.2015 10.1098 13.3899ZM18.6898 1.30985C17.8486 0.473858 16.7108 0.00463867 15.5248 0.00463867C14.3389 0.00463867 13.2011 0.473858 12.3598 1.30985L8.46984 5.18985C8.3766 5.28309 8.30264 5.39378 8.25218 5.5156C8.20172 5.63742 8.17575 5.76799 8.17575 5.89985C8.17575 6.03171 8.20172 6.16228 8.25218 6.2841C8.30264 6.40592 8.3766 6.51661 8.46984 6.60985C8.56308 6.70309 8.67377 6.77705 8.79559 6.82751C8.91741 6.87797 9.04798 6.90394 9.17984 6.90394C9.3117 6.90394 9.44226 6.87797 9.56409 6.82751C9.68591 6.77705 9.7966 6.70309 9.88984 6.60985L13.7698 2.72985C14.2396 2.27648 14.867 2.02311 15.5198 2.02311C16.1727 2.02311 16.8001 2.27648 17.2698 2.72985C17.5002 2.95934 17.683 3.23206 17.8078 3.53237C17.9325 3.83268 17.9967 4.15467 17.9967 4.47985C17.9967 4.80504 17.9325 5.12702 17.8078 5.42733C17.683 5.72764 17.5002 6.00036 17.2698 6.22985L13.3898 10.1099C13.2961 10.2028 13.2217 10.3134 13.1709 10.4353C13.1202 10.5571 13.094 10.6878 13.094 10.8199C13.094 10.9519 13.1202 11.0826 13.1709 11.2044C13.2217 11.3263 13.2961 11.4369 13.3898 11.5299C13.4828 11.6236 13.5934 11.698 13.7153 11.7487C13.8371 11.7995 13.9678 11.8256 14.0998 11.8256C14.2318 11.8256 14.3626 11.7995 14.4844 11.7487C14.6063 11.698 14.7169 11.6236 14.8098 11.5299L18.6898 7.63985C19.5258 6.79863 19.995 5.66083 19.995 4.47485C19.995 3.28888 19.5258 2.15107 18.6898 1.30985ZM6.82984 13.1699C6.92328 13.2625 7.03409 13.3359 7.15593 13.3856C7.27777 13.4354 7.40823 13.4606 7.53984 13.4599C7.67144 13.4606 7.80191 13.4354 7.92374 13.3856C8.04558 13.3359 8.1564 13.2625 8.24984 13.1699L13.1698 8.24985C13.3581 8.06155 13.4639 7.80615 13.4639 7.53985C13.4639 7.27355 13.3581 7.01815 13.1698 6.82985C12.9815 6.64155 12.7261 6.53576 12.4598 6.53576C12.1935 6.53576 11.9381 6.64155 11.7498 6.82985L6.82984 11.7499C6.73611 11.8428 6.66171 11.9534 6.61095 12.0753C6.56018 12.1971 6.53404 12.3278 6.53404 12.4599C6.53404 12.5919 6.56018 12.7226 6.61095 12.8444C6.66171 12.9663 6.73611 13.0769 6.82984 13.1699Z" fill="#2D72DB"/>
</svg>
