<svg width="20" height="24" viewBox="0 0 20 24" fill="none" xmlns="http://www.w3.org/2000/svg">
<path d="M19.1328 10.2402C19.1328 17.2402 10.1328 23.2402 10.1328 23.2402C10.1328 23.2402 1.13281 17.2402 1.13281 10.2402C1.13281 7.85329 2.08102 5.5641 3.76885 3.87627C5.45668 2.18845 7.74586 1.24023 10.1328 1.24023C12.5198 1.24023 14.8089 2.18845 16.4968 3.87627C18.1846 5.5641 19.1328 7.85329 19.1328 10.2402Z" stroke="#2D72DB" stroke-width="1.5" stroke-linecap="round" stroke-linejoin="round"/>
<path d="M10.1328 13.2402C11.7897 13.2402 13.1328 11.8971 13.1328 10.2402C13.1328 8.58338 11.7897 7.24023 10.1328 7.24023C8.47596 7.24023 7.13281 8.58338 7.13281 10.2402C7.13281 11.8971 8.47596 13.2402 10.1328 13.2402Z" stroke="#2D72DB" stroke-width="1.5" stroke-linecap="round" stroke-linejoin="round"/>
</svg>
