<svg width="16" height="16" viewBox="0 0 16 16" fill="none" xmlns="http://www.w3.org/2000/svg">
<path d="M2.6263 15.5001C2.26172 15.5001 1.95182 15.3729 1.69661 15.1184C1.44141 14.8639 1.3138 14.5548 1.3138 14.1913C1.3138 13.8277 1.44141 13.5175 1.69661 13.2605C1.95182 13.0036 2.26172 12.8751 2.6263 12.8751H3.85547L1.77214 6.02094C1.38325 5.8126 1.07075 5.50926 0.834635 5.11092C0.598524 4.71256 0.480469 4.28673 0.480469 3.83344C0.480469 3.1332 0.725552 2.53801 1.21572 2.04785C1.70587 1.55769 2.30107 1.3126 3.0013 1.3126C3.54297 1.3126 4.02561 1.46885 4.44922 1.78135C4.87283 2.09385 5.17491 2.48622 5.35547 2.95844H7.9388V2.1876C7.9388 1.95149 8.02561 1.74663 8.19922 1.57302C8.37283 1.39941 8.57769 1.3126 8.8138 1.3126C8.9388 1.3126 9.0638 1.33691 9.1888 1.38552C9.3138 1.43413 9.42491 1.51399 9.52214 1.6251L10.902 0.310042C11.0238 0.186751 11.1749 0.111216 11.3555 0.083438C11.536 0.0556602 11.7166 0.0764935 11.8971 0.145938L15.1055 1.6251C15.2582 1.70844 15.3694 1.83231 15.4388 1.99673C15.5082 2.16115 15.5082 2.32199 15.4388 2.47927C15.3694 2.63205 15.2524 2.74316 15.088 2.8126C14.9236 2.88205 14.7627 2.88205 14.6055 2.8126L11.6471 1.45844L9.6888 3.2599V4.40627L11.6471 6.16677L14.6145 4.83344C14.7656 4.76399 14.9236 4.75705 15.0885 4.8126C15.2533 4.86816 15.3701 4.97233 15.4388 5.1251C15.5221 5.27788 15.5256 5.44455 15.4492 5.6251C15.3728 5.80566 15.2582 5.93066 15.1055 6.0001L11.8942 7.50323C11.7295 7.58448 11.5534 7.61122 11.3659 7.58344C11.1784 7.55566 11.0238 7.48099 10.902 7.35942L9.52214 6.0626C9.42491 6.14594 9.315 6.21191 9.19241 6.26052C9.06981 6.30913 8.94361 6.33344 8.8138 6.33344C8.57769 6.33344 8.37283 6.24663 8.19922 6.07302C8.02561 5.89941 7.9388 5.69455 7.9388 5.45844V4.70844H5.35355C5.31316 4.81955 5.26866 4.92024 5.22005 5.01052C5.17144 5.1008 5.11241 5.1876 5.04297 5.27094L9.1888 12.8751H10.8346C11.1992 12.8751 11.5091 13.0024 11.7643 13.2569C12.0195 13.5113 12.1471 13.8204 12.1471 14.1839C12.1471 14.5475 12.0195 14.8577 11.7643 15.1147C11.5091 15.3716 11.1992 15.5001 10.8346 15.5001H2.6263ZM3.00532 4.60427C3.22486 4.60427 3.40755 4.53001 3.55339 4.3815C3.69922 4.23299 3.77214 4.04896 3.77214 3.82942C3.77214 3.60988 3.69788 3.42719 3.54936 3.28135C3.40085 3.13552 3.21682 3.0626 2.99728 3.0626C2.77774 3.0626 2.59505 3.13686 2.44922 3.28538C2.30339 3.43389 2.23047 3.61792 2.23047 3.83746C2.23047 4.057 2.30473 4.23969 2.45324 4.38552C2.60175 4.53135 2.78578 4.60427 3.00532 4.60427ZM5.67459 12.8751H7.1888L3.8138 6.66677H3.77214L5.67459 12.8751Z" fill="#45984D"/>
</svg>
