<svg width="20" height="20" viewBox="0 0 20 20" fill="none" xmlns="http://www.w3.org/2000/svg">
<path d="M10.0013 10.8333C10.4615 10.8333 10.8346 10.4602 10.8346 9.99996C10.8346 9.53972 10.4615 9.16663 10.0013 9.16663C9.54106 9.16663 9.16797 9.53972 9.16797 9.99996C9.16797 10.4602 9.54106 10.8333 10.0013 10.8333Z" fill="#2D72DB" stroke="#2D72DB" stroke-width="2" stroke-linecap="round" stroke-linejoin="round"/>
<path d="M15.8333 10.8333C16.2936 10.8333 16.6667 10.4602 16.6667 9.99996C16.6667 9.53972 16.2936 9.16663 15.8333 9.16663C15.3731 9.16663 15 9.53972 15 9.99996C15 10.4602 15.3731 10.8333 15.8333 10.8333Z" fill="#2D72DB" stroke="#2D72DB" stroke-width="2" stroke-linecap="round" stroke-linejoin="round"/>
<path d="M4.16536 10.8333C4.6256 10.8333 4.9987 10.4602 4.9987 9.99996C4.9987 9.53972 4.6256 9.16663 4.16536 9.16663C3.70513 9.16663 3.33203 9.53972 3.33203 9.99996C3.33203 10.4602 3.70513 10.8333 4.16536 10.8333Z" fill="#2D72DB" stroke="#2D72DB" stroke-width="2" stroke-linecap="round" stroke-linejoin="round"/>
</svg>
