<svg width="15" height="18" viewBox="0 0 15 18" fill="none" xmlns="http://www.w3.org/2000/svg">
<path d="M14.0747 5.26655C14.07 5.24458 14.07 5.22185 14.0747 5.19988C14.0706 5.18065 14.0706 5.16078 14.0747 5.14155V5.06655L14.0247 4.94155C14.0044 4.90744 13.9791 4.87655 13.9497 4.84988L13.8747 4.78322H13.833L10.5497 2.70822L7.44969 0.791551C7.37797 0.734659 7.2959 0.692209 7.20802 0.666551H7.14136C7.06687 0.654118 6.99084 0.654118 6.91636 0.666551H6.83302C6.73623 0.687961 6.64342 0.724523 6.55802 0.774884L0.333024 4.64988L0.258024 4.70822L0.183024 4.77488L0.0996906 4.83322L0.058024 4.88322L0.00802382 5.00822V5.08322V5.13322C-7.04397e-05 5.18848 -7.04397e-05 5.24462 0.00802382 5.29988V12.5749C0.00774042 12.7165 0.0435539 12.8559 0.112083 12.9798C0.180612 13.1037 0.279596 13.2082 0.399691 13.2832L6.64969 17.1499L6.77469 17.1999H6.84136C6.98234 17.2446 7.13371 17.2446 7.27469 17.1999H7.34136L7.46636 17.1499L13.6664 13.3415C13.7865 13.2665 13.8854 13.1621 13.954 13.0381C14.0225 12.9142 14.0583 12.7748 14.058 12.6332V5.35822C14.058 5.35822 14.0747 5.29988 14.0747 5.26655ZM6.99969 2.47488L8.48302 3.39155L3.82469 6.27488L2.33302 5.35822L6.99969 2.47488ZM6.16636 14.9749L1.58302 12.1749V6.84988L6.16636 9.68322V14.9749ZM6.99969 8.21655L5.40802 7.25822L10.0664 4.36655L11.6664 5.35822L6.99969 8.21655ZM12.4164 12.1499L7.83302 14.9999V9.68322L12.4164 6.84988V12.1499Z" fill="white"/>
</svg>
