<svg width="18" height="17" viewBox="0 0 18 17" fill="none" xmlns="http://www.w3.org/2000/svg">
<path d="M9.44238 15.2514C9.19453 15.1285 8.94668 15.004 8.69883 14.8812C8.10293 14.584 7.50879 14.2868 6.91289 13.9897C6.19043 13.6294 5.46621 13.2692 4.74375 12.9073C4.12148 12.5968 3.49746 12.2864 2.8752 11.9759C2.57285 11.8248 2.27227 11.6688 1.96641 11.5227C1.96289 11.521 1.95762 11.5177 1.9541 11.516C2.1 11.7551 2.24414 11.9942 2.39004 12.2332C2.39004 11.9842 2.39004 11.7368 2.39004 11.4878C2.39004 10.8951 2.39004 10.3008 2.39004 9.70814C2.39004 8.99095 2.39004 8.27376 2.39004 7.55491C2.39004 6.93236 2.39004 6.3098 2.39004 5.68558C2.39004 5.38343 2.39531 5.08128 2.39004 4.77913C2.39004 4.77581 2.39004 4.77083 2.39004 4.76751C1.94883 5.00657 1.50762 5.24564 1.06816 5.4847C1.31602 5.60921 1.56387 5.73206 1.81172 5.85657C2.40762 6.15374 3.00176 6.45091 3.59766 6.74808C4.32012 7.10833 5.04434 7.47025 5.7668 7.8305C6.38906 8.14095 7.01308 8.45306 7.63535 8.76351C7.93769 8.91458 8.23828 9.07064 8.54414 9.21673C8.54766 9.21839 8.55293 9.22171 8.55644 9.22337C8.41055 8.98431 8.26641 8.74525 8.12051 8.50618C8.12051 8.75355 8.12051 9.00257 8.12051 9.24993C8.12051 9.84261 8.12051 10.4353 8.12051 11.028C8.12051 11.7451 8.12051 12.4623 8.12051 13.1795C8.12051 13.8021 8.12051 14.4246 8.12051 15.0472C8.12051 15.3493 8.11699 15.6515 8.12051 15.9536C8.12051 15.957 8.12051 15.9619 8.12051 15.9653C8.12051 16.1778 8.21894 16.4019 8.37715 16.553C8.53008 16.6974 8.77969 16.8053 8.99941 16.7953C9.22617 16.7854 9.46172 16.7157 9.62168 16.553C9.77988 16.3903 9.87832 16.191 9.87832 15.9653C9.87832 15.7179 9.87832 15.4689 9.87832 15.2215C9.87832 14.6288 9.87832 14.0362 9.87832 13.4435C9.87832 12.7263 9.87832 12.0091 9.87832 11.2919C9.87832 10.6694 9.87832 10.0468 9.87832 9.42425C9.87832 9.1221 9.88184 8.81995 9.87832 8.5178C9.87832 8.51448 9.87832 8.5095 9.87832 8.50618C9.87832 8.22396 9.71308 7.92513 9.44238 7.789C9.19453 7.66448 8.94668 7.54163 8.69883 7.41712C8.10293 7.11995 7.50879 6.82279 6.91289 6.52562C6.19043 6.16536 5.46621 5.80345 4.74375 5.4432C4.12148 5.13275 3.49746 4.82064 2.8752 4.51019C2.57285 4.35911 2.27051 4.20472 1.96641 4.05696C1.96289 4.0553 1.95762 4.05198 1.9541 4.05032C1.67285 3.90921 1.34766 3.89593 1.06641 4.05032C0.799219 4.19808 0.630469 4.47366 0.630469 4.76751C0.630469 5.01654 0.630469 5.2639 0.630469 5.51292C0.630469 6.1056 0.630469 6.69993 0.630469 7.29261C0.630469 8.0098 0.630469 8.72698 0.630469 9.44583C0.630469 10.0684 0.630469 10.6909 0.630469 11.3152C0.630469 11.6173 0.626953 11.9195 0.630469 12.2216C0.630469 12.2249 0.630469 12.2299 0.630469 12.2332C0.630469 12.5155 0.795703 12.8159 1.06641 12.9504C1.31426 13.0733 1.56211 13.1978 1.80996 13.3206C2.40586 13.6178 3 13.915 3.5959 14.2121C4.31836 14.5724 5.04258 14.9326 5.76504 15.2946C6.3873 15.605 7.01133 15.9155 7.63359 16.2259C7.93594 16.377 8.23828 16.5314 8.54238 16.6791C8.5459 16.6808 8.55117 16.6841 8.55469 16.6858C8.76211 16.7887 9.00293 16.8285 9.23144 16.7688C9.43535 16.7157 9.65683 16.5662 9.75703 16.3869C9.86426 16.1944 9.91875 15.9603 9.84492 15.7478C9.77812 15.5469 9.64629 15.3527 9.44238 15.2514Z" fill="#2D68FE"/>
<path d="M16.0486 11.5166C15.8008 11.6395 15.5529 11.764 15.3051 11.8868C14.7092 12.184 14.115 12.4812 13.5191 12.7784C12.7967 13.1386 12.0725 13.4989 11.35 13.8608C10.7277 14.1712 10.1037 14.4817 9.48144 14.7921C9.1791 14.9432 8.87324 15.0893 8.57266 15.2453C8.56914 15.247 8.56387 15.2503 8.56035 15.252C9.00156 15.491 9.44277 15.7301 9.88223 15.9692C9.88223 15.7218 9.88223 15.4728 9.88223 15.2254C9.88223 14.6327 9.88223 14.0401 9.88223 13.4474C9.88223 12.7302 9.88223 12.013 9.88223 11.2958C9.88223 10.6733 9.88223 10.0507 9.88223 9.42816C9.88223 9.12601 9.8875 8.82386 9.88223 8.52171C9.88223 8.51839 9.88223 8.51341 9.88223 8.51009C9.73633 8.74915 9.59219 8.98821 9.44629 9.22728C9.69414 9.10277 9.94199 8.97991 10.1898 8.8554C10.7857 8.55823 11.3799 8.26107 11.9758 7.9639C12.6982 7.60364 13.4225 7.24173 14.1449 6.88148C14.7672 6.57103 15.3912 6.25892 16.0135 5.94847C16.3158 5.79739 16.6217 5.64964 16.9223 5.49525C16.9258 5.49359 16.9311 5.49027 16.9346 5.48861C16.4934 5.24954 16.0521 5.01048 15.6127 4.77142C15.6127 5.02044 15.6127 5.2678 15.6127 5.51683C15.6127 6.1095 15.6127 6.70384 15.6127 7.29652C15.6127 8.0137 15.6127 8.73089 15.6127 9.44974C15.6127 10.0723 15.6127 10.6949 15.6127 11.3191C15.6127 11.6212 15.6092 11.9234 15.6127 12.2255C15.6127 12.2288 15.6127 12.2338 15.6127 12.2371C15.6127 12.4496 15.7111 12.6738 15.8693 12.8248C16.0223 12.9693 16.2719 13.0772 16.4916 13.0672C16.7184 13.0573 16.9539 12.9875 17.1139 12.8248C17.2721 12.6621 17.3705 12.4629 17.3705 12.2371C17.3705 11.9881 17.3705 11.7408 17.3705 11.4917C17.3705 10.8991 17.3705 10.3047 17.3705 9.71204C17.3705 8.99486 17.3705 8.27767 17.3705 7.55882C17.3705 6.93626 17.3705 6.3137 17.3705 5.68948C17.3705 5.38734 17.374 5.08519 17.3705 4.78304C17.3705 4.77972 17.3705 4.77474 17.3705 4.77142C17.3705 4.47923 17.2018 4.20198 16.9346 4.05423C16.6551 3.89984 16.3281 3.91312 16.0469 4.05423C15.799 4.17874 15.5512 4.30159 15.3033 4.42611C14.7074 4.72327 14.1133 5.02044 13.5174 5.31761C12.7949 5.67786 12.0707 6.03978 11.3482 6.40003C10.726 6.71048 10.102 7.02259 9.47969 7.33304C9.17734 7.48411 8.86973 7.63021 8.5709 7.78626C8.56738 7.78792 8.56211 7.79124 8.55859 7.7929C8.28789 7.92738 8.12266 8.2262 8.12266 8.51009C8.12266 8.75745 8.12266 9.00648 8.12266 9.25384C8.12266 9.84652 8.12266 10.4392 8.12266 11.0319C8.12266 11.7491 8.12266 12.4662 8.12266 13.1834C8.12266 13.806 8.12266 14.4285 8.12266 15.0511C8.12266 15.3533 8.11914 15.6554 8.12266 15.9576C8.12266 15.9609 8.12266 15.9659 8.12266 15.9692C8.12266 16.2614 8.29141 16.5386 8.55859 16.6864C8.83809 16.8408 9.16504 16.8258 9.44629 16.6864C9.69414 16.5635 9.94199 16.439 10.1898 16.3161C10.7857 16.019 11.3799 15.7218 11.9758 15.4246C12.6982 15.0644 13.4225 14.7041 14.1449 14.3422C14.7672 14.0318 15.3912 13.7213 16.0135 13.4109C16.3158 13.2598 16.6234 13.1137 16.9223 12.9576C16.9258 12.956 16.9311 12.9527 16.9346 12.951C17.1244 12.8564 17.2826 12.6472 17.3389 12.4546C17.3969 12.2554 17.3705 11.9914 17.251 11.8155C16.9838 11.4237 16.4846 11.2992 16.0486 11.5166Z" fill="#2D68FE"/>
<path d="M16.0483 4.05287C15.8005 4.17738 15.5526 4.30023 15.3048 4.42474C14.7089 4.72191 14.1147 5.01908 13.5188 5.31624C12.7964 5.6765 12.0722 6.03841 11.3497 6.39867C10.7274 6.70912 10.1034 7.02122 9.48115 7.33167C9.17881 7.48275 8.87295 7.6305 8.57236 7.7849C8.56885 7.78656 8.56358 7.78988 8.56006 7.79154C8.85537 7.79154 9.15069 7.79154 9.44776 7.79154C9.1999 7.66703 8.95205 7.54417 8.7042 7.41966C8.1083 7.12249 7.51416 6.82533 6.91826 6.52816C6.1958 6.1679 5.47158 5.80599 4.74912 5.44574C4.12686 5.13529 3.50283 4.82318 2.88057 4.51273C2.57822 4.36165 2.27764 4.2056 1.97178 4.05951C1.96826 4.05785 1.96299 4.05453 1.95947 4.05287C1.95947 4.53099 1.95947 5.00911 1.95947 5.48558C2.20732 5.36273 2.45518 5.23822 2.70303 5.11537C3.29893 4.8182 3.89307 4.52103 4.48897 4.22386C5.21143 3.86361 5.93565 3.50169 6.65811 3.14144C7.28037 2.83099 7.9044 2.52054 8.52666 2.20843C8.829 2.05736 9.13486 1.9096 9.43545 1.75521C9.43897 1.75355 9.44424 1.75023 9.44776 1.74857C9.15244 1.74857 8.85713 1.74857 8.56006 1.74857C8.80791 1.87142 9.05576 1.99593 9.30361 2.11878C9.89951 2.41595 10.4937 2.71312 11.0896 3.01029C11.812 3.37054 12.5362 3.73245 13.2587 4.09271C13.881 4.40316 14.505 4.71361 15.1272 5.02572C15.4296 5.17679 15.7319 5.33119 16.036 5.47894C16.0396 5.4806 16.0448 5.48392 16.0483 5.48558C16.2558 5.58851 16.4966 5.62835 16.7251 5.56859C16.929 5.51546 17.1505 5.36605 17.2507 5.18675C17.3579 4.99417 17.4124 4.76009 17.3386 4.54759C17.27 4.34671 17.1382 4.15247 16.9343 4.0512C16.6829 3.92669 16.4315 3.80052 16.1802 3.67601C15.5825 3.37884 14.9866 3.08001 14.389 2.78285C13.663 2.42093 12.937 2.05902 12.211 1.6971C11.5905 1.38665 10.97 1.07786 10.3495 0.767415C10.0507 0.618001 9.75361 0.463607 9.45303 0.320833C9.27022 0.232845 9.08916 0.191341 8.8835 0.217904C8.76221 0.232845 8.65674 0.267708 8.546 0.322493C8.5126 0.339095 8.48096 0.355697 8.44756 0.370638C8.29287 0.447005 8.13818 0.525033 7.9835 0.6014C7.41924 0.883626 6.85322 1.16585 6.28897 1.44642C5.57002 1.80501 4.84932 2.16527 4.13037 2.52386C3.47998 2.84759 2.83135 3.17298 2.18096 3.49671C1.82588 3.67435 1.4708 3.85199 1.11572 4.02796C1.0999 4.03626 1.08232 4.04456 1.0665 4.05287C0.493457 4.33841 0.493457 5.20003 1.0665 5.48558C1.31787 5.61175 1.56924 5.73626 1.82061 5.86244C2.41826 6.16126 3.01416 6.45843 3.61182 6.75726C4.33779 7.11917 5.06377 7.48275 5.78975 7.84466C6.41025 8.15511 7.03076 8.4639 7.65127 8.77435C7.9501 8.92376 8.24717 9.07816 8.54776 9.22259C8.73057 9.31058 8.91162 9.35208 9.11729 9.32552C9.23857 9.31058 9.34404 9.27572 9.45479 9.22093C9.48818 9.20433 9.51983 9.18773 9.55322 9.17279C9.70791 9.09642 9.8626 9.01839 10.0173 8.94203C10.5815 8.6598 11.1476 8.37757 11.7118 8.09535C12.4308 7.73675 13.1515 7.3765 13.8704 7.0179C14.5208 6.69417 15.1694 6.36878 15.8198 6.04505C16.1749 5.86742 16.53 5.68978 16.8851 5.51214C16.9009 5.50384 16.9185 5.49554 16.9343 5.48724C17.1241 5.39261 17.2823 5.18343 17.3386 4.99085C17.3966 4.79163 17.3702 4.52767 17.2507 4.35169C16.9835 3.9599 16.4843 3.83538 16.0483 4.05287Z" fill="#2D68FE"/>
<path d="M5.6987 7.35815C5.94655 7.23364 6.19441 7.11079 6.44226 6.98628C7.03816 6.68911 7.6323 6.39194 8.2282 6.09477C8.95066 5.73452 9.67488 5.3726 10.3973 5.01235C11.0196 4.7019 11.6436 4.38979 12.2659 4.07934C12.5682 3.92827 12.8759 3.78217 13.1747 3.62612C13.1782 3.62446 13.1835 3.62114 13.187 3.61948C13.3768 3.52485 13.535 3.31567 13.5913 3.12309C13.6493 2.92387 13.6229 2.65991 13.5034 2.48393C13.2362 2.09213 12.737 1.96928 12.301 2.18676C12.0532 2.31128 11.8053 2.43413 11.5575 2.55864C10.9616 2.85581 10.3675 3.15297 9.77156 3.45014C9.04909 3.8104 8.32488 4.17231 7.60241 4.53256C6.98015 4.84301 6.35613 5.15512 5.73386 5.46557C5.43152 5.61665 5.1239 5.76274 4.82507 5.9188C4.82155 5.92046 4.81628 5.92378 4.81277 5.92544C4.62292 6.02006 4.46472 6.22924 4.40847 6.42182C4.35046 6.62104 4.37683 6.88501 4.49636 7.06098C4.76179 7.45112 5.26277 7.57563 5.6987 7.35815Z" fill="#2D68FE"/>
</svg>
