<svg width="16" height="14" viewBox="0 0 16 14" fill="none" xmlns="http://www.w3.org/2000/svg">
<path d="M1.5 14C1.0875 14 0.734375 13.8531 0.440625 13.5592C0.146875 13.2653 0 12.912 0 12.4993V1.99406C0 1.58135 0.146875 1.22917 0.440625 0.9375C0.734375 0.645833 1.0875 0.5 1.5 0.5H6.5C6.9125 0.5 7.26563 0.646876 7.55938 0.940626C7.85313 1.23438 8 1.5875 8 2V3.5H14.5C14.9125 3.5 15.2656 3.64697 15.5594 3.94092C15.8531 4.23486 16 4.58822 16 5.00098V12.5059C16 12.9186 15.8531 13.2708 15.5594 13.5625C15.2656 13.8542 14.9125 14 14.5 14H1.5ZM1.5 12.5H6.5V11H1.5V12.5ZM1.5 9.5H6.5V8H1.5V9.5ZM1.5 6.5H6.5V5H1.5V6.5ZM1.5 3.5H6.5V2H1.5V3.5ZM8 12.5H14.5V5H8V12.5ZM10.25 8C10.0375 8 9.85938 7.92855 9.71562 7.78565C9.57187 7.64273 9.5 7.46565 9.5 7.2544C9.5 7.04313 9.57187 6.86458 9.71562 6.71875C9.85938 6.57292 10.0375 6.5 10.25 6.5H12.25C12.4625 6.5 12.6406 6.57145 12.7844 6.71435C12.9281 6.85727 13 7.03435 13 7.2456C13 7.45687 12.9281 7.63542 12.7844 7.78125C12.6406 7.92708 12.4625 8 12.25 8H10.25ZM10.25 11C10.0375 11 9.85938 10.9285 9.71562 10.7856C9.57187 10.6427 9.5 10.4656 9.5 10.2544C9.5 10.0431 9.57187 9.86458 9.71562 9.71875C9.85938 9.57292 10.0375 9.5 10.25 9.5H12.25C12.4625 9.5 12.6406 9.57145 12.7844 9.71435C12.9281 9.85727 13 10.0344 13 10.2456C13 10.4569 12.9281 10.6354 12.7844 10.7812C12.6406 10.9271 12.4625 11 12.25 11H10.25Z" fill="white"/>
</svg>
