<svg width="18" height="15" viewBox="0 0 18 15" fill="none" xmlns="http://www.w3.org/2000/svg">
<path d="M14.7183 14.85L14.7189 14.85C15.6283 14.8464 16.3647 14.11 16.3683 13.2006V13.2V12.102C16.3683 11.8535 16.1668 11.652 15.9183 11.652C15.6698 11.652 15.4683 11.8535 15.4683 12.102V13.2C15.4683 13.6142 15.1325 13.95 14.7183 13.95H2.46631C2.0521 13.95 1.71631 13.6142 1.71631 13.2V3.60001C1.71631 3.18579 2.0521 2.85001 2.46631 2.85001H5.41231C5.66084 2.85001 5.86231 2.64853 5.86231 2.40001C5.86231 2.15148 5.66084 1.95001 5.41231 1.95001H2.46631C1.55504 1.95001 0.816309 2.68874 0.816309 3.60001V13.2C0.816309 14.1113 1.55504 14.85 2.46631 14.85L14.7183 14.85Z" fill="#45984D" stroke="#45984D" stroke-width="0.3"/>
<path d="M3.96602 4.468H15.518V6.668H13.866C12.651 6.668 11.666 7.65297 11.666 8.868V9.096C11.666 10.311 12.651 11.296 13.866 11.296H16.266C16.8183 11.296 17.266 10.8483 17.266 10.296V7.686C17.266 7.15116 16.8461 6.71438 16.318 6.68733V3.6L16.318 3.5996C16.3145 2.71762 15.6004 2.00351 14.7184 2H14.718C14.4971 2 14.318 2.17908 14.318 2.4C14.318 2.62091 14.4971 2.8 14.718 2.8C15.1598 2.8 15.518 3.15817 15.518 3.6V3.668H15.3234L13.5527 1.89729L12.245 0.589578C12.2449 0.5895 12.2449 0.589422 12.2448 0.589344C12.1697 0.513765 12.0676 0.471259 11.961 0.471259C11.8545 0.471259 11.7524 0.513744 11.6773 0.589287C11.6772 0.589384 11.6771 0.589481 11.677 0.589577L10.1639 2.10271L8.64459 0.589154L8.6446 0.589147L8.64362 0.588202C8.48615 0.435527 8.23588 0.435527 8.07841 0.588202L8.0784 0.588193L8.0773 0.589287L4.99859 3.668H3.96602C3.7451 3.668 3.56602 3.84708 3.56602 4.068C3.56602 4.28891 3.7451 4.468 3.96602 4.468ZM11.2544 2.14708L11.964 1.43742L12.6737 2.14708C12.2328 2.39247 11.6953 2.39247 11.2544 2.14708ZM11.7241 3.692L10.9224 2.87285C11.6572 3.25999 12.5579 3.21016 13.2499 2.72334L14.2186 3.692H11.7241ZM7.98592 3.66916L7.43658 3.68486L8.98802 2.13342L9.26597 2.41138L7.98592 3.66916ZM9.12082 3.668L9.85885 2.95247L10.6149 3.668H9.12082ZM6.13344 3.668L8.36402 1.43742L8.44459 1.518L6.29459 3.668H6.13344ZM16.466 10.296C16.466 10.4065 16.3765 10.496 16.266 10.496H13.866C13.4947 10.496 13.1386 10.3485 12.8761 10.0859C12.6135 9.8234 12.466 9.4673 12.466 9.096V8.868C12.466 8.0948 13.0928 7.468 13.866 7.468H16.266C16.3765 7.468 16.466 7.55754 16.466 7.668V10.296Z" fill="#45984D" stroke="#45984D" stroke-width="0.2"/>
<path d="M13.9145 9.60002C14.2458 9.60002 14.5145 9.3314 14.5145 9.00002C14.5145 8.66865 14.2458 8.40002 13.9145 8.40002C13.5831 8.40002 13.3145 8.66865 13.3145 9.00002C13.3145 9.3314 13.5831 9.60002 13.9145 9.60002Z" fill="#45984D"/>
</svg>
