<svg width="14" height="14" viewBox="0 0 14 14" fill="none" xmlns="http://www.w3.org/2000/svg">
<path fill-rule="evenodd" clip-rule="evenodd" d="M6.99998 0.333344C7.46022 0.333344 7.83331 0.70644 7.83331 1.16668V6.16668H12.8333C13.2936 6.16668 13.6666 6.53977 13.6666 7.00001C13.6666 7.46025 13.2936 7.83334 12.8333 7.83334H7.83331V12.8333C7.83331 13.2936 7.46022 13.6667 6.99998 13.6667C6.53974 13.6667 6.16665 13.2936 6.16665 12.8333V7.83334H1.16665C0.706409 7.83334 0.333313 7.46025 0.333313 7.00001C0.333313 6.53977 0.706409 6.16668 1.16665 6.16668H6.16665V1.16668C6.16665 0.70644 6.53974 0.333344 6.99998 0.333344Z" fill="white"/>
</svg>
