<svg width="22" height="22" viewBox="0 0 22 22" fill="none" xmlns="http://www.w3.org/2000/svg">
<path d="M10.9994 0.166748C8.85672 0.166748 6.76221 0.802112 4.98068 1.99249C3.19914 3.18288 1.81061 4.87481 0.990659 6.85434C0.17071 8.83388 -0.0438266 11.0121 0.37418 13.1136C0.792187 15.215 1.82396 17.1453 3.33903 18.6604C4.8541 20.1755 6.78442 21.2072 8.88588 21.6253C10.9873 22.0433 13.1656 21.8287 15.1451 21.0088C17.1246 20.1888 18.8166 18.8003 20.0069 17.0188C21.1973 15.2372 21.8327 13.1427 21.8327 11.0001C21.8327 9.57743 21.5525 8.1687 21.008 6.85434C20.4636 5.53998 19.6656 4.34573 18.6597 3.33976C17.6537 2.33379 16.4595 1.53581 15.1451 0.991386C13.8307 0.446961 12.422 0.166748 10.9994 0.166748ZM10.9994 19.6667C9.28525 19.6667 7.60964 19.1585 6.18441 18.2062C4.75919 17.2538 3.64836 15.9003 2.9924 14.3167C2.33644 12.733 2.16481 10.9905 2.49922 9.3093C2.83362 7.62813 3.65904 6.08388 4.8711 4.87182C6.08315 3.65977 7.6274 2.83435 9.30857 2.49994C10.9897 2.16554 12.7323 2.33717 14.3159 2.99313C15.8996 3.64908 17.2531 4.75991 18.2054 6.18514C19.1577 7.61036 19.666 9.28598 19.666 11.0001C19.666 13.2986 18.7529 15.503 17.1276 17.1283C15.5023 18.7537 13.2979 19.6667 10.9994 19.6667ZM15.3327 9.91675H12.0827V6.66675C12.0827 6.37943 11.9686 6.10388 11.7654 5.90072C11.5622 5.69755 11.2867 5.58341 10.9994 5.58341C10.712 5.58341 10.4365 5.69755 10.2333 5.90072C10.0302 6.10388 9.91602 6.37943 9.91602 6.66675V9.91675H6.66602C6.3787 9.91675 6.10315 10.0309 5.89999 10.234C5.69682 10.4372 5.58269 10.7128 5.58269 11.0001C5.58269 11.2874 5.69682 11.5629 5.89999 11.7661C6.10315 11.9693 6.3787 12.0834 6.66602 12.0834H9.91602V15.3334C9.91602 15.6207 10.0302 15.8963 10.2333 16.0994C10.4365 16.3026 10.712 16.4167 10.9994 16.4167C11.2867 16.4167 11.5622 16.3026 11.7654 16.0994C11.9686 15.8963 12.0827 15.6207 12.0827 15.3334V12.0834H15.3327C15.62 12.0834 15.8956 11.9693 16.0987 11.7661C16.3019 11.5629 16.416 11.2874 16.416 11.0001C16.416 10.7128 16.3019 10.4372 16.0987 10.234C15.8956 10.0309 15.62 9.91675 15.3327 9.91675Z" fill="#2D72DB"/>
</svg>
