<svg width="80" height="80" viewBox="0 0 80 80" fill="none" xmlns="http://www.w3.org/2000/svg">
<g clip-path="url(#clip0_5105_4091)">
<rect width="80" height="80" fill="white"/>
<path d="M78.5964 -4H1.40499C-1.02787 -4 -3 -1.36782 -3 1.87931V77.1207C-3 80.3678 -1.02787 83 1.40499 83H78.595C81.0279 83 83 80.3678 83 77.1207V1.87931C83 -1.36782 81.0279 -4 78.595 -4H78.5964Z" fill="#FCFCFE"/>
<path d="M75.9022 79.998C78.1653 79.998 80 77.5169 80 74.4565V3.54155C80 0.481086 78.1653 -2 75.9022 -2H40V80H75.9022V79.998Z" fill="#F5F5F5"/>
<path d="M38.3002 64.4988L28.098 52.4209C26.781 50.861 23.4867 50.861 22.1697 52.4209L-8.0443 76.5767C-9.36135 78.1366 -7.71504 80.0872 -5.07928 80.0872H40.4487V67.0447L38.2985 64.4988H38.3002Z" fill="#B7BDC6"/>
<path d="M88.8115 75.2078L70.2548 41.6264C68.4239 39.4579 63.8441 39.4579 62.0116 41.6264L47.8284 58.4171L40.4948 67.0993L40.4898 67.0926L40.4482 67.0444V80.0868H85.2345C88.898 80.0868 90.6441 77.3762 88.8115 75.2078Z" fill="#7B7F85"/>
<path d="M12 33.1379C12 36.5271 14.7486 39.2757 18.1379 39.2757V27C14.7486 27 12 29.7486 12 33.1379Z" fill="#B7BDC6"/>
<path d="M18.1387 27V39.2757C21.5279 39.2757 24.2765 36.5271 24.2765 33.1379C24.2765 29.7486 21.5279 27 18.1387 27Z" fill="#7B7F85"/>
</g>
<rect x="1" y="1" width="78" height="78" stroke="#C4C4C4" stroke-width="2"/>
<defs>
<clipPath id="clip0_5105_4091">
<rect width="80" height="80" fill="white"/>
</clipPath>
</defs>
</svg>
