<svg width="20" height="20" viewBox="0 0 20 20" fill="none" xmlns="http://www.w3.org/2000/svg">
<g clip-path="url(#clip0_108_9127)">
<path d="M19.8028 6.36984C19.3903 4.41609 17.8477 2.10109 15.4353 1.63531C14.8428 1.52703 14.2341 1.54565 13.6493 1.68993C13.0645 1.83421 12.517 2.10089 12.0428 2.47234C11.5037 2.8766 11.0664 3.40117 10.7659 4.00427C10.4653 4.60737 10.3097 5.27234 10.3115 5.94619C10.3134 6.62004 10.4725 7.28415 10.7764 7.88562C11.0802 8.48709 11.5203 9.00929 12.0616 9.41062C12.6181 9.84438 13.2736 10.1332 13.9693 10.2511C14.6649 10.369 15.379 10.3124 16.0474 10.0862C16.0798 10.0745 16.1146 10.071 16.1487 10.0761C16.1828 10.0812 16.2151 10.0946 16.2427 10.1153C16.2709 10.1365 16.2935 10.1645 16.3082 10.1966C16.323 10.2287 16.3296 10.2639 16.3274 10.2992C16.1322 14.618 12.2591 16.3064 11.4845 16.6011C11.3632 16.6472 11.2611 16.7332 11.1951 16.845C11.1292 16.9568 11.1032 17.0877 11.1216 17.2162C11.1216 17.2162 11.2203 17.9414 11.2205 17.9423C11.2338 18.0278 11.2659 18.1091 11.3146 18.1806C11.3632 18.252 11.4272 18.3117 11.5018 18.3553C11.5764 18.399 11.6598 18.4254 11.746 18.4328C11.8321 18.4402 11.9188 18.4283 11.9997 18.398C20.8383 14.8098 20.2069 8.28437 19.8028 6.36984ZM11.831 17.7917L11.7464 17.1702C12.6686 16.8116 16.7425 14.9669 16.9522 10.3275C16.9592 10.1907 16.9325 10.0542 16.8744 9.93015C16.8163 9.80608 16.7285 9.69821 16.6189 9.61603C16.5093 9.53385 16.3811 9.47989 16.2457 9.45889C16.1104 9.43789 15.9719 9.45051 15.8425 9.49562C15.2717 9.68772 14.6622 9.73512 14.0685 9.6336C13.4749 9.53207 12.9158 9.28478 12.4413 8.9139C11.9762 8.57078 11.598 8.12356 11.3368 7.60805C11.0756 7.09254 10.9387 6.52305 10.937 5.94514C10.9354 5.36724 11.069 4.79697 11.3273 4.27997C11.5855 3.76297 11.9612 3.3136 12.4242 2.96781C12.828 2.65019 13.2947 2.42189 13.7933 2.29799C14.2919 2.17409 14.8111 2.15741 15.3166 2.24906C17.4491 2.66094 18.8197 4.74078 19.191 6.49906C19.5686 8.28875 20.1508 14.3808 11.831 17.7917Z" fill="#B7BDC6"/>
<path d="M13.6392 3.43781C13.6009 3.45255 13.5659 3.4747 13.5361 3.50298C13.5064 3.53126 13.4825 3.56512 13.4658 3.60264C13.4492 3.64015 13.4401 3.68058 13.439 3.72161C13.438 3.76265 13.445 3.80349 13.4598 3.84179C13.4745 3.8801 13.4967 3.91513 13.5249 3.94489C13.5532 3.97464 13.5871 3.99853 13.6246 4.01519C13.6621 4.03185 13.7025 4.04096 13.7436 4.042C13.7846 4.04304 13.8255 4.03599 13.8638 4.02125C13.8755 4.01656 15.0272 3.58609 15.697 4.41469C15.7228 4.44662 15.7547 4.47317 15.7908 4.4928C15.8268 4.51243 15.8664 4.52477 15.9072 4.52911C15.948 4.53345 15.9893 4.5297 16.0287 4.51808C16.0681 4.50647 16.1048 4.48721 16.1367 4.4614C16.1687 4.4356 16.1952 4.40376 16.2148 4.3677C16.2345 4.33164 16.2468 4.29207 16.2512 4.25124C16.2555 4.21041 16.2517 4.16912 16.2401 4.12974C16.2285 4.09036 16.2093 4.05365 16.1835 4.02172C15.2305 2.84328 13.7038 3.41297 13.6392 3.43781ZM5.12283 1.63531C4.53032 1.52703 3.92158 1.54565 3.33679 1.68993C2.75201 1.83421 2.20447 2.10089 1.73033 2.47234C1.1912 2.8766 0.753937 3.40117 0.453364 4.00427C0.152791 4.60737 -0.00278177 5.27234 -0.000960759 5.94619C0.000860251 6.62004 0.160025 7.28415 0.463853 7.88562C0.767682 8.48709 1.20778 9.00929 1.74908 9.41062C2.3056 9.84438 2.9611 10.1332 3.65676 10.2511C4.35243 10.369 5.06649 10.3124 5.73486 10.0862C5.76727 10.0745 5.80209 10.071 5.83619 10.0761C5.87028 10.0812 5.90258 10.0946 5.93017 10.1153C5.95843 10.1365 5.98097 10.1645 5.99575 10.1966C6.01053 10.2287 6.0171 10.2639 6.01486 10.2992C5.8197 14.618 1.94658 16.3064 1.17205 16.6011C1.05068 16.6472 0.948611 16.7332 0.88264 16.845C0.816669 16.9568 0.790726 17.0877 0.809078 17.2162L0.907984 17.9423C0.921268 18.0278 0.953408 18.1091 1.00207 18.1806C1.05073 18.252 1.1147 18.3117 1.18931 18.3553C1.26393 18.399 1.34733 18.4254 1.43345 18.4328C1.51957 18.4402 1.60626 18.4283 1.6872 18.398C10.5258 14.8098 9.89439 8.28437 9.49033 6.36984C9.07783 4.41609 7.53517 2.10109 5.12283 1.63531ZM1.51845 17.7919L1.43361 17.1702C2.35595 16.8116 6.42986 14.9669 6.63955 10.3275C6.64657 10.1907 6.61985 10.0542 6.56173 9.93015C6.5036 9.80608 6.41587 9.69821 6.30625 9.61603C6.19662 9.53385 6.06847 9.47989 5.93309 9.45889C5.7977 9.43789 5.65922 9.45051 5.52986 9.49562C4.95907 9.68772 4.34952 9.73512 3.75589 9.6336C3.16226 9.53207 2.60312 9.28478 2.12861 8.9139C1.66359 8.57078 1.28535 8.12356 1.02415 7.60805C0.762945 7.09254 0.626039 6.52305 0.624383 5.94514C0.622728 5.36724 0.75637 4.79697 1.01461 4.27997C1.27286 3.76297 1.64853 3.3136 2.11158 2.96781C2.51539 2.65019 2.98201 2.42189 3.4806 2.29799C3.9792 2.17409 4.49841 2.15741 5.00392 2.24906C7.13642 2.66094 8.50705 4.74078 8.8783 6.49906C9.25595 8.28875 9.8383 14.3809 1.51845 17.7919Z" fill="#B7BDC6"/>
<path d="M3.32726 3.43784C3.28895 3.45258 3.25392 3.47473 3.22417 3.50301C3.19442 3.53129 3.17053 3.56515 3.15387 3.60266C3.1372 3.64018 3.12809 3.68061 3.12705 3.72164C3.12601 3.76268 3.13307 3.80351 3.14781 3.84182C3.16255 3.88013 3.1847 3.91516 3.21298 3.94491C3.24126 3.97466 3.27512 3.99855 3.31264 4.01522C3.35015 4.03188 3.39058 4.04099 3.43161 4.04203C3.47265 4.04307 3.51348 4.03602 3.55179 4.02128C3.56351 4.01659 4.71523 3.58612 5.38508 4.41471C5.4384 4.47738 5.51376 4.51718 5.59559 4.52587C5.67742 4.53457 5.75946 4.5115 5.82476 4.46143C5.8567 4.43564 5.88324 4.40382 5.90287 4.36777C5.9225 4.33172 5.93483 4.29216 5.93917 4.25134C5.94351 4.21053 5.93976 4.16926 5.92815 4.12989C5.91654 4.09052 5.89728 4.05383 5.87148 4.0219C4.91851 2.84331 3.39179 3.41299 3.32726 3.43784Z" fill="#B7BDC6"/>
</g>
<defs>
<clipPath id="clip0_108_9127">
<rect width="20" height="20" fill="white"/>
</clipPath>
</defs>
</svg>
