<svg width="21" height="20" viewBox="0 0 21 20" fill="none" xmlns="http://www.w3.org/2000/svg">
<mask id="mask0_896_9769" style="mask-type:alpha" maskUnits="userSpaceOnUse" x="0" y="0" width="21" height="20">
<rect x="0.5" width="20" height="20" fill="#D9D9D9"/>
</mask>
<g mask="url(#mask0_896_9769)">
<path d="M20.2987 8.85733L17.084 3.01067C17.076 2.996 17.0587 2.99067 17.0493 2.97733C16.9717 2.85262 16.8546 2.75752 16.7165 2.70724C16.5785 2.65697 16.4276 2.65442 16.288 2.7L11.1667 4.40533V2.66667C11.1667 2.48986 11.0964 2.32029 10.9714 2.19526C10.8464 2.07024 10.6768 2 10.5 2C10.3232 2 10.1536 2.07024 10.0286 2.19526C9.90357 2.32029 9.83333 2.48986 9.83333 2.66667V4.848L4.26667 6.7C4.22133 6.71467 4.18667 6.74533 4.14667 6.76933H4.14533C4.05603 6.8212 3.98021 6.89337 3.924 6.98C3.91733 6.98933 3.90533 6.99333 3.89867 7.004L0.588 12.8373C0.519716 12.9636 0.494883 13.1089 0.517333 13.2507C0.513333 13.2787 0.5 13.304 0.5 13.3333C0.5 14.7067 2.57333 16.6667 4.5 16.6667C6.42667 16.6667 8.5 14.7067 8.5 13.3333C8.49947 13.2504 8.48271 13.1685 8.45067 13.092L8.44933 13.084L8.44533 13.0707C8.43426 12.9889 8.40851 12.9099 8.36933 12.8373L5.45867 7.71067L9.83333 6.25467V17.3333C9.83333 17.5101 9.90357 17.6797 10.0286 17.8047C10.1536 17.9298 10.3232 18 10.5 18C10.6768 18 10.8464 17.9298 10.9714 17.8047C11.0964 17.6797 11.1667 17.5101 11.1667 17.3333V5.81067L15.0947 4.504L12.7013 8.85867C12.6375 8.92016 12.5868 8.99389 12.5522 9.07546C12.5176 9.15702 12.4999 9.24474 12.5 9.33333C12.5 10.7067 14.5733 12.6667 16.5 12.6667C18.4267 12.6667 20.5 10.7067 20.5 9.33333C20.5 9.24456 20.4822 9.15668 20.4476 9.07492C20.413 8.99316 20.3624 8.91917 20.2987 8.85733ZM2.21733 12.6667L4.47867 8.684L6.73867 12.6667H2.21733ZM14.3293 8.66667L16.5 4.71733L18.6707 8.66667H14.3293Z" fill="#FDAD15"/>
</g>
</svg>
