<svg width="12" height="14" viewBox="0 0 12 14" fill="none" xmlns="http://www.w3.org/2000/svg">
<path d="M2.5 1.1665L0.75 3.49984V11.6665C0.75 11.9759 0.872916 12.2727 1.09171 12.4915C1.3105 12.7103 1.60725 12.8332 1.91667 12.8332H10.0833C10.3928 12.8332 10.6895 12.7103 10.9083 12.4915C11.1271 12.2727 11.25 11.9759 11.25 11.6665V3.49984L9.5 1.1665H2.5Z" stroke="#2D72DB" stroke-linecap="round" stroke-linejoin="round"/>
<path d="M0.75 3.5H11.25" stroke="#2D72DB" stroke-linecap="round" stroke-linejoin="round"/>
<path d="M8.33317 5.8335C8.33317 6.45233 8.08734 7.04583 7.64975 7.48341C7.21217 7.921 6.61868 8.16683 5.99984 8.16683C5.381 8.16683 4.78751 7.921 4.34992 7.48341C3.91234 7.04583 3.6665 6.45233 3.6665 5.8335" stroke="#2D72DB" stroke-linecap="round" stroke-linejoin="round"/>
</svg>
