<svg width="22" height="21" viewBox="0 0 22 21" fill="none" xmlns="http://www.w3.org/2000/svg">
<path d="M21.6356 8.21115C21.7412 7.68329 21.3189 7.04987 20.7911 7.04987L14.7735 6.2053L12.0287 0.715621C11.9231 0.504479 11.8176 0.398908 11.6064 0.293337C11.0786 -0.0233749 10.4451 0.187767 10.1284 0.715621L7.48916 6.2053L1.47162 7.04987C1.15491 7.04987 0.943767 7.15544 0.838197 7.36658C0.415914 7.78886 0.415914 8.42229 0.838197 8.84457L5.1666 13.0674L4.11089 19.0849C4.11089 19.2961 4.11089 19.5072 4.21646 19.7184C4.53317 20.2462 5.1666 20.4574 5.69445 20.1406L11.0786 17.2902L16.4627 20.1406C16.5682 20.2462 16.7794 20.2462 16.9905 20.2462C17.0961 20.2462 17.0961 20.2462 17.2017 20.2462C17.7295 20.1406 18.1518 19.6128 18.0462 18.9794L16.9905 12.9618L21.3189 8.739C21.5301 8.63343 21.6356 8.42229 21.6356 8.21115Z" fill="#B7BDC6"/>
</svg>
