<svg width="17" height="16" viewBox="0 0 17 16" fill="none" xmlns="http://www.w3.org/2000/svg">
<path d="M16.5737 6.36764L16.5698 6.38706V6.40687C16.5698 6.5099 16.5194 6.60195 16.4288 6.64723L16.4009 6.66118L16.3786 6.68296L12.9408 10.0369L12.8652 10.1106L12.8835 10.2146L13.7217 14.9924C13.7217 14.9926 13.7217 14.9928 13.7218 14.9931C13.7856 15.3781 13.5358 15.6939 13.2269 15.7657H13.2266H13.2262H13.2258H13.2254H13.225H13.2246H13.2242H13.2238H13.2234H13.223H13.2226H13.2222H13.2219H13.2215H13.2211H13.2207H13.2203H13.2199H13.2195H13.2192H13.2188H13.2184H13.218H13.2177H13.2173H13.2169H13.2165H13.2162H13.2158H13.2154H13.2151H13.2147H13.2143H13.214H13.2136H13.2133H13.2129H13.2126H13.2122H13.2118H13.2115H13.2111H13.2108H13.2104H13.2101H13.2098H13.2094H13.2091H13.2087H13.2084H13.208H13.2077H13.2074H13.207H13.2067H13.2064H13.206H13.2057H13.2054H13.205H13.2047H13.2044H13.2041H13.2037H13.2034H13.2031H13.2028H13.2024H13.2021H13.2018H13.2015H13.2012H13.2009H13.2005H13.2002H13.1999H13.1996H13.1993H13.199H13.1987H13.1984H13.1981H13.1978H13.1974H13.1971H13.1968H13.1965H13.1962H13.1959H13.1956H13.1953H13.195H13.1947H13.1945H13.1942H13.1939H13.1936H13.1933H13.193H13.1927H13.1924H13.1921H13.1918H13.1915H13.1913H13.191H13.1907H13.1904H13.1901H13.1898H13.1896H13.1893H13.189H13.1887H13.1884H13.1882H13.1879H13.1876H13.1873H13.187H13.1868H13.1865H13.1862H13.1859H13.1857H13.1854H13.1851H13.1849H13.1846H13.1843H13.1841H13.1838H13.1835H13.1833H13.183H13.1827H13.1825H13.1822H13.1819H13.1817H13.1814H13.1811H13.1809H13.1806H13.1804H13.1801H13.1798H13.1796H13.1793H13.1791H13.1788H13.1785H13.1783H13.178H13.1778H13.1775H13.1773H13.177H13.1767H13.1765H13.1762H13.176H13.1757H13.1755H13.1752H13.175H13.1747H13.1745H13.1742H13.174H13.1737H13.1735H13.1732H13.173H13.1727H13.1725H13.1722H13.172H13.1717H13.1715H13.1712H13.171H13.1707H13.1705H13.1702H13.17H13.1697H13.1695H13.1692H13.169H13.1687H13.1685H13.1682H13.168H13.1677H13.1675H13.1673H13.167H13.1668H13.1665H13.1663H13.166H13.1658H13.1655H13.1653H13.165H13.1648H13.1645H13.1643H13.1641H13.1638H13.1636H13.1633H13.1631H13.1628H13.1626H13.1623H13.1621H13.1618H13.1616H13.1614H13.1611H13.1609H13.1606H13.1604H13.1601H13.1599H13.1596H13.1594H13.1591H13.1589H13.1586H13.1584H13.1581H13.1579H13.1576H13.1574H13.1571H13.1569H13.1566H13.1564H13.1562H13.1559H13.1557H13.1554H13.1551H13.1549H13.1546H13.1544H13.1541H13.1539H13.1536H13.1534H13.1531H13.1529H13.1526H13.1524H13.1521H13.1519H13.1516H13.1514H13.1511H13.1508H13.1506H13.1503H13.1501H13.1498H13.1496H13.1493H13.149H13.1488H13.1485H13.1483H13.148H13.1477H13.1475H13.1472H13.1469H13.1467H13.1464H13.1461H13.1459H13.1456H13.1454H13.1451H13.1448H13.1445H13.1443H13.144H13.1437H13.1435H13.1432H13.1429H13.1427H13.1424H13.1421H13.1418H13.1416H13.1413H13.141H13.1407H13.1405H13.1402H13.1399H13.1396H13.1393H13.1391H13.1388H13.1385H13.1382H13.1379H13.1376H13.1373H13.1371H13.1368H13.1365H13.1362H13.1359H13.1356H13.1353H13.135H13.1347H13.1344H13.1342H13.1339H13.1336H13.1333H13.133H13.1327H13.1324H13.1321H13.1318H13.1315H13.1312H13.1309H13.1305H13.1302H13.1299H13.1296H13.1293H13.129H13.1287H13.1284H13.1281H13.1278H13.1274H13.1271H13.1268H13.1265H13.1262H13.1258H13.1255H13.1252H13.1249H13.1245H13.1242H13.1239H13.1236H13.1232H13.1229H13.1226H13.1222H13.1219H13.1216H13.1212H13.1209H13.1206H13.1202H13.1199H13.1195H13.1192H13.1188H13.1185H13.1182H13.1178H13.1175H13.1171H13.1168H13.1164H13.116H13.1157H13.1153H13.115H13.1146H13.1143H13.1139H13.1135H13.1132H13.1128H13.1124H13.1121H13.1117H13.1113H13.1109H13.1106H13.1102H13.1098H13.1094H13.1091H13.1087H13.1083H13.1079H13.1075H13.1071H13.1067H13.1064H13.106H13.1056H13.1052H13.1048H13.1044H13.104H13.1036H13.1032H13.1028H13.1024H13.102H13.1016H13.1011H13.1007H13.1003H13.0999H13.0995H13.0991H13.0986H13.0982H13.0978H13.0974H13.097H13.0965H13.0961H13.0957H13.0952H13.0948H13.0944H13.0939H13.0935H13.093H13.0926H13.0922H13.0917H13.0913H13.0908H13.0904H13.0899H13.0894H13.089H13.0885H13.0881H13.0876H13.0871H13.0867H13.0862H13.0857H13.0853H13.0848H13.0843H13.0838H13.0834H13.0829H13.0824H13.0819H13.0814H13.0809H13.0805C12.9929 15.7657 12.9242 15.7653 12.8677 15.7572C12.8175 15.75 12.8026 15.7399 12.8018 15.7396C12.8018 15.7395 12.8018 15.7395 12.8018 15.7395L12.7814 15.7191L12.7548 15.7051L8.47848 13.4411L8.38491 13.3916L8.29133 13.4411L4.01503 15.7051L4.01489 15.7048L4.0057 15.7103C3.69792 15.895 3.3153 15.7849 3.11032 15.4503C3.05563 15.3369 3.05113 15.2211 3.05088 15.0607L3.88635 10.2985L3.90459 10.1945L3.82902 10.1208L0.392142 6.76771C0.135677 6.51044 0.135953 6.13451 0.392969 5.8775L0.415918 5.85455L0.430433 5.82552C0.46873 5.74892 0.548647 5.68453 0.754642 5.68453H0.768608L0.782439 5.68259L5.56184 5.01179L5.66789 4.99691L5.71429 4.90039L7.8063 0.549001C8.01139 0.214933 8.39368 0.105146 8.70125 0.289687L8.70784 0.293639L8.71471 0.297074C8.78649 0.332967 8.82945 0.363442 8.86187 0.395864C8.89429 0.428287 8.92477 0.471242 8.96066 0.543028L11.1407 4.90318L11.1877 4.99719L11.2918 5.01179L16.0712 5.68259L16.0851 5.68453H16.099C16.2255 5.68453 16.3595 5.76193 16.4597 5.90382C16.5596 6.04539 16.603 6.22099 16.5737 6.36764Z" fill="#FDAD15" stroke="#FDAD15" stroke-width="0.4"/>
</svg>
