<svg width="18" height="20" viewBox="0 0 18 20" fill="none" xmlns="http://www.w3.org/2000/svg">
<path d="M12.7074 3.293L9.70741 0.293C9.51988 0.105529 9.26557 0.000213623 9.00041 0.000213623C8.73524 0.000213623 8.48093 0.105529 8.29341 0.293L5.29341 3.293C5.11125 3.4816 5.01045 3.7342 5.01273 3.9964C5.01501 4.2586 5.12018 4.50941 5.30559 4.69482C5.491 4.88023 5.74181 4.9854 6.00401 4.98767C6.2662 4.98995 6.5188 4.88916 6.70741 4.707L8.00041 3.414V15C8.00041 15.2652 8.10576 15.5196 8.2933 15.7071C8.48084 15.8946 8.73519 16 9.00041 16C9.26562 16 9.51998 15.8946 9.70751 15.7071C9.89505 15.5196 10.0004 15.2652 10.0004 15V3.414L11.2934 4.707C11.482 4.88916 11.7346 4.98995 11.9968 4.98767C12.259 4.9854 12.5098 4.88023 12.6952 4.69482C12.8806 4.50941 12.9858 4.2586 12.9881 3.9964C12.9904 3.7342 12.8896 3.4816 12.7074 3.293Z" fill="#2D72DB"/>
<path d="M15 7H10V15C10 15.2652 9.89464 15.5196 9.70711 15.7071C9.51957 15.8946 9.26522 16 9 16C8.73478 16 8.48043 15.8946 8.29289 15.7071C8.10536 15.5196 8 15.2652 8 15V7H3C2.20459 7.00079 1.44199 7.31712 0.879557 7.87956C0.31712 8.44199 0.000794215 9.20459 0 10V17C0.000794215 17.7954 0.31712 18.558 0.879557 19.1204C1.44199 19.6829 2.20459 19.9992 3 20H15C15.7954 19.9992 16.558 19.6829 17.1204 19.1204C17.6829 18.558 17.9992 17.7954 18 17V10C17.9992 9.20459 17.6829 8.44199 17.1204 7.87956C16.558 7.31712 15.7954 7.00079 15 7Z" fill="#CADFFF"/>
</svg>
