<svg width="32" height="32" viewBox="0 0 32 32" fill="none" xmlns="http://www.w3.org/2000/svg">
<rect x="0.5" y="0.5" width="31" height="31" rx="15.5" fill="#FCFCFE"/>
<rect x="0.5" y="0.5" width="31" height="31" rx="15.5" stroke="#B7BDC6"/>
<path opacity="0.4" d="M16.0002 17.7604C18.9873 17.7604 21.4087 15.3686 21.4087 12.4183C21.4087 9.46792 18.9873 7.07617 16.0002 7.07617C13.0132 7.07617 10.5918 9.46792 10.5918 12.4183C10.5918 15.3686 13.0132 17.7604 16.0002 17.7604Z" fill="#7B7F85"/>
<path d="M24.6443 21.974C24.6492 21.898 24.6492 21.8218 24.6443 21.7457C24.6229 21.4648 24.5432 21.1904 24.4096 20.9379C23.8839 19.9105 22.4098 19.4452 21.1799 19.1817C20.3024 18.9991 19.4108 18.8816 18.5135 18.8305L17.5746 18.7603H17.1521H16.6264H15.3683H14.8425H14.42L13.4812 18.8305C12.5839 18.8816 11.6923 18.9991 10.8148 19.1817C9.58485 19.41 8.11082 19.8842 7.58506 20.9379C7.45147 21.1904 7.37174 21.4648 7.35034 21.7457C7.34546 21.8218 7.34546 21.898 7.35034 21.974C7.34583 22.0501 7.34583 22.1263 7.35034 22.2023C7.37588 22.4809 7.45877 22.7523 7.59445 23.0014C8.12021 24.0288 9.59424 24.4941 10.8242 24.7576C11.7033 24.9317 12.5942 25.049 13.4906 25.1088L14.4294 25.1703H14.6548H14.8519H17.1615H17.3587H17.584L18.5229 25.1088C19.4193 25.049 20.3102 24.9317 21.1893 24.7576C22.4192 24.5205 23.8932 24.0551 24.419 23.0014C24.5484 22.7444 24.6278 22.4678 24.6537 22.1848C24.6549 22.1144 24.6518 22.0441 24.6443 21.974Z" fill="#B7BDC6"/>
</svg>
