<svg width="20" height="20" viewBox="0 0 20 20" fill="none" xmlns="http://www.w3.org/2000/svg">
<g clip-path="url(#clip0_1434_9693)">
<path d="M9.77236 11.0444C10.2338 10.645 10.6039 10.151 10.8576 9.59591C11.1113 9.04082 11.2425 8.43765 11.2425 7.82735C11.2425 6.68054 10.787 5.5807 9.97605 4.76978C9.16514 3.95886 8.0653 3.5033 6.91849 3.5033C5.77168 3.5033 4.67183 3.95886 3.86092 4.76978C3.05 5.5807 2.59443 6.68054 2.59443 7.82735C2.59443 8.43765 2.72571 9.04082 2.97938 9.59591C3.23305 10.151 3.60317 10.645 4.06461 11.0444C2.854 11.5926 1.82688 12.4779 1.10608 13.5944C0.385269 14.7109 0.00127288 16.0113 0 17.3403C0 17.5696 0.0911137 17.7896 0.253297 17.9518C0.415481 18.114 0.635449 18.2051 0.864811 18.2051C1.09417 18.2051 1.31414 18.114 1.47632 17.9518C1.63851 17.7896 1.72962 17.5696 1.72962 17.3403C1.72962 15.9641 2.2763 14.6443 3.2494 13.6712C4.22251 12.6981 5.54231 12.1514 6.91849 12.1514C8.29466 12.1514 9.61446 12.6981 10.5876 13.6712C11.5607 14.6443 12.1073 15.9641 12.1073 17.3403C12.1073 17.5696 12.1985 17.7896 12.3606 17.9518C12.5228 18.114 12.7428 18.2051 12.9722 18.2051C13.2015 18.2051 13.4215 18.114 13.5837 17.9518C13.7459 17.7896 13.837 17.5696 13.837 17.3403C13.8357 16.0113 13.4517 14.7109 12.7309 13.5944C12.0101 12.4779 10.983 11.5926 9.77236 11.0444ZM6.91849 10.4218C6.40535 10.4218 5.90375 10.2696 5.4771 9.98454C5.05044 9.69946 4.71791 9.29427 4.52154 8.82019C4.32518 8.34612 4.2738 7.82447 4.3739 7.3212C4.47401 6.81793 4.72111 6.35565 5.08394 5.99281C5.44678 5.62997 5.90907 5.38288 6.41234 5.28277C6.91561 5.18266 7.43726 5.23404 7.91133 5.43041C8.3854 5.62677 8.7906 5.95931 9.07568 6.38596C9.36076 6.81261 9.51292 7.31422 9.51292 7.82735C9.51292 8.51543 9.23958 9.17534 8.75303 9.66189C8.26648 10.1484 7.60657 10.4218 6.91849 10.4218ZM15.3417 10.6985C15.8952 10.0753 16.2567 9.30536 16.3828 8.48144C16.5089 7.65752 16.3942 6.81472 16.0524 6.05449C15.7107 5.29425 15.1565 4.64899 14.4566 4.19637C13.7567 3.74376 12.9409 3.50307 12.1073 3.5033C11.878 3.5033 11.658 3.59441 11.4958 3.75659C11.3337 3.91878 11.2425 4.13874 11.2425 4.36811C11.2425 4.59747 11.3337 4.81744 11.4958 4.97962C11.658 5.1418 11.878 5.23292 12.1073 5.23292C12.7954 5.23292 13.4553 5.50626 13.9419 5.99281C14.4284 6.47936 14.7018 7.13926 14.7018 7.82735C14.7006 8.28158 14.5801 8.72753 14.3525 9.1206C14.1248 9.51368 13.7979 9.84009 13.4046 10.0672C13.2763 10.1412 13.1693 10.2468 13.0935 10.374C13.0178 10.5012 12.976 10.6457 12.9722 10.7936C12.9685 10.9405 13.0024 11.0858 13.0705 11.2159C13.1385 11.346 13.2386 11.4567 13.3613 11.5374L13.6986 11.7622L13.811 11.8228C14.8535 12.3172 15.7329 13.0992 16.3458 14.0767C16.9586 15.0543 17.2794 16.1866 17.2703 17.3403C17.2703 17.5696 17.3614 17.7896 17.5236 17.9518C17.6857 18.114 17.9057 18.2051 18.1351 18.2051C18.3644 18.2051 18.5844 18.114 18.7466 17.9518C18.9088 17.7896 18.9999 17.5696 18.9999 17.3403C19.007 16.0132 18.6746 14.7063 18.0343 13.5438C17.394 12.3813 16.4672 11.4019 15.3417 10.6985Z" fill="#2D68FE"/>
</g>
<defs>
<clipPath id="clip0_1434_9693">
<rect width="20" height="20" fill="white"/>
</clipPath>
</defs>
</svg>
