<svg width="20" height="14" viewBox="0 0 20 14" fill="none" xmlns="http://www.w3.org/2000/svg">
<path d="M0.832031 13.6654V11.332C0.832031 10.8598 0.953559 10.4258 1.19661 10.0299C1.43967 9.63411 1.76259 9.33203 2.16536 9.1237C3.02648 8.69314 3.90148 8.37022 4.79036 8.15495C5.67925 7.93967 6.58203 7.83203 7.4987 7.83203C8.41536 7.83203 9.31814 7.93967 10.207 8.15495C11.0959 8.37022 11.9709 8.69314 12.832 9.1237C13.2348 9.33203 13.5577 9.63411 13.8008 10.0299C14.0438 10.4258 14.1654 10.8598 14.1654 11.332V13.6654H0.832031ZM15.832 13.6654V11.1654C15.832 10.5543 15.6619 9.96745 15.3216 9.40495C14.9813 8.84245 14.4987 8.35981 13.8737 7.95703C14.582 8.04036 15.2487 8.18273 15.8737 8.38411C16.4987 8.5855 17.082 8.83203 17.6237 9.1237C18.1237 9.40148 18.5056 9.7105 18.7695 10.0508C19.0334 10.3911 19.1654 10.7626 19.1654 11.1654V13.6654H15.832ZM7.4987 6.9987C6.58203 6.9987 5.79731 6.67231 5.14453 6.01953C4.49175 5.36675 4.16536 4.58203 4.16536 3.66536C4.16536 2.7487 4.49175 1.96398 5.14453 1.3112C5.79731 0.65842 6.58203 0.332031 7.4987 0.332031C8.41536 0.332031 9.20009 0.65842 9.85287 1.3112C10.5056 1.96398 10.832 2.7487 10.832 3.66536C10.832 4.58203 10.5056 5.36675 9.85287 6.01953C9.20009 6.67231 8.41536 6.9987 7.4987 6.9987ZM15.832 3.66536C15.832 4.58203 15.5056 5.36675 14.8529 6.01953C14.2001 6.67231 13.4154 6.9987 12.4987 6.9987C12.3459 6.9987 12.1515 6.98134 11.9154 6.94661C11.6793 6.91189 11.4848 6.8737 11.332 6.83203C11.707 6.38759 11.9952 5.89453 12.1966 5.35286C12.398 4.8112 12.4987 4.2487 12.4987 3.66536C12.4987 3.08203 12.398 2.51953 12.1966 1.97786C11.9952 1.4362 11.707 0.943142 11.332 0.498698C11.5265 0.429253 11.7209 0.384115 11.9154 0.363281C12.1098 0.342448 12.3043 0.332031 12.4987 0.332031C13.4154 0.332031 14.2001 0.65842 14.8529 1.3112C15.5056 1.96398 15.832 2.7487 15.832 3.66536ZM2.4987 11.9987H12.4987V11.332C12.4987 11.1793 12.4605 11.0404 12.3841 10.9154C12.3077 10.7904 12.207 10.6931 12.082 10.6237C11.332 10.2487 10.5751 9.96745 9.8112 9.77995C9.04731 9.59245 8.27648 9.4987 7.4987 9.4987C6.72092 9.4987 5.95009 9.59245 5.1862 9.77995C4.42231 9.96745 3.66536 10.2487 2.91536 10.6237C2.79036 10.6931 2.68967 10.7904 2.61328 10.9154C2.53689 11.0404 2.4987 11.1793 2.4987 11.332V11.9987ZM7.4987 5.33203C7.95703 5.33203 8.34939 5.16884 8.67578 4.84245C9.00217 4.51606 9.16537 4.1237 9.16537 3.66536C9.16537 3.20703 9.00217 2.81467 8.67578 2.48828C8.34939 2.16189 7.95703 1.9987 7.4987 1.9987C7.04036 1.9987 6.648 2.16189 6.32161 2.48828C5.99523 2.81467 5.83203 3.20703 5.83203 3.66536C5.83203 4.1237 5.99523 4.51606 6.32161 4.84245C6.648 5.16884 7.04036 5.33203 7.4987 5.33203Z" fill="#FDAD15"/>
</svg>
